<svg width="100" height="100" viewBox="0 0 100 100" fill="none" xmlns="http://www.w3.org/2000/svg">
<g filter="url(#filter0_ii_300_130)">
<circle cx="50" cy="50" r="50" fill="url(#paint0_linear_300_130)"/>
</g>
<path d="M65.75 64.875C64.3027 64.875 63.125 66.0527 63.125 67.5C63.125 68.9472 64.3027 70.125 65.75 70.125C67.1972 70.125 68.375 68.9472 68.375 67.5C68.375 66.0527 67.1972 64.875 65.75 64.875ZM65.75 68.375C65.267 68.375 64.875 67.983 64.875 67.5C64.875 67.017 65.267 66.625 65.75 66.625C66.233 66.625 66.625 67.017 66.625 67.5C66.625 67.983 66.233 68.375 65.75 68.375Z" fill="white"/>
<path d="M37.75 64.875C36.3027 64.875 35.125 66.0527 35.125 67.5C35.125 68.9472 36.3027 70.125 37.75 70.125C39.1972 70.125 40.375 68.9472 40.375 67.5C40.375 66.0527 39.1972 64.875 37.75 64.875ZM37.75 68.375C37.267 68.375 36.875 67.983 36.875 67.5C36.875 67.017 37.267 66.625 37.75 66.625C38.233 66.625 38.625 67.017 38.625 67.5C38.625 67.983 38.233 68.375 37.75 68.375Z" fill="white"/>
<path d="M74.7065 53.5L73.5392 52.9164L72.3501 45.7816C71.9975 43.6624 70.1819 42.125 68.0346 42.125H58.75C57.3264 42.125 56.0716 42.8189 55.2728 43.875H52.625V35.125H47.375V26.375H35.125V35.125H29.875V43.875H24.625V52.625C23.6599 52.625 22.875 53.4099 22.875 54.375V56.125C22.875 57.0901 23.6599 57.875 24.625 57.875V65.75C24.625 67.1973 25.8027 68.375 27.25 68.375H31.695C32.122 71.3377 34.6709 73.625 37.75 73.625C40.8291 73.625 43.378 71.3377 43.805 68.375H59.695C60.122 71.3377 62.6709 73.625 65.75 73.625C68.8291 73.625 71.378 71.3377 71.805 68.375H74.5C75.9473 68.375 77.125 67.1973 77.125 65.75V57.413C77.125 55.7453 76.1984 54.2472 74.7065 53.5ZM75.375 61.7093L73.625 60.8343V59.625H75.375V61.7093ZM40.375 45.625H42.125V47.375H40.375V45.625ZM43.875 49.125V45.625H45.625V52.625H36.875V45.625H38.625V49.125H43.875ZM54.375 52.625H47.375V45.625H49.125V49.125H54.375V52.625ZM54.375 46.5V47.375H50.875V45.625H54.4634C54.4056 45.9076 54.375 46.2008 54.375 46.5ZM50.875 43.875H47.375H45.625H42.125V36.875H43.875V40.375H49.125V36.875H50.875V43.875ZM45.625 36.875H47.375V38.625H45.625V36.875ZM40.375 28.125H42.125V29.875H40.375V28.125ZM36.875 28.125H38.625V31.625H43.875V28.125H45.625V35.125H42.125H40.375H36.875V28.125ZM35.125 36.875H36.875V38.625H35.125V36.875ZM31.625 36.875H33.375V40.375H38.625V36.875H40.375V43.875H36.875H35.125H31.625V36.875ZM29.875 45.625H31.625V47.375H29.875V45.625ZM26.375 45.625H28.125V49.125H33.375V45.625H35.125V52.625H26.375V45.625ZM24.625 54.375H54.375V56.125H24.625V54.375ZM26.375 61.375H29.6291L29.1916 63.125H26.375V61.375ZM26.375 65.75V64.875H30.5584L31.8709 59.625H26.375V57.875H54.375V66.625H43.805C43.378 63.6623 40.8291 61.375 37.75 61.375C34.6709 61.375 32.122 63.6623 31.695 66.625H27.25C26.767 66.625 26.375 66.233 26.375 65.75ZM37.75 71.875C35.3376 71.875 33.375 69.9124 33.375 67.5C33.375 65.0876 35.3376 63.125 37.75 63.125C40.1624 63.125 42.125 65.0876 42.125 67.5C42.125 69.9124 40.1624 71.875 37.75 71.875ZM64.875 52.625H68.375V54.375H67.5H66.625C65.6599 54.375 64.875 53.5901 64.875 52.625ZM64.875 50.875C63.9099 50.875 63.125 51.6599 63.125 52.625C63.125 53.2655 63.3105 53.8579 63.6115 54.375H59.625V47.375H67.5403L68.1956 50.875H64.875ZM59.625 56.125H66.625H67.5H68.375V61.9744C67.5779 61.5946 66.6898 61.375 65.75 61.375C62.6709 61.375 60.122 63.6623 59.695 66.625H59.625V56.125ZM65.75 71.875C63.3376 71.875 61.375 69.9124 61.375 67.5C61.375 65.0876 63.3376 63.125 65.75 63.125C68.1624 63.125 70.125 65.0876 70.125 67.5C70.125 69.9124 68.1624 71.875 65.75 71.875ZM74.5 66.625H71.805C71.616 65.3107 71.0122 64.1295 70.125 63.2221V51.75L69.2614 47.0548C69.1074 46.227 68.3838 45.625 67.5411 45.625H59.625C58.6599 45.625 57.875 46.4099 57.875 47.375V66.625H56.125V46.5C56.125 45.0527 57.3027 43.875 58.75 43.875H68.0346C69.3235 43.875 70.412 44.7981 70.6237 46.0686L71.9599 54.0836L73.9234 55.0654C74.8185 55.5134 75.375 56.4129 75.375 57.413V57.875H71.875V61.9157L75.375 63.6657V65.75C75.375 66.233 74.983 66.625 74.5 66.625Z" fill="white"/>
<defs>
<filter id="filter0_ii_300_130" x="-14" y="0" width="130" height="101" filterUnits="userSpaceOnUse" color-interpolation-filters="sRGB">
<feFlood flood-opacity="0" result="BackgroundImageFix"/>
<feBlend mode="normal" in="SourceGraphic" in2="BackgroundImageFix" result="shape"/>
<feColorMatrix in="SourceAlpha" type="matrix" values="0 0 0 0 0 0 0 0 0 0 0 0 0 0 0 0 0 0 127 0" result="hardAlpha"/>
<feOffset dx="-14"/>
<feGaussianBlur stdDeviation="8.5"/>
<feComposite in2="hardAlpha" operator="arithmetic" k2="-1" k3="1"/>
<feColorMatrix type="matrix" values="0 0 0 0 0.104167 0 0 0 0 0.066116 0 0 0 0 0.030816 0 0 0 0.12 0"/>
<feBlend mode="normal" in2="shape" result="effect1_innerShadow_300_130"/>
<feColorMatrix in="SourceAlpha" type="matrix" values="0 0 0 0 0 0 0 0 0 0 0 0 0 0 0 0 0 0 127 0" result="hardAlpha"/>
<feMorphology radius="2" operator="erode" in="SourceAlpha" result="effect2_innerShadow_300_130"/>
<feOffset dx="16" dy="1"/>
<feGaussianBlur stdDeviation="15.5"/>
<feComposite in2="hardAlpha" operator="arithmetic" k2="-1" k3="1"/>
<feColorMatrix type="matrix" values="0 0 0 0 1 0 0 0 0 1 0 0 0 0 1 0 0 0 0.4 0"/>
<feBlend mode="normal" in2="effect1_innerShadow_300_130" result="effect2_innerShadow_300_130"/>
</filter>
<linearGradient id="paint0_linear_300_130" x1="5.78641e-07" y1="18.75" x2="103.376" y2="26.0587" gradientUnits="userSpaceOnUse">
<stop stop-color="#30C917"/>
<stop offset="1" stop-color="#279A13"/>
</linearGradient>
</defs>
</svg>
