<svg width="100" height="100" viewBox="0 0 100 100" fill="none" xmlns="http://www.w3.org/2000/svg">
<g filter="url(#filter0_ii_300_108)">
<circle cx="50" cy="50" r="50" fill="url(#paint0_linear_300_108)"/>
</g>
<path d="M60.9149 74.5012H64.0001C64.2322 74.5012 64.4547 74.409 64.6188 74.2449C64.7829 74.0808 64.8751 73.8582 64.8751 73.6262V53.5012C64.8751 53.2691 64.7829 53.0466 64.6188 52.8825C64.4547 52.7184 64.2322 52.6262 64.0001 52.6262H62.5336C61.9901 51.5752 61.359 50.5718 60.6471 49.6267C64.4872 45.5675 67.3327 40.6723 68.9596 35.3266L72.7501 36.4107C73.0495 36.495 73.3659 36.498 73.6668 36.4193C73.9677 36.3407 74.2422 36.1833 74.4621 35.9634C74.682 35.7434 74.8393 35.4688 74.9178 35.1679C74.9963 34.8669 74.9932 34.5505 74.9087 34.2512L72.17 24.6638C72.0943 24.3989 71.9572 24.1557 71.7697 23.9538C71.5823 23.7519 71.3499 23.5971 71.0913 23.5021C70.8328 23.407 70.5554 23.3743 70.2819 23.4066C70.0083 23.439 69.7462 23.5354 69.517 23.6882L61.2692 29.1867C61.0142 29.3567 60.8083 29.5908 60.6721 29.8654C60.5359 30.14 60.4743 30.4456 60.4933 30.7515C60.5124 31.0575 60.6115 31.353 60.7806 31.6087C60.9498 31.8643 61.1832 32.071 61.4574 32.2081L64.7456 33.8522C63.6081 38.2368 59.6496 42.7037 55.2527 44.6147C53.6627 43.5823 51.9394 42.7713 50.1305 42.2041C50.4107 41.9181 50.6213 41.5715 50.7458 41.191C50.8703 40.8105 50.9054 40.4064 50.8485 40.0101C50.7915 39.6139 50.644 39.2361 50.4173 38.9061C50.1907 38.576 49.891 38.3027 49.5416 38.1073L51.4474 34.6791C51.464 34.6493 51.4789 34.6186 51.492 34.5872C51.7145 34.0086 51.7972 33.3858 51.7335 32.7692C51.6698 32.1527 51.4614 31.5599 51.1254 31.0391C50.9151 30.6941 50.622 30.407 50.2727 30.2039C49.9234 30.0009 49.529 29.8882 49.1251 29.8762H38.6251C38.2215 29.8879 37.8272 30.0002 37.4779 30.2028C37.1287 30.4054 36.8355 30.6919 36.6249 31.0364C36.2888 31.5572 36.0804 32.15 36.0167 32.7666C35.953 33.3831 36.0358 34.006 36.2582 34.5845C36.2713 34.616 36.2862 34.6467 36.3029 34.6764L38.2086 38.1012C37.8591 38.2966 37.5594 38.5701 37.3327 38.9002C37.1061 39.2303 36.9585 39.6082 36.9017 40.0046C36.8448 40.401 36.8801 40.8052 37.0047 41.1857C37.1294 41.5663 37.3402 41.9129 37.6206 42.1988C34.357 43.2167 31.3912 45.0159 28.9809 47.4402C26.5705 49.8646 24.7885 52.8407 23.7896 56.1102C22.7906 59.3797 22.605 62.8436 23.2488 66.201C23.8926 69.5585 25.3463 72.7081 27.4837 75.3762H23.7501V77.1262H76.2501V75.3762H60.2604C60.4887 75.0918 60.7022 74.7969 60.9149 74.5012ZM63.1251 72.7512H61.3751V54.3762H63.1251V72.7512ZM66.6085 33.5433C66.6451 33.3556 66.6193 33.1611 66.5349 32.9895C66.4505 32.8179 66.3123 32.6786 66.1412 32.5931L62.2396 30.6427L70.4865 25.1442L73.2252 34.7272L68.6149 33.4094C68.3937 33.3464 68.1567 33.3729 67.9549 33.4832C67.7532 33.5936 67.603 33.7789 67.5369 33.9992C65.1149 42.0492 60.6646 48.4288 55.0077 51.9655L51.163 54.3674C51.1373 54.3848 51.1072 54.3945 51.0762 54.3954C51.0453 54.3964 51.0147 54.3885 50.988 54.3727C50.9526 54.3538 50.9232 54.3253 50.9032 54.2905C50.8833 54.2557 50.8735 54.2159 50.8751 54.1758V48.1637C50.874 48.1188 50.8867 48.0746 50.9114 48.037C50.9361 47.9995 50.9717 47.9704 51.0134 47.9537L54.8389 46.6499C60.4634 44.7337 65.5226 39.0987 66.6085 33.5433ZM57.0001 60.5012V72.7512H55.2501V60.5012H57.0001ZM53.5001 59.6262C53.4982 61.0047 53.1998 62.3667 52.6251 63.6197V63.1262C52.6251 62.8941 52.5329 62.6715 52.3688 62.5075C52.2047 62.3434 51.9822 62.2512 51.7501 62.2512H48.2501C48.018 62.2512 47.7955 62.3434 47.6314 62.5075C47.4673 62.6715 47.3751 62.8941 47.3751 63.1262V68.5809C45.8381 69.1843 44.1717 69.3821 42.5362 69.1554C40.9007 68.9286 39.351 68.285 38.0361 67.2862C36.7212 66.2875 35.6854 64.9672 35.0282 63.4525C34.371 61.9377 34.1145 60.2794 34.2834 58.6368C34.4524 56.9943 35.041 55.4229 35.9928 54.0736C36.9445 52.7243 38.2274 51.6426 39.7181 50.9324C41.2087 50.2222 42.857 49.9074 44.5044 50.0183C46.1519 50.1292 47.7431 50.6621 49.1251 51.5657V54.1758C49.1241 54.5277 49.2172 54.8735 49.395 55.1772C49.5727 55.4809 49.8285 55.7316 50.1357 55.903C50.4359 56.072 50.7763 56.1564 51.1207 56.1473C51.465 56.1382 51.8005 56.036 52.0914 55.8514L52.5761 55.5478C53.1794 56.8231 53.4949 58.2154 53.5001 59.6262ZM50.8751 64.0012V72.7512H49.1251V64.0012H50.8751ZM38.0791 32.0103C38.1346 31.9087 38.2127 31.8212 38.3074 31.7546C38.402 31.688 38.5107 31.6441 38.6251 31.6262H49.1251C49.2395 31.6441 49.3482 31.688 49.4429 31.7546C49.5375 31.8212 49.6156 31.9087 49.6711 32.0103C49.844 32.2854 49.9534 32.5956 49.9914 32.9183C50.0293 33.241 49.995 33.5681 49.8907 33.8758L47.7356 37.7512H40.0146L37.8595 33.8758C37.7553 33.5681 37.7209 33.241 37.7589 32.9183C37.7969 32.5956 37.9063 32.2854 38.0791 32.0103ZM39.5001 41.2512C39.268 41.2512 39.0455 41.159 38.8814 40.9949C38.7173 40.8308 38.6251 40.6082 38.6251 40.3762C38.6251 40.1441 38.7173 39.9216 38.8814 39.7575C39.0455 39.5934 39.268 39.5012 39.5001 39.5012H48.2501C48.4822 39.5012 48.7047 39.5934 48.8688 39.7575C49.0329 39.9216 49.1251 40.1441 49.1251 40.3762C49.1251 40.6082 49.0329 40.8308 48.8688 40.9949C48.7047 41.159 48.4822 41.2512 48.2501 41.2512H39.5001ZM24.6251 62.2512C24.6233 58.9068 25.4932 55.6198 27.1492 52.7142C28.8051 49.8086 31.1898 47.3849 34.0682 45.682C36.9465 43.9791 40.219 43.0559 43.5629 43.0035C46.9068 42.951 50.2067 43.7711 53.137 45.3829L50.4499 46.2991C50.0619 46.4325 49.7255 46.6841 49.4879 47.0185C49.2503 47.353 49.1235 47.7534 49.1251 48.1637V49.5374C47.4626 48.6721 45.6121 48.2309 43.738 48.2532C41.8639 48.2755 40.0243 48.7605 38.3829 49.6651C36.7414 50.5697 35.3489 51.8659 34.3292 53.4385C33.3094 55.011 32.6941 56.8111 32.5378 58.6788C32.3815 60.5465 32.6891 62.4239 33.4333 64.1441C34.1775 65.8642 35.3352 67.3738 36.8035 68.5387C38.2718 69.7035 40.0051 70.4875 41.8495 70.8209C43.6938 71.1544 45.5919 71.0269 47.3751 70.4499V73.6262C47.3751 73.8582 47.4673 74.0808 47.6314 74.2449C47.7955 74.409 48.018 74.5012 48.2501 74.5012H51.7501C51.9822 74.5012 52.2047 74.409 52.3688 74.2449C52.5329 74.0808 52.6251 73.8582 52.6251 73.6262V66.8791C52.9428 66.4973 53.2351 66.0951 53.5001 65.675V73.6262C53.5001 73.8582 53.5923 74.0808 53.7564 74.2449C53.9205 74.409 54.143 74.5012 54.3751 74.5012H57.8751C58.1072 74.5012 58.3297 74.409 58.4938 74.2449C58.6579 74.0808 58.7501 73.8582 58.7501 73.6262V59.6262C58.7501 59.3941 58.6579 59.1715 58.4938 59.0075C58.3297 58.8434 58.1072 58.7512 57.8751 58.7512H55.2134C55.1028 57.3105 54.7189 55.9041 54.082 54.6072L55.9352 53.4487C57.1551 52.6805 58.3064 51.8087 59.3766 50.8429C59.7975 51.4155 60.1866 52.0108 60.5421 52.6262H60.5001C60.268 52.6262 60.0455 52.7184 59.8814 52.8825C59.7173 53.0466 59.6251 53.2691 59.6251 53.5012V73.305C59.112 74.0334 58.5492 74.7254 57.9407 75.3762H29.8121C26.4741 71.8218 24.6188 67.1272 24.6251 62.2512Z" fill="white"/>
<mask id="path-3-outside-1_300_108" maskUnits="userSpaceOnUse" x="35" y="55" width="17" height="13" fill="black">
<rect fill="white" x="35" y="55" width="17" height="13"/>
<path d="M47.3993 57.4252C47.1819 57.4272 46.9652 57.4447 46.7508 57.4778C46.5364 57.5109 46.3252 57.5615 46.1191 57.6257C45.7072 57.7557 45.3149 57.945 44.9667 58.1929C44.6165 58.4391 44.3072 58.7344 44.0032 59.0325C43.6999 59.3316 43.3971 59.6197 43.067 59.8953C43.7334 60.2834 44.486 60.5071 45.2594 60.5879C46.0322 60.671 46.8228 60.5907 47.5615 60.3603C48.3005 60.1301 48.9876 59.7471 49.5606 59.2436C50.1335 58.7404 50.6056 58.1746 50.898 57.4838C50.3692 57.008 49.7397 56.637 49.0585 56.4031C48.3773 56.1683 47.6449 56.0769 46.9245 56.1246C46.5639 56.1489 46.2072 56.2143 45.8605 56.312C45.5145 56.4119 45.1794 56.5465 44.8632 56.7147C44.7064 56.8001 44.553 56.8915 44.4065 56.9937C44.2603 57.0959 44.1177 57.203 43.9807 57.3176C43.7058 57.5452 43.4472 57.7922 43.1913 58.0427C42.9351 58.2929 42.6806 58.5468 42.4132 58.7895C42.2794 58.9109 42.1427 59.0297 42.0004 59.1425C41.8583 59.2559 41.7118 59.3644 41.5576 59.4632C41.5194 59.4883 41.4811 59.5135 41.4414 59.5363C41.4019 59.5597 41.3631 59.584 41.323 59.6063L41.2018 59.672C41.1617 59.6945 41.1193 59.7128 41.0781 59.7334L41.0158 59.7637C40.9951 59.7734 40.9734 59.7819 40.9524 59.7911C40.9097 59.8088 40.8678 59.8279 40.8248 59.8448C40.738 59.8768 40.6517 59.9102 40.5627 59.9356C40.4749 59.965 40.3839 59.9847 40.2943 60.0081L40.1576 60.035L40.0891 60.0481L40.02 60.0581C39.8361 60.0847 39.6502 60.0969 39.4643 60.0952C39.0927 60.0918 38.7223 60.033 38.3688 59.9236C38.1921 59.8688 38.0198 59.8011 37.8537 59.7214C37.688 59.6409 37.5281 59.5492 37.376 59.4472C36.7692 59.036 36.2882 58.4545 36.0154 57.7894L36 57.7514L36.0341 57.7277C36.5439 57.3727 37.1568 57.1679 37.7793 57.1148C38.4026 57.0617 39.0381 57.1622 39.6126 57.3975C39.8996 57.5158 40.1712 57.6674 40.4239 57.8433C40.676 58.0201 40.9064 58.224 41.1169 58.4445C41.536 58.888 41.8693 59.4015 42.1231 59.9462C42.2509 60.2183 42.358 60.4993 42.4464 60.7855C42.4917 60.9283 42.5294 61.0731 42.5653 61.2182C42.5985 61.3638 42.6296 61.5103 42.6531 61.6577C42.6996 61.9524 42.7358 62.248 42.7628 62.5445C42.7782 62.6924 42.7883 62.8409 42.8007 62.9891C42.8105 63.1376 42.8224 63.2859 42.8301 63.4344C42.8648 64.0281 42.8844 64.6224 42.8906 65.217C42.8977 65.8114 42.8909 66.406 42.8672 67C42.8752 66.703 42.8784 66.4057 42.8784 66.1087C42.8772 65.8116 42.8746 65.5143 42.8678 65.2173C42.8553 64.6233 42.8298 64.0296 42.7892 63.4367C42.78 63.2884 42.7666 63.1405 42.7554 62.9923C42.7411 62.8443 42.7299 62.6964 42.713 62.5488C42.683 62.2535 42.6439 61.9587 42.5946 61.6666C42.5436 61.3747 42.4725 61.0862 42.3829 60.8032C42.2936 60.5202 42.186 60.2426 42.0579 59.9739C41.8037 59.4364 41.471 58.9312 41.0561 58.4973C40.8477 58.2817 40.6205 58.0827 40.3723 57.911C40.1238 57.74 39.8575 57.5934 39.5764 57.4795C39.0138 57.253 38.3949 57.1591 37.7885 57.2142C37.1835 57.2696 36.6082 57.4282 36.1168 57.7724C36.3828 58.417 36.8517 58.9597 37.4409 59.3575C37.5889 59.4564 37.744 59.5449 37.9047 59.6226C38.0658 59.6994 38.233 59.7648 38.4044 59.8176C38.7472 59.923 39.106 59.9793 39.4655 59.9819C39.6452 59.9833 39.8249 59.971 40.0022 59.945L40.0686 59.9353L40.1348 59.9225L40.2667 59.8962C40.3533 59.8733 40.4411 59.8545 40.5259 59.8256C40.6119 59.8008 40.6952 59.7682 40.7792 59.7374C40.8207 59.7211 40.8613 59.7025 40.9025 59.6851C40.923 59.6763 40.9438 59.668 40.9639 59.6583L41.0241 59.6289C41.0639 59.6089 41.1051 59.5909 41.1439 59.5689L41.2614 59.5049C41.3002 59.4829 41.3379 59.4592 41.3764 59.4364C41.415 59.4141 41.4523 59.3895 41.4894 59.365C41.6395 59.2684 41.7827 59.1619 41.9218 59.0505C42.0614 58.9397 42.1961 58.8221 42.328 58.7018C42.5926 58.4616 42.8446 58.2075 43.102 57.957C43.3591 57.7063 43.6207 57.4575 43.9006 57.2267C44.04 57.1108 44.1859 57.0014 44.3357 56.8972C44.4854 56.7929 44.6435 56.699 44.8048 56.6119C45.1289 56.4402 45.4723 56.3031 45.8267 56.2015C46.1817 56.1021 46.547 56.0361 46.9159 56.0118C47.6532 55.9644 48.4008 56.0592 49.0965 56.3003C49.7919 56.5405 50.4339 56.9206 50.9724 57.4072L51 57.4321L50.9858 57.4652C50.9093 57.6409 50.8244 57.8131 50.7298 57.9804C50.6332 58.1466 50.5291 58.3086 50.4149 58.4642C50.2993 58.6187 50.1768 58.7684 50.0454 58.9103C49.9129 59.0514 49.7744 59.1873 49.6276 59.3147C49.0407 59.8245 48.3397 60.2095 47.5879 60.4391C46.8362 60.6687 46.0343 60.7452 45.2514 60.6567C44.4685 60.5702 43.707 60.314 43.0383 59.9145L43.006 59.8953L43.0347 59.8719C43.3645 59.6017 43.6661 59.3004 43.973 59.0037C44.2802 58.7081 44.594 58.4142 44.9492 58.1695C45.3027 57.9233 45.6989 57.7354 46.1144 57.6103C46.3222 57.5483 46.5349 57.5003 46.7499 57.4698C46.9646 57.4395 47.1822 57.4247 47.3993 57.4252Z"/>
</mask>
<path d="M47.3993 57.4252C47.1819 57.4272 46.9652 57.4447 46.7508 57.4778C46.5364 57.5109 46.3252 57.5615 46.1191 57.6257C45.7072 57.7557 45.3149 57.945 44.9667 58.1929C44.6165 58.4391 44.3072 58.7344 44.0032 59.0325C43.6999 59.3316 43.3971 59.6197 43.067 59.8953C43.7334 60.2834 44.486 60.5071 45.2594 60.5879C46.0322 60.671 46.8228 60.5907 47.5615 60.3603C48.3005 60.1301 48.9876 59.7471 49.5606 59.2436C50.1335 58.7404 50.6056 58.1746 50.898 57.4838C50.3692 57.008 49.7397 56.637 49.0585 56.4031C48.3773 56.1683 47.6449 56.0769 46.9245 56.1246C46.5639 56.1489 46.2072 56.2143 45.8605 56.312C45.5145 56.4119 45.1794 56.5465 44.8632 56.7147C44.7064 56.8001 44.553 56.8915 44.4065 56.9937C44.2603 57.0959 44.1177 57.203 43.9807 57.3176C43.7058 57.5452 43.4472 57.7922 43.1913 58.0427C42.9351 58.2929 42.6806 58.5468 42.4132 58.7895C42.2794 58.9109 42.1427 59.0297 42.0004 59.1425C41.8583 59.2559 41.7118 59.3644 41.5576 59.4632C41.5194 59.4883 41.4811 59.5135 41.4414 59.5363C41.4019 59.5597 41.3631 59.584 41.323 59.6063L41.2018 59.672C41.1617 59.6945 41.1193 59.7128 41.0781 59.7334L41.0158 59.7637C40.9951 59.7734 40.9734 59.7819 40.9524 59.7911C40.9097 59.8088 40.8678 59.8279 40.8248 59.8448C40.738 59.8768 40.6517 59.9102 40.5627 59.9356C40.4749 59.965 40.3839 59.9847 40.2943 60.0081L40.1576 60.035L40.0891 60.0481L40.02 60.0581C39.8361 60.0847 39.6502 60.0969 39.4643 60.0952C39.0927 60.0918 38.7223 60.033 38.3688 59.9236C38.1921 59.8688 38.0198 59.8011 37.8537 59.7214C37.688 59.6409 37.5281 59.5492 37.376 59.4472C36.7692 59.036 36.2882 58.4545 36.0154 57.7894L36 57.7514L36.0341 57.7277C36.5439 57.3727 37.1568 57.1679 37.7793 57.1148C38.4026 57.0617 39.0381 57.1622 39.6126 57.3975C39.8996 57.5158 40.1712 57.6674 40.4239 57.8433C40.676 58.0201 40.9064 58.224 41.1169 58.4445C41.536 58.888 41.8693 59.4015 42.1231 59.9462C42.2509 60.2183 42.358 60.4993 42.4464 60.7855C42.4917 60.9283 42.5294 61.0731 42.5653 61.2182C42.5985 61.3638 42.6296 61.5103 42.6531 61.6577C42.6996 61.9524 42.7358 62.248 42.7628 62.5445C42.7782 62.6924 42.7883 62.8409 42.8007 62.9891C42.8105 63.1376 42.8224 63.2859 42.8301 63.4344C42.8648 64.0281 42.8844 64.6224 42.8906 65.217C42.8977 65.8114 42.8909 66.406 42.8672 67C42.8752 66.703 42.8784 66.4057 42.8784 66.1087C42.8772 65.8116 42.8746 65.5143 42.8678 65.2173C42.8553 64.6233 42.8298 64.0296 42.7892 63.4367C42.78 63.2884 42.7666 63.1405 42.7554 62.9923C42.7411 62.8443 42.7299 62.6964 42.713 62.5488C42.683 62.2535 42.6439 61.9587 42.5946 61.6666C42.5436 61.3747 42.4725 61.0862 42.3829 60.8032C42.2936 60.5202 42.186 60.2426 42.0579 59.9739C41.8037 59.4364 41.471 58.9312 41.0561 58.4973C40.8477 58.2817 40.6205 58.0827 40.3723 57.911C40.1238 57.74 39.8575 57.5934 39.5764 57.4795C39.0138 57.253 38.3949 57.1591 37.7885 57.2142C37.1835 57.2696 36.6082 57.4282 36.1168 57.7724C36.3828 58.417 36.8517 58.9597 37.4409 59.3575C37.5889 59.4564 37.744 59.5449 37.9047 59.6226C38.0658 59.6994 38.233 59.7648 38.4044 59.8176C38.7472 59.923 39.106 59.9793 39.4655 59.9819C39.6452 59.9833 39.8249 59.971 40.0022 59.945L40.0686 59.9353L40.1348 59.9225L40.2667 59.8962C40.3533 59.8733 40.4411 59.8545 40.5259 59.8256C40.6119 59.8008 40.6952 59.7682 40.7792 59.7374C40.8207 59.7211 40.8613 59.7025 40.9025 59.6851C40.923 59.6763 40.9438 59.668 40.9639 59.6583L41.0241 59.6289C41.0639 59.6089 41.1051 59.5909 41.1439 59.5689L41.2614 59.5049C41.3002 59.4829 41.3379 59.4592 41.3764 59.4364C41.415 59.4141 41.4523 59.3895 41.4894 59.365C41.6395 59.2684 41.7827 59.1619 41.9218 59.0505C42.0614 58.9397 42.1961 58.8221 42.328 58.7018C42.5926 58.4616 42.8446 58.2075 43.102 57.957C43.3591 57.7063 43.6207 57.4575 43.9006 57.2267C44.04 57.1108 44.1859 57.0014 44.3357 56.8972C44.4854 56.7929 44.6435 56.699 44.8048 56.6119C45.1289 56.4402 45.4723 56.3031 45.8267 56.2015C46.1817 56.1021 46.547 56.0361 46.9159 56.0118C47.6532 55.9644 48.4008 56.0592 49.0965 56.3003C49.7919 56.5405 50.4339 56.9206 50.9724 57.4072L51 57.4321L50.9858 57.4652C50.9093 57.6409 50.8244 57.8131 50.7298 57.9804C50.6332 58.1466 50.5291 58.3086 50.4149 58.4642C50.2993 58.6187 50.1768 58.7684 50.0454 58.9103C49.9129 59.0514 49.7744 59.1873 49.6276 59.3147C49.0407 59.8245 48.3397 60.2095 47.5879 60.4391C46.8362 60.6687 46.0343 60.7452 45.2514 60.6567C44.4685 60.5702 43.707 60.314 43.0383 59.9145L43.006 59.8953L43.0347 59.8719C43.3645 59.6017 43.6661 59.3004 43.973 59.0037C44.2802 58.7081 44.594 58.4142 44.9492 58.1695C45.3027 57.9233 45.6989 57.7354 46.1144 57.6103C46.3222 57.5483 46.5349 57.5003 46.7499 57.4698C46.9646 57.4395 47.1822 57.4247 47.3993 57.4252Z" fill="white"/>
<path d="M47.3993 57.4252C47.1819 57.4272 46.9652 57.4447 46.7508 57.4778C46.5364 57.5109 46.3252 57.5615 46.1191 57.6257C45.7072 57.7557 45.3149 57.945 44.9667 58.1929C44.6165 58.4391 44.3072 58.7344 44.0032 59.0325C43.6999 59.3316 43.3971 59.6197 43.067 59.8953C43.7334 60.2834 44.486 60.5071 45.2594 60.5879C46.0322 60.671 46.8228 60.5907 47.5615 60.3603C48.3005 60.1301 48.9876 59.7471 49.5606 59.2436C50.1335 58.7404 50.6056 58.1746 50.898 57.4838C50.3692 57.008 49.7397 56.637 49.0585 56.4031C48.3773 56.1683 47.6449 56.0769 46.9245 56.1246C46.5639 56.1489 46.2072 56.2143 45.8605 56.312C45.5145 56.4119 45.1794 56.5465 44.8632 56.7147C44.7064 56.8001 44.553 56.8915 44.4065 56.9937C44.2603 57.0959 44.1177 57.203 43.9807 57.3176C43.7058 57.5452 43.4472 57.7922 43.1913 58.0427C42.9351 58.2929 42.6806 58.5468 42.4132 58.7895C42.2794 58.9109 42.1427 59.0297 42.0004 59.1425C41.8583 59.2559 41.7118 59.3644 41.5576 59.4632C41.5194 59.4883 41.4811 59.5135 41.4414 59.5363C41.4019 59.5597 41.3631 59.584 41.323 59.6063L41.2018 59.672C41.1617 59.6945 41.1193 59.7128 41.0781 59.7334L41.0158 59.7637C40.9951 59.7734 40.9734 59.7819 40.9524 59.7911C40.9097 59.8088 40.8678 59.8279 40.8248 59.8448C40.738 59.8768 40.6517 59.9102 40.5627 59.9356C40.4749 59.965 40.3839 59.9847 40.2943 60.0081L40.1576 60.035L40.0891 60.0481L40.02 60.0581C39.8361 60.0847 39.6502 60.0969 39.4643 60.0952C39.0927 60.0918 38.7223 60.033 38.3688 59.9236C38.1921 59.8688 38.0198 59.8011 37.8537 59.7214C37.688 59.6409 37.5281 59.5492 37.376 59.4472C36.7692 59.036 36.2882 58.4545 36.0154 57.7894L36 57.7514L36.0341 57.7277C36.5439 57.3727 37.1568 57.1679 37.7793 57.1148C38.4026 57.0617 39.0381 57.1622 39.6126 57.3975C39.8996 57.5158 40.1712 57.6674 40.4239 57.8433C40.676 58.0201 40.9064 58.224 41.1169 58.4445C41.536 58.888 41.8693 59.4015 42.1231 59.9462C42.2509 60.2183 42.358 60.4993 42.4464 60.7855C42.4917 60.9283 42.5294 61.0731 42.5653 61.2182C42.5985 61.3638 42.6296 61.5103 42.6531 61.6577C42.6996 61.9524 42.7358 62.248 42.7628 62.5445C42.7782 62.6924 42.7883 62.8409 42.8007 62.9891C42.8105 63.1376 42.8224 63.2859 42.8301 63.4344C42.8648 64.0281 42.8844 64.6224 42.8906 65.217C42.8977 65.8114 42.8909 66.406 42.8672 67C42.8752 66.703 42.8784 66.4057 42.8784 66.1087C42.8772 65.8116 42.8746 65.5143 42.8678 65.2173C42.8553 64.6233 42.8298 64.0296 42.7892 63.4367C42.78 63.2884 42.7666 63.1405 42.7554 62.9923C42.7411 62.8443 42.7299 62.6964 42.713 62.5488C42.683 62.2535 42.6439 61.9587 42.5946 61.6666C42.5436 61.3747 42.4725 61.0862 42.3829 60.8032C42.2936 60.5202 42.186 60.2426 42.0579 59.9739C41.8037 59.4364 41.471 58.9312 41.0561 58.4973C40.8477 58.2817 40.6205 58.0827 40.3723 57.911C40.1238 57.74 39.8575 57.5934 39.5764 57.4795C39.0138 57.253 38.3949 57.1591 37.7885 57.2142C37.1835 57.2696 36.6082 57.4282 36.1168 57.7724C36.3828 58.417 36.8517 58.9597 37.4409 59.3575C37.5889 59.4564 37.744 59.5449 37.9047 59.6226C38.0658 59.6994 38.233 59.7648 38.4044 59.8176C38.7472 59.923 39.106 59.9793 39.4655 59.9819C39.6452 59.9833 39.8249 59.971 40.0022 59.945L40.0686 59.9353L40.1348 59.9225L40.2667 59.8962C40.3533 59.8733 40.4411 59.8545 40.5259 59.8256C40.6119 59.8008 40.6952 59.7682 40.7792 59.7374C40.8207 59.7211 40.8613 59.7025 40.9025 59.6851C40.923 59.6763 40.9438 59.668 40.9639 59.6583L41.0241 59.6289C41.0639 59.6089 41.1051 59.5909 41.1439 59.5689L41.2614 59.5049C41.3002 59.4829 41.3379 59.4592 41.3764 59.4364C41.415 59.4141 41.4523 59.3895 41.4894 59.365C41.6395 59.2684 41.7827 59.1619 41.9218 59.0505C42.0614 58.9397 42.1961 58.8221 42.328 58.7018C42.5926 58.4616 42.8446 58.2075 43.102 57.957C43.3591 57.7063 43.6207 57.4575 43.9006 57.2267C44.04 57.1108 44.1859 57.0014 44.3357 56.8972C44.4854 56.7929 44.6435 56.699 44.8048 56.6119C45.1289 56.4402 45.4723 56.3031 45.8267 56.2015C46.1817 56.1021 46.547 56.0361 46.9159 56.0118C47.6532 55.9644 48.4008 56.0592 49.0965 56.3003C49.7919 56.5405 50.4339 56.9206 50.9724 57.4072L51 57.4321L50.9858 57.4652C50.9093 57.6409 50.8244 57.8131 50.7298 57.9804C50.6332 58.1466 50.5291 58.3086 50.4149 58.4642C50.2993 58.6187 50.1768 58.7684 50.0454 58.9103C49.9129 59.0514 49.7744 59.1873 49.6276 59.3147C49.0407 59.8245 48.3397 60.2095 47.5879 60.4391C46.8362 60.6687 46.0343 60.7452 45.2514 60.6567C44.4685 60.5702 43.707 60.314 43.0383 59.9145L43.006 59.8953L43.0347 59.8719C43.3645 59.6017 43.6661 59.3004 43.973 59.0037C44.2802 58.7081 44.594 58.4142 44.9492 58.1695C45.3027 57.9233 45.6989 57.7354 46.1144 57.6103C46.3222 57.5483 46.5349 57.5003 46.7499 57.4698C46.9646 57.4395 47.1822 57.4247 47.3993 57.4252Z" stroke="white" stroke-width="0.68" mask="url(#path-3-outside-1_300_108)"/>
<path d="M66.625 46.5C66.3929 46.5 66.1704 46.5922 66.0063 46.7563C65.8422 46.9204 65.75 47.1429 65.75 47.375V73.625C65.75 73.8571 65.8422 74.0796 66.0063 74.2437C66.1704 74.4078 66.3929 74.5 66.625 74.5H70.125C70.3571 74.5 70.5796 74.4078 70.7437 74.2437C70.9078 74.0796 71 73.8571 71 73.625V47.375C71 47.1429 70.9078 46.9204 70.7437 46.7563C70.5796 46.5922 70.3571 46.5 70.125 46.5H66.625ZM69.25 72.75H67.5V48.25H69.25V72.75Z" fill="white"/>
<path d="M76.25 41.25H72.75C72.5179 41.25 72.2954 41.3422 72.1313 41.5063C71.9672 41.6704 71.875 41.8929 71.875 42.125V73.625C71.875 73.8571 71.9672 74.0796 72.1313 74.2437C72.2954 74.4078 72.5179 74.5 72.75 74.5H76.25C76.4821 74.5 76.7046 74.4078 76.8687 74.2437C77.0328 74.0796 77.125 73.8571 77.125 73.625V42.125C77.125 41.8929 77.0328 41.6704 76.8687 41.5063C76.7046 41.3422 76.4821 41.25 76.25 41.25ZM75.375 72.75H73.625V43H75.375V72.75Z" fill="white"/>
<defs>
<filter id="filter0_ii_300_108" x="-14" y="0" width="130" height="101" filterUnits="userSpaceOnUse" color-interpolation-filters="sRGB">
<feFlood flood-opacity="0" result="BackgroundImageFix"/>
<feBlend mode="normal" in="SourceGraphic" in2="BackgroundImageFix" result="shape"/>
<feColorMatrix in="SourceAlpha" type="matrix" values="0 0 0 0 0 0 0 0 0 0 0 0 0 0 0 0 0 0 127 0" result="hardAlpha"/>
<feOffset dx="-14"/>
<feGaussianBlur stdDeviation="8.5"/>
<feComposite in2="hardAlpha" operator="arithmetic" k2="-1" k3="1"/>
<feColorMatrix type="matrix" values="0 0 0 0 0.104167 0 0 0 0 0.066116 0 0 0 0 0.030816 0 0 0 0.12 0"/>
<feBlend mode="normal" in2="shape" result="effect1_innerShadow_300_108"/>
<feColorMatrix in="SourceAlpha" type="matrix" values="0 0 0 0 0 0 0 0 0 0 0 0 0 0 0 0 0 0 127 0" result="hardAlpha"/>
<feMorphology radius="2" operator="erode" in="SourceAlpha" result="effect2_innerShadow_300_108"/>
<feOffset dx="16" dy="1"/>
<feGaussianBlur stdDeviation="15.5"/>
<feComposite in2="hardAlpha" operator="arithmetic" k2="-1" k3="1"/>
<feColorMatrix type="matrix" values="0 0 0 0 1 0 0 0 0 1 0 0 0 0 1 0 0 0 0.4 0"/>
<feBlend mode="normal" in2="effect1_innerShadow_300_108" result="effect2_innerShadow_300_108"/>
</filter>
<linearGradient id="paint0_linear_300_108" x1="5.78641e-07" y1="18.75" x2="103.376" y2="26.0587" gradientUnits="userSpaceOnUse">
<stop stop-color="#30C917"/>
<stop offset="1" stop-color="#279A13"/>
</linearGradient>
</defs>
</svg>
