<svg width="100" height="100" viewBox="0 0 100 100" fill="none" xmlns="http://www.w3.org/2000/svg">
<g filter="url(#filter0_ii_300_120)">
<circle cx="50" cy="50" r="50" fill="url(#paint0_linear_300_120)"/>
</g>
<g clip-path="url(#clip0_300_120)">
<path d="M75.2003 42.5338H58.4003V36.0005H60.6869C61.4552 36.0029 62.1465 35.5344 62.4289 34.8199C62.7113 34.1054 62.5271 33.2908 61.9647 32.7674C60.3444 31.2647 57.8272 28.8241 55.6059 26.6671C53.7457 24.8649 52.1376 23.3071 51.2668 22.4989C50.546 21.8336 49.4332 21.8397 48.7197 22.5129L38.0443 32.7674C37.483 33.2898 37.2983 34.1023 37.5785 34.816C37.8587 35.5297 38.5468 35.9995 39.3136 36.0005H41.6003V44.6534C33.5299 43.2795 25.645 47.9253 22.9358 55.6505C20.2266 63.3757 23.4827 71.9286 30.6435 75.8963C37.8042 79.8639 46.7824 78.0898 51.8959 71.6967C52.4021 72.1476 53.0557 72.3978 53.7336 72.4005H53.9053C53.7948 72.6994 53.7367 73.0151 53.7336 73.3338V75.2005C53.7336 76.7469 54.9872 78.0005 56.5336 78.0005H75.2003C76.7467 78.0005 78.0003 76.7469 78.0003 75.2005V73.3338C78.0003 71.7874 76.7467 70.5338 75.2003 70.5338H75.0285C75.1391 70.2349 75.1972 69.9191 75.2003 69.6005V67.7338C75.1992 67.3766 75.1295 67.023 74.9949 66.6922C76.2131 66.3642 77.0615 65.262 77.0669 64.0005V62.1338C77.0652 61.1749 76.5719 60.2839 75.7603 59.7734C76.0022 59.3561 76.1309 58.8828 76.1336 58.4005V56.5338C76.1319 55.5749 75.6386 54.6839 74.8269 54.1734C75.0688 53.7561 75.1975 53.2828 75.2003 52.8005V50.9338C75.1972 50.6151 75.1391 50.2994 75.0285 50.0005H75.2003C76.7467 50.0005 78.0003 48.7469 78.0003 47.2005V45.3338C78.0003 43.7874 76.7467 42.5338 75.2003 42.5338ZM41.6003 34.1338L39.3248 34.1245L50.0003 23.8671C50.8533 24.6586 52.5305 26.2845 54.3067 28.0065C56.5336 30.1699 59.0601 32.619 60.6869 34.1338H58.4003C57.3693 34.1338 56.5336 34.9695 56.5336 36.0005V42.5338C54.9872 42.5338 53.7336 43.7874 53.7336 45.3338V47.2005C53.7367 47.5191 53.7948 47.8349 53.9053 48.1338H53.7336C52.6055 48.1342 51.5878 48.8115 51.152 49.8521C49.0754 47.5865 46.4173 45.9337 43.4669 45.0734V36.0005C43.4669 34.9695 42.6312 34.1338 41.6003 34.1338ZM73.3336 55.6005C73.8491 55.6005 74.2669 56.0183 74.2669 56.5338V58.4005C74.2669 58.9159 73.8491 59.3338 73.3336 59.3338H55.4901C55.3452 58.06 55.0533 56.8072 54.6203 55.6005H73.3336ZM38.8003 72.4005C32.6147 72.4005 27.6003 67.386 27.6003 61.2005C27.6003 55.0149 32.6147 50.0005 38.8003 50.0005C44.9859 50.0005 50.0003 55.0149 50.0003 61.2005C49.9936 67.3833 44.9831 72.3938 38.8003 72.4005ZM47.344 51.337C45.2168 49.4873 42.5456 48.3797 39.7336 48.1814V46.3147C43.0399 46.5186 46.1831 47.8219 48.6637 50.0173L47.344 51.337ZM37.8669 48.1814C35.0549 48.3797 32.3838 49.4873 30.2565 51.337L28.9368 50.0173C31.4174 47.8219 34.5606 46.5186 37.8669 46.3147V48.1814ZM28.9368 52.6567C27.0871 54.784 25.9795 57.4551 25.7812 60.2671H23.9145C24.1184 56.9608 25.4217 53.8176 27.6171 51.337L28.9368 52.6567ZM25.7812 62.1338C25.9795 64.9458 27.0871 67.617 28.9368 69.7442L27.6171 71.0639C25.4217 68.5833 24.1184 65.4401 23.9145 62.1338H25.7812ZM30.2612 71.0639C32.3872 72.9127 35.0566 74.0202 37.8669 74.2195V76.0862C34.5606 75.8823 31.4174 74.5791 28.9368 72.3837L30.2612 71.0639ZM39.7336 74.2195C42.5456 74.0212 45.2168 72.9136 47.344 71.0639L48.6637 72.3837C46.1831 74.5791 43.0399 75.8823 39.7336 76.0862V74.2195ZM48.6637 69.7442C50.5134 67.617 51.621 64.9458 51.8193 62.1338H53.686C53.4821 65.4401 52.1789 68.5833 49.9835 71.0639L48.6637 69.7442ZM53.686 60.2671H51.8193C51.621 57.4551 50.5134 54.784 48.6637 52.6567L49.9835 51.337C52.1789 53.8176 53.4821 56.9608 53.686 60.2671ZM76.1336 73.3338V75.2005C76.1336 75.7159 75.7157 76.1338 75.2003 76.1338H56.5336C56.0181 76.1338 55.6003 75.7159 55.6003 75.2005V73.3338C55.6003 72.8183 56.0181 72.4005 56.5336 72.4005H75.2003C75.7157 72.4005 76.1336 72.8183 76.1336 73.3338ZM56.5336 70.5338H53.7336C53.4376 70.5339 53.1597 70.3914 52.9869 70.1511C53.6543 69.0985 54.2021 67.9746 54.6203 66.8005H72.4003C72.9157 66.8005 73.3336 67.2183 73.3336 67.7338V69.6005C73.3336 70.1159 72.9157 70.5338 72.4003 70.5338H56.5336ZM75.2003 64.0005C75.2003 64.5159 74.7824 64.9338 74.2669 64.9338H55.1672C55.4511 63.7095 55.5964 62.4572 55.6003 61.2005H74.2669C74.7824 61.2005 75.2003 61.6183 75.2003 62.1338V64.0005ZM73.3336 50.9338V52.8005C73.3336 53.3159 72.9157 53.7338 72.4003 53.7338H53.8269C53.5225 53.1132 53.1797 52.5122 52.8003 51.9343V50.9338C52.8003 50.4183 53.2181 50.0005 53.7336 50.0005H72.4003C72.9157 50.0005 73.3336 50.4183 73.3336 50.9338ZM76.1336 47.2005C76.1336 47.7159 75.7157 48.1338 75.2003 48.1338H56.5336C56.0181 48.1338 55.6003 47.7159 55.6003 47.2005V45.3338C55.6003 44.8183 56.0181 44.4005 56.5336 44.4005H75.2003C75.7157 44.4005 76.1336 44.8183 76.1336 45.3338V47.2005Z" fill="white"/>
<mask id="path-3-outside-1_300_120" maskUnits="userSpaceOnUse" x="29" y="55" width="19" height="15" fill="black">
<rect fill="white" x="29" y="55" width="19" height="15"/>
<path d="M42.9192 57.6844C42.6729 57.6867 42.4272 57.7073 42.1842 57.7465C41.9412 57.7856 41.7019 57.8454 41.4683 57.9213C41.0015 58.0749 40.5569 58.2986 40.1623 58.5916C39.7654 58.8826 39.4148 59.2315 39.0703 59.5839C38.7265 59.9373 38.3834 60.2779 38.0093 60.6036C38.7645 61.0622 39.6175 61.3265 40.494 61.422C41.3699 61.5203 42.2659 61.4254 43.1031 61.153C43.9406 60.881 44.7193 60.4284 45.3686 59.8333C46.018 59.2386 46.553 58.57 46.8844 57.7536C46.2851 57.1912 45.5716 56.7528 44.7996 56.4764C44.0276 56.1989 43.1975 56.0909 42.3811 56.1473C41.9725 56.176 41.5681 56.2533 41.1753 56.3687C40.783 56.4868 40.4033 56.6458 40.045 56.8446C39.8672 56.9455 39.6934 57.0535 39.5274 57.1744C39.3617 57.2952 39.2001 57.4218 39.0448 57.5571C38.7332 57.8261 38.4402 58.1181 38.1501 58.4141C37.8598 58.7097 37.5714 59.0098 37.2682 59.2967C37.1167 59.4401 36.9617 59.5805 36.8004 59.7139C36.6394 59.8479 36.4734 59.9761 36.2986 60.0929C36.2553 60.1226 36.2119 60.1523 36.1669 60.1793C36.1222 60.207 36.0782 60.2357 36.0328 60.262L35.8953 60.3396C35.8499 60.3663 35.8019 60.3879 35.7552 60.4122L35.6846 60.448C35.6611 60.4594 35.6365 60.4696 35.6127 60.4804C35.5643 60.5013 35.5169 60.5239 35.4682 60.5438C35.3697 60.5816 35.2719 60.6211 35.171 60.6511C35.0716 60.6859 34.9684 60.7092 34.8669 60.7369L34.712 60.7686L34.6343 60.7841L34.556 60.7959C34.3476 60.8273 34.1369 60.8418 33.9262 60.8398C33.5051 60.8358 33.0853 60.7662 32.6847 60.637C32.4844 60.5722 32.2891 60.4922 32.1009 60.398C31.913 60.3028 31.7319 60.1945 31.5594 60.074C30.8718 59.588 30.3267 58.9008 30.0175 58.1147L30 58.0698L30.0387 58.0418C30.6164 57.6223 31.3111 57.3803 32.0165 57.3175C32.723 57.2547 33.4432 57.3735 34.0942 57.6516C34.4196 57.7914 34.7274 57.9706 35.0138 58.1785C35.2994 58.3874 35.5606 58.6284 35.7992 58.889C36.2741 59.4131 36.6519 60.02 36.9395 60.6636C37.0844 60.9853 37.2057 61.3174 37.3059 61.6556C37.3573 61.8244 37.4 61.9955 37.4407 62.1669C37.4783 62.3391 37.5136 62.5122 37.5401 62.6864C37.5929 63.0347 37.6339 63.384 37.6645 63.7344C37.682 63.9092 37.6934 64.0847 37.7075 64.2599C37.7186 64.4354 37.732 64.6106 37.7408 64.7861C37.7801 65.4878 37.8023 66.1902 37.8093 66.8929C37.8174 67.5952 37.8097 68.298 37.7828 69C37.7919 68.649 37.7956 68.2976 37.7956 67.9466C37.7942 67.5956 37.7912 67.2442 37.7835 66.8932C37.7693 66.1912 37.7404 65.4895 37.6944 64.7888C37.684 64.6136 37.6689 64.4388 37.6561 64.2636C37.64 64.0888 37.6272 63.9139 37.608 63.7394C37.5741 63.3904 37.5297 63.0421 37.4739 62.6968C37.4161 62.3519 37.3355 62.011 37.234 61.6765C37.1328 61.342 37.0108 61.014 36.8656 60.6964C36.5776 60.0612 36.2005 59.4641 35.7303 58.9514C35.494 58.6966 35.2366 58.4613 34.9553 58.2585C34.6736 58.0563 34.3718 57.8832 34.0532 57.7485C33.4157 57.4808 32.7142 57.3698 32.0269 57.4349C31.3413 57.5004 30.6893 57.6879 30.1324 58.0946C30.4339 58.8564 30.9652 59.4978 31.6331 59.968C31.8008 60.0848 31.9765 60.1894 32.1587 60.2812C32.3412 60.372 32.5307 60.4493 32.725 60.5118C33.1135 60.6363 33.5202 60.7028 33.9275 60.7058C34.1312 60.7075 34.3349 60.693 34.5358 60.6623L34.6111 60.6508L34.6861 60.6356L34.8356 60.6046C34.9338 60.5776 35.0333 60.5553 35.1294 60.5212C35.2268 60.4918 35.3213 60.4534 35.4164 60.4169C35.4634 60.3977 35.5095 60.3757 35.5562 60.3551C35.5794 60.3447 35.6029 60.3349 35.6258 60.3234L35.694 60.2887C35.739 60.265 35.7858 60.2438 35.8298 60.2178L35.9629 60.1422C36.0069 60.1162 36.0496 60.0882 36.0933 60.0612C36.137 60.0348 36.1793 60.0058 36.2213 59.9768C36.3914 59.8627 36.5537 59.7368 36.7113 59.6052C36.8696 59.4742 37.0222 59.3352 37.1718 59.1931C37.4716 58.9092 37.7572 58.6088 38.049 58.3128C38.3404 58.0165 38.6368 57.7225 38.9541 57.4498C39.112 57.3128 39.2774 57.1835 39.4471 57.0603C39.6168 56.9371 39.796 56.8261 39.9788 56.7231C40.3461 56.5203 40.7353 56.3583 41.1369 56.2381C41.5392 56.1206 41.9533 56.0427 42.3714 56.014C43.2069 55.958 44.0542 56.07 44.8427 56.3549C45.6308 56.6387 46.3584 57.088 46.9687 57.6631L47 57.6925L46.9839 57.7316C46.8972 57.9392 46.801 58.1427 46.6938 58.3405C46.5843 58.5369 46.4663 58.7283 46.3369 58.9123C46.2058 59.0949 46.067 59.2717 45.9181 59.4395C45.7679 59.6062 45.6109 59.7669 45.4446 59.9174C44.7795 60.5199 43.985 60.9748 43.133 61.2462C42.281 61.5176 41.3722 61.608 40.4849 61.5034C39.5977 61.4011 38.7346 61.0984 37.9767 60.6262L37.9401 60.6036L37.9727 60.5759C38.3464 60.2566 38.6882 59.9005 39.0361 59.5498C39.3842 59.2005 39.7398 58.8532 40.1425 58.5639C40.5431 58.273 40.9921 58.0509 41.463 57.9031C41.6985 57.8298 41.9395 57.7731 42.1832 57.737C42.4265 57.7012 42.6732 57.6837 42.9192 57.6844Z"/>
</mask>
<path d="M42.9192 57.6844C42.6729 57.6867 42.4272 57.7073 42.1842 57.7465C41.9412 57.7856 41.7019 57.8454 41.4683 57.9213C41.0015 58.0749 40.5569 58.2986 40.1623 58.5916C39.7654 58.8826 39.4148 59.2315 39.0703 59.5839C38.7265 59.9373 38.3834 60.2779 38.0093 60.6036C38.7645 61.0622 39.6175 61.3265 40.494 61.422C41.3699 61.5203 42.2659 61.4254 43.1031 61.153C43.9406 60.881 44.7193 60.4284 45.3686 59.8333C46.018 59.2386 46.553 58.57 46.8844 57.7536C46.2851 57.1912 45.5716 56.7528 44.7996 56.4764C44.0276 56.1989 43.1975 56.0909 42.3811 56.1473C41.9725 56.176 41.5681 56.2533 41.1753 56.3687C40.783 56.4868 40.4033 56.6458 40.045 56.8446C39.8672 56.9455 39.6934 57.0535 39.5274 57.1744C39.3617 57.2952 39.2001 57.4218 39.0448 57.5571C38.7332 57.8261 38.4402 58.1181 38.1501 58.4141C37.8598 58.7097 37.5714 59.0098 37.2682 59.2967C37.1167 59.4401 36.9617 59.5805 36.8004 59.7139C36.6394 59.8479 36.4734 59.9761 36.2986 60.0929C36.2553 60.1226 36.2119 60.1523 36.1669 60.1793C36.1222 60.207 36.0782 60.2357 36.0328 60.262L35.8953 60.3396C35.8499 60.3663 35.8019 60.3879 35.7552 60.4122L35.6846 60.448C35.6611 60.4594 35.6365 60.4696 35.6127 60.4804C35.5643 60.5013 35.5169 60.5239 35.4682 60.5438C35.3697 60.5816 35.2719 60.6211 35.171 60.6511C35.0716 60.6859 34.9684 60.7092 34.8669 60.7369L34.712 60.7686L34.6343 60.7841L34.556 60.7959C34.3476 60.8273 34.1369 60.8418 33.9262 60.8398C33.5051 60.8358 33.0853 60.7662 32.6847 60.637C32.4844 60.5722 32.2891 60.4922 32.1009 60.398C31.913 60.3028 31.7319 60.1945 31.5594 60.074C30.8718 59.588 30.3267 58.9008 30.0175 58.1147L30 58.0698L30.0387 58.0418C30.6164 57.6223 31.3111 57.3803 32.0165 57.3175C32.723 57.2547 33.4432 57.3735 34.0942 57.6516C34.4196 57.7914 34.7274 57.9706 35.0138 58.1785C35.2994 58.3874 35.5606 58.6284 35.7992 58.889C36.2741 59.4131 36.6519 60.02 36.9395 60.6636C37.0844 60.9853 37.2057 61.3174 37.3059 61.6556C37.3573 61.8244 37.4 61.9955 37.4407 62.1669C37.4783 62.3391 37.5136 62.5122 37.5401 62.6864C37.5929 63.0347 37.6339 63.384 37.6645 63.7344C37.682 63.9092 37.6934 64.0847 37.7075 64.2599C37.7186 64.4354 37.732 64.6106 37.7408 64.7861C37.7801 65.4878 37.8023 66.1902 37.8093 66.8929C37.8174 67.5952 37.8097 68.298 37.7828 69C37.7919 68.649 37.7956 68.2976 37.7956 67.9466C37.7942 67.5956 37.7912 67.2442 37.7835 66.8932C37.7693 66.1912 37.7404 65.4895 37.6944 64.7888C37.684 64.6136 37.6689 64.4388 37.6561 64.2636C37.64 64.0888 37.6272 63.9139 37.608 63.7394C37.5741 63.3904 37.5297 63.0421 37.4739 62.6968C37.4161 62.3519 37.3355 62.011 37.234 61.6765C37.1328 61.342 37.0108 61.014 36.8656 60.6964C36.5776 60.0612 36.2005 59.4641 35.7303 58.9514C35.494 58.6966 35.2366 58.4613 34.9553 58.2585C34.6736 58.0563 34.3718 57.8832 34.0532 57.7485C33.4157 57.4808 32.7142 57.3698 32.0269 57.4349C31.3413 57.5004 30.6893 57.6879 30.1324 58.0946C30.4339 58.8564 30.9652 59.4978 31.6331 59.968C31.8008 60.0848 31.9765 60.1894 32.1587 60.2812C32.3412 60.372 32.5307 60.4493 32.725 60.5118C33.1135 60.6363 33.5202 60.7028 33.9275 60.7058C34.1312 60.7075 34.3349 60.693 34.5358 60.6623L34.6111 60.6508L34.6861 60.6356L34.8356 60.6046C34.9338 60.5776 35.0333 60.5553 35.1294 60.5212C35.2268 60.4918 35.3213 60.4534 35.4164 60.4169C35.4634 60.3977 35.5095 60.3757 35.5562 60.3551C35.5794 60.3447 35.6029 60.3349 35.6258 60.3234L35.694 60.2887C35.739 60.265 35.7858 60.2438 35.8298 60.2178L35.9629 60.1422C36.0069 60.1162 36.0496 60.0882 36.0933 60.0612C36.137 60.0348 36.1793 60.0058 36.2213 59.9768C36.3914 59.8627 36.5537 59.7368 36.7113 59.6052C36.8696 59.4742 37.0222 59.3352 37.1718 59.1931C37.4716 58.9092 37.7572 58.6088 38.049 58.3128C38.3404 58.0165 38.6368 57.7225 38.9541 57.4498C39.112 57.3128 39.2774 57.1835 39.4471 57.0603C39.6168 56.9371 39.796 56.8261 39.9788 56.7231C40.3461 56.5203 40.7353 56.3583 41.1369 56.2381C41.5392 56.1206 41.9533 56.0427 42.3714 56.014C43.2069 55.958 44.0542 56.07 44.8427 56.3549C45.6308 56.6387 46.3584 57.088 46.9687 57.6631L47 57.6925L46.9839 57.7316C46.8972 57.9392 46.801 58.1427 46.6938 58.3405C46.5843 58.5369 46.4663 58.7283 46.3369 58.9123C46.2058 59.0949 46.067 59.2717 45.9181 59.4395C45.7679 59.6062 45.6109 59.7669 45.4446 59.9174C44.7795 60.5199 43.985 60.9748 43.133 61.2462C42.281 61.5176 41.3722 61.608 40.4849 61.5034C39.5977 61.4011 38.7346 61.0984 37.9767 60.6262L37.9401 60.6036L37.9727 60.5759C38.3464 60.2566 38.6882 59.9005 39.0361 59.5498C39.3842 59.2005 39.7398 58.8532 40.1425 58.5639C40.5431 58.273 40.9921 58.0509 41.463 57.9031C41.6985 57.8298 41.9395 57.7731 42.1832 57.737C42.4265 57.7012 42.6732 57.6837 42.9192 57.6844Z" fill="white"/>
<path d="M42.9192 57.6844C42.6729 57.6867 42.4272 57.7073 42.1842 57.7465C41.9412 57.7856 41.7019 57.8454 41.4683 57.9213C41.0015 58.0749 40.5569 58.2986 40.1623 58.5916C39.7654 58.8826 39.4148 59.2315 39.0703 59.5839C38.7265 59.9373 38.3834 60.2779 38.0093 60.6036C38.7645 61.0622 39.6175 61.3265 40.494 61.422C41.3699 61.5203 42.2659 61.4254 43.1031 61.153C43.9406 60.881 44.7193 60.4284 45.3686 59.8333C46.018 59.2386 46.553 58.57 46.8844 57.7536C46.2851 57.1912 45.5716 56.7528 44.7996 56.4764C44.0276 56.1989 43.1975 56.0909 42.3811 56.1473C41.9725 56.176 41.5681 56.2533 41.1753 56.3687C40.783 56.4868 40.4033 56.6458 40.045 56.8446C39.8672 56.9455 39.6934 57.0535 39.5274 57.1744C39.3617 57.2952 39.2001 57.4218 39.0448 57.5571C38.7332 57.8261 38.4402 58.1181 38.1501 58.4141C37.8598 58.7097 37.5714 59.0098 37.2682 59.2967C37.1167 59.4401 36.9617 59.5805 36.8004 59.7139C36.6394 59.8479 36.4734 59.9761 36.2986 60.0929C36.2553 60.1226 36.2119 60.1523 36.1669 60.1793C36.1222 60.207 36.0782 60.2357 36.0328 60.262L35.8953 60.3396C35.8499 60.3663 35.8019 60.3879 35.7552 60.4122L35.6846 60.448C35.6611 60.4594 35.6365 60.4696 35.6127 60.4804C35.5643 60.5013 35.5169 60.5239 35.4682 60.5438C35.3697 60.5816 35.2719 60.6211 35.171 60.6511C35.0716 60.6859 34.9684 60.7092 34.8669 60.7369L34.712 60.7686L34.6343 60.7841L34.556 60.7959C34.3476 60.8273 34.1369 60.8418 33.9262 60.8398C33.5051 60.8358 33.0853 60.7662 32.6847 60.637C32.4844 60.5722 32.2891 60.4922 32.1009 60.398C31.913 60.3028 31.7319 60.1945 31.5594 60.074C30.8718 59.588 30.3267 58.9008 30.0175 58.1147L30 58.0698L30.0387 58.0418C30.6164 57.6223 31.3111 57.3803 32.0165 57.3175C32.723 57.2547 33.4432 57.3735 34.0942 57.6516C34.4196 57.7914 34.7274 57.9706 35.0138 58.1785C35.2994 58.3874 35.5606 58.6284 35.7992 58.889C36.2741 59.4131 36.6519 60.02 36.9395 60.6636C37.0844 60.9853 37.2057 61.3174 37.3059 61.6556C37.3573 61.8244 37.4 61.9955 37.4407 62.1669C37.4783 62.3391 37.5136 62.5122 37.5401 62.6864C37.5929 63.0347 37.6339 63.384 37.6645 63.7344C37.682 63.9092 37.6934 64.0847 37.7075 64.2599C37.7186 64.4354 37.732 64.6106 37.7408 64.7861C37.7801 65.4878 37.8023 66.1902 37.8093 66.8929C37.8174 67.5952 37.8097 68.298 37.7828 69C37.7919 68.649 37.7956 68.2976 37.7956 67.9466C37.7942 67.5956 37.7912 67.2442 37.7835 66.8932C37.7693 66.1912 37.7404 65.4895 37.6944 64.7888C37.684 64.6136 37.6689 64.4388 37.6561 64.2636C37.64 64.0888 37.6272 63.9139 37.608 63.7394C37.5741 63.3904 37.5297 63.0421 37.4739 62.6968C37.4161 62.3519 37.3355 62.011 37.234 61.6765C37.1328 61.342 37.0108 61.014 36.8656 60.6964C36.5776 60.0612 36.2005 59.4641 35.7303 58.9514C35.494 58.6966 35.2366 58.4613 34.9553 58.2585C34.6736 58.0563 34.3718 57.8832 34.0532 57.7485C33.4157 57.4808 32.7142 57.3698 32.0269 57.4349C31.3413 57.5004 30.6893 57.6879 30.1324 58.0946C30.4339 58.8564 30.9652 59.4978 31.6331 59.968C31.8008 60.0848 31.9765 60.1894 32.1587 60.2812C32.3412 60.372 32.5307 60.4493 32.725 60.5118C33.1135 60.6363 33.5202 60.7028 33.9275 60.7058C34.1312 60.7075 34.3349 60.693 34.5358 60.6623L34.6111 60.6508L34.6861 60.6356L34.8356 60.6046C34.9338 60.5776 35.0333 60.5553 35.1294 60.5212C35.2268 60.4918 35.3213 60.4534 35.4164 60.4169C35.4634 60.3977 35.5095 60.3757 35.5562 60.3551C35.5794 60.3447 35.6029 60.3349 35.6258 60.3234L35.694 60.2887C35.739 60.265 35.7858 60.2438 35.8298 60.2178L35.9629 60.1422C36.0069 60.1162 36.0496 60.0882 36.0933 60.0612C36.137 60.0348 36.1793 60.0058 36.2213 59.9768C36.3914 59.8627 36.5537 59.7368 36.7113 59.6052C36.8696 59.4742 37.0222 59.3352 37.1718 59.1931C37.4716 58.9092 37.7572 58.6088 38.049 58.3128C38.3404 58.0165 38.6368 57.7225 38.9541 57.4498C39.112 57.3128 39.2774 57.1835 39.4471 57.0603C39.6168 56.9371 39.796 56.8261 39.9788 56.7231C40.3461 56.5203 40.7353 56.3583 41.1369 56.2381C41.5392 56.1206 41.9533 56.0427 42.3714 56.014C43.2069 55.958 44.0542 56.07 44.8427 56.3549C45.6308 56.6387 46.3584 57.088 46.9687 57.6631L47 57.6925L46.9839 57.7316C46.8972 57.9392 46.801 58.1427 46.6938 58.3405C46.5843 58.5369 46.4663 58.7283 46.3369 58.9123C46.2058 59.0949 46.067 59.2717 45.9181 59.4395C45.7679 59.6062 45.6109 59.7669 45.4446 59.9174C44.7795 60.5199 43.985 60.9748 43.133 61.2462C42.281 61.5176 41.3722 61.608 40.4849 61.5034C39.5977 61.4011 38.7346 61.0984 37.9767 60.6262L37.9401 60.6036L37.9727 60.5759C38.3464 60.2566 38.6882 59.9005 39.0361 59.5498C39.3842 59.2005 39.7398 58.8532 40.1425 58.5639C40.5431 58.273 40.9921 58.0509 41.463 57.9031C41.6985 57.8298 41.9395 57.7731 42.1832 57.737C42.4265 57.7012 42.6732 57.6837 42.9192 57.6844Z" stroke="white" stroke-width="0.68" mask="url(#path-3-outside-1_300_120)"/>
</g>
<defs>
<filter id="filter0_ii_300_120" x="-14" y="0" width="130" height="101" filterUnits="userSpaceOnUse" color-interpolation-filters="sRGB">
<feFlood flood-opacity="0" result="BackgroundImageFix"/>
<feBlend mode="normal" in="SourceGraphic" in2="BackgroundImageFix" result="shape"/>
<feColorMatrix in="SourceAlpha" type="matrix" values="0 0 0 0 0 0 0 0 0 0 0 0 0 0 0 0 0 0 127 0" result="hardAlpha"/>
<feOffset dx="-14"/>
<feGaussianBlur stdDeviation="8.5"/>
<feComposite in2="hardAlpha" operator="arithmetic" k2="-1" k3="1"/>
<feColorMatrix type="matrix" values="0 0 0 0 0.104167 0 0 0 0 0.066116 0 0 0 0 0.030816 0 0 0 0.12 0"/>
<feBlend mode="normal" in2="shape" result="effect1_innerShadow_300_120"/>
<feColorMatrix in="SourceAlpha" type="matrix" values="0 0 0 0 0 0 0 0 0 0 0 0 0 0 0 0 0 0 127 0" result="hardAlpha"/>
<feMorphology radius="2" operator="erode" in="SourceAlpha" result="effect2_innerShadow_300_120"/>
<feOffset dx="16" dy="1"/>
<feGaussianBlur stdDeviation="15.5"/>
<feComposite in2="hardAlpha" operator="arithmetic" k2="-1" k3="1"/>
<feColorMatrix type="matrix" values="0 0 0 0 1 0 0 0 0 1 0 0 0 0 1 0 0 0 0.4 0"/>
<feBlend mode="normal" in2="effect1_innerShadow_300_120" result="effect2_innerShadow_300_120"/>
</filter>
<linearGradient id="paint0_linear_300_120" x1="5.78641e-07" y1="18.75" x2="103.376" y2="26.0587" gradientUnits="userSpaceOnUse">
<stop stop-color="#30C917"/>
<stop offset="1" stop-color="#279A13"/>
</linearGradient>
<clipPath id="clip0_300_120">
<rect width="56" height="56" fill="white" transform="translate(22 22)"/>
</clipPath>
</defs>
</svg>
