<svg width="100" height="100" viewBox="0 0 100 100" fill="none" xmlns="http://www.w3.org/2000/svg">
<g filter="url(#filter0_ii_300_141)">
<circle cx="50" cy="50" r="50" fill="url(#paint0_linear_300_141)"/>
</g>
<path d="M50 22C34.5826 22 22 34.5836 22 50C22 65.4174 34.5836 78 50 78C65.4174 78 78 65.4164 78 50C78 34.5826 65.4164 22 50 22ZM50 74.7188C36.37 74.7188 25.2812 63.63 25.2812 50C25.2812 36.37 36.37 25.2812 50 25.2812C63.63 25.2812 74.7188 36.37 74.7188 50C74.7188 63.63 63.63 74.7188 50 74.7188Z" fill="white"/>
<path d="M50 28.5625C38.2271 28.5625 28.5625 38.2261 28.5625 50C28.5625 61.7729 38.2261 71.4375 50 71.4375C61.7729 71.4375 71.4375 61.7739 71.4375 50C71.4375 38.2271 61.7739 28.5625 50 28.5625ZM50 68.1562C39.9886 68.1562 31.8438 60.0114 31.8438 50C31.8438 39.9886 39.9886 31.8438 50 31.8438C60.0114 31.8438 68.1562 39.9886 68.1562 50C68.1562 60.0114 60.0114 68.1562 50 68.1562Z" fill="white"/>
<mask id="path-4-outside-1_300_141" maskUnits="userSpaceOnUse" x="36" y="41" width="29" height="23" fill="black">
<rect fill="white" x="36" y="41" width="29" height="23"/>
<path d="M57.5188 44.7209C57.1275 44.7247 56.7373 44.758 56.3514 44.8212C55.9654 44.8845 55.5854 44.981 55.2144 45.1036C54.473 45.3517 53.7668 45.7132 53.1401 46.1865C52.5097 46.6564 51.953 47.2202 51.4058 47.7894C50.8598 48.3602 50.3148 48.9104 49.7207 49.4365C50.9201 50.1775 52.2748 50.6044 53.667 50.7587C55.058 50.9173 56.4811 50.7641 57.8107 50.3241C59.1409 49.8847 60.3777 49.1535 61.409 48.1923C62.4403 47.2316 63.2901 46.1516 63.8164 44.8327C62.8646 43.9243 61.7314 43.2161 60.5053 42.7695C59.2792 42.3214 57.9607 42.1469 56.6642 42.238C56.0151 42.2843 55.3729 42.4092 54.7489 42.5956C54.126 42.7864 53.5228 43.0432 52.9538 43.3644C52.6714 43.5274 52.3955 43.7019 52.1318 43.8971C51.8686 44.0923 51.6119 44.2967 51.3653 44.5153C50.8704 44.9499 50.405 45.4215 49.9443 45.8997C49.4831 46.3773 49.0251 46.862 48.5437 47.3254C48.3029 47.5571 48.0569 47.784 47.8006 47.9993C47.545 48.2158 47.2813 48.4229 47.0037 48.6116C46.9348 48.6596 46.866 48.7076 46.7945 48.7512C46.7235 48.7959 46.6535 48.8422 46.5815 48.8848L46.3632 49.0102C46.2911 49.0532 46.2148 49.0881 46.1406 49.1274L46.0285 49.1852C45.9911 49.2037 45.9521 49.2201 45.9142 49.2375C45.8374 49.2713 45.7621 49.3078 45.6847 49.34C45.5283 49.4011 45.373 49.4649 45.2128 49.5134C45.0548 49.5696 44.891 49.6072 44.7298 49.6519L44.4837 49.7031L44.3604 49.7282L44.236 49.7473C43.9051 49.798 43.5704 49.8214 43.2357 49.8182C42.5669 49.8116 41.9002 49.6993 41.2639 49.4905C40.9458 49.3858 40.6356 49.2566 40.3367 49.1045C40.0383 48.9507 39.7506 48.7757 39.4768 48.5811C38.3846 47.7959 37.5188 46.6859 37.0278 45.4161L37 45.3435L37.0614 45.2983C37.979 44.6206 39.0823 44.2296 40.2027 44.1282C41.3247 44.0268 42.4686 44.2187 43.5026 44.668C44.0193 44.8937 44.5082 45.1832 44.963 45.5191C45.4167 45.8566 45.8315 46.2459 46.2105 46.6668C46.9647 47.5135 47.5647 48.4938 48.0216 49.5336C48.2517 50.0532 48.4444 50.5897 48.6035 51.136C48.6851 51.4086 48.7529 51.685 48.8175 51.962C48.8773 52.24 48.9333 52.5197 48.9755 52.8011C49.0593 53.3637 49.1244 53.9281 49.173 54.494C49.2008 54.7764 49.2189 55.0599 49.2413 55.3429C49.2589 55.6264 49.2803 55.9094 49.2942 56.1929C49.3566 57.3264 49.3919 58.461 49.4031 59.5962C49.4159 60.7308 49.4036 61.8659 49.3609 63C49.3753 62.433 49.3812 61.8654 49.3812 61.2984C49.379 60.7313 49.3742 60.1638 49.362 59.5967C49.3395 58.4627 49.2936 57.3291 49.2205 56.1973C49.204 55.9143 49.1799 55.6319 49.1597 55.3489C49.134 55.0665 49.1138 54.7841 49.0833 54.5022C49.0294 53.9384 48.959 53.3757 48.8703 52.818C48.7785 52.2608 48.6504 51.7101 48.4892 51.1698C48.3286 50.6295 48.1348 50.0995 47.9042 49.5865C47.4467 48.5603 46.8478 47.5958 46.1011 46.7677C45.7258 46.356 45.3169 45.976 44.8702 45.6483C44.4228 45.3217 43.9435 45.042 43.4375 44.8245C42.4249 44.3921 41.3109 44.2127 40.2193 44.318C39.1303 44.4237 38.0948 44.7266 37.2103 45.3836C37.6891 46.6142 38.533 47.6504 39.5937 48.4099C39.86 48.5985 40.1392 48.7675 40.4285 48.9158C40.7184 49.0625 41.0194 49.1874 41.3279 49.2882C41.945 49.4894 42.5909 49.5968 43.2378 49.6017C43.5613 49.6044 43.8848 49.581 44.204 49.5314L44.3236 49.5128L44.4426 49.4883L44.6801 49.4382C44.836 49.3945 44.994 49.3586 45.1467 49.3035C45.3015 49.256 45.4514 49.1939 45.6025 49.135C45.6772 49.1039 45.7504 49.0685 45.8246 49.0352C45.8614 49.0183 45.8988 49.0025 45.9351 48.984L46.0434 48.9278C46.1149 48.8897 46.1891 48.8553 46.2591 48.8133L46.4704 48.6912C46.5404 48.6492 46.6082 48.604 46.6776 48.5603C46.7469 48.5178 46.8142 48.4709 46.8809 48.424C47.151 48.2398 47.4088 48.0364 47.6592 47.8238C47.9106 47.6122 48.1529 47.3876 48.3905 47.158C48.8666 46.6995 49.3203 46.2143 49.7837 45.7361C50.2465 45.2574 50.7172 44.7825 51.2211 44.342C51.472 44.1206 51.7346 43.9118 52.0042 43.7128C52.2738 43.5138 52.5583 43.3344 52.8487 43.1681C53.4321 42.8404 54.0502 42.5787 54.6881 42.3846C55.327 42.1949 55.9847 42.0689 56.6487 42.0226C57.9757 41.9321 59.3214 42.1131 60.5736 42.5733C61.8254 43.0318 62.981 43.7575 63.9504 44.6865L64 44.734L63.9744 44.7972C63.8367 45.1325 63.684 45.4613 63.5137 45.7808C63.3397 46.0981 63.1523 46.4073 62.9468 46.7044C62.7387 46.9994 62.5182 47.2851 62.2817 47.556C62.0431 47.8254 61.7939 48.0849 61.5296 48.3281C60.4733 49.3013 59.2114 50.0363 57.8582 50.4746C56.5051 50.913 55.0617 51.0591 53.6525 50.8901C52.2433 50.7249 50.8726 50.2358 49.6689 49.473L49.6107 49.4365L49.6625 49.3918C50.2561 48.876 50.7989 48.3008 51.3514 47.7343C51.9044 47.17 52.4691 46.609 53.1086 46.1417C53.7449 45.6718 54.458 45.313 55.2059 45.0742C55.58 44.9559 55.9628 44.8643 56.3498 44.8059C56.7362 44.7482 57.128 44.7198 57.5188 44.7209Z"/>
</mask>
<path d="M57.5188 44.7209C57.1275 44.7247 56.7373 44.758 56.3514 44.8212C55.9654 44.8845 55.5854 44.981 55.2144 45.1036C54.473 45.3517 53.7668 45.7132 53.1401 46.1865C52.5097 46.6564 51.953 47.2202 51.4058 47.7894C50.8598 48.3602 50.3148 48.9104 49.7207 49.4365C50.9201 50.1775 52.2748 50.6044 53.667 50.7587C55.058 50.9173 56.4811 50.7641 57.8107 50.3241C59.1409 49.8847 60.3777 49.1535 61.409 48.1923C62.4403 47.2316 63.2901 46.1516 63.8164 44.8327C62.8646 43.9243 61.7314 43.2161 60.5053 42.7695C59.2792 42.3214 57.9607 42.1469 56.6642 42.238C56.0151 42.2843 55.3729 42.4092 54.7489 42.5956C54.126 42.7864 53.5228 43.0432 52.9538 43.3644C52.6714 43.5274 52.3955 43.7019 52.1318 43.8971C51.8686 44.0923 51.6119 44.2967 51.3653 44.5153C50.8704 44.9499 50.405 45.4215 49.9443 45.8997C49.4831 46.3773 49.0251 46.862 48.5437 47.3254C48.3029 47.5571 48.0569 47.784 47.8006 47.9993C47.545 48.2158 47.2813 48.4229 47.0037 48.6116C46.9348 48.6596 46.866 48.7076 46.7945 48.7512C46.7235 48.7959 46.6535 48.8422 46.5815 48.8848L46.3632 49.0102C46.2911 49.0532 46.2148 49.0881 46.1406 49.1274L46.0285 49.1852C45.9911 49.2037 45.9521 49.2201 45.9142 49.2375C45.8374 49.2713 45.7621 49.3078 45.6847 49.34C45.5283 49.4011 45.373 49.4649 45.2128 49.5134C45.0548 49.5696 44.891 49.6072 44.7298 49.6519L44.4837 49.7031L44.3604 49.7282L44.236 49.7473C43.9051 49.798 43.5704 49.8214 43.2357 49.8182C42.5669 49.8116 41.9002 49.6993 41.2639 49.4905C40.9458 49.3858 40.6356 49.2566 40.3367 49.1045C40.0383 48.9507 39.7506 48.7757 39.4768 48.5811C38.3846 47.7959 37.5188 46.6859 37.0278 45.4161L37 45.3435L37.0614 45.2983C37.979 44.6206 39.0823 44.2296 40.2027 44.1282C41.3247 44.0268 42.4686 44.2187 43.5026 44.668C44.0193 44.8937 44.5082 45.1832 44.963 45.5191C45.4167 45.8566 45.8315 46.2459 46.2105 46.6668C46.9647 47.5135 47.5647 48.4938 48.0216 49.5336C48.2517 50.0532 48.4444 50.5897 48.6035 51.136C48.6851 51.4086 48.7529 51.685 48.8175 51.962C48.8773 52.24 48.9333 52.5197 48.9755 52.8011C49.0593 53.3637 49.1244 53.9281 49.173 54.494C49.2008 54.7764 49.2189 55.0599 49.2413 55.3429C49.2589 55.6264 49.2803 55.9094 49.2942 56.1929C49.3566 57.3264 49.3919 58.461 49.4031 59.5962C49.4159 60.7308 49.4036 61.8659 49.3609 63C49.3753 62.433 49.3812 61.8654 49.3812 61.2984C49.379 60.7313 49.3742 60.1638 49.362 59.5967C49.3395 58.4627 49.2936 57.3291 49.2205 56.1973C49.204 55.9143 49.1799 55.6319 49.1597 55.3489C49.134 55.0665 49.1138 54.7841 49.0833 54.5022C49.0294 53.9384 48.959 53.3757 48.8703 52.818C48.7785 52.2608 48.6504 51.7101 48.4892 51.1698C48.3286 50.6295 48.1348 50.0995 47.9042 49.5865C47.4467 48.5603 46.8478 47.5958 46.1011 46.7677C45.7258 46.356 45.3169 45.976 44.8702 45.6483C44.4228 45.3217 43.9435 45.042 43.4375 44.8245C42.4249 44.3921 41.3109 44.2127 40.2193 44.318C39.1303 44.4237 38.0948 44.7266 37.2103 45.3836C37.6891 46.6142 38.533 47.6504 39.5937 48.4099C39.86 48.5985 40.1392 48.7675 40.4285 48.9158C40.7184 49.0625 41.0194 49.1874 41.3279 49.2882C41.945 49.4894 42.5909 49.5968 43.2378 49.6017C43.5613 49.6044 43.8848 49.581 44.204 49.5314L44.3236 49.5128L44.4426 49.4883L44.6801 49.4382C44.836 49.3945 44.994 49.3586 45.1467 49.3035C45.3015 49.256 45.4514 49.1939 45.6025 49.135C45.6772 49.1039 45.7504 49.0685 45.8246 49.0352C45.8614 49.0183 45.8988 49.0025 45.9351 48.984L46.0434 48.9278C46.1149 48.8897 46.1891 48.8553 46.2591 48.8133L46.4704 48.6912C46.5404 48.6492 46.6082 48.604 46.6776 48.5603C46.7469 48.5178 46.8142 48.4709 46.8809 48.424C47.151 48.2398 47.4088 48.0364 47.6592 47.8238C47.9106 47.6122 48.1529 47.3876 48.3905 47.158C48.8666 46.6995 49.3203 46.2143 49.7837 45.7361C50.2465 45.2574 50.7172 44.7825 51.2211 44.342C51.472 44.1206 51.7346 43.9118 52.0042 43.7128C52.2738 43.5138 52.5583 43.3344 52.8487 43.1681C53.4321 42.8404 54.0502 42.5787 54.6881 42.3846C55.327 42.1949 55.9847 42.0689 56.6487 42.0226C57.9757 41.9321 59.3214 42.1131 60.5736 42.5733C61.8254 43.0318 62.981 43.7575 63.9504 44.6865L64 44.734L63.9744 44.7972C63.8367 45.1325 63.684 45.4613 63.5137 45.7808C63.3397 46.0981 63.1523 46.4073 62.9468 46.7044C62.7387 46.9994 62.5182 47.2851 62.2817 47.556C62.0431 47.8254 61.7939 48.0849 61.5296 48.3281C60.4733 49.3013 59.2114 50.0363 57.8582 50.4746C56.5051 50.913 55.0617 51.0591 53.6525 50.8901C52.2433 50.7249 50.8726 50.2358 49.6689 49.473L49.6107 49.4365L49.6625 49.3918C50.2561 48.876 50.7989 48.3008 51.3514 47.7343C51.9044 47.17 52.4691 46.609 53.1086 46.1417C53.7449 45.6718 54.458 45.313 55.2059 45.0742C55.58 44.9559 55.9628 44.8643 56.3498 44.8059C56.7362 44.7482 57.128 44.7198 57.5188 44.7209Z" fill="white"/>
<path d="M57.5188 44.7209C57.1275 44.7247 56.7373 44.758 56.3514 44.8212C55.9654 44.8845 55.5854 44.981 55.2144 45.1036C54.473 45.3517 53.7668 45.7132 53.1401 46.1865C52.5097 46.6564 51.953 47.2202 51.4058 47.7894C50.8598 48.3602 50.3148 48.9104 49.7207 49.4365C50.9201 50.1775 52.2748 50.6044 53.667 50.7587C55.058 50.9173 56.4811 50.7641 57.8107 50.3241C59.1409 49.8847 60.3777 49.1535 61.409 48.1923C62.4403 47.2316 63.2901 46.1516 63.8164 44.8327C62.8646 43.9243 61.7314 43.2161 60.5053 42.7695C59.2792 42.3214 57.9607 42.1469 56.6642 42.238C56.0151 42.2843 55.3729 42.4092 54.7489 42.5956C54.126 42.7864 53.5228 43.0432 52.9538 43.3644C52.6714 43.5274 52.3955 43.7019 52.1318 43.8971C51.8686 44.0923 51.6119 44.2967 51.3653 44.5153C50.8704 44.9499 50.405 45.4215 49.9443 45.8997C49.4831 46.3773 49.0251 46.862 48.5437 47.3254C48.3029 47.5571 48.0569 47.784 47.8006 47.9993C47.545 48.2158 47.2813 48.4229 47.0037 48.6116C46.9348 48.6596 46.866 48.7076 46.7945 48.7512C46.7235 48.7959 46.6535 48.8422 46.5815 48.8848L46.3632 49.0102C46.2911 49.0532 46.2148 49.0881 46.1406 49.1274L46.0285 49.1852C45.9911 49.2037 45.9521 49.2201 45.9142 49.2375C45.8374 49.2713 45.7621 49.3078 45.6847 49.34C45.5283 49.4011 45.373 49.4649 45.2128 49.5134C45.0548 49.5696 44.891 49.6072 44.7298 49.6519L44.4837 49.7031L44.3604 49.7282L44.236 49.7473C43.9051 49.798 43.5704 49.8214 43.2357 49.8182C42.5669 49.8116 41.9002 49.6993 41.2639 49.4905C40.9458 49.3858 40.6356 49.2566 40.3367 49.1045C40.0383 48.9507 39.7506 48.7757 39.4768 48.5811C38.3846 47.7959 37.5188 46.6859 37.0278 45.4161L37 45.3435L37.0614 45.2983C37.979 44.6206 39.0823 44.2296 40.2027 44.1282C41.3247 44.0268 42.4686 44.2187 43.5026 44.668C44.0193 44.8937 44.5082 45.1832 44.963 45.5191C45.4167 45.8566 45.8315 46.2459 46.2105 46.6668C46.9647 47.5135 47.5647 48.4938 48.0216 49.5336C48.2517 50.0532 48.4444 50.5897 48.6035 51.136C48.6851 51.4086 48.7529 51.685 48.8175 51.962C48.8773 52.24 48.9333 52.5197 48.9755 52.8011C49.0593 53.3637 49.1244 53.9281 49.173 54.494C49.2008 54.7764 49.2189 55.0599 49.2413 55.3429C49.2589 55.6264 49.2803 55.9094 49.2942 56.1929C49.3566 57.3264 49.3919 58.461 49.4031 59.5962C49.4159 60.7308 49.4036 61.8659 49.3609 63C49.3753 62.433 49.3812 61.8654 49.3812 61.2984C49.379 60.7313 49.3742 60.1638 49.362 59.5967C49.3395 58.4627 49.2936 57.3291 49.2205 56.1973C49.204 55.9143 49.1799 55.6319 49.1597 55.3489C49.134 55.0665 49.1138 54.7841 49.0833 54.5022C49.0294 53.9384 48.959 53.3757 48.8703 52.818C48.7785 52.2608 48.6504 51.7101 48.4892 51.1698C48.3286 50.6295 48.1348 50.0995 47.9042 49.5865C47.4467 48.5603 46.8478 47.5958 46.1011 46.7677C45.7258 46.356 45.3169 45.976 44.8702 45.6483C44.4228 45.3217 43.9435 45.042 43.4375 44.8245C42.4249 44.3921 41.3109 44.2127 40.2193 44.318C39.1303 44.4237 38.0948 44.7266 37.2103 45.3836C37.6891 46.6142 38.533 47.6504 39.5937 48.4099C39.86 48.5985 40.1392 48.7675 40.4285 48.9158C40.7184 49.0625 41.0194 49.1874 41.3279 49.2882C41.945 49.4894 42.5909 49.5968 43.2378 49.6017C43.5613 49.6044 43.8848 49.581 44.204 49.5314L44.3236 49.5128L44.4426 49.4883L44.6801 49.4382C44.836 49.3945 44.994 49.3586 45.1467 49.3035C45.3015 49.256 45.4514 49.1939 45.6025 49.135C45.6772 49.1039 45.7504 49.0685 45.8246 49.0352C45.8614 49.0183 45.8988 49.0025 45.9351 48.984L46.0434 48.9278C46.1149 48.8897 46.1891 48.8553 46.2591 48.8133L46.4704 48.6912C46.5404 48.6492 46.6082 48.604 46.6776 48.5603C46.7469 48.5178 46.8142 48.4709 46.8809 48.424C47.151 48.2398 47.4088 48.0364 47.6592 47.8238C47.9106 47.6122 48.1529 47.3876 48.3905 47.158C48.8666 46.6995 49.3203 46.2143 49.7837 45.7361C50.2465 45.2574 50.7172 44.7825 51.2211 44.342C51.472 44.1206 51.7346 43.9118 52.0042 43.7128C52.2738 43.5138 52.5583 43.3344 52.8487 43.1681C53.4321 42.8404 54.0502 42.5787 54.6881 42.3846C55.327 42.1949 55.9847 42.0689 56.6487 42.0226C57.9757 41.9321 59.3214 42.1131 60.5736 42.5733C61.8254 43.0318 62.981 43.7575 63.9504 44.6865L64 44.734L63.9744 44.7972C63.8367 45.1325 63.684 45.4613 63.5137 45.7808C63.3397 46.0981 63.1523 46.4073 62.9468 46.7044C62.7387 46.9994 62.5182 47.2851 62.2817 47.556C62.0431 47.8254 61.7939 48.0849 61.5296 48.3281C60.4733 49.3013 59.2114 50.0363 57.8582 50.4746C56.5051 50.913 55.0617 51.0591 53.6525 50.8901C52.2433 50.7249 50.8726 50.2358 49.6689 49.473L49.6107 49.4365L49.6625 49.3918C50.2561 48.876 50.7989 48.3008 51.3514 47.7343C51.9044 47.17 52.4691 46.609 53.1086 46.1417C53.7449 45.6718 54.458 45.313 55.2059 45.0742C55.58 44.9559 55.9628 44.8643 56.3498 44.8059C56.7362 44.7482 57.128 44.7198 57.5188 44.7209Z" stroke="white" stroke-width="0.76" mask="url(#path-4-outside-1_300_141)"/>
<defs>
<filter id="filter0_ii_300_141" x="-14" y="0" width="130" height="101" filterUnits="userSpaceOnUse" color-interpolation-filters="sRGB">
<feFlood flood-opacity="0" result="BackgroundImageFix"/>
<feBlend mode="normal" in="SourceGraphic" in2="BackgroundImageFix" result="shape"/>
<feColorMatrix in="SourceAlpha" type="matrix" values="0 0 0 0 0 0 0 0 0 0 0 0 0 0 0 0 0 0 127 0" result="hardAlpha"/>
<feOffset dx="-14"/>
<feGaussianBlur stdDeviation="8.5"/>
<feComposite in2="hardAlpha" operator="arithmetic" k2="-1" k3="1"/>
<feColorMatrix type="matrix" values="0 0 0 0 0.104167 0 0 0 0 0.066116 0 0 0 0 0.030816 0 0 0 0.12 0"/>
<feBlend mode="normal" in2="shape" result="effect1_innerShadow_300_141"/>
<feColorMatrix in="SourceAlpha" type="matrix" values="0 0 0 0 0 0 0 0 0 0 0 0 0 0 0 0 0 0 127 0" result="hardAlpha"/>
<feMorphology radius="2" operator="erode" in="SourceAlpha" result="effect2_innerShadow_300_141"/>
<feOffset dx="16" dy="1"/>
<feGaussianBlur stdDeviation="15.5"/>
<feComposite in2="hardAlpha" operator="arithmetic" k2="-1" k3="1"/>
<feColorMatrix type="matrix" values="0 0 0 0 1 0 0 0 0 1 0 0 0 0 1 0 0 0 0.4 0"/>
<feBlend mode="normal" in2="effect1_innerShadow_300_141" result="effect2_innerShadow_300_141"/>
</filter>
<linearGradient id="paint0_linear_300_141" x1="5.78641e-07" y1="18.75" x2="103.376" y2="26.0587" gradientUnits="userSpaceOnUse">
<stop stop-color="#30C917"/>
<stop offset="1" stop-color="#279A13"/>
</linearGradient>
</defs>
</svg>
