<svg width="60" height="60" viewBox="0 0 60 60" fill="none" xmlns="http://www.w3.org/2000/svg">
<g clip-path="url(#clip0_300_296)">
<path d="M17 51C17 53.1217 16.1571 55.1566 14.6569 56.6569C13.1566 58.1571 11.1217 59 9 59C6.87827 59 4.84344 58.1571 3.34315 56.6569C1.84285 55.1566 1 53.1217 1 51C1 45.667 9 39 9 39C9 39 17 45.667 17 51Z" fill="url(#paint0_linear_300_296)"/>
<path d="M32.0098 4H36.0098V12H32.0098V4Z" fill="#B9BFCC"/>
<path d="M55 19.9982V27.9982H46.378C45.5327 30.6138 43.88 32.8941 41.6574 34.5116C39.4349 36.129 36.7568 37.0003 34.008 37.0003C31.2592 37.0003 28.5811 36.129 26.3586 34.5116C24.136 32.8941 22.4833 30.6138 21.638 27.9982H14C13.7348 27.9982 13.4804 28.1036 13.2929 28.2911C13.1054 28.4786 13 28.733 13 28.9982V35.9982H5V24.9982C5 23.6721 5.52678 22.4004 6.46447 21.4627C7.40215 20.525 8.67392 19.9982 10 19.9982H21.638C22.4833 17.3826 24.136 15.1023 26.3586 13.4848C28.5811 11.8674 31.2592 10.9961 34.008 10.9961C36.7568 10.9961 39.4349 11.8674 41.6574 13.4848C43.88 15.1023 45.5327 17.3826 46.378 19.9982H55Z" fill="#CCD0DA"/>
<path d="M14 35H4C3.44772 35 3 35.4477 3 36V38C3 38.5523 3.44772 39 4 39H14C14.5523 39 15 38.5523 15 38V36C15 35.4477 14.5523 35 14 35Z" fill="#295474"/>
<path d="M40.0078 1H28.0078C27.4555 1 27.0078 1.44772 27.0078 2V4C27.0078 4.55228 27.4555 5 28.0078 5H40.0078C40.5601 5 41.0078 4.55228 41.0078 4V2C41.0078 1.44772 40.5601 1 40.0078 1Z" fill="#295474"/>
<path d="M57 18H55C53.8954 18 53 18.8954 53 20V28C53 29.1046 53.8954 30 55 30H57C58.1046 30 59 29.1046 59 28V20C59 18.8954 58.1046 18 57 18Z" fill="#295474"/>
<g filter="url(#filter0_d_300_296)">
<circle cx="34" cy="24" r="10" fill="url(#paint1_linear_300_296)"/>
<mask id="path-8-outside-1_300_296" maskUnits="userSpaceOnUse" x="25.0645" y="18.6289" width="18" height="14" fill="black">
<rect fill="white" x="25.0645" y="18.6289" width="18" height="14"/>
<path d="M38.1252 21.1956C37.8952 21.1978 37.6659 21.2169 37.439 21.2533C37.2122 21.2897 36.9888 21.3453 36.7707 21.4159C36.3349 21.5588 35.9198 21.7669 35.5515 22.0394C35.1809 22.31 34.8537 22.6346 34.5321 22.9624C34.2111 23.2911 33.8908 23.6078 33.5415 23.9108C34.2466 24.3374 35.0429 24.5832 35.8611 24.672C36.6788 24.7634 37.5153 24.6752 38.2968 24.4218C39.0787 24.1688 39.8057 23.7478 40.4118 23.1944C41.018 22.6412 41.5175 22.0193 41.8269 21.2599C41.2675 20.7369 40.6014 20.3291 39.8807 20.072C39.16 19.8139 38.385 19.7135 37.6229 19.7659C37.2413 19.7926 36.8639 19.8645 36.4971 19.9719C36.131 20.0817 35.7764 20.2296 35.442 20.4145C35.276 20.5084 35.1138 20.6088 34.9588 20.7212C34.8041 20.8336 34.6532 20.9513 34.5082 21.0772C34.2174 21.3274 33.9438 21.599 33.673 21.8743C33.4019 22.1493 33.1327 22.4284 32.8497 22.6952C32.7082 22.8286 32.5636 22.9592 32.413 23.0832C32.2627 23.2079 32.1077 23.3272 31.9445 23.4358C31.9041 23.4634 31.8636 23.491 31.8215 23.5161C31.7798 23.5419 31.7387 23.5686 31.6964 23.5931L31.568 23.6653C31.5257 23.6901 31.4808 23.7102 31.4372 23.7328L31.3713 23.766C31.3493 23.7767 31.3264 23.7861 31.3042 23.7962C31.259 23.8156 31.2147 23.8367 31.1692 23.8552C31.0773 23.8904 30.986 23.9271 30.8919 23.955C30.799 23.9874 30.7027 24.009 30.6079 24.0348L30.4633 24.0643L30.3908 24.0787L30.3177 24.0897C30.1232 24.1189 29.9265 24.1324 29.7297 24.1305C29.3366 24.1267 28.9447 24.0621 28.5707 23.9418C28.3837 23.8816 28.2014 23.8072 28.0257 23.7196C27.8503 23.631 27.6812 23.5303 27.5203 23.4182C26.8783 22.9661 26.3694 22.327 26.0808 21.5958L26.0645 21.5541L26.1005 21.528C26.6399 21.1378 27.2884 20.9127 27.947 20.8543C28.6065 20.7959 29.2789 20.9064 29.8866 21.1651C30.1903 21.2951 30.4777 21.4618 30.7451 21.6552C31.0117 21.8495 31.2555 22.0736 31.4783 22.316C31.9216 22.8035 32.2743 23.368 32.5429 23.9666C32.6781 24.2658 32.7914 24.5747 32.8849 24.8893C32.9329 25.0462 32.9727 25.2054 33.0107 25.3649C33.0458 25.525 33.0788 25.686 33.1035 25.848C33.1528 26.172 33.1911 26.4969 33.2196 26.8228C33.236 26.9854 33.2466 27.1486 33.2598 27.3116C33.2702 27.4748 33.2827 27.6378 33.2909 27.801C33.3276 28.4537 33.3483 29.107 33.3549 29.7606C33.3624 30.4139 33.3552 31.0675 33.3301 31.7204C33.3385 31.3939 33.342 31.0671 33.342 30.7407C33.3407 30.4142 33.3379 30.0874 33.3307 29.7609C33.3175 29.1079 33.2905 28.4552 33.2476 27.8035C33.2378 27.6406 33.2237 27.478 33.2118 27.315C33.1967 27.1524 33.1848 26.9898 33.1669 26.8275C33.1352 26.5029 33.0938 26.1789 33.0417 25.8578C32.9878 25.5369 32.9125 25.2199 32.8177 24.9087C32.7233 24.5976 32.6094 24.2925 32.4738 23.9971C32.205 23.4063 31.8529 22.8509 31.414 22.3741C31.1934 22.137 30.9531 21.9182 30.6905 21.7296C30.4275 21.5415 30.1458 21.3805 29.8483 21.2552C29.2531 21.0063 28.5983 20.903 27.9567 20.9636C27.3166 21.0245 26.708 21.1989 26.1881 21.5771C26.4695 22.2857 26.9656 22.8823 27.589 23.3196C27.7456 23.4282 27.9096 23.5256 28.0797 23.611C28.2501 23.6954 28.427 23.7673 28.6084 23.8254C28.9711 23.9412 29.3507 24.0031 29.731 24.0059C29.9211 24.0074 30.1113 23.9939 30.2989 23.9654L30.3692 23.9547L30.4391 23.9406L30.5788 23.9117C30.6704 23.8866 30.7632 23.8659 30.853 23.8342C30.944 23.8068 31.0321 23.7711 31.1209 23.7372C31.1649 23.7193 31.2078 23.6989 31.2515 23.6797C31.2731 23.67 31.2951 23.6609 31.3164 23.6502L31.3801 23.6179C31.4221 23.5959 31.4657 23.5761 31.5068 23.5519L31.6311 23.4816C31.6722 23.4574 31.712 23.4314 31.7528 23.4063C31.7936 23.3818 31.8332 23.3548 31.8724 23.3278C32.0311 23.2217 32.1827 23.1046 32.3298 22.9821C32.4776 22.8603 32.62 22.731 32.7597 22.5988C33.0395 22.3348 33.3062 22.0554 33.5786 21.7801C33.8506 21.5045 34.1273 21.231 34.4235 20.9774C34.571 20.8499 34.7253 20.7297 34.8838 20.6151C35.0422 20.5005 35.2095 20.3972 35.3802 20.3015C35.7231 20.1128 36.0864 19.9621 36.4614 19.8504C36.8369 19.7411 37.2235 19.6686 37.6138 19.6419C38.3938 19.5898 39.1847 19.694 39.9208 19.959C40.6566 20.223 41.3359 20.6408 41.9056 21.1758L41.9348 21.2031L41.9197 21.2395C41.8388 21.4326 41.7491 21.6219 41.649 21.8058C41.5467 21.9886 41.4366 22.1666 41.3158 22.3376C41.1934 22.5075 41.0638 22.672 40.9248 22.828C40.7846 22.9831 40.6381 23.1325 40.4827 23.2725C39.8618 23.8329 39.1201 24.2561 38.3247 24.5085C37.5294 24.7609 36.681 24.845 35.8527 24.7477C35.0244 24.6526 34.2186 24.371 33.5111 23.9318L33.4769 23.9108L33.5073 23.885C33.8562 23.588 34.1753 23.2568 34.5001 22.9307C34.8251 22.6057 35.1571 22.2827 35.533 22.0137C35.9069 21.7431 36.3261 21.5365 36.7657 21.399C36.9856 21.3309 37.2106 21.2781 37.4381 21.2445C37.6652 21.2113 37.8955 21.1949 38.1252 21.1956Z"/>
</mask>
<path d="M38.1252 21.1956C37.8952 21.1978 37.6659 21.2169 37.439 21.2533C37.2122 21.2897 36.9888 21.3453 36.7707 21.4159C36.3349 21.5588 35.9198 21.7669 35.5515 22.0394C35.1809 22.31 34.8537 22.6346 34.5321 22.9624C34.2111 23.2911 33.8908 23.6078 33.5415 23.9108C34.2466 24.3374 35.0429 24.5832 35.8611 24.672C36.6788 24.7634 37.5153 24.6752 38.2968 24.4218C39.0787 24.1688 39.8057 23.7478 40.4118 23.1944C41.018 22.6412 41.5175 22.0193 41.8269 21.2599C41.2675 20.7369 40.6014 20.3291 39.8807 20.072C39.16 19.8139 38.385 19.7135 37.6229 19.7659C37.2413 19.7926 36.8639 19.8645 36.4971 19.9719C36.131 20.0817 35.7764 20.2296 35.442 20.4145C35.276 20.5084 35.1138 20.6088 34.9588 20.7212C34.8041 20.8336 34.6532 20.9513 34.5082 21.0772C34.2174 21.3274 33.9438 21.599 33.673 21.8743C33.4019 22.1493 33.1327 22.4284 32.8497 22.6952C32.7082 22.8286 32.5636 22.9592 32.413 23.0832C32.2627 23.2079 32.1077 23.3272 31.9445 23.4358C31.9041 23.4634 31.8636 23.491 31.8215 23.5161C31.7798 23.5419 31.7387 23.5686 31.6964 23.5931L31.568 23.6653C31.5257 23.6901 31.4808 23.7102 31.4372 23.7328L31.3713 23.766C31.3493 23.7767 31.3264 23.7861 31.3042 23.7962C31.259 23.8156 31.2147 23.8367 31.1692 23.8552C31.0773 23.8904 30.986 23.9271 30.8919 23.955C30.799 23.9874 30.7027 24.009 30.6079 24.0348L30.4633 24.0643L30.3908 24.0787L30.3177 24.0897C30.1232 24.1189 29.9265 24.1324 29.7297 24.1305C29.3366 24.1267 28.9447 24.0621 28.5707 23.9418C28.3837 23.8816 28.2014 23.8072 28.0257 23.7196C27.8503 23.631 27.6812 23.5303 27.5203 23.4182C26.8783 22.9661 26.3694 22.327 26.0808 21.5958L26.0645 21.5541L26.1005 21.528C26.6399 21.1378 27.2884 20.9127 27.947 20.8543C28.6065 20.7959 29.2789 20.9064 29.8866 21.1651C30.1903 21.2951 30.4777 21.4618 30.7451 21.6552C31.0117 21.8495 31.2555 22.0736 31.4783 22.316C31.9216 22.8035 32.2743 23.368 32.5429 23.9666C32.6781 24.2658 32.7914 24.5747 32.8849 24.8893C32.9329 25.0462 32.9727 25.2054 33.0107 25.3649C33.0458 25.525 33.0788 25.686 33.1035 25.848C33.1528 26.172 33.1911 26.4969 33.2196 26.8228C33.236 26.9854 33.2466 27.1486 33.2598 27.3116C33.2702 27.4748 33.2827 27.6378 33.2909 27.801C33.3276 28.4537 33.3483 29.107 33.3549 29.7606C33.3624 30.4139 33.3552 31.0675 33.3301 31.7204C33.3385 31.3939 33.342 31.0671 33.342 30.7407C33.3407 30.4142 33.3379 30.0874 33.3307 29.7609C33.3175 29.1079 33.2905 28.4552 33.2476 27.8035C33.2378 27.6406 33.2237 27.478 33.2118 27.315C33.1967 27.1524 33.1848 26.9898 33.1669 26.8275C33.1352 26.5029 33.0938 26.1789 33.0417 25.8578C32.9878 25.5369 32.9125 25.2199 32.8177 24.9087C32.7233 24.5976 32.6094 24.2925 32.4738 23.9971C32.205 23.4063 31.8529 22.8509 31.414 22.3741C31.1934 22.137 30.9531 21.9182 30.6905 21.7296C30.4275 21.5415 30.1458 21.3805 29.8483 21.2552C29.2531 21.0063 28.5983 20.903 27.9567 20.9636C27.3166 21.0245 26.708 21.1989 26.1881 21.5771C26.4695 22.2857 26.9656 22.8823 27.589 23.3196C27.7456 23.4282 27.9096 23.5256 28.0797 23.611C28.2501 23.6954 28.427 23.7673 28.6084 23.8254C28.9711 23.9412 29.3507 24.0031 29.731 24.0059C29.9211 24.0074 30.1113 23.9939 30.2989 23.9654L30.3692 23.9547L30.4391 23.9406L30.5788 23.9117C30.6704 23.8866 30.7632 23.8659 30.853 23.8342C30.944 23.8068 31.0321 23.7711 31.1209 23.7372C31.1649 23.7193 31.2078 23.6989 31.2515 23.6797C31.2731 23.67 31.2951 23.6609 31.3164 23.6502L31.3801 23.6179C31.4221 23.5959 31.4657 23.5761 31.5068 23.5519L31.6311 23.4816C31.6722 23.4574 31.712 23.4314 31.7528 23.4063C31.7936 23.3818 31.8332 23.3548 31.8724 23.3278C32.0311 23.2217 32.1827 23.1046 32.3298 22.9821C32.4776 22.8603 32.62 22.731 32.7597 22.5988C33.0395 22.3348 33.3062 22.0554 33.5786 21.7801C33.8506 21.5045 34.1273 21.231 34.4235 20.9774C34.571 20.8499 34.7253 20.7297 34.8838 20.6151C35.0422 20.5005 35.2095 20.3972 35.3802 20.3015C35.7231 20.1128 36.0864 19.9621 36.4614 19.8504C36.8369 19.7411 37.2235 19.6686 37.6138 19.6419C38.3938 19.5898 39.1847 19.694 39.9208 19.959C40.6566 20.223 41.3359 20.6408 41.9056 21.1758L41.9348 21.2031L41.9197 21.2395C41.8388 21.4326 41.7491 21.6219 41.649 21.8058C41.5467 21.9886 41.4366 22.1666 41.3158 22.3376C41.1934 22.5075 41.0638 22.672 40.9248 22.828C40.7846 22.9831 40.6381 23.1325 40.4827 23.2725C39.8618 23.8329 39.1201 24.2561 38.3247 24.5085C37.5294 24.7609 36.681 24.845 35.8527 24.7477C35.0244 24.6526 34.2186 24.371 33.5111 23.9318L33.4769 23.9108L33.5073 23.885C33.8562 23.588 34.1753 23.2568 34.5001 22.9307C34.8251 22.6057 35.1571 22.2827 35.533 22.0137C35.9069 21.7431 36.3261 21.5365 36.7657 21.399C36.9856 21.3309 37.2106 21.2781 37.4381 21.2445C37.6652 21.2113 37.8955 21.1949 38.1252 21.1956Z" fill="white"/>
<path d="M38.1252 21.1956C37.8952 21.1978 37.6659 21.2169 37.439 21.2533C37.2122 21.2897 36.9888 21.3453 36.7707 21.4159C36.3349 21.5588 35.9198 21.7669 35.5515 22.0394C35.1809 22.31 34.8537 22.6346 34.5321 22.9624C34.2111 23.2911 33.8908 23.6078 33.5415 23.9108C34.2466 24.3374 35.0429 24.5832 35.8611 24.672C36.6788 24.7634 37.5153 24.6752 38.2968 24.4218C39.0787 24.1688 39.8057 23.7478 40.4118 23.1944C41.018 22.6412 41.5175 22.0193 41.8269 21.2599C41.2675 20.7369 40.6014 20.3291 39.8807 20.072C39.16 19.8139 38.385 19.7135 37.6229 19.7659C37.2413 19.7926 36.8639 19.8645 36.4971 19.9719C36.131 20.0817 35.7764 20.2296 35.442 20.4145C35.276 20.5084 35.1138 20.6088 34.9588 20.7212C34.8041 20.8336 34.6532 20.9513 34.5082 21.0772C34.2174 21.3274 33.9438 21.599 33.673 21.8743C33.4019 22.1493 33.1327 22.4284 32.8497 22.6952C32.7082 22.8286 32.5636 22.9592 32.413 23.0832C32.2627 23.2079 32.1077 23.3272 31.9445 23.4358C31.9041 23.4634 31.8636 23.491 31.8215 23.5161C31.7798 23.5419 31.7387 23.5686 31.6964 23.5931L31.568 23.6653C31.5257 23.6901 31.4808 23.7102 31.4372 23.7328L31.3713 23.766C31.3493 23.7767 31.3264 23.7861 31.3042 23.7962C31.259 23.8156 31.2147 23.8367 31.1692 23.8552C31.0773 23.8904 30.986 23.9271 30.8919 23.955C30.799 23.9874 30.7027 24.009 30.6079 24.0348L30.4633 24.0643L30.3908 24.0787L30.3177 24.0897C30.1232 24.1189 29.9265 24.1324 29.7297 24.1305C29.3366 24.1267 28.9447 24.0621 28.5707 23.9418C28.3837 23.8816 28.2014 23.8072 28.0257 23.7196C27.8503 23.631 27.6812 23.5303 27.5203 23.4182C26.8783 22.9661 26.3694 22.327 26.0808 21.5958L26.0645 21.5541L26.1005 21.528C26.6399 21.1378 27.2884 20.9127 27.947 20.8543C28.6065 20.7959 29.2789 20.9064 29.8866 21.1651C30.1903 21.2951 30.4777 21.4618 30.7451 21.6552C31.0117 21.8495 31.2555 22.0736 31.4783 22.316C31.9216 22.8035 32.2743 23.368 32.5429 23.9666C32.6781 24.2658 32.7914 24.5747 32.8849 24.8893C32.9329 25.0462 32.9727 25.2054 33.0107 25.3649C33.0458 25.525 33.0788 25.686 33.1035 25.848C33.1528 26.172 33.1911 26.4969 33.2196 26.8228C33.236 26.9854 33.2466 27.1486 33.2598 27.3116C33.2702 27.4748 33.2827 27.6378 33.2909 27.801C33.3276 28.4537 33.3483 29.107 33.3549 29.7606C33.3624 30.4139 33.3552 31.0675 33.3301 31.7204C33.3385 31.3939 33.342 31.0671 33.342 30.7407C33.3407 30.4142 33.3379 30.0874 33.3307 29.7609C33.3175 29.1079 33.2905 28.4552 33.2476 27.8035C33.2378 27.6406 33.2237 27.478 33.2118 27.315C33.1967 27.1524 33.1848 26.9898 33.1669 26.8275C33.1352 26.5029 33.0938 26.1789 33.0417 25.8578C32.9878 25.5369 32.9125 25.2199 32.8177 24.9087C32.7233 24.5976 32.6094 24.2925 32.4738 23.9971C32.205 23.4063 31.8529 22.8509 31.414 22.3741C31.1934 22.137 30.9531 21.9182 30.6905 21.7296C30.4275 21.5415 30.1458 21.3805 29.8483 21.2552C29.2531 21.0063 28.5983 20.903 27.9567 20.9636C27.3166 21.0245 26.708 21.1989 26.1881 21.5771C26.4695 22.2857 26.9656 22.8823 27.589 23.3196C27.7456 23.4282 27.9096 23.5256 28.0797 23.611C28.2501 23.6954 28.427 23.7673 28.6084 23.8254C28.9711 23.9412 29.3507 24.0031 29.731 24.0059C29.9211 24.0074 30.1113 23.9939 30.2989 23.9654L30.3692 23.9547L30.4391 23.9406L30.5788 23.9117C30.6704 23.8866 30.7632 23.8659 30.853 23.8342C30.944 23.8068 31.0321 23.7711 31.1209 23.7372C31.1649 23.7193 31.2078 23.6989 31.2515 23.6797C31.2731 23.67 31.2951 23.6609 31.3164 23.6502L31.3801 23.6179C31.4221 23.5959 31.4657 23.5761 31.5068 23.5519L31.6311 23.4816C31.6722 23.4574 31.712 23.4314 31.7528 23.4063C31.7936 23.3818 31.8332 23.3548 31.8724 23.3278C32.0311 23.2217 32.1827 23.1046 32.3298 22.9821C32.4776 22.8603 32.62 22.731 32.7597 22.5988C33.0395 22.3348 33.3062 22.0554 33.5786 21.7801C33.8506 21.5045 34.1273 21.231 34.4235 20.9774C34.571 20.8499 34.7253 20.7297 34.8838 20.6151C35.0422 20.5005 35.2095 20.3972 35.3802 20.3015C35.7231 20.1128 36.0864 19.9621 36.4614 19.8504C36.8369 19.7411 37.2235 19.6686 37.6138 19.6419C38.3938 19.5898 39.1847 19.694 39.9208 19.959C40.6566 20.223 41.3359 20.6408 41.9056 21.1758L41.9348 21.2031L41.9197 21.2395C41.8388 21.4326 41.7491 21.6219 41.649 21.8058C41.5467 21.9886 41.4366 22.1666 41.3158 22.3376C41.1934 22.5075 41.0638 22.672 40.9248 22.828C40.7846 22.9831 40.6381 23.1325 40.4827 23.2725C39.8618 23.8329 39.1201 24.2561 38.3247 24.5085C37.5294 24.7609 36.681 24.845 35.8527 24.7477C35.0244 24.6526 34.2186 24.371 33.5111 23.9318L33.4769 23.9108L33.5073 23.885C33.8562 23.588 34.1753 23.2568 34.5001 22.9307C34.8251 22.6057 35.1571 22.2827 35.533 22.0137C35.9069 21.7431 36.3261 21.5365 36.7657 21.399C36.9856 21.3309 37.2106 21.2781 37.4381 21.2445C37.6652 21.2113 37.8955 21.1949 38.1252 21.1956Z" stroke="white" stroke-width="0.340909" mask="url(#path-8-outside-1_300_296)"/>
<mask id="path-9-outside-2_300_296" maskUnits="userSpaceOnUse" x="2" y="46" width="14" height="11" fill="black">
<rect fill="white" x="2" y="46" width="14" height="11"/>
<path d="M12.0684 48.178C11.8955 48.1796 11.723 48.194 11.5524 48.2214C11.3819 48.2488 11.2139 48.2905 11.05 48.3437C10.7223 48.4511 10.4102 48.6076 10.1332 48.8124C9.8546 49.0159 9.60855 49.26 9.36674 49.5064C9.1254 49.7535 8.88454 49.9917 8.62197 50.2195C9.15206 50.5403 9.7508 50.7251 10.3661 50.7919C10.9808 50.8606 11.6098 50.7943 12.1974 50.6038C12.7853 50.4135 13.3319 50.097 13.7877 49.6808C14.2435 49.2649 14.619 48.7973 14.8516 48.2263C14.431 47.8331 13.9302 47.5265 13.3883 47.3332C12.8464 47.1391 12.2637 47.0636 11.6907 47.103C11.4038 47.1231 11.12 47.1771 10.8442 47.2579C10.5689 47.3405 10.3024 47.4517 10.0509 47.5907C9.92608 47.6613 9.80412 47.7368 9.68758 47.8213C9.57127 47.9058 9.4578 47.9943 9.34881 48.089C9.13012 48.2771 8.92441 48.4813 8.72082 48.6883C8.51699 48.8951 8.31458 49.1049 8.10179 49.3055C7.99539 49.4059 7.88664 49.504 7.7734 49.5973C7.6604 49.691 7.54386 49.7807 7.42119 49.8624C7.39076 49.8831 7.36032 49.9039 7.32871 49.9228C7.29734 49.9421 7.26643 49.9622 7.23458 49.9806L7.1381 50.0349C7.10625 50.0536 7.07251 50.0687 7.03972 50.0857L6.99018 50.1107C6.97367 50.1187 6.95645 50.1258 6.9397 50.1333C6.90573 50.148 6.87246 50.1638 6.83826 50.1777C6.76913 50.2041 6.70048 50.2318 6.62971 50.2528C6.55988 50.2771 6.48746 50.2934 6.41621 50.3127L6.30746 50.3349L6.25296 50.3458L6.198 50.354C6.05173 50.376 5.90382 50.3861 5.7559 50.3847C5.46031 50.3819 5.16565 50.3333 4.88445 50.2429C4.74385 50.1975 4.60678 50.1416 4.47467 50.0757C4.3428 50.0092 4.21564 49.9334 4.09462 49.8491C3.61195 49.5092 3.2293 49.0287 3.01227 48.4789L3 48.4475L3.02713 48.4279C3.43266 48.1345 3.92029 47.9653 4.41546 47.9214C4.91134 47.8775 5.4169 47.9606 5.87386 48.1551C6.10222 48.2528 6.31831 48.3781 6.51931 48.5235C6.71983 48.6696 6.90313 48.8382 7.07063 49.0204C7.40397 49.387 7.66913 49.8114 7.87107 50.2615C7.97275 50.4865 8.05791 50.7187 8.12821 50.9552C8.16431 51.0733 8.19427 51.1929 8.22281 51.3128C8.24923 51.4332 8.274 51.5543 8.29264 51.6761C8.32968 51.9197 8.35846 52.164 8.37993 52.409C8.3922 52.5313 8.40022 52.654 8.41012 52.7765C8.41791 52.8993 8.42735 53.0218 8.43348 53.1445C8.46108 53.6353 8.47665 54.1265 8.48161 54.6179C8.48727 55.1091 8.48184 55.6006 8.46297 56.0915C8.46934 55.846 8.47193 55.6003 8.47193 55.3548C8.47099 55.1094 8.46887 54.8636 8.46344 54.6181C8.45353 54.1272 8.43324 53.6364 8.40092 53.1464C8.39361 53.0239 8.38299 52.9016 8.37403 52.7791C8.36271 52.6569 8.35374 52.5346 8.34029 52.4126C8.31647 52.1685 8.28533 51.9249 8.24617 51.6834C8.20559 51.4422 8.14897 51.2038 8.07773 50.9699C8.00672 50.736 7.92108 50.5065 7.81917 50.2844C7.61699 49.8402 7.3523 49.4226 7.02227 49.0641C6.85642 48.8858 6.67571 48.7213 6.47826 48.5795C6.28056 48.4381 6.06872 48.317 5.84507 48.2228C5.39755 48.0356 4.90521 47.958 4.42277 48.0035C3.94152 48.0493 3.48385 48.1804 3.09295 48.4649C3.30456 48.9976 3.67753 49.4462 4.14629 49.775C4.26401 49.8567 4.38739 49.9299 4.51525 49.9941C4.64335 50.0576 4.7764 50.1116 4.91276 50.1553C5.18547 50.2424 5.47092 50.2889 5.75684 50.291C5.89981 50.2922 6.04277 50.282 6.18384 50.2606L6.23669 50.2525L6.28929 50.2419L6.39427 50.2202C6.46316 50.2013 6.53299 50.1857 6.60046 50.1619C6.66887 50.1414 6.73516 50.1145 6.80193 50.089C6.83495 50.0755 6.86727 50.0602 6.90006 50.0458C6.91634 50.0384 6.93286 50.0316 6.9489 50.0236L6.99679 49.9993C7.0284 49.9827 7.06119 49.9679 7.09209 49.9497L7.18552 49.8968C7.21642 49.8786 7.24638 49.8591 7.27705 49.8402C7.30772 49.8218 7.33744 49.8015 7.36693 49.7812C7.4863 49.7014 7.60025 49.6133 7.71089 49.5213C7.822 49.4297 7.9291 49.3324 8.03408 49.2331C8.24451 49.0346 8.44504 48.8245 8.64981 48.6175C8.85434 48.4102 9.06242 48.2046 9.28511 48.0139C9.39599 47.9181 9.51206 47.8277 9.63119 47.7415C9.75033 47.6554 9.87607 47.5777 10.0044 47.5057C10.2623 47.3638 10.5354 47.2505 10.8174 47.1665C11.0997 47.0844 11.3904 47.0298 11.6838 47.0098C12.2703 46.9706 12.865 47.049 13.4185 47.2482C13.9717 47.4467 14.4824 47.7609 14.9109 48.1631L14.9328 48.1836L14.9215 48.211C14.8606 48.3562 14.7931 48.4985 14.7179 48.6368C14.641 48.7742 14.5582 48.908 14.4673 49.0367C14.3753 49.1644 14.2779 49.2881 14.1734 49.4054C14.068 49.522 13.9578 49.6343 13.841 49.7396C13.3741 50.161 12.8165 50.4791 12.2184 50.6689C11.6204 50.8587 10.9825 50.922 10.3597 50.8488C9.73688 50.7773 9.13107 50.5655 8.59909 50.2353L8.57337 50.2195L8.59626 50.2001C8.85859 49.9768 9.09851 49.7278 9.34268 49.4826C9.58708 49.2383 9.83667 48.9954 10.1193 48.7931C10.4005 48.5896 10.7157 48.4343 11.0462 48.3309C11.2116 48.2797 11.3807 48.24 11.5517 48.2148C11.7225 48.1898 11.8957 48.1775 12.0684 48.178Z"/>
</mask>
<path d="M12.0684 48.178C11.8955 48.1796 11.723 48.194 11.5524 48.2214C11.3819 48.2488 11.2139 48.2905 11.05 48.3437C10.7223 48.4511 10.4102 48.6076 10.1332 48.8124C9.8546 49.0159 9.60855 49.26 9.36674 49.5064C9.1254 49.7535 8.88454 49.9917 8.62197 50.2195C9.15206 50.5403 9.7508 50.7251 10.3661 50.7919C10.9808 50.8606 11.6098 50.7943 12.1974 50.6038C12.7853 50.4135 13.3319 50.097 13.7877 49.6808C14.2435 49.2649 14.619 48.7973 14.8516 48.2263C14.431 47.8331 13.9302 47.5265 13.3883 47.3332C12.8464 47.1391 12.2637 47.0636 11.6907 47.103C11.4038 47.1231 11.12 47.1771 10.8442 47.2579C10.5689 47.3405 10.3024 47.4517 10.0509 47.5907C9.92608 47.6613 9.80412 47.7368 9.68758 47.8213C9.57127 47.9058 9.4578 47.9943 9.34881 48.089C9.13012 48.2771 8.92441 48.4813 8.72082 48.6883C8.51699 48.8951 8.31458 49.1049 8.10179 49.3055C7.99539 49.4059 7.88664 49.504 7.7734 49.5973C7.6604 49.691 7.54386 49.7807 7.42119 49.8624C7.39076 49.8831 7.36032 49.9039 7.32871 49.9228C7.29734 49.9421 7.26643 49.9622 7.23458 49.9806L7.1381 50.0349C7.10625 50.0536 7.07251 50.0687 7.03972 50.0857L6.99018 50.1107C6.97367 50.1187 6.95645 50.1258 6.9397 50.1333C6.90573 50.148 6.87246 50.1638 6.83826 50.1777C6.76913 50.2041 6.70048 50.2318 6.62971 50.2528C6.55988 50.2771 6.48746 50.2934 6.41621 50.3127L6.30746 50.3349L6.25296 50.3458L6.198 50.354C6.05173 50.376 5.90382 50.3861 5.7559 50.3847C5.46031 50.3819 5.16565 50.3333 4.88445 50.2429C4.74385 50.1975 4.60678 50.1416 4.47467 50.0757C4.3428 50.0092 4.21564 49.9334 4.09462 49.8491C3.61195 49.5092 3.2293 49.0287 3.01227 48.4789L3 48.4475L3.02713 48.4279C3.43266 48.1345 3.92029 47.9653 4.41546 47.9214C4.91134 47.8775 5.4169 47.9606 5.87386 48.1551C6.10222 48.2528 6.31831 48.3781 6.51931 48.5235C6.71983 48.6696 6.90313 48.8382 7.07063 49.0204C7.40397 49.387 7.66913 49.8114 7.87107 50.2615C7.97275 50.4865 8.05791 50.7187 8.12821 50.9552C8.16431 51.0733 8.19427 51.1929 8.22281 51.3128C8.24923 51.4332 8.274 51.5543 8.29264 51.6761C8.32968 51.9197 8.35846 52.164 8.37993 52.409C8.3922 52.5313 8.40022 52.654 8.41012 52.7765C8.41791 52.8993 8.42735 53.0218 8.43348 53.1445C8.46108 53.6353 8.47665 54.1265 8.48161 54.6179C8.48727 55.1091 8.48184 55.6006 8.46297 56.0915C8.46934 55.846 8.47193 55.6003 8.47193 55.3548C8.47099 55.1094 8.46887 54.8636 8.46344 54.6181C8.45353 54.1272 8.43324 53.6364 8.40092 53.1464C8.39361 53.0239 8.38299 52.9016 8.37403 52.7791C8.36271 52.6569 8.35374 52.5346 8.34029 52.4126C8.31647 52.1685 8.28533 51.9249 8.24617 51.6834C8.20559 51.4422 8.14897 51.2038 8.07773 50.9699C8.00672 50.736 7.92108 50.5065 7.81917 50.2844C7.61699 49.8402 7.3523 49.4226 7.02227 49.0641C6.85642 48.8858 6.67571 48.7213 6.47826 48.5795C6.28056 48.4381 6.06872 48.317 5.84507 48.2228C5.39755 48.0356 4.90521 47.958 4.42277 48.0035C3.94152 48.0493 3.48385 48.1804 3.09295 48.4649C3.30456 48.9976 3.67753 49.4462 4.14629 49.775C4.26401 49.8567 4.38739 49.9299 4.51525 49.9941C4.64335 50.0576 4.7764 50.1116 4.91276 50.1553C5.18547 50.2424 5.47092 50.2889 5.75684 50.291C5.89981 50.2922 6.04277 50.282 6.18384 50.2606L6.23669 50.2525L6.28929 50.2419L6.39427 50.2202C6.46316 50.2013 6.53299 50.1857 6.60046 50.1619C6.66887 50.1414 6.73516 50.1145 6.80193 50.089C6.83495 50.0755 6.86727 50.0602 6.90006 50.0458C6.91634 50.0384 6.93286 50.0316 6.9489 50.0236L6.99679 49.9993C7.0284 49.9827 7.06119 49.9679 7.09209 49.9497L7.18552 49.8968C7.21642 49.8786 7.24638 49.8591 7.27705 49.8402C7.30772 49.8218 7.33744 49.8015 7.36693 49.7812C7.4863 49.7014 7.60025 49.6133 7.71089 49.5213C7.822 49.4297 7.9291 49.3324 8.03408 49.2331C8.24451 49.0346 8.44504 48.8245 8.64981 48.6175C8.85434 48.4102 9.06242 48.2046 9.28511 48.0139C9.39599 47.9181 9.51206 47.8277 9.63119 47.7415C9.75033 47.6554 9.87607 47.5777 10.0044 47.5057C10.2623 47.3638 10.5354 47.2505 10.8174 47.1665C11.0997 47.0844 11.3904 47.0298 11.6838 47.0098C12.2703 46.9706 12.865 47.049 13.4185 47.2482C13.9717 47.4467 14.4824 47.7609 14.9109 48.1631L14.9328 48.1836L14.9215 48.211C14.8606 48.3562 14.7931 48.4985 14.7179 48.6368C14.641 48.7742 14.5582 48.908 14.4673 49.0367C14.3753 49.1644 14.2779 49.2881 14.1734 49.4054C14.068 49.522 13.9578 49.6343 13.841 49.7396C13.3741 50.161 12.8165 50.4791 12.2184 50.6689C11.6204 50.8587 10.9825 50.922 10.3597 50.8488C9.73688 50.7773 9.13107 50.5655 8.59909 50.2353L8.57337 50.2195L8.59626 50.2001C8.85859 49.9768 9.09851 49.7278 9.34268 49.4826C9.58708 49.2383 9.83667 48.9954 10.1193 48.7931C10.4005 48.5896 10.7157 48.4343 11.0462 48.3309C11.2116 48.2797 11.3807 48.24 11.5517 48.2148C11.7225 48.1898 11.8957 48.1775 12.0684 48.178Z" fill="white"/>
<path d="M12.0684 48.178C11.8955 48.1796 11.723 48.194 11.5524 48.2214C11.3819 48.2488 11.2139 48.2905 11.05 48.3437C10.7223 48.4511 10.4102 48.6076 10.1332 48.8124C9.8546 49.0159 9.60855 49.26 9.36674 49.5064C9.1254 49.7535 8.88454 49.9917 8.62197 50.2195C9.15206 50.5403 9.7508 50.7251 10.3661 50.7919C10.9808 50.8606 11.6098 50.7943 12.1974 50.6038C12.7853 50.4135 13.3319 50.097 13.7877 49.6808C14.2435 49.2649 14.619 48.7973 14.8516 48.2263C14.431 47.8331 13.9302 47.5265 13.3883 47.3332C12.8464 47.1391 12.2637 47.0636 11.6907 47.103C11.4038 47.1231 11.12 47.1771 10.8442 47.2579C10.5689 47.3405 10.3024 47.4517 10.0509 47.5907C9.92608 47.6613 9.80412 47.7368 9.68758 47.8213C9.57127 47.9058 9.4578 47.9943 9.34881 48.089C9.13012 48.2771 8.92441 48.4813 8.72082 48.6883C8.51699 48.8951 8.31458 49.1049 8.10179 49.3055C7.99539 49.4059 7.88664 49.504 7.7734 49.5973C7.6604 49.691 7.54386 49.7807 7.42119 49.8624C7.39076 49.8831 7.36032 49.9039 7.32871 49.9228C7.29734 49.9421 7.26643 49.9622 7.23458 49.9806L7.1381 50.0349C7.10625 50.0536 7.07251 50.0687 7.03972 50.0857L6.99018 50.1107C6.97367 50.1187 6.95645 50.1258 6.9397 50.1333C6.90573 50.148 6.87246 50.1638 6.83826 50.1777C6.76913 50.2041 6.70048 50.2318 6.62971 50.2528C6.55988 50.2771 6.48746 50.2934 6.41621 50.3127L6.30746 50.3349L6.25296 50.3458L6.198 50.354C6.05173 50.376 5.90382 50.3861 5.7559 50.3847C5.46031 50.3819 5.16565 50.3333 4.88445 50.2429C4.74385 50.1975 4.60678 50.1416 4.47467 50.0757C4.3428 50.0092 4.21564 49.9334 4.09462 49.8491C3.61195 49.5092 3.2293 49.0287 3.01227 48.4789L3 48.4475L3.02713 48.4279C3.43266 48.1345 3.92029 47.9653 4.41546 47.9214C4.91134 47.8775 5.4169 47.9606 5.87386 48.1551C6.10222 48.2528 6.31831 48.3781 6.51931 48.5235C6.71983 48.6696 6.90313 48.8382 7.07063 49.0204C7.40397 49.387 7.66913 49.8114 7.87107 50.2615C7.97275 50.4865 8.05791 50.7187 8.12821 50.9552C8.16431 51.0733 8.19427 51.1929 8.22281 51.3128C8.24923 51.4332 8.274 51.5543 8.29264 51.6761C8.32968 51.9197 8.35846 52.164 8.37993 52.409C8.3922 52.5313 8.40022 52.654 8.41012 52.7765C8.41791 52.8993 8.42735 53.0218 8.43348 53.1445C8.46108 53.6353 8.47665 54.1265 8.48161 54.6179C8.48727 55.1091 8.48184 55.6006 8.46297 56.0915C8.46934 55.846 8.47193 55.6003 8.47193 55.3548C8.47099 55.1094 8.46887 54.8636 8.46344 54.6181C8.45353 54.1272 8.43324 53.6364 8.40092 53.1464C8.39361 53.0239 8.38299 52.9016 8.37403 52.7791C8.36271 52.6569 8.35374 52.5346 8.34029 52.4126C8.31647 52.1685 8.28533 51.9249 8.24617 51.6834C8.20559 51.4422 8.14897 51.2038 8.07773 50.9699C8.00672 50.736 7.92108 50.5065 7.81917 50.2844C7.61699 49.8402 7.3523 49.4226 7.02227 49.0641C6.85642 48.8858 6.67571 48.7213 6.47826 48.5795C6.28056 48.4381 6.06872 48.317 5.84507 48.2228C5.39755 48.0356 4.90521 47.958 4.42277 48.0035C3.94152 48.0493 3.48385 48.1804 3.09295 48.4649C3.30456 48.9976 3.67753 49.4462 4.14629 49.775C4.26401 49.8567 4.38739 49.9299 4.51525 49.9941C4.64335 50.0576 4.7764 50.1116 4.91276 50.1553C5.18547 50.2424 5.47092 50.2889 5.75684 50.291C5.89981 50.2922 6.04277 50.282 6.18384 50.2606L6.23669 50.2525L6.28929 50.2419L6.39427 50.2202C6.46316 50.2013 6.53299 50.1857 6.60046 50.1619C6.66887 50.1414 6.73516 50.1145 6.80193 50.089C6.83495 50.0755 6.86727 50.0602 6.90006 50.0458C6.91634 50.0384 6.93286 50.0316 6.9489 50.0236L6.99679 49.9993C7.0284 49.9827 7.06119 49.9679 7.09209 49.9497L7.18552 49.8968C7.21642 49.8786 7.24638 49.8591 7.27705 49.8402C7.30772 49.8218 7.33744 49.8015 7.36693 49.7812C7.4863 49.7014 7.60025 49.6133 7.71089 49.5213C7.822 49.4297 7.9291 49.3324 8.03408 49.2331C8.24451 49.0346 8.44504 48.8245 8.64981 48.6175C8.85434 48.4102 9.06242 48.2046 9.28511 48.0139C9.39599 47.9181 9.51206 47.8277 9.63119 47.7415C9.75033 47.6554 9.87607 47.5777 10.0044 47.5057C10.2623 47.3638 10.5354 47.2505 10.8174 47.1665C11.0997 47.0844 11.3904 47.0298 11.6838 47.0098C12.2703 46.9706 12.865 47.049 13.4185 47.2482C13.9717 47.4467 14.4824 47.7609 14.9109 48.1631L14.9328 48.1836L14.9215 48.211C14.8606 48.3562 14.7931 48.4985 14.7179 48.6368C14.641 48.7742 14.5582 48.908 14.4673 49.0367C14.3753 49.1644 14.2779 49.2881 14.1734 49.4054C14.068 49.522 13.9578 49.6343 13.841 49.7396C13.3741 50.161 12.8165 50.4791 12.2184 50.6689C11.6204 50.8587 10.9825 50.922 10.3597 50.8488C9.73688 50.7773 9.13107 50.5655 8.59909 50.2353L8.57337 50.2195L8.59626 50.2001C8.85859 49.9768 9.09851 49.7278 9.34268 49.4826C9.58708 49.2383 9.83667 48.9954 10.1193 48.7931C10.4005 48.5896 10.7157 48.4343 11.0462 48.3309C11.2116 48.2797 11.3807 48.24 11.5517 48.2148C11.7225 48.1898 11.8957 48.1775 12.0684 48.178Z" stroke="white" stroke-width="0.256327" mask="url(#path-9-outside-2_300_296)"/>
</g>
</g>
<defs>
<filter id="filter0_d_300_296" x="-4.77432" y="7.33333" width="56.3934" height="57.3358" filterUnits="userSpaceOnUse" color-interpolation-filters="sRGB">
<feFlood flood-opacity="0" result="BackgroundImageFix"/>
<feColorMatrix in="SourceAlpha" type="matrix" values="0 0 0 0 0 0 0 0 0 0 0 0 0 0 0 0 0 0 127 0" result="hardAlpha"/>
<feOffset dy="0.952381"/>
<feGaussianBlur stdDeviation="3.80952"/>
<feComposite in2="hardAlpha" operator="out"/>
<feColorMatrix type="matrix" values="0 0 0 0 0.104167 0 0 0 0 0.066116 0 0 0 0 0.030816 0 0 0 0.12 0"/>
<feBlend mode="normal" in2="BackgroundImageFix" result="effect1_dropShadow_300_296"/>
<feBlend mode="normal" in="SourceGraphic" in2="effect1_dropShadow_300_296" result="shape"/>
</filter>
<linearGradient id="paint0_linear_300_296" x1="1" y1="42.75" x2="17.5698" y2="43.6872" gradientUnits="userSpaceOnUse">
<stop stop-color="#30C917"/>
<stop offset="1" stop-color="#279A13"/>
</linearGradient>
<linearGradient id="paint1_linear_300_296" x1="24" y1="17.75" x2="44.6752" y2="19.2117" gradientUnits="userSpaceOnUse">
<stop stop-color="#30C917"/>
<stop offset="1" stop-color="#279A13"/>
</linearGradient>
<clipPath id="clip0_300_296">
<rect width="60" height="60" fill="white"/>
</clipPath>
</defs>
</svg>
