<svg width="60" height="60" viewBox="0 0 60 60" fill="none" xmlns="http://www.w3.org/2000/svg">
<g clip-path="url(#clip0_300_195)">
<path d="M49.5676 17.5985L48.6695 8.6617C48.6383 8.35078 48.3366 8.14099 48.034 8.21976L39.3275 10.4851C38.9061 10.5948 38.8075 11.1476 39.165 11.3959L41.8359 13.1836C41.8359 13.1836 40.5469 25.4297 14.2969 28.4945V29.0625C20.0794 29.0941 37.2773 29.368 46.7578 16.6406L48.7694 18.0674C49.1268 18.3156 49.611 18.0311 49.5676 17.5985Z" fill="url(#paint0_linear_300_195)"/>
<path d="M15 53.4375H2.8125C2.29473 53.4375 1.875 53.8572 1.875 54.375V58.125C1.875 58.6428 2.29473 59.0625 2.8125 59.0625H15C15.5178 59.0625 15.9375 58.6428 15.9375 58.125V54.375C15.9375 53.8572 15.5178 53.4375 15 53.4375Z" fill="#FAE15A"/>
<path d="M15.4688 55.3125H4.21875C3.95987 55.3125 3.75 55.5224 3.75 55.7812V58.5938C3.75 58.8526 3.95987 59.0625 4.21875 59.0625H15.4688C15.7276 59.0625 15.9375 58.8526 15.9375 58.5938V55.7812C15.9375 55.5224 15.7276 55.3125 15.4688 55.3125Z" fill="#F5C115"/>
<path d="M5.625 56.25H7.03125V59.0625H5.625V56.25Z" fill="#EFA400"/>
<path d="M10.7812 56.25H12.1875V59.0625H10.7812V56.25Z" fill="#EFA400"/>
<path d="M15 47.8125H2.8125C2.29473 47.8125 1.875 48.2322 1.875 48.75V52.5C1.875 53.0178 2.29473 53.4375 2.8125 53.4375H15C15.5178 53.4375 15.9375 53.0178 15.9375 52.5V48.75C15.9375 48.2322 15.5178 47.8125 15 47.8125Z" fill="#FAE15A"/>
<path d="M15.4688 49.6875H4.21875C3.95987 49.6875 3.75 49.8974 3.75 50.1562V52.9688C3.75 53.2276 3.95987 53.4375 4.21875 53.4375H15.4688C15.7276 53.4375 15.9375 53.2276 15.9375 52.9688V50.1562C15.9375 49.8974 15.7276 49.6875 15.4688 49.6875Z" fill="#F5C115"/>
<path d="M5.625 50.625H7.03125V53.4375H5.625V50.625Z" fill="#EFA400"/>
<path d="M10.7812 50.625H12.1875V53.4375H10.7812V50.625Z" fill="#EFA400"/>
<path d="M29.0625 53.4375H16.875C16.3572 53.4375 15.9375 53.8572 15.9375 54.375V58.125C15.9375 58.6428 16.3572 59.0625 16.875 59.0625H29.0625C29.5803 59.0625 30 58.6428 30 58.125V54.375C30 53.8572 29.5803 53.4375 29.0625 53.4375Z" fill="#FAE15A"/>
<path d="M29.5312 55.3125H18.2812C18.0224 55.3125 17.8125 55.5224 17.8125 55.7812V58.5938C17.8125 58.8526 18.0224 59.0625 18.2812 59.0625H29.5312C29.7901 59.0625 30 58.8526 30 58.5938V55.7812C30 55.5224 29.7901 55.3125 29.5312 55.3125Z" fill="#F5C115"/>
<path d="M19.6875 56.25H21.0938V59.0625H19.6875V56.25Z" fill="#EFA400"/>
<path d="M24.8438 56.25H26.25V59.0625H24.8438V56.25Z" fill="#EFA400"/>
<path d="M29.0625 47.8125H16.875C16.3572 47.8125 15.9375 48.2322 15.9375 48.75V52.5C15.9375 53.0178 16.3572 53.4375 16.875 53.4375H29.0625C29.5803 53.4375 30 53.0178 30 52.5V48.75C30 48.2322 29.5803 47.8125 29.0625 47.8125Z" fill="#FAE15A"/>
<path d="M29.5312 49.6875H18.2812C18.0224 49.6875 17.8125 49.8974 17.8125 50.1562V52.9688C17.8125 53.2276 18.0224 53.4375 18.2812 53.4375H29.5312C29.7901 53.4375 30 53.2276 30 52.9688V50.1562C30 49.8974 29.7901 49.6875 29.5312 49.6875Z" fill="#F5C115"/>
<path d="M19.6875 50.625H21.0938V53.4375H19.6875V50.625Z" fill="#EFA400"/>
<path d="M24.8438 50.625H26.25V53.4375H24.8438V50.625Z" fill="#EFA400"/>
<path d="M29.0625 42.1875H16.875C16.3572 42.1875 15.9375 42.6072 15.9375 43.125V46.875C15.9375 47.3928 16.3572 47.8125 16.875 47.8125H29.0625C29.5803 47.8125 30 47.3928 30 46.875V43.125C30 42.6072 29.5803 42.1875 29.0625 42.1875Z" fill="#FAE15A"/>
<path d="M29.5312 44.0625H18.2812C18.0224 44.0625 17.8125 44.2724 17.8125 44.5312V47.3438C17.8125 47.6026 18.0224 47.8125 18.2812 47.8125H29.5312C29.7901 47.8125 30 47.6026 30 47.3438V44.5312C30 44.2724 29.7901 44.0625 29.5312 44.0625Z" fill="#F5C115"/>
<path d="M19.6875 45H21.0938V47.8125H19.6875V45Z" fill="#EFA400"/>
<path d="M24.8438 45H26.25V47.8125H24.8438V45Z" fill="#EFA400"/>
<path d="M43.125 53.4375H30.9375C30.4197 53.4375 30 53.8572 30 54.375V58.125C30 58.6428 30.4197 59.0625 30.9375 59.0625H43.125C43.6428 59.0625 44.0625 58.6428 44.0625 58.125V54.375C44.0625 53.8572 43.6428 53.4375 43.125 53.4375Z" fill="#FAE15A"/>
<path d="M43.5938 55.3125H32.3438C32.0849 55.3125 31.875 55.5224 31.875 55.7812V58.5938C31.875 58.8526 32.0849 59.0625 32.3438 59.0625H43.5938C43.8526 59.0625 44.0625 58.8526 44.0625 58.5938V55.7812C44.0625 55.5224 43.8526 55.3125 43.5938 55.3125Z" fill="#F5C115"/>
<path d="M33.75 56.25H35.1562V59.0625H33.75V56.25Z" fill="#EFA400"/>
<path d="M38.9062 56.25H40.3125V59.0625H38.9062V56.25Z" fill="#EFA400"/>
<path d="M43.125 47.8125H30.9375C30.4197 47.8125 30 48.2322 30 48.75V52.5C30 53.0178 30.4197 53.4375 30.9375 53.4375H43.125C43.6428 53.4375 44.0625 53.0178 44.0625 52.5V48.75C44.0625 48.2322 43.6428 47.8125 43.125 47.8125Z" fill="#FAE15A"/>
<path d="M43.5938 49.6875H32.3438C32.0849 49.6875 31.875 49.8974 31.875 50.1562V52.9688C31.875 53.2276 32.0849 53.4375 32.3438 53.4375H43.5938C43.8526 53.4375 44.0625 53.2276 44.0625 52.9688V50.1562C44.0625 49.8974 43.8526 49.6875 43.5938 49.6875Z" fill="#F5C115"/>
<path d="M33.75 50.625H35.1562V53.4375H33.75V50.625Z" fill="#EFA400"/>
<path d="M38.9062 50.625H40.3125V53.4375H38.9062V50.625Z" fill="#EFA400"/>
<path d="M43.125 42.1875H30.9375C30.4197 42.1875 30 42.6072 30 43.125V46.875C30 47.3928 30.4197 47.8125 30.9375 47.8125H43.125C43.6428 47.8125 44.0625 47.3928 44.0625 46.875V43.125C44.0625 42.6072 43.6428 42.1875 43.125 42.1875Z" fill="#FAE15A"/>
<path d="M43.5938 44.0625H32.3438C32.0849 44.0625 31.875 44.2724 31.875 44.5312V47.3438C31.875 47.6026 32.0849 47.8125 32.3438 47.8125H43.5938C43.8526 47.8125 44.0625 47.6026 44.0625 47.3438V44.5312C44.0625 44.2724 43.8526 44.0625 43.5938 44.0625Z" fill="#F5C115"/>
<path d="M33.75 45H35.1562V47.8125H33.75V45Z" fill="#EFA400"/>
<path d="M38.9062 45H40.3125V47.8125H38.9062V45Z" fill="#EFA400"/>
<path d="M43.125 36.5625H30.9375C30.4197 36.5625 30 36.9822 30 37.5V41.25C30 41.7678 30.4197 42.1875 30.9375 42.1875H43.125C43.6428 42.1875 44.0625 41.7678 44.0625 41.25V37.5C44.0625 36.9822 43.6428 36.5625 43.125 36.5625Z" fill="#FAE15A"/>
<path d="M43.5938 38.4375H32.3438C32.0849 38.4375 31.875 38.6474 31.875 38.9062V41.7188C31.875 41.9776 32.0849 42.1875 32.3438 42.1875H43.5938C43.8526 42.1875 44.0625 41.9776 44.0625 41.7188V38.9062C44.0625 38.6474 43.8526 38.4375 43.5938 38.4375Z" fill="#F5C115"/>
<path d="M33.75 39.375H35.1562V42.1875H33.75V39.375Z" fill="#EFA400"/>
<path d="M38.9062 39.375H40.3125V42.1875H38.9062V39.375Z" fill="#EFA400"/>
<path d="M57.1875 53.4375H45C44.4822 53.4375 44.0625 53.8572 44.0625 54.375V58.125C44.0625 58.6428 44.4822 59.0625 45 59.0625H57.1875C57.7053 59.0625 58.125 58.6428 58.125 58.125V54.375C58.125 53.8572 57.7053 53.4375 57.1875 53.4375Z" fill="#FAE15A"/>
<path d="M57.6562 55.3125H46.4062C46.1474 55.3125 45.9375 55.5224 45.9375 55.7812V58.5938C45.9375 58.8526 46.1474 59.0625 46.4062 59.0625H57.6562C57.9151 59.0625 58.125 58.8526 58.125 58.5938V55.7812C58.125 55.5224 57.9151 55.3125 57.6562 55.3125Z" fill="#F5C115"/>
<path d="M47.8125 56.25H49.2188V59.0625H47.8125V56.25Z" fill="#EFA400"/>
<path d="M52.9688 56.25H54.375V59.0625H52.9688V56.25Z" fill="#EFA400"/>
<path d="M57.1875 47.8125H45C44.4822 47.8125 44.0625 48.2322 44.0625 48.75V52.5C44.0625 53.0178 44.4822 53.4375 45 53.4375H57.1875C57.7053 53.4375 58.125 53.0178 58.125 52.5V48.75C58.125 48.2322 57.7053 47.8125 57.1875 47.8125Z" fill="#FAE15A"/>
<path d="M57.6562 49.6875H46.4062C46.1474 49.6875 45.9375 49.8974 45.9375 50.1562V52.9688C45.9375 53.2276 46.1474 53.4375 46.4062 53.4375H57.6562C57.9151 53.4375 58.125 53.2276 58.125 52.9688V50.1562C58.125 49.8974 57.9151 49.6875 57.6562 49.6875Z" fill="#F5C115"/>
<path d="M47.8125 50.625H49.2188V53.4375H47.8125V50.625Z" fill="#EFA400"/>
<path d="M52.9688 50.625H54.375V53.4375H52.9688V50.625Z" fill="#EFA400"/>
<path d="M57.1875 42.1875H45C44.4822 42.1875 44.0625 42.6072 44.0625 43.125V46.875C44.0625 47.3928 44.4822 47.8125 45 47.8125H57.1875C57.7053 47.8125 58.125 47.3928 58.125 46.875V43.125C58.125 42.6072 57.7053 42.1875 57.1875 42.1875Z" fill="#FAE15A"/>
<path d="M57.6562 44.0625H46.4062C46.1474 44.0625 45.9375 44.2724 45.9375 44.5312V47.3438C45.9375 47.6026 46.1474 47.8125 46.4062 47.8125H57.6562C57.9151 47.8125 58.125 47.6026 58.125 47.3438V44.5312C58.125 44.2724 57.9151 44.0625 57.6562 44.0625Z" fill="#F5C115"/>
<path d="M47.8125 45H49.2188V47.8125H47.8125V45Z" fill="#EFA400"/>
<path d="M52.9688 45H54.375V47.8125H52.9688V45Z" fill="#EFA400"/>
<path d="M57.1875 36.5625H45C44.4822 36.5625 44.0625 36.9822 44.0625 37.5V41.25C44.0625 41.7678 44.4822 42.1875 45 42.1875H57.1875C57.7053 42.1875 58.125 41.7678 58.125 41.25V37.5C58.125 36.9822 57.7053 36.5625 57.1875 36.5625Z" fill="#FAE15A"/>
<path d="M57.6562 38.4375H46.4062C46.1474 38.4375 45.9375 38.6474 45.9375 38.9062V41.7188C45.9375 41.9776 46.1474 42.1875 46.4062 42.1875H57.6562C57.9151 42.1875 58.125 41.9776 58.125 41.7188V38.9062C58.125 38.6474 57.9151 38.4375 57.6562 38.4375Z" fill="#F5C115"/>
<path d="M47.8125 39.375H49.2188V42.1875H47.8125V39.375Z" fill="#EFA400"/>
<path d="M52.9688 39.375H54.375V42.1875H52.9688V39.375Z" fill="#EFA400"/>
<path d="M57.1875 30.9375H45C44.4822 30.9375 44.0625 31.3572 44.0625 31.875V35.625C44.0625 36.1428 44.4822 36.5625 45 36.5625H57.1875C57.7053 36.5625 58.125 36.1428 58.125 35.625V31.875C58.125 31.3572 57.7053 30.9375 57.1875 30.9375Z" fill="#FAE15A"/>
<path d="M57.6562 32.8125H46.4062C46.1474 32.8125 45.9375 33.0224 45.9375 33.2812V36.0938C45.9375 36.3526 46.1474 36.5625 46.4062 36.5625H57.6562C57.9151 36.5625 58.125 36.3526 58.125 36.0938V33.2812C58.125 33.0224 57.9151 32.8125 57.6562 32.8125Z" fill="#F5C115"/>
<path d="M47.8125 33.75H49.2188V36.5625H47.8125V33.75Z" fill="#EFA400"/>
<path d="M52.9688 33.75H54.375V36.5625H52.9688V33.75Z" fill="#EFA400"/>
<path d="M57.1875 25.3125H45C44.4822 25.3125 44.0625 25.7322 44.0625 26.25V30C44.0625 30.5178 44.4822 30.9375 45 30.9375H57.1875C57.7053 30.9375 58.125 30.5178 58.125 30V26.25C58.125 25.7322 57.7053 25.3125 57.1875 25.3125Z" fill="#FAE15A"/>
<path d="M57.6562 27.1875H46.4062C46.1474 27.1875 45.9375 27.3974 45.9375 27.6562V30.4688C45.9375 30.7276 46.1474 30.9375 46.4062 30.9375H57.6562C57.9151 30.9375 58.125 30.7276 58.125 30.4688V27.6562C58.125 27.3974 57.9151 27.1875 57.6562 27.1875Z" fill="#F5C115"/>
<path d="M47.8125 28.125H49.2188V30.9375H47.8125V28.125Z" fill="#EFA400"/>
<path d="M52.9688 28.125H54.375V30.9375H52.9688V28.125Z" fill="#EFA400"/>
<g filter="url(#filter0_d_300_195)">
<circle cx="13" cy="27" r="12" fill="url(#paint1_linear_300_195)"/>
<mask id="path-63-outside-1_300_195" maskUnits="userSpaceOnUse" x="2.47852" y="20.7539" width="21" height="16" fill="black">
<rect fill="white" x="2.47852" y="20.7539" width="21" height="16"/>
<path d="M17.9514 23.6339C17.6754 23.6365 17.4002 23.6595 17.128 23.7032C16.8558 23.7469 16.5877 23.8136 16.326 23.8983C15.8031 24.0698 15.3049 24.3195 14.8629 24.6465C14.4183 24.9712 14.0256 25.3608 13.6397 25.7541C13.2545 26.1485 12.8701 26.5286 12.451 26.8921C13.297 27.4041 14.2526 27.6991 15.2345 27.8057C16.2157 27.9153 17.2195 27.8094 18.1573 27.5054C19.0956 27.2018 19.968 26.6966 20.6954 26.0325C21.4228 25.3687 22.0222 24.6224 22.3934 23.7111C21.7221 23.0835 20.9228 22.5942 20.058 22.2856C19.1931 21.976 18.2631 21.8554 17.3486 21.9183C16.8908 21.9503 16.4378 22.0366 15.9977 22.1654C15.5583 22.2973 15.1329 22.4747 14.7315 22.6966C14.5324 22.8093 14.3377 22.9298 14.1517 23.0647C13.9661 23.1995 13.785 23.3408 13.611 23.4919C13.262 23.7921 12.9337 24.118 12.6088 24.4484C12.2835 24.7784 11.9604 25.1133 11.6208 25.4335C11.451 25.5936 11.2775 25.7503 11.0967 25.8991C10.9164 26.0487 10.7304 26.1918 10.5346 26.3222C10.486 26.3553 10.4375 26.3885 10.387 26.4186C10.3369 26.4495 10.2876 26.4815 10.2368 26.5109L10.0828 26.5975C10.032 26.6273 9.97814 26.6514 9.9258 26.6785L9.84674 26.7185C9.82038 26.7313 9.7929 26.7426 9.76616 26.7546C9.71195 26.778 9.65886 26.8032 9.60427 26.8254C9.49395 26.8676 9.38439 26.9117 9.27144 26.9452C9.15999 26.984 9.0444 27.01 8.9307 27.0409L8.75713 27.0763L8.67016 27.0937L8.58243 27.1069C8.349 27.1419 8.11293 27.1581 7.87686 27.1558C7.4051 27.1513 6.93484 27.0737 6.48604 26.9294C6.26165 26.8571 6.0429 26.7678 5.83205 26.6627C5.62159 26.5565 5.41865 26.4355 5.2255 26.3011C4.45517 25.7586 3.84448 24.9916 3.49809 24.1142L3.47852 24.0641L3.52181 24.0328C4.16903 23.5646 4.94727 23.2945 5.73755 23.2244C6.52897 23.1543 7.33582 23.2869 8.06511 23.5974C8.42957 23.7533 8.77445 23.9533 9.09523 24.1854C9.41526 24.4186 9.70781 24.6876 9.97512 24.9784C10.5071 25.5634 10.9303 26.2408 11.2526 26.9592C11.4149 27.3182 11.5508 27.6889 11.663 28.0664C11.7206 28.2547 11.7684 28.4457 11.814 28.6371C11.8561 28.8292 11.8957 29.0225 11.9254 29.2169C11.9845 29.6056 12.0305 29.9955 12.0647 30.3866C12.0843 30.5817 12.0971 30.7776 12.1129 30.9731C12.1253 31.169 12.1404 31.3645 12.1502 31.5604C12.1943 32.3436 12.2191 33.1276 12.227 33.9119C12.236 34.6958 12.2274 35.4802 12.1973 36.2637C12.2074 35.872 12.2116 35.4798 12.2116 35.088C12.2101 34.6962 12.2067 34.3041 12.198 33.9123C12.1822 33.1287 12.1498 32.3455 12.0982 31.5634C12.0866 31.3679 12.0696 31.1728 12.0553 30.9773C12.0372 30.7821 12.0229 30.587 12.0015 30.3922C11.9635 30.0027 11.9138 29.6139 11.8513 29.2285C11.7865 28.8435 11.6961 28.463 11.5824 28.0897C11.4691 27.7164 11.3324 27.3502 11.1698 26.9957C10.8471 26.2867 10.4247 25.6203 9.89794 25.0481C9.63326 24.7637 9.34485 24.5011 9.02972 24.2747C8.71421 24.049 8.3761 23.8558 8.01918 23.7055C7.30494 23.4067 6.51918 23.2828 5.74922 23.3555C4.98115 23.4286 4.25073 23.6379 3.62686 24.0918C3.96458 24.942 4.55984 25.658 5.30796 26.1828C5.49583 26.3131 5.69275 26.4299 5.89681 26.5324C6.10126 26.6337 6.3136 26.72 6.53123 26.7897C6.96647 26.9287 7.42204 27.0029 7.87836 27.0063C8.10653 27.0082 8.33469 26.992 8.55984 26.9577L8.64418 26.9449L8.72814 26.9279L8.89568 26.8933C9.00562 26.8631 9.11707 26.8383 9.22475 26.8002C9.33394 26.7674 9.43973 26.7245 9.54629 26.6838C9.599 26.6623 9.65058 26.6378 9.70291 26.6149C9.72889 26.6032 9.75525 26.5923 9.78085 26.5795L9.85728 26.5406C9.90773 26.5143 9.96006 26.4905 10.0094 26.4615L10.1585 26.3772C10.2078 26.3481 10.2556 26.3169 10.3046 26.2867C10.3535 26.2574 10.401 26.225 10.448 26.1926C10.6385 26.0652 10.8204 25.9247 10.997 25.7778C11.1743 25.6316 11.3452 25.4764 11.5128 25.3178C11.8486 25.001 12.1686 24.6657 12.4955 24.3353C12.8219 24.0046 13.154 23.6765 13.5094 23.3721C13.6863 23.2191 13.8716 23.0748 14.0617 22.9373C14.2519 22.7998 14.4525 22.6759 14.6574 22.561C15.0689 22.3346 15.5049 22.1538 15.9548 22.0197C16.4055 21.8886 16.8693 21.8015 17.3377 21.7695C18.2737 21.707 19.2229 21.8321 20.1061 22.15C20.9891 22.4668 21.8042 22.9682 22.4879 23.6102L22.5229 23.6429L22.5049 23.6866C22.4077 23.9183 22.3 24.1455 22.1799 24.3662C22.0572 24.5855 21.925 24.7991 21.7801 25.0044C21.6333 25.2082 21.4778 25.4056 21.311 25.5928C21.1427 25.7789 20.9668 25.9582 20.7805 26.1263C20.0354 26.7987 19.1453 27.3065 18.1909 27.6094C17.2364 27.9123 16.2183 28.0132 15.2244 27.8965C14.2304 27.7823 13.2635 27.4444 12.4145 26.9174L12.3735 26.8921L12.41 26.8612C12.8287 26.5049 13.2116 26.1074 13.6013 25.716C13.9913 25.3261 14.3897 24.9385 14.8407 24.6156C15.2895 24.2909 15.7925 24.043 16.32 23.878C16.5839 23.7963 16.8539 23.733 17.1269 23.6927C17.3994 23.6527 17.6758 23.6331 17.9514 23.6339Z"/>
</mask>
<path d="M17.9514 23.6339C17.6754 23.6365 17.4002 23.6595 17.128 23.7032C16.8558 23.7469 16.5877 23.8136 16.326 23.8983C15.8031 24.0698 15.3049 24.3195 14.8629 24.6465C14.4183 24.9712 14.0256 25.3608 13.6397 25.7541C13.2545 26.1485 12.8701 26.5286 12.451 26.8921C13.297 27.4041 14.2526 27.6991 15.2345 27.8057C16.2157 27.9153 17.2195 27.8094 18.1573 27.5054C19.0956 27.2018 19.968 26.6966 20.6954 26.0325C21.4228 25.3687 22.0222 24.6224 22.3934 23.7111C21.7221 23.0835 20.9228 22.5942 20.058 22.2856C19.1931 21.976 18.2631 21.8554 17.3486 21.9183C16.8908 21.9503 16.4378 22.0366 15.9977 22.1654C15.5583 22.2973 15.1329 22.4747 14.7315 22.6966C14.5324 22.8093 14.3377 22.9298 14.1517 23.0647C13.9661 23.1995 13.785 23.3408 13.611 23.4919C13.262 23.7921 12.9337 24.118 12.6088 24.4484C12.2835 24.7784 11.9604 25.1133 11.6208 25.4335C11.451 25.5936 11.2775 25.7503 11.0967 25.8991C10.9164 26.0487 10.7304 26.1918 10.5346 26.3222C10.486 26.3553 10.4375 26.3885 10.387 26.4186C10.3369 26.4495 10.2876 26.4815 10.2368 26.5109L10.0828 26.5975C10.032 26.6273 9.97814 26.6514 9.9258 26.6785L9.84674 26.7185C9.82038 26.7313 9.7929 26.7426 9.76616 26.7546C9.71195 26.778 9.65886 26.8032 9.60427 26.8254C9.49395 26.8676 9.38439 26.9117 9.27144 26.9452C9.15999 26.984 9.0444 27.01 8.9307 27.0409L8.75713 27.0763L8.67016 27.0937L8.58243 27.1069C8.349 27.1419 8.11293 27.1581 7.87686 27.1558C7.4051 27.1513 6.93484 27.0737 6.48604 26.9294C6.26165 26.8571 6.0429 26.7678 5.83205 26.6627C5.62159 26.5565 5.41865 26.4355 5.2255 26.3011C4.45517 25.7586 3.84448 24.9916 3.49809 24.1142L3.47852 24.0641L3.52181 24.0328C4.16903 23.5646 4.94727 23.2945 5.73755 23.2244C6.52897 23.1543 7.33582 23.2869 8.06511 23.5974C8.42957 23.7533 8.77445 23.9533 9.09523 24.1854C9.41526 24.4186 9.70781 24.6876 9.97512 24.9784C10.5071 25.5634 10.9303 26.2408 11.2526 26.9592C11.4149 27.3182 11.5508 27.6889 11.663 28.0664C11.7206 28.2547 11.7684 28.4457 11.814 28.6371C11.8561 28.8292 11.8957 29.0225 11.9254 29.2169C11.9845 29.6056 12.0305 29.9955 12.0647 30.3866C12.0843 30.5817 12.0971 30.7776 12.1129 30.9731C12.1253 31.169 12.1404 31.3645 12.1502 31.5604C12.1943 32.3436 12.2191 33.1276 12.227 33.9119C12.236 34.6958 12.2274 35.4802 12.1973 36.2637C12.2074 35.872 12.2116 35.4798 12.2116 35.088C12.2101 34.6962 12.2067 34.3041 12.198 33.9123C12.1822 33.1287 12.1498 32.3455 12.0982 31.5634C12.0866 31.3679 12.0696 31.1728 12.0553 30.9773C12.0372 30.7821 12.0229 30.587 12.0015 30.3922C11.9635 30.0027 11.9138 29.6139 11.8513 29.2285C11.7865 28.8435 11.6961 28.463 11.5824 28.0897C11.4691 27.7164 11.3324 27.3502 11.1698 26.9957C10.8471 26.2867 10.4247 25.6203 9.89794 25.0481C9.63326 24.7637 9.34485 24.5011 9.02972 24.2747C8.71421 24.049 8.3761 23.8558 8.01918 23.7055C7.30494 23.4067 6.51918 23.2828 5.74922 23.3555C4.98115 23.4286 4.25073 23.6379 3.62686 24.0918C3.96458 24.942 4.55984 25.658 5.30796 26.1828C5.49583 26.3131 5.69275 26.4299 5.89681 26.5324C6.10126 26.6337 6.3136 26.72 6.53123 26.7897C6.96647 26.9287 7.42204 27.0029 7.87836 27.0063C8.10653 27.0082 8.33469 26.992 8.55984 26.9577L8.64418 26.9449L8.72814 26.9279L8.89568 26.8933C9.00562 26.8631 9.11707 26.8383 9.22475 26.8002C9.33394 26.7674 9.43973 26.7245 9.54629 26.6838C9.599 26.6623 9.65058 26.6378 9.70291 26.6149C9.72889 26.6032 9.75525 26.5923 9.78085 26.5795L9.85728 26.5406C9.90773 26.5143 9.96006 26.4905 10.0094 26.4615L10.1585 26.3772C10.2078 26.3481 10.2556 26.3169 10.3046 26.2867C10.3535 26.2574 10.401 26.225 10.448 26.1926C10.6385 26.0652 10.8204 25.9247 10.997 25.7778C11.1743 25.6316 11.3452 25.4764 11.5128 25.3178C11.8486 25.001 12.1686 24.6657 12.4955 24.3353C12.8219 24.0046 13.154 23.6765 13.5094 23.3721C13.6863 23.2191 13.8716 23.0748 14.0617 22.9373C14.2519 22.7998 14.4525 22.6759 14.6574 22.561C15.0689 22.3346 15.5049 22.1538 15.9548 22.0197C16.4055 21.8886 16.8693 21.8015 17.3377 21.7695C18.2737 21.707 19.2229 21.8321 20.1061 22.15C20.9891 22.4668 21.8042 22.9682 22.4879 23.6102L22.5229 23.6429L22.5049 23.6866C22.4077 23.9183 22.3 24.1455 22.1799 24.3662C22.0572 24.5855 21.925 24.7991 21.7801 25.0044C21.6333 25.2082 21.4778 25.4056 21.311 25.5928C21.1427 25.7789 20.9668 25.9582 20.7805 26.1263C20.0354 26.7987 19.1453 27.3065 18.1909 27.6094C17.2364 27.9123 16.2183 28.0132 15.2244 27.8965C14.2304 27.7823 13.2635 27.4444 12.4145 26.9174L12.3735 26.8921L12.41 26.8612C12.8287 26.5049 13.2116 26.1074 13.6013 25.716C13.9913 25.3261 14.3897 24.9385 14.8407 24.6156C15.2895 24.2909 15.7925 24.043 16.32 23.878C16.5839 23.7963 16.8539 23.733 17.1269 23.6927C17.3994 23.6527 17.6758 23.6331 17.9514 23.6339Z" fill="white"/>
<path d="M17.9514 23.6339C17.6754 23.6365 17.4002 23.6595 17.128 23.7032C16.8558 23.7469 16.5877 23.8136 16.326 23.8983C15.8031 24.0698 15.3049 24.3195 14.8629 24.6465C14.4183 24.9712 14.0256 25.3608 13.6397 25.7541C13.2545 26.1485 12.8701 26.5286 12.451 26.8921C13.297 27.4041 14.2526 27.6991 15.2345 27.8057C16.2157 27.9153 17.2195 27.8094 18.1573 27.5054C19.0956 27.2018 19.968 26.6966 20.6954 26.0325C21.4228 25.3687 22.0222 24.6224 22.3934 23.7111C21.7221 23.0835 20.9228 22.5942 20.058 22.2856C19.1931 21.976 18.2631 21.8554 17.3486 21.9183C16.8908 21.9503 16.4378 22.0366 15.9977 22.1654C15.5583 22.2973 15.1329 22.4747 14.7315 22.6966C14.5324 22.8093 14.3377 22.9298 14.1517 23.0647C13.9661 23.1995 13.785 23.3408 13.611 23.4919C13.262 23.7921 12.9337 24.118 12.6088 24.4484C12.2835 24.7784 11.9604 25.1133 11.6208 25.4335C11.451 25.5936 11.2775 25.7503 11.0967 25.8991C10.9164 26.0487 10.7304 26.1918 10.5346 26.3222C10.486 26.3553 10.4375 26.3885 10.387 26.4186C10.3369 26.4495 10.2876 26.4815 10.2368 26.5109L10.0828 26.5975C10.032 26.6273 9.97814 26.6514 9.9258 26.6785L9.84674 26.7185C9.82038 26.7313 9.7929 26.7426 9.76616 26.7546C9.71195 26.778 9.65886 26.8032 9.60427 26.8254C9.49395 26.8676 9.38439 26.9117 9.27144 26.9452C9.15999 26.984 9.0444 27.01 8.9307 27.0409L8.75713 27.0763L8.67016 27.0937L8.58243 27.1069C8.349 27.1419 8.11293 27.1581 7.87686 27.1558C7.4051 27.1513 6.93484 27.0737 6.48604 26.9294C6.26165 26.8571 6.0429 26.7678 5.83205 26.6627C5.62159 26.5565 5.41865 26.4355 5.2255 26.3011C4.45517 25.7586 3.84448 24.9916 3.49809 24.1142L3.47852 24.0641L3.52181 24.0328C4.16903 23.5646 4.94727 23.2945 5.73755 23.2244C6.52897 23.1543 7.33582 23.2869 8.06511 23.5974C8.42957 23.7533 8.77445 23.9533 9.09523 24.1854C9.41526 24.4186 9.70781 24.6876 9.97512 24.9784C10.5071 25.5634 10.9303 26.2408 11.2526 26.9592C11.4149 27.3182 11.5508 27.6889 11.663 28.0664C11.7206 28.2547 11.7684 28.4457 11.814 28.6371C11.8561 28.8292 11.8957 29.0225 11.9254 29.2169C11.9845 29.6056 12.0305 29.9955 12.0647 30.3866C12.0843 30.5817 12.0971 30.7776 12.1129 30.9731C12.1253 31.169 12.1404 31.3645 12.1502 31.5604C12.1943 32.3436 12.2191 33.1276 12.227 33.9119C12.236 34.6958 12.2274 35.4802 12.1973 36.2637C12.2074 35.872 12.2116 35.4798 12.2116 35.088C12.2101 34.6962 12.2067 34.3041 12.198 33.9123C12.1822 33.1287 12.1498 32.3455 12.0982 31.5634C12.0866 31.3679 12.0696 31.1728 12.0553 30.9773C12.0372 30.7821 12.0229 30.587 12.0015 30.3922C11.9635 30.0027 11.9138 29.6139 11.8513 29.2285C11.7865 28.8435 11.6961 28.463 11.5824 28.0897C11.4691 27.7164 11.3324 27.3502 11.1698 26.9957C10.8471 26.2867 10.4247 25.6203 9.89794 25.0481C9.63326 24.7637 9.34485 24.5011 9.02972 24.2747C8.71421 24.049 8.3761 23.8558 8.01918 23.7055C7.30494 23.4067 6.51918 23.2828 5.74922 23.3555C4.98115 23.4286 4.25073 23.6379 3.62686 24.0918C3.96458 24.942 4.55984 25.658 5.30796 26.1828C5.49583 26.3131 5.69275 26.4299 5.89681 26.5324C6.10126 26.6337 6.3136 26.72 6.53123 26.7897C6.96647 26.9287 7.42204 27.0029 7.87836 27.0063C8.10653 27.0082 8.33469 26.992 8.55984 26.9577L8.64418 26.9449L8.72814 26.9279L8.89568 26.8933C9.00562 26.8631 9.11707 26.8383 9.22475 26.8002C9.33394 26.7674 9.43973 26.7245 9.54629 26.6838C9.599 26.6623 9.65058 26.6378 9.70291 26.6149C9.72889 26.6032 9.75525 26.5923 9.78085 26.5795L9.85728 26.5406C9.90773 26.5143 9.96006 26.4905 10.0094 26.4615L10.1585 26.3772C10.2078 26.3481 10.2556 26.3169 10.3046 26.2867C10.3535 26.2574 10.401 26.225 10.448 26.1926C10.6385 26.0652 10.8204 25.9247 10.997 25.7778C11.1743 25.6316 11.3452 25.4764 11.5128 25.3178C11.8486 25.001 12.1686 24.6657 12.4955 24.3353C12.8219 24.0046 13.154 23.6765 13.5094 23.3721C13.6863 23.2191 13.8716 23.0748 14.0617 22.9373C14.2519 22.7998 14.4525 22.6759 14.6574 22.561C15.0689 22.3346 15.5049 22.1538 15.9548 22.0197C16.4055 21.8886 16.8693 21.8015 17.3377 21.7695C18.2737 21.707 19.2229 21.8321 20.1061 22.15C20.9891 22.4668 21.8042 22.9682 22.4879 23.6102L22.5229 23.6429L22.5049 23.6866C22.4077 23.9183 22.3 24.1455 22.1799 24.3662C22.0572 24.5855 21.925 24.7991 21.7801 25.0044C21.6333 25.2082 21.4778 25.4056 21.311 25.5928C21.1427 25.7789 20.9668 25.9582 20.7805 26.1263C20.0354 26.7987 19.1453 27.3065 18.1909 27.6094C17.2364 27.9123 16.2183 28.0132 15.2244 27.8965C14.2304 27.7823 13.2635 27.4444 12.4145 26.9174L12.3735 26.8921L12.41 26.8612C12.8287 26.5049 13.2116 26.1074 13.6013 25.716C13.9913 25.3261 14.3897 24.9385 14.8407 24.6156C15.2895 24.2909 15.7925 24.043 16.32 23.878C16.5839 23.7963 16.8539 23.733 17.1269 23.6927C17.3994 23.6527 17.6758 23.6331 17.9514 23.6339Z" stroke="white" stroke-width="0.409091" mask="url(#path-63-outside-1_300_195)"/>
</g>
</g>
<defs>
<filter id="filter0_d_300_195" x="-8.14286" y="7" width="42.2857" height="42.2857" filterUnits="userSpaceOnUse" color-interpolation-filters="sRGB">
<feFlood flood-opacity="0" result="BackgroundImageFix"/>
<feColorMatrix in="SourceAlpha" type="matrix" values="0 0 0 0 0 0 0 0 0 0 0 0 0 0 0 0 0 0 127 0" result="hardAlpha"/>
<feOffset dy="1.14286"/>
<feGaussianBlur stdDeviation="4.57143"/>
<feComposite in2="hardAlpha" operator="out"/>
<feColorMatrix type="matrix" values="0 0 0 0 0.104167 0 0 0 0 0.066116 0 0 0 0 0.030816 0 0 0 0.12 0"/>
<feBlend mode="normal" in2="BackgroundImageFix" result="effect1_dropShadow_300_195"/>
<feBlend mode="normal" in="SourceGraphic" in2="effect1_dropShadow_300_195" result="shape"/>
</filter>
<linearGradient id="paint0_linear_300_195" x1="14.2969" y1="12.1153" x2="50.4272" y2="16.4337" gradientUnits="userSpaceOnUse">
<stop stop-color="#30C917"/>
<stop offset="1" stop-color="#279A13"/>
</linearGradient>
<linearGradient id="paint1_linear_300_195" x1="1" y1="19.5" x2="25.8102" y2="21.2541" gradientUnits="userSpaceOnUse">
<stop stop-color="#30C917"/>
<stop offset="1" stop-color="#279A13"/>
</linearGradient>
<clipPath id="clip0_300_195">
<rect width="60" height="60" fill="white"/>
</clipPath>
</defs>
</svg>
