<svg width="95" height="95" viewBox="0 0 95 95" fill="none" xmlns="http://www.w3.org/2000/svg">
<path d="M17.8604 93.6001C17.5591 93.6001 17.2607 93.5405 16.9825 93.4245C16.7043 93.3086 16.4518 93.1387 16.2396 92.9247C16.0274 92.7106 15.8597 92.4567 15.7462 92.1775C15.6327 91.8983 15.5756 91.5994 15.5782 91.2981V63.3756C15.6307 62.8198 15.8886 62.3035 16.3015 61.9277C16.7143 61.552 17.2525 61.3438 17.8108 61.3438C18.3691 61.3438 18.9073 61.552 19.3202 61.9277C19.7331 62.3035 19.991 62.8198 20.0434 63.3756V91.2981C20.0491 91.89 19.8246 92.4609 19.4173 92.8904C19.01 93.3199 18.4518 93.5744 17.8604 93.6001V93.6001Z" fill="#78E33C"/>
<path d="M71.2448 92.3087C70.6606 92.3087 70.1003 92.0766 69.6872 91.6635C69.2741 91.2504 69.042 90.6901 69.042 90.1058V52.5583C69.042 52.269 69.099 51.9826 69.2097 51.7153C69.3204 51.4481 69.4826 51.2052 69.6872 51.0007C69.8917 50.7961 70.1346 50.6339 70.4018 50.5231C70.6691 50.4124 70.9556 50.3555 71.2448 50.3555C71.5341 50.3555 71.8206 50.4124 72.0878 50.5231C72.3551 50.6339 72.5979 50.7961 72.8025 51.0007C73.007 51.2052 73.1693 51.4481 73.28 51.7153C73.3907 51.9826 73.4477 52.269 73.4477 52.5583V90.1058C73.4477 90.6901 73.2156 91.2504 72.8025 91.6635C72.3894 92.0766 71.8291 92.3087 71.2448 92.3087V92.3087Z" fill="#78E33C"/>
<path d="M47.49 90.2636C46.9057 90.2636 46.3454 90.0315 45.9323 89.6184C45.5192 89.2053 45.2871 88.645 45.2871 88.0608V35.1926C45.3393 34.6419 45.595 34.1304 46.0042 33.7582C46.4134 33.386 46.9467 33.1797 47.4999 33.1797C48.053 33.1797 48.5863 33.386 48.9955 33.7582C49.4047 34.1304 49.6604 34.6419 49.7126 35.1926V88.0608C49.7074 88.6468 49.4709 89.2071 49.0547 89.6196C48.6384 90.0322 48.076 90.2636 47.49 90.2636V90.2636Z" fill="#78E33C"/>
<path d="M34.1343 52.8954C34.1343 56.1282 33.1749 59.2884 31.3776 61.9755C29.5802 64.6627 27.0259 66.7561 24.038 67.9905C21.0501 69.2249 17.7631 69.5449 14.5932 68.9098C11.4233 68.2748 8.51324 66.7133 6.23145 64.4232C3.94966 62.133 2.39883 59.2173 1.77536 56.0451C1.1519 52.8729 1.48385 49.5871 2.72917 46.6037C3.97449 43.6204 6.07717 41.0737 8.7709 39.2862C11.4646 37.4987 14.6282 36.5508 17.8611 36.5626C20.0039 36.56 22.126 36.9811 24.1055 37.8017C26.0849 38.6223 27.8825 39.8262 29.395 41.3441C30.9074 42.8621 32.1047 44.6641 32.9181 46.6465C33.7314 48.6289 34.1448 50.7526 34.1343 52.8954Z" fill="url(#paint0_linear_300_312)"/>
<path d="M87.578 42.5167C87.5701 45.7405 86.6072 48.8898 84.8108 51.5668C83.0145 54.2438 80.4652 56.3285 77.4849 57.5577C74.5045 58.7868 71.2268 59.1054 68.0656 58.4731C64.9043 57.8408 62.0013 56.286 59.7231 54.005C57.4449 51.724 55.8936 48.8191 55.2651 45.6571C54.6367 42.4951 54.9592 39.2178 56.192 36.2389C57.4248 33.2601 59.5126 30.7133 62.1918 28.9202C64.8709 27.1271 68.0213 26.168 71.2452 26.1641C73.3925 26.1615 75.5191 26.5828 77.5032 27.4039C79.4872 28.225 81.2897 29.4298 82.8071 30.949C84.3245 32.4683 85.527 34.2722 86.3457 36.2572C87.1644 38.2423 87.5832 40.3694 87.578 42.5167V42.5167Z" fill="url(#paint1_linear_300_312)"/>
<mask id="path-6-outside-1_300_312" maskUnits="userSpaceOnUse" x="58" y="35" width="27" height="20" fill="black">
<rect fill="white" x="58" y="35" width="27" height="20"/>
<path d="M77.9989 38.3322C77.6366 38.3355 77.2753 38.364 76.9179 38.4182C76.5606 38.4724 76.2087 38.5551 75.8652 38.6603C75.1787 38.8729 74.5248 39.1827 73.9445 39.5884C73.3608 39.9912 72.8453 40.4744 72.3387 40.9623C71.8331 41.4516 71.3285 41.9232 70.7784 42.3742C71.889 43.0093 73.1434 43.3752 74.4324 43.5074C75.7204 43.6434 77.038 43.5121 78.2692 43.135C79.5009 42.7583 80.646 42.1316 81.6009 41.3077C82.5558 40.4843 83.3427 39.5585 83.83 38.428C82.9487 37.6494 81.8994 37.0424 80.7642 36.6596C79.6289 36.2755 78.4081 36.1259 77.2076 36.204C76.6066 36.2437 76.012 36.3507 75.4342 36.5105C74.8574 36.6741 74.2989 36.8942 73.7721 37.1695C73.5106 37.3092 73.2551 37.4588 73.0109 37.6261C72.7672 37.7934 72.5295 37.9686 72.3012 38.156C71.843 38.5285 71.412 38.9327 70.9855 39.3426C70.5585 39.752 70.1344 40.1674 69.6886 40.5646C69.4657 40.7633 69.2378 40.9577 69.0006 41.1423C68.7638 41.3278 68.5197 41.5054 68.2627 41.6671C68.1989 41.7082 68.1352 41.7493 68.0689 41.7867C68.0032 41.825 67.9385 41.8648 67.8717 41.9012L67.6696 42.0087C67.6029 42.0456 67.5322 42.0755 67.4635 42.1092L67.3597 42.1587C67.3251 42.1746 67.289 42.1886 67.2539 42.2036C67.1828 42.2326 67.1131 42.2639 67.0414 42.2914C66.8966 42.3438 66.7528 42.3985 66.6045 42.4401C66.4582 42.4882 66.3065 42.5204 66.1572 42.5588L65.9293 42.6027L65.8152 42.6242L65.7 42.6405C65.3936 42.684 65.0837 42.7041 64.7738 42.7013C64.1545 42.6957 63.5372 42.5994 62.948 42.4204C62.6535 42.3307 62.3663 42.2199 62.0895 42.0896C61.8133 41.9578 61.5469 41.8077 61.2933 41.6409C60.2821 40.968 59.4804 40.0165 59.0257 38.928L59 38.8659L59.0568 38.8271C59.9064 38.2462 60.9281 37.9111 61.9655 37.8242C63.0044 37.7373 64.0636 37.9018 65.0209 38.2869C65.4993 38.4803 65.9521 38.7285 66.3732 39.0164C66.7933 39.3056 67.1773 39.6393 67.5282 40.0001C68.2266 40.7259 68.7821 41.5661 69.2052 42.4573C69.4182 42.9027 69.5967 43.3626 69.7439 43.8308C69.8196 44.0645 69.8823 44.3014 69.9421 44.5388C69.9975 44.7772 70.0494 45.0169 70.0884 45.2581C70.166 45.7404 70.2263 46.224 70.2713 46.7091C70.297 46.9512 70.3138 47.1942 70.3346 47.4368C70.3509 47.6798 70.3706 47.9223 70.3835 48.1653C70.4413 49.1369 70.4739 50.1095 70.4843 51.0824C70.4962 52.055 70.4848 53.0279 70.4453 54C70.4586 53.514 70.4641 53.0275 70.4641 52.5415C70.4621 52.0554 70.4576 51.5689 70.4463 51.0829C70.4255 50.1109 70.383 49.1393 70.3153 48.1691C70.3 47.9265 70.2777 47.6845 70.2589 47.4419C70.2352 47.1998 70.2164 46.9578 70.1883 46.7161C70.1383 46.2329 70.0731 45.7506 69.9911 45.2726C69.9061 44.7949 69.7874 44.3229 69.6382 43.8598C69.4894 43.3967 69.31 42.9424 69.0965 42.5027C68.6729 41.6232 68.1184 40.7964 67.4269 40.0866C67.0795 39.7337 66.7009 39.408 66.2872 39.1271C65.873 38.8472 65.4292 38.6075 64.9606 38.421C64.023 38.0504 62.9915 37.8966 61.9808 37.9868C60.9725 38.0775 60.0137 38.3371 59.1947 38.9002C59.6381 39.955 60.4195 40.8432 61.4015 41.4942C61.6482 41.6559 61.9067 41.8007 62.1745 41.9279C62.4429 42.0536 62.7217 42.1606 63.0074 42.247C63.5787 42.4195 64.1767 42.5116 64.7758 42.5158C65.0753 42.5181 65.3748 42.498 65.6704 42.4555L65.7811 42.4396L65.8913 42.4186L66.1112 42.3756C66.2555 42.3382 66.4018 42.3073 66.5432 42.2601C66.6865 42.2195 66.8254 42.1662 66.9653 42.1157C67.0345 42.0891 67.1022 42.0587 67.1709 42.0302C67.205 42.0157 67.2396 42.0022 67.2732 41.9863L67.3735 41.9381C67.4398 41.9054 67.5085 41.876 67.5732 41.84L67.7689 41.7353C67.8337 41.6993 67.8964 41.6605 67.9607 41.6232C68.0249 41.5867 68.0872 41.5465 68.149 41.5063C68.3991 41.3484 68.6378 41.174 68.8696 40.9918C69.1024 40.8105 69.3268 40.6179 69.5467 40.4212C69.9876 40.0281 70.4077 39.6122 70.8367 39.2024C71.2652 38.7921 71.7012 38.385 72.1677 38.0074C72.4 37.8177 72.6432 37.6387 72.8928 37.4681C73.1424 37.2975 73.4058 37.1438 73.6747 37.0012C74.2149 36.7204 74.7872 36.496 75.3779 36.3297C75.9695 36.167 76.5784 36.0591 77.1932 36.0194C78.4219 35.9418 79.6679 36.0969 80.8274 36.4914C81.9864 36.8844 83.0565 37.5064 83.954 38.3028L84 38.3434L83.9763 38.3976C83.8488 38.685 83.7074 38.9668 83.5497 39.2407C83.3886 39.5127 83.2151 39.7777 83.0248 40.0324C82.8321 40.2852 82.628 40.5301 82.409 40.7623C82.1881 40.9932 81.9573 41.2156 81.7126 41.4241C80.7345 42.2583 79.5661 42.8882 78.3132 43.264C77.0603 43.6397 75.7238 43.7649 74.419 43.6201C73.1142 43.4785 71.845 43.0593 70.7305 42.4055L70.6766 42.3742L70.7245 42.3358C71.2741 41.8937 71.7768 41.4007 72.2883 40.9151C72.8004 40.4315 73.3233 39.9506 73.9154 39.5501C74.5045 39.1472 75.1648 38.8397 75.8573 38.635C76.2037 38.5336 76.5581 38.4551 76.9165 38.4051C77.2743 38.3556 77.6371 38.3313 77.9989 38.3322Z"/>
</mask>
<path d="M77.9989 38.3322C77.6366 38.3355 77.2753 38.364 76.9179 38.4182C76.5606 38.4724 76.2087 38.5551 75.8652 38.6603C75.1787 38.8729 74.5248 39.1827 73.9445 39.5884C73.3608 39.9912 72.8453 40.4744 72.3387 40.9623C71.8331 41.4516 71.3285 41.9232 70.7784 42.3742C71.889 43.0093 73.1434 43.3752 74.4324 43.5074C75.7204 43.6434 77.038 43.5121 78.2692 43.135C79.5009 42.7583 80.646 42.1316 81.6009 41.3077C82.5558 40.4843 83.3427 39.5585 83.83 38.428C82.9487 37.6494 81.8994 37.0424 80.7642 36.6596C79.6289 36.2755 78.4081 36.1259 77.2076 36.204C76.6066 36.2437 76.012 36.3507 75.4342 36.5105C74.8574 36.6741 74.2989 36.8942 73.7721 37.1695C73.5106 37.3092 73.2551 37.4588 73.0109 37.6261C72.7672 37.7934 72.5295 37.9686 72.3012 38.156C71.843 38.5285 71.412 38.9327 70.9855 39.3426C70.5585 39.752 70.1344 40.1674 69.6886 40.5646C69.4657 40.7633 69.2378 40.9577 69.0006 41.1423C68.7638 41.3278 68.5197 41.5054 68.2627 41.6671C68.1989 41.7082 68.1352 41.7493 68.0689 41.7867C68.0032 41.825 67.9385 41.8648 67.8717 41.9012L67.6696 42.0087C67.6029 42.0456 67.5322 42.0755 67.4635 42.1092L67.3597 42.1587C67.3251 42.1746 67.289 42.1886 67.2539 42.2036C67.1828 42.2326 67.1131 42.2639 67.0414 42.2914C66.8966 42.3438 66.7528 42.3985 66.6045 42.4401C66.4582 42.4882 66.3065 42.5204 66.1572 42.5588L65.9293 42.6027L65.8152 42.6242L65.7 42.6405C65.3936 42.684 65.0837 42.7041 64.7738 42.7013C64.1545 42.6957 63.5372 42.5994 62.948 42.4204C62.6535 42.3307 62.3663 42.2199 62.0895 42.0896C61.8133 41.9578 61.5469 41.8077 61.2933 41.6409C60.2821 40.968 59.4804 40.0165 59.0257 38.928L59 38.8659L59.0568 38.8271C59.9064 38.2462 60.9281 37.9111 61.9655 37.8242C63.0044 37.7373 64.0636 37.9018 65.0209 38.2869C65.4993 38.4803 65.9521 38.7285 66.3732 39.0164C66.7933 39.3056 67.1773 39.6393 67.5282 40.0001C68.2266 40.7259 68.7821 41.5661 69.2052 42.4573C69.4182 42.9027 69.5967 43.3626 69.7439 43.8308C69.8196 44.0645 69.8823 44.3014 69.9421 44.5388C69.9975 44.7772 70.0494 45.0169 70.0884 45.2581C70.166 45.7404 70.2263 46.224 70.2713 46.7091C70.297 46.9512 70.3138 47.1942 70.3346 47.4368C70.3509 47.6798 70.3706 47.9223 70.3835 48.1653C70.4413 49.1369 70.4739 50.1095 70.4843 51.0824C70.4962 52.055 70.4848 53.0279 70.4453 54C70.4586 53.514 70.4641 53.0275 70.4641 52.5415C70.4621 52.0554 70.4576 51.5689 70.4463 51.0829C70.4255 50.1109 70.383 49.1393 70.3153 48.1691C70.3 47.9265 70.2777 47.6845 70.2589 47.4419C70.2352 47.1998 70.2164 46.9578 70.1883 46.7161C70.1383 46.2329 70.0731 45.7506 69.9911 45.2726C69.9061 44.7949 69.7874 44.3229 69.6382 43.8598C69.4894 43.3967 69.31 42.9424 69.0965 42.5027C68.6729 41.6232 68.1184 40.7964 67.4269 40.0866C67.0795 39.7337 66.7009 39.408 66.2872 39.1271C65.873 38.8472 65.4292 38.6075 64.9606 38.421C64.023 38.0504 62.9915 37.8966 61.9808 37.9868C60.9725 38.0775 60.0137 38.3371 59.1947 38.9002C59.6381 39.955 60.4195 40.8432 61.4015 41.4942C61.6482 41.6559 61.9067 41.8007 62.1745 41.9279C62.4429 42.0536 62.7217 42.1606 63.0074 42.247C63.5787 42.4195 64.1767 42.5116 64.7758 42.5158C65.0753 42.5181 65.3748 42.498 65.6704 42.4555L65.7811 42.4396L65.8913 42.4186L66.1112 42.3756C66.2555 42.3382 66.4018 42.3073 66.5432 42.2601C66.6865 42.2195 66.8254 42.1662 66.9653 42.1157C67.0345 42.0891 67.1022 42.0587 67.1709 42.0302C67.205 42.0157 67.2396 42.0022 67.2732 41.9863L67.3735 41.9381C67.4398 41.9054 67.5085 41.876 67.5732 41.84L67.7689 41.7353C67.8337 41.6993 67.8964 41.6605 67.9607 41.6232C68.0249 41.5867 68.0872 41.5465 68.149 41.5063C68.3991 41.3484 68.6378 41.174 68.8696 40.9918C69.1024 40.8105 69.3268 40.6179 69.5467 40.4212C69.9876 40.0281 70.4077 39.6122 70.8367 39.2024C71.2652 38.7921 71.7012 38.385 72.1677 38.0074C72.4 37.8177 72.6432 37.6387 72.8928 37.4681C73.1424 37.2975 73.4058 37.1438 73.6747 37.0012C74.2149 36.7204 74.7872 36.496 75.3779 36.3297C75.9695 36.167 76.5784 36.0591 77.1932 36.0194C78.4219 35.9418 79.6679 36.0969 80.8274 36.4914C81.9864 36.8844 83.0565 37.5064 83.954 38.3028L84 38.3434L83.9763 38.3976C83.8488 38.685 83.7074 38.9668 83.5497 39.2407C83.3886 39.5127 83.2151 39.7777 83.0248 40.0324C82.8321 40.2852 82.628 40.5301 82.409 40.7623C82.1881 40.9932 81.9573 41.2156 81.7126 41.4241C80.7345 42.2583 79.5661 42.8882 78.3132 43.264C77.0603 43.6397 75.7238 43.7649 74.419 43.6201C73.1142 43.4785 71.845 43.0593 70.7305 42.4055L70.6766 42.3742L70.7245 42.3358C71.2741 41.8937 71.7768 41.4007 72.2883 40.9151C72.8004 40.4315 73.3233 39.9506 73.9154 39.5501C74.5045 39.1472 75.1648 38.8397 75.8573 38.635C76.2037 38.5336 76.5581 38.4551 76.9165 38.4051C77.2743 38.3556 77.6371 38.3313 77.9989 38.3322Z" fill="white"/>
<path d="M77.9989 38.3322C77.6366 38.3355 77.2753 38.364 76.9179 38.4182C76.5606 38.4724 76.2087 38.5551 75.8652 38.6603C75.1787 38.8729 74.5248 39.1827 73.9445 39.5884C73.3608 39.9912 72.8453 40.4744 72.3387 40.9623C71.8331 41.4516 71.3285 41.9232 70.7784 42.3742C71.889 43.0093 73.1434 43.3752 74.4324 43.5074C75.7204 43.6434 77.038 43.5121 78.2692 43.135C79.5009 42.7583 80.646 42.1316 81.6009 41.3077C82.5558 40.4843 83.3427 39.5585 83.83 38.428C82.9487 37.6494 81.8994 37.0424 80.7642 36.6596C79.6289 36.2755 78.4081 36.1259 77.2076 36.204C76.6066 36.2437 76.012 36.3507 75.4342 36.5105C74.8574 36.6741 74.2989 36.8942 73.7721 37.1695C73.5106 37.3092 73.2551 37.4588 73.0109 37.6261C72.7672 37.7934 72.5295 37.9686 72.3012 38.156C71.843 38.5285 71.412 38.9327 70.9855 39.3426C70.5585 39.752 70.1344 40.1674 69.6886 40.5646C69.4657 40.7633 69.2378 40.9577 69.0006 41.1423C68.7638 41.3278 68.5197 41.5054 68.2627 41.6671C68.1989 41.7082 68.1352 41.7493 68.0689 41.7867C68.0032 41.825 67.9385 41.8648 67.8717 41.9012L67.6696 42.0087C67.6029 42.0456 67.5322 42.0755 67.4635 42.1092L67.3597 42.1587C67.3251 42.1746 67.289 42.1886 67.2539 42.2036C67.1828 42.2326 67.1131 42.2639 67.0414 42.2914C66.8966 42.3438 66.7528 42.3985 66.6045 42.4401C66.4582 42.4882 66.3065 42.5204 66.1572 42.5588L65.9293 42.6027L65.8152 42.6242L65.7 42.6405C65.3936 42.684 65.0837 42.7041 64.7738 42.7013C64.1545 42.6957 63.5372 42.5994 62.948 42.4204C62.6535 42.3307 62.3663 42.2199 62.0895 42.0896C61.8133 41.9578 61.5469 41.8077 61.2933 41.6409C60.2821 40.968 59.4804 40.0165 59.0257 38.928L59 38.8659L59.0568 38.8271C59.9064 38.2462 60.9281 37.9111 61.9655 37.8242C63.0044 37.7373 64.0636 37.9018 65.0209 38.2869C65.4993 38.4803 65.9521 38.7285 66.3732 39.0164C66.7933 39.3056 67.1773 39.6393 67.5282 40.0001C68.2266 40.7259 68.7821 41.5661 69.2052 42.4573C69.4182 42.9027 69.5967 43.3626 69.7439 43.8308C69.8196 44.0645 69.8823 44.3014 69.9421 44.5388C69.9975 44.7772 70.0494 45.0169 70.0884 45.2581C70.166 45.7404 70.2263 46.224 70.2713 46.7091C70.297 46.9512 70.3138 47.1942 70.3346 47.4368C70.3509 47.6798 70.3706 47.9223 70.3835 48.1653C70.4413 49.1369 70.4739 50.1095 70.4843 51.0824C70.4962 52.055 70.4848 53.0279 70.4453 54C70.4586 53.514 70.4641 53.0275 70.4641 52.5415C70.4621 52.0554 70.4576 51.5689 70.4463 51.0829C70.4255 50.1109 70.383 49.1393 70.3153 48.1691C70.3 47.9265 70.2777 47.6845 70.2589 47.4419C70.2352 47.1998 70.2164 46.9578 70.1883 46.7161C70.1383 46.2329 70.0731 45.7506 69.9911 45.2726C69.9061 44.7949 69.7874 44.3229 69.6382 43.8598C69.4894 43.3967 69.31 42.9424 69.0965 42.5027C68.6729 41.6232 68.1184 40.7964 67.4269 40.0866C67.0795 39.7337 66.7009 39.408 66.2872 39.1271C65.873 38.8472 65.4292 38.6075 64.9606 38.421C64.023 38.0504 62.9915 37.8966 61.9808 37.9868C60.9725 38.0775 60.0137 38.3371 59.1947 38.9002C59.6381 39.955 60.4195 40.8432 61.4015 41.4942C61.6482 41.6559 61.9067 41.8007 62.1745 41.9279C62.4429 42.0536 62.7217 42.1606 63.0074 42.247C63.5787 42.4195 64.1767 42.5116 64.7758 42.5158C65.0753 42.5181 65.3748 42.498 65.6704 42.4555L65.7811 42.4396L65.8913 42.4186L66.1112 42.3756C66.2555 42.3382 66.4018 42.3073 66.5432 42.2601C66.6865 42.2195 66.8254 42.1662 66.9653 42.1157C67.0345 42.0891 67.1022 42.0587 67.1709 42.0302C67.205 42.0157 67.2396 42.0022 67.2732 41.9863L67.3735 41.9381C67.4398 41.9054 67.5085 41.876 67.5732 41.84L67.7689 41.7353C67.8337 41.6993 67.8964 41.6605 67.9607 41.6232C68.0249 41.5867 68.0872 41.5465 68.149 41.5063C68.3991 41.3484 68.6378 41.174 68.8696 40.9918C69.1024 40.8105 69.3268 40.6179 69.5467 40.4212C69.9876 40.0281 70.4077 39.6122 70.8367 39.2024C71.2652 38.7921 71.7012 38.385 72.1677 38.0074C72.4 37.8177 72.6432 37.6387 72.8928 37.4681C73.1424 37.2975 73.4058 37.1438 73.6747 37.0012C74.2149 36.7204 74.7872 36.496 75.3779 36.3297C75.9695 36.167 76.5784 36.0591 77.1932 36.0194C78.4219 35.9418 79.6679 36.0969 80.8274 36.4914C81.9864 36.8844 83.0565 37.5064 83.954 38.3028L84 38.3434L83.9763 38.3976C83.8488 38.685 83.7074 38.9668 83.5497 39.2407C83.3886 39.5127 83.2151 39.7777 83.0248 40.0324C82.8321 40.2852 82.628 40.5301 82.409 40.7623C82.1881 40.9932 81.9573 41.2156 81.7126 41.4241C80.7345 42.2583 79.5661 42.8882 78.3132 43.264C77.0603 43.6397 75.7238 43.7649 74.419 43.6201C73.1142 43.4785 71.845 43.0593 70.7305 42.4055L70.6766 42.3742L70.7245 42.3358C71.2741 41.8937 71.7768 41.4007 72.2883 40.9151C72.8004 40.4315 73.3233 39.9506 73.9154 39.5501C74.5045 39.1472 75.1648 38.8397 75.8573 38.635C76.2037 38.5336 76.5581 38.4551 76.9165 38.4051C77.2743 38.3556 77.6371 38.3313 77.9989 38.3322Z" stroke="white" stroke-width="0.48" mask="url(#path-6-outside-1_300_312)"/>
<mask id="path-7-outside-2_300_312" maskUnits="userSpaceOnUse" x="4" y="45" width="27" height="20" fill="black">
<rect fill="white" x="4" y="45" width="27" height="20"/>
<path d="M23.9989 48.3322C23.6366 48.3355 23.2753 48.364 22.9179 48.4182C22.5606 48.4724 22.2087 48.5551 21.8652 48.6603C21.1787 48.8729 20.5248 49.1827 19.9445 49.5884C19.3608 49.9912 18.8453 50.4744 18.3387 50.9623C17.8331 51.4516 17.3285 51.9232 16.7784 52.3742C17.889 53.0093 19.1434 53.3752 20.4324 53.5074C21.7204 53.6434 23.038 53.5121 24.2692 53.135C25.5009 52.7583 26.646 52.1316 27.6009 51.3077C28.5558 50.4843 29.3427 49.5585 29.83 48.428C28.9487 47.6494 27.8994 47.0424 26.7642 46.6596C25.6289 46.2755 24.4081 46.1259 23.2076 46.204C22.6066 46.2437 22.012 46.3507 21.4342 46.5105C20.8574 46.6741 20.2989 46.8942 19.7721 47.1695C19.5106 47.3092 19.2551 47.4588 19.0109 47.6261C18.7672 47.7934 18.5295 47.9686 18.3012 48.156C17.843 48.5285 17.412 48.9327 16.9855 49.3426C16.5585 49.752 16.1344 50.1674 15.6886 50.5646C15.4657 50.7633 15.2378 50.9577 15.0006 51.1423C14.7638 51.3278 14.5197 51.5054 14.2627 51.6671C14.1989 51.7082 14.1352 51.7493 14.0689 51.7867C14.0032 51.825 13.9385 51.8648 13.8717 51.9012L13.6696 52.0087C13.6029 52.0456 13.5322 52.0755 13.4635 52.1092L13.3597 52.1587C13.3251 52.1746 13.289 52.1886 13.2539 52.2036C13.1828 52.2326 13.1131 52.2639 13.0414 52.2914C12.8966 52.3438 12.7528 52.3985 12.6045 52.4401C12.4582 52.4882 12.3065 52.5204 12.1572 52.5588L11.9293 52.6027L11.8152 52.6242L11.7 52.6405C11.3936 52.684 11.0837 52.7041 10.7738 52.7013C10.1545 52.6957 9.53719 52.5994 8.94804 52.4204C8.65347 52.3307 8.36632 52.2199 8.08954 52.0896C7.81325 51.9578 7.54685 51.8077 7.29331 51.6409C6.28208 50.968 5.48041 50.0165 5.0257 48.928L5 48.8659L5.05684 48.8271C5.90645 48.2462 6.92806 47.9111 7.96548 47.8242C9.00439 47.7373 10.0636 47.9018 11.0209 48.2869C11.4993 48.4803 11.9521 48.7285 12.3732 49.0164C12.7933 49.3056 13.1773 49.6393 13.5282 50.0001C14.2266 50.7259 14.7821 51.5661 15.2052 52.4573C15.4182 52.9027 15.5967 53.3626 15.7439 53.8308C15.8196 54.0645 15.8823 54.3014 15.9421 54.5388C15.9975 54.7772 16.0494 55.0169 16.0884 55.2581C16.166 55.7404 16.2263 56.224 16.2713 56.7091C16.297 56.9512 16.3138 57.1942 16.3346 57.4368C16.3509 57.6798 16.3706 57.9223 16.3835 58.1653C16.4413 59.1369 16.4739 60.1095 16.4843 61.0824C16.4962 62.055 16.4848 63.0279 16.4453 64C16.4586 63.514 16.4641 63.0275 16.4641 62.5415C16.4621 62.0554 16.4576 61.5689 16.4463 61.0829C16.4255 60.1109 16.383 59.1393 16.3153 58.1691C16.3 57.9265 16.2777 57.6845 16.2589 57.4419C16.2352 57.1998 16.2164 56.9578 16.1883 56.7161C16.1383 56.2329 16.0731 55.7506 15.9911 55.2726C15.9061 54.7949 15.7874 54.3229 15.6382 53.8598C15.4894 53.3967 15.31 52.9424 15.0965 52.5027C14.6729 51.6232 14.1184 50.7964 13.4269 50.0866C13.0795 49.7337 12.7009 49.408 12.2872 49.1271C11.873 48.8472 11.4292 48.6075 10.9606 48.421C10.023 48.0504 8.99154 47.8966 7.9808 47.9868C6.97254 48.0775 6.0137 48.3371 5.19473 48.9002C5.63807 49.955 6.41948 50.8432 7.40155 51.4942C7.64818 51.6559 7.90667 51.8007 8.17455 51.9279C8.44292 52.0536 8.72168 52.1606 9.00735 52.247C9.5787 52.4195 10.1767 52.5116 10.7758 52.5158C11.0753 52.5181 11.3748 52.498 11.6704 52.4555L11.7811 52.4396L11.8913 52.4186L12.1112 52.3756C12.2555 52.3382 12.4018 52.3073 12.5432 52.2601C12.6865 52.2195 12.8254 52.1662 12.9653 52.1157C13.0345 52.0891 13.1022 52.0587 13.1709 52.0302C13.205 52.0157 13.2396 52.0022 13.2732 51.9863L13.3735 51.9381C13.4398 51.9054 13.5085 51.876 13.5732 51.84L13.7689 51.7353C13.8337 51.6993 13.8964 51.6605 13.9607 51.6232C14.0249 51.5867 14.0872 51.5465 14.149 51.5063C14.3991 51.3484 14.6378 51.174 14.8696 50.9918C15.1024 50.8105 15.3268 50.6179 15.5467 50.4212C15.9876 50.0281 16.4077 49.6122 16.8367 49.2024C17.2652 48.7921 17.7012 48.385 18.1677 48.0074C18.4 47.8177 18.6432 47.6387 18.8928 47.4681C19.1424 47.2975 19.4058 47.1438 19.6747 47.0012C20.2149 46.7204 20.7872 46.496 21.3779 46.3297C21.9695 46.167 22.5784 46.0591 23.1932 46.0194C24.4219 45.9418 25.6679 46.0969 26.8274 46.4914C27.9864 46.8844 29.0565 47.5064 29.954 48.3028L30 48.3434L29.9763 48.3976C29.8488 48.685 29.7074 48.9668 29.5497 49.2407C29.3886 49.5127 29.2151 49.7777 29.0248 50.0324C28.8321 50.2852 28.628 50.5301 28.409 50.7623C28.1881 50.9932 27.9573 51.2156 27.7126 51.4241C26.7345 52.2583 25.5661 52.8882 24.3132 53.264C23.0603 53.6397 21.7238 53.7649 20.419 53.6201C19.1142 53.4785 17.845 53.0593 16.7305 52.4055L16.6766 52.3742L16.7245 52.3358C17.2741 51.8937 17.7768 51.4007 18.2883 50.9151C18.8004 50.4315 19.3233 49.9506 19.9154 49.5501C20.5045 49.1472 21.1648 48.8397 21.8573 48.635C22.2037 48.5336 22.5581 48.4551 22.9165 48.4051C23.2743 48.3556 23.6371 48.3313 23.9989 48.3322Z"/>
</mask>
<path d="M23.9989 48.3322C23.6366 48.3355 23.2753 48.364 22.9179 48.4182C22.5606 48.4724 22.2087 48.5551 21.8652 48.6603C21.1787 48.8729 20.5248 49.1827 19.9445 49.5884C19.3608 49.9912 18.8453 50.4744 18.3387 50.9623C17.8331 51.4516 17.3285 51.9232 16.7784 52.3742C17.889 53.0093 19.1434 53.3752 20.4324 53.5074C21.7204 53.6434 23.038 53.5121 24.2692 53.135C25.5009 52.7583 26.646 52.1316 27.6009 51.3077C28.5558 50.4843 29.3427 49.5585 29.83 48.428C28.9487 47.6494 27.8994 47.0424 26.7642 46.6596C25.6289 46.2755 24.4081 46.1259 23.2076 46.204C22.6066 46.2437 22.012 46.3507 21.4342 46.5105C20.8574 46.6741 20.2989 46.8942 19.7721 47.1695C19.5106 47.3092 19.2551 47.4588 19.0109 47.6261C18.7672 47.7934 18.5295 47.9686 18.3012 48.156C17.843 48.5285 17.412 48.9327 16.9855 49.3426C16.5585 49.752 16.1344 50.1674 15.6886 50.5646C15.4657 50.7633 15.2378 50.9577 15.0006 51.1423C14.7638 51.3278 14.5197 51.5054 14.2627 51.6671C14.1989 51.7082 14.1352 51.7493 14.0689 51.7867C14.0032 51.825 13.9385 51.8648 13.8717 51.9012L13.6696 52.0087C13.6029 52.0456 13.5322 52.0755 13.4635 52.1092L13.3597 52.1587C13.3251 52.1746 13.289 52.1886 13.2539 52.2036C13.1828 52.2326 13.1131 52.2639 13.0414 52.2914C12.8966 52.3438 12.7528 52.3985 12.6045 52.4401C12.4582 52.4882 12.3065 52.5204 12.1572 52.5588L11.9293 52.6027L11.8152 52.6242L11.7 52.6405C11.3936 52.684 11.0837 52.7041 10.7738 52.7013C10.1545 52.6957 9.53719 52.5994 8.94804 52.4204C8.65347 52.3307 8.36632 52.2199 8.08954 52.0896C7.81325 51.9578 7.54685 51.8077 7.29331 51.6409C6.28208 50.968 5.48041 50.0165 5.0257 48.928L5 48.8659L5.05684 48.8271C5.90645 48.2462 6.92806 47.9111 7.96548 47.8242C9.00439 47.7373 10.0636 47.9018 11.0209 48.2869C11.4993 48.4803 11.9521 48.7285 12.3732 49.0164C12.7933 49.3056 13.1773 49.6393 13.5282 50.0001C14.2266 50.7259 14.7821 51.5661 15.2052 52.4573C15.4182 52.9027 15.5967 53.3626 15.7439 53.8308C15.8196 54.0645 15.8823 54.3014 15.9421 54.5388C15.9975 54.7772 16.0494 55.0169 16.0884 55.2581C16.166 55.7404 16.2263 56.224 16.2713 56.7091C16.297 56.9512 16.3138 57.1942 16.3346 57.4368C16.3509 57.6798 16.3706 57.9223 16.3835 58.1653C16.4413 59.1369 16.4739 60.1095 16.4843 61.0824C16.4962 62.055 16.4848 63.0279 16.4453 64C16.4586 63.514 16.4641 63.0275 16.4641 62.5415C16.4621 62.0554 16.4576 61.5689 16.4463 61.0829C16.4255 60.1109 16.383 59.1393 16.3153 58.1691C16.3 57.9265 16.2777 57.6845 16.2589 57.4419C16.2352 57.1998 16.2164 56.9578 16.1883 56.7161C16.1383 56.2329 16.0731 55.7506 15.9911 55.2726C15.9061 54.7949 15.7874 54.3229 15.6382 53.8598C15.4894 53.3967 15.31 52.9424 15.0965 52.5027C14.6729 51.6232 14.1184 50.7964 13.4269 50.0866C13.0795 49.7337 12.7009 49.408 12.2872 49.1271C11.873 48.8472 11.4292 48.6075 10.9606 48.421C10.023 48.0504 8.99154 47.8966 7.9808 47.9868C6.97254 48.0775 6.0137 48.3371 5.19473 48.9002C5.63807 49.955 6.41948 50.8432 7.40155 51.4942C7.64818 51.6559 7.90667 51.8007 8.17455 51.9279C8.44292 52.0536 8.72168 52.1606 9.00735 52.247C9.5787 52.4195 10.1767 52.5116 10.7758 52.5158C11.0753 52.5181 11.3748 52.498 11.6704 52.4555L11.7811 52.4396L11.8913 52.4186L12.1112 52.3756C12.2555 52.3382 12.4018 52.3073 12.5432 52.2601C12.6865 52.2195 12.8254 52.1662 12.9653 52.1157C13.0345 52.0891 13.1022 52.0587 13.1709 52.0302C13.205 52.0157 13.2396 52.0022 13.2732 51.9863L13.3735 51.9381C13.4398 51.9054 13.5085 51.876 13.5732 51.84L13.7689 51.7353C13.8337 51.6993 13.8964 51.6605 13.9607 51.6232C14.0249 51.5867 14.0872 51.5465 14.149 51.5063C14.3991 51.3484 14.6378 51.174 14.8696 50.9918C15.1024 50.8105 15.3268 50.6179 15.5467 50.4212C15.9876 50.0281 16.4077 49.6122 16.8367 49.2024C17.2652 48.7921 17.7012 48.385 18.1677 48.0074C18.4 47.8177 18.6432 47.6387 18.8928 47.4681C19.1424 47.2975 19.4058 47.1438 19.6747 47.0012C20.2149 46.7204 20.7872 46.496 21.3779 46.3297C21.9695 46.167 22.5784 46.0591 23.1932 46.0194C24.4219 45.9418 25.6679 46.0969 26.8274 46.4914C27.9864 46.8844 29.0565 47.5064 29.954 48.3028L30 48.3434L29.9763 48.3976C29.8488 48.685 29.7074 48.9668 29.5497 49.2407C29.3886 49.5127 29.2151 49.7777 29.0248 50.0324C28.8321 50.2852 28.628 50.5301 28.409 50.7623C28.1881 50.9932 27.9573 51.2156 27.7126 51.4241C26.7345 52.2583 25.5661 52.8882 24.3132 53.264C23.0603 53.6397 21.7238 53.7649 20.419 53.6201C19.1142 53.4785 17.845 53.0593 16.7305 52.4055L16.6766 52.3742L16.7245 52.3358C17.2741 51.8937 17.7768 51.4007 18.2883 50.9151C18.8004 50.4315 19.3233 49.9506 19.9154 49.5501C20.5045 49.1472 21.1648 48.8397 21.8573 48.635C22.2037 48.5336 22.5581 48.4551 22.9165 48.4051C23.2743 48.3556 23.6371 48.3313 23.9989 48.3322Z" fill="white"/>
<path d="M23.9989 48.3322C23.6366 48.3355 23.2753 48.364 22.9179 48.4182C22.5606 48.4724 22.2087 48.5551 21.8652 48.6603C21.1787 48.8729 20.5248 49.1827 19.9445 49.5884C19.3608 49.9912 18.8453 50.4744 18.3387 50.9623C17.8331 51.4516 17.3285 51.9232 16.7784 52.3742C17.889 53.0093 19.1434 53.3752 20.4324 53.5074C21.7204 53.6434 23.038 53.5121 24.2692 53.135C25.5009 52.7583 26.646 52.1316 27.6009 51.3077C28.5558 50.4843 29.3427 49.5585 29.83 48.428C28.9487 47.6494 27.8994 47.0424 26.7642 46.6596C25.6289 46.2755 24.4081 46.1259 23.2076 46.204C22.6066 46.2437 22.012 46.3507 21.4342 46.5105C20.8574 46.6741 20.2989 46.8942 19.7721 47.1695C19.5106 47.3092 19.2551 47.4588 19.0109 47.6261C18.7672 47.7934 18.5295 47.9686 18.3012 48.156C17.843 48.5285 17.412 48.9327 16.9855 49.3426C16.5585 49.752 16.1344 50.1674 15.6886 50.5646C15.4657 50.7633 15.2378 50.9577 15.0006 51.1423C14.7638 51.3278 14.5197 51.5054 14.2627 51.6671C14.1989 51.7082 14.1352 51.7493 14.0689 51.7867C14.0032 51.825 13.9385 51.8648 13.8717 51.9012L13.6696 52.0087C13.6029 52.0456 13.5322 52.0755 13.4635 52.1092L13.3597 52.1587C13.3251 52.1746 13.289 52.1886 13.2539 52.2036C13.1828 52.2326 13.1131 52.2639 13.0414 52.2914C12.8966 52.3438 12.7528 52.3985 12.6045 52.4401C12.4582 52.4882 12.3065 52.5204 12.1572 52.5588L11.9293 52.6027L11.8152 52.6242L11.7 52.6405C11.3936 52.684 11.0837 52.7041 10.7738 52.7013C10.1545 52.6957 9.53719 52.5994 8.94804 52.4204C8.65347 52.3307 8.36632 52.2199 8.08954 52.0896C7.81325 51.9578 7.54685 51.8077 7.29331 51.6409C6.28208 50.968 5.48041 50.0165 5.0257 48.928L5 48.8659L5.05684 48.8271C5.90645 48.2462 6.92806 47.9111 7.96548 47.8242C9.00439 47.7373 10.0636 47.9018 11.0209 48.2869C11.4993 48.4803 11.9521 48.7285 12.3732 49.0164C12.7933 49.3056 13.1773 49.6393 13.5282 50.0001C14.2266 50.7259 14.7821 51.5661 15.2052 52.4573C15.4182 52.9027 15.5967 53.3626 15.7439 53.8308C15.8196 54.0645 15.8823 54.3014 15.9421 54.5388C15.9975 54.7772 16.0494 55.0169 16.0884 55.2581C16.166 55.7404 16.2263 56.224 16.2713 56.7091C16.297 56.9512 16.3138 57.1942 16.3346 57.4368C16.3509 57.6798 16.3706 57.9223 16.3835 58.1653C16.4413 59.1369 16.4739 60.1095 16.4843 61.0824C16.4962 62.055 16.4848 63.0279 16.4453 64C16.4586 63.514 16.4641 63.0275 16.4641 62.5415C16.4621 62.0554 16.4576 61.5689 16.4463 61.0829C16.4255 60.1109 16.383 59.1393 16.3153 58.1691C16.3 57.9265 16.2777 57.6845 16.2589 57.4419C16.2352 57.1998 16.2164 56.9578 16.1883 56.7161C16.1383 56.2329 16.0731 55.7506 15.9911 55.2726C15.9061 54.7949 15.7874 54.3229 15.6382 53.8598C15.4894 53.3967 15.31 52.9424 15.0965 52.5027C14.6729 51.6232 14.1184 50.7964 13.4269 50.0866C13.0795 49.7337 12.7009 49.408 12.2872 49.1271C11.873 48.8472 11.4292 48.6075 10.9606 48.421C10.023 48.0504 8.99154 47.8966 7.9808 47.9868C6.97254 48.0775 6.0137 48.3371 5.19473 48.9002C5.63807 49.955 6.41948 50.8432 7.40155 51.4942C7.64818 51.6559 7.90667 51.8007 8.17455 51.9279C8.44292 52.0536 8.72168 52.1606 9.00735 52.247C9.5787 52.4195 10.1767 52.5116 10.7758 52.5158C11.0753 52.5181 11.3748 52.498 11.6704 52.4555L11.7811 52.4396L11.8913 52.4186L12.1112 52.3756C12.2555 52.3382 12.4018 52.3073 12.5432 52.2601C12.6865 52.2195 12.8254 52.1662 12.9653 52.1157C13.0345 52.0891 13.1022 52.0587 13.1709 52.0302C13.205 52.0157 13.2396 52.0022 13.2732 51.9863L13.3735 51.9381C13.4398 51.9054 13.5085 51.876 13.5732 51.84L13.7689 51.7353C13.8337 51.6993 13.8964 51.6605 13.9607 51.6232C14.0249 51.5867 14.0872 51.5465 14.149 51.5063C14.3991 51.3484 14.6378 51.174 14.8696 50.9918C15.1024 50.8105 15.3268 50.6179 15.5467 50.4212C15.9876 50.0281 16.4077 49.6122 16.8367 49.2024C17.2652 48.7921 17.7012 48.385 18.1677 48.0074C18.4 47.8177 18.6432 47.6387 18.8928 47.4681C19.1424 47.2975 19.4058 47.1438 19.6747 47.0012C20.2149 46.7204 20.7872 46.496 21.3779 46.3297C21.9695 46.167 22.5784 46.0591 23.1932 46.0194C24.4219 45.9418 25.6679 46.0969 26.8274 46.4914C27.9864 46.8844 29.0565 47.5064 29.954 48.3028L30 48.3434L29.9763 48.3976C29.8488 48.685 29.7074 48.9668 29.5497 49.2407C29.3886 49.5127 29.2151 49.7777 29.0248 50.0324C28.8321 50.2852 28.628 50.5301 28.409 50.7623C28.1881 50.9932 27.9573 51.2156 27.7126 51.4241C26.7345 52.2583 25.5661 52.8882 24.3132 53.264C23.0603 53.6397 21.7238 53.7649 20.419 53.6201C19.1142 53.4785 17.845 53.0593 16.7305 52.4055L16.6766 52.3742L16.7245 52.3358C17.2741 51.8937 17.7768 51.4007 18.2883 50.9151C18.8004 50.4315 19.3233 49.9506 19.9154 49.5501C20.5045 49.1472 21.1648 48.8397 21.8573 48.635C22.2037 48.5336 22.5581 48.4551 22.9165 48.4051C23.2743 48.3556 23.6371 48.3313 23.9989 48.3322Z" stroke="white" stroke-width="0.48" mask="url(#path-7-outside-2_300_312)"/>
<path d="M0 94.792H95C68.7247 82.9443 26.2555 82.9443 0 94.792Z" fill="#43AF3E"/>
<path d="M47.4902 40.2154C58.5601 40.2154 67.534 31.2592 67.534 20.2112C67.534 9.16321 58.5601 0.207031 47.4902 0.207031C36.4202 0.207031 27.4463 9.16321 27.4463 20.2112C27.4463 31.2592 36.4202 40.2154 47.4902 40.2154Z" fill="url(#paint2_linear_300_312)"/>
<mask id="path-10-outside-3_300_312" maskUnits="userSpaceOnUse" x="32" y="12" width="31" height="24" fill="black">
<rect fill="white" x="32" y="12" width="31" height="24"/>
<path d="M55.0387 15.8505C54.6184 15.8545 54.1993 15.8893 53.7848 15.9556C53.3703 16.0218 52.9621 16.1229 52.5636 16.2514C51.7673 16.5113 51.0088 16.89 50.3357 17.3858C49.6586 17.8782 49.0606 18.4688 48.4729 19.0651C47.8864 19.6631 47.3011 20.2394 46.6629 20.7906C47.9512 21.5669 49.4063 22.0141 50.9015 22.1758C52.3956 22.342 53.9241 22.1815 55.3523 21.7205C56.781 21.2602 58.1094 20.4942 59.2171 19.4872C60.3247 18.4808 61.2375 17.3492 61.8028 15.9676C60.7805 15.016 59.5634 14.274 58.2464 13.8062C56.9295 13.3367 55.5134 13.1539 54.1208 13.2493C53.4236 13.2978 52.7339 13.4286 52.0637 13.624C51.3946 13.8239 50.7467 14.0929 50.1356 14.4294C49.8323 14.6001 49.5359 14.7829 49.2527 14.9874C48.97 15.1919 48.6942 15.4061 48.4294 15.6351C47.8979 16.0904 47.3979 16.5844 46.9032 17.0854C46.4078 17.5857 45.9159 18.0935 45.3988 18.579C45.1402 18.8218 44.8759 19.0594 44.6007 19.285C44.3261 19.5118 44.0428 19.7288 43.7447 19.9264C43.6708 19.9767 43.5968 20.027 43.52 20.0727C43.4437 20.1195 43.3686 20.168 43.2912 20.2126L43.0567 20.344C42.9793 20.3891 42.8973 20.4257 42.8176 20.4668L42.6972 20.5273C42.6571 20.5467 42.6153 20.5639 42.5746 20.5822C42.492 20.6176 42.4112 20.6558 42.328 20.6895C42.16 20.7535 41.9932 20.8203 41.8212 20.8712C41.6515 20.93 41.4755 20.9694 41.3023 21.0163L41.038 21.0699L40.9056 21.0962L40.772 21.1162C40.4166 21.1693 40.0571 21.1939 39.6976 21.1905C38.9792 21.1836 38.2631 21.0659 37.5797 20.8472C37.238 20.7375 36.9049 20.6021 36.5839 20.4428C36.2634 20.2817 35.9544 20.0984 35.6602 19.8944C34.4872 19.0719 33.5573 17.909 33.0298 16.5787L33 16.5028L33.0659 16.4553C34.0515 15.7454 35.2365 15.3358 36.44 15.2296C37.6451 15.1233 38.8737 15.3244 39.9843 15.7951C40.5392 16.0315 41.0644 16.3348 41.5529 16.6867C42.0402 17.0402 42.4857 17.4481 42.8927 17.889C43.7029 18.7761 44.3473 19.8031 44.838 20.8923C45.0851 21.4366 45.2921 21.9987 45.463 22.571C45.5507 22.8566 45.6235 23.1462 45.6929 23.4364C45.7571 23.7277 45.8173 24.0207 45.8626 24.3154C45.9526 24.9049 46.0225 25.4961 46.0747 26.0889C46.1045 26.3848 46.124 26.6818 46.1481 26.9783C46.167 27.2753 46.1899 27.5717 46.2049 27.8688C46.2719 29.0563 46.3098 30.2449 46.3218 31.4341C46.3356 32.6227 46.3224 33.8119 46.2765 35C46.292 34.406 46.2983 33.8114 46.2983 33.2173C46.296 32.6233 46.2909 32.0287 46.2777 31.4347C46.2536 30.2466 46.2043 29.0591 46.1257 27.8733C46.108 27.5769 46.0822 27.281 46.0604 26.9846C46.0329 26.6887 46.0111 26.3928 45.9784 26.0975C45.9205 25.5069 45.8448 24.9174 45.7496 24.3331C45.651 23.7494 45.5134 23.1725 45.3403 22.6064C45.1677 22.0404 44.9596 21.4852 44.7119 20.9477C44.2206 19.8727 43.5773 18.8623 42.7752 17.9947C42.3722 17.5634 41.933 17.1653 41.4531 16.822C40.9727 16.4799 40.4578 16.1869 39.9143 15.959C38.8267 15.506 37.6302 15.3181 36.4577 15.4284C35.2881 15.5392 34.1759 15.8565 33.2259 16.5447C33.7402 17.8339 34.6466 18.9194 35.7858 19.7151C36.0719 19.9127 36.3717 20.0898 36.6825 20.2452C36.9938 20.3988 37.3171 20.5296 37.6485 20.6353C38.3113 20.846 39.005 20.9586 39.6999 20.9637C40.0473 20.9666 40.3948 20.942 40.7376 20.89L40.866 20.8706L40.9939 20.8449L41.249 20.7923C41.4164 20.7467 41.5861 20.709 41.7501 20.6513C41.9164 20.6016 42.0775 20.5365 42.2397 20.4748C42.32 20.4422 42.3985 20.4051 42.4782 20.3702C42.5178 20.3525 42.5579 20.336 42.5969 20.3166L42.7133 20.2577C42.7901 20.2177 42.8698 20.1818 42.9449 20.1378L43.172 20.0098C43.2471 19.9658 43.3199 19.9184 43.3944 19.8727C43.4689 19.8282 43.5412 19.7791 43.6128 19.7299C43.9029 19.5369 44.1799 19.3238 44.4488 19.1011C44.7188 18.8795 44.9791 18.6441 45.2342 18.4037C45.7456 17.9233 46.2329 17.4149 46.7306 16.914C47.2277 16.4125 47.7333 15.915 48.2746 15.4535C48.544 15.2216 48.8261 15.0028 49.1156 14.7943C49.4052 14.5859 49.7107 14.3979 50.0226 14.2237C50.6493 13.8804 51.3132 13.6063 51.9983 13.4029C52.6846 13.2042 53.3909 13.0722 54.1041 13.0237C55.5294 12.9289 56.9748 13.1185 58.3198 13.6006C59.6643 14.0809 60.9055 14.8412 61.9467 15.8145L62 15.8642L61.9725 15.9304C61.8246 16.2817 61.6606 16.6261 61.4777 16.9608C61.2908 17.2933 61.0896 17.6171 60.8688 17.9284C60.6452 18.2374 60.4084 18.5367 60.1545 18.8206C59.8982 19.1028 59.6304 19.3747 59.3466 19.6294C58.212 20.649 56.8567 21.4189 55.4033 21.8782C53.9499 22.3374 52.3996 22.4905 50.8861 22.3134C49.3725 22.1403 47.9002 21.628 46.6073 20.8289L46.5448 20.7906L46.6005 20.7438C47.238 20.2035 47.8211 19.6009 48.4145 19.0074C49.0084 18.4162 49.615 17.8285 50.3018 17.339C50.9853 16.8466 51.7512 16.4708 52.5544 16.2206C52.9563 16.0966 53.3674 16.0007 53.7831 15.9396C54.1982 15.879 54.619 15.8493 55.0387 15.8505Z"/>
</mask>
<path d="M55.0387 15.8505C54.6184 15.8545 54.1993 15.8893 53.7848 15.9556C53.3703 16.0218 52.9621 16.1229 52.5636 16.2514C51.7673 16.5113 51.0088 16.89 50.3357 17.3858C49.6586 17.8782 49.0606 18.4688 48.4729 19.0651C47.8864 19.6631 47.3011 20.2394 46.6629 20.7906C47.9512 21.5669 49.4063 22.0141 50.9015 22.1758C52.3956 22.342 53.9241 22.1815 55.3523 21.7205C56.781 21.2602 58.1094 20.4942 59.2171 19.4872C60.3247 18.4808 61.2375 17.3492 61.8028 15.9676C60.7805 15.016 59.5634 14.274 58.2464 13.8062C56.9295 13.3367 55.5134 13.1539 54.1208 13.2493C53.4236 13.2978 52.7339 13.4286 52.0637 13.624C51.3946 13.8239 50.7467 14.0929 50.1356 14.4294C49.8323 14.6001 49.5359 14.7829 49.2527 14.9874C48.97 15.1919 48.6942 15.4061 48.4294 15.6351C47.8979 16.0904 47.3979 16.5844 46.9032 17.0854C46.4078 17.5857 45.9159 18.0935 45.3988 18.579C45.1402 18.8218 44.8759 19.0594 44.6007 19.285C44.3261 19.5118 44.0428 19.7288 43.7447 19.9264C43.6708 19.9767 43.5968 20.027 43.52 20.0727C43.4437 20.1195 43.3686 20.168 43.2912 20.2126L43.0567 20.344C42.9793 20.3891 42.8973 20.4257 42.8176 20.4668L42.6972 20.5273C42.6571 20.5467 42.6153 20.5639 42.5746 20.5822C42.492 20.6176 42.4112 20.6558 42.328 20.6895C42.16 20.7535 41.9932 20.8203 41.8212 20.8712C41.6515 20.93 41.4755 20.9694 41.3023 21.0163L41.038 21.0699L40.9056 21.0962L40.772 21.1162C40.4166 21.1693 40.0571 21.1939 39.6976 21.1905C38.9792 21.1836 38.2631 21.0659 37.5797 20.8472C37.238 20.7375 36.9049 20.6021 36.5839 20.4428C36.2634 20.2817 35.9544 20.0984 35.6602 19.8944C34.4872 19.0719 33.5573 17.909 33.0298 16.5787L33 16.5028L33.0659 16.4553C34.0515 15.7454 35.2365 15.3358 36.44 15.2296C37.6451 15.1233 38.8737 15.3244 39.9843 15.7951C40.5392 16.0315 41.0644 16.3348 41.5529 16.6867C42.0402 17.0402 42.4857 17.4481 42.8927 17.889C43.7029 18.7761 44.3473 19.8031 44.838 20.8923C45.0851 21.4366 45.2921 21.9987 45.463 22.571C45.5507 22.8566 45.6235 23.1462 45.6929 23.4364C45.7571 23.7277 45.8173 24.0207 45.8626 24.3154C45.9526 24.9049 46.0225 25.4961 46.0747 26.0889C46.1045 26.3848 46.124 26.6818 46.1481 26.9783C46.167 27.2753 46.1899 27.5717 46.2049 27.8688C46.2719 29.0563 46.3098 30.2449 46.3218 31.4341C46.3356 32.6227 46.3224 33.8119 46.2765 35C46.292 34.406 46.2983 33.8114 46.2983 33.2173C46.296 32.6233 46.2909 32.0287 46.2777 31.4347C46.2536 30.2466 46.2043 29.0591 46.1257 27.8733C46.108 27.5769 46.0822 27.281 46.0604 26.9846C46.0329 26.6887 46.0111 26.3928 45.9784 26.0975C45.9205 25.5069 45.8448 24.9174 45.7496 24.3331C45.651 23.7494 45.5134 23.1725 45.3403 22.6064C45.1677 22.0404 44.9596 21.4852 44.7119 20.9477C44.2206 19.8727 43.5773 18.8623 42.7752 17.9947C42.3722 17.5634 41.933 17.1653 41.4531 16.822C40.9727 16.4799 40.4578 16.1869 39.9143 15.959C38.8267 15.506 37.6302 15.3181 36.4577 15.4284C35.2881 15.5392 34.1759 15.8565 33.2259 16.5447C33.7402 17.8339 34.6466 18.9194 35.7858 19.7151C36.0719 19.9127 36.3717 20.0898 36.6825 20.2452C36.9938 20.3988 37.3171 20.5296 37.6485 20.6353C38.3113 20.846 39.005 20.9586 39.6999 20.9637C40.0473 20.9666 40.3948 20.942 40.7376 20.89L40.866 20.8706L40.9939 20.8449L41.249 20.7923C41.4164 20.7467 41.5861 20.709 41.7501 20.6513C41.9164 20.6016 42.0775 20.5365 42.2397 20.4748C42.32 20.4422 42.3985 20.4051 42.4782 20.3702C42.5178 20.3525 42.5579 20.336 42.5969 20.3166L42.7133 20.2577C42.7901 20.2177 42.8698 20.1818 42.9449 20.1378L43.172 20.0098C43.2471 19.9658 43.3199 19.9184 43.3944 19.8727C43.4689 19.8282 43.5412 19.7791 43.6128 19.7299C43.9029 19.5369 44.1799 19.3238 44.4488 19.1011C44.7188 18.8795 44.9791 18.6441 45.2342 18.4037C45.7456 17.9233 46.2329 17.4149 46.7306 16.914C47.2277 16.4125 47.7333 15.915 48.2746 15.4535C48.544 15.2216 48.8261 15.0028 49.1156 14.7943C49.4052 14.5859 49.7107 14.3979 50.0226 14.2237C50.6493 13.8804 51.3132 13.6063 51.9983 13.4029C52.6846 13.2042 53.3909 13.0722 54.1041 13.0237C55.5294 12.9289 56.9748 13.1185 58.3198 13.6006C59.6643 14.0809 60.9055 14.8412 61.9467 15.8145L62 15.8642L61.9725 15.9304C61.8246 16.2817 61.6606 16.6261 61.4777 16.9608C61.2908 17.2933 61.0896 17.6171 60.8688 17.9284C60.6452 18.2374 60.4084 18.5367 60.1545 18.8206C59.8982 19.1028 59.6304 19.3747 59.3466 19.6294C58.212 20.649 56.8567 21.4189 55.4033 21.8782C53.9499 22.3374 52.3996 22.4905 50.8861 22.3134C49.3725 22.1403 47.9002 21.628 46.6073 20.8289L46.5448 20.7906L46.6005 20.7438C47.238 20.2035 47.8211 19.6009 48.4145 19.0074C49.0084 18.4162 49.615 17.8285 50.3018 17.339C50.9853 16.8466 51.7512 16.4708 52.5544 16.2206C52.9563 16.0966 53.3674 16.0007 53.7831 15.9396C54.1982 15.879 54.619 15.8493 55.0387 15.8505Z" fill="white"/>
<path d="M55.0387 15.8505C54.6184 15.8545 54.1993 15.8893 53.7848 15.9556C53.3703 16.0218 52.9621 16.1229 52.5636 16.2514C51.7673 16.5113 51.0088 16.89 50.3357 17.3858C49.6586 17.8782 49.0606 18.4688 48.4729 19.0651C47.8864 19.6631 47.3011 20.2394 46.6629 20.7906C47.9512 21.5669 49.4063 22.0141 50.9015 22.1758C52.3956 22.342 53.9241 22.1815 55.3523 21.7205C56.781 21.2602 58.1094 20.4942 59.2171 19.4872C60.3247 18.4808 61.2375 17.3492 61.8028 15.9676C60.7805 15.016 59.5634 14.274 58.2464 13.8062C56.9295 13.3367 55.5134 13.1539 54.1208 13.2493C53.4236 13.2978 52.7339 13.4286 52.0637 13.624C51.3946 13.8239 50.7467 14.0929 50.1356 14.4294C49.8323 14.6001 49.5359 14.7829 49.2527 14.9874C48.97 15.1919 48.6942 15.4061 48.4294 15.6351C47.8979 16.0904 47.3979 16.5844 46.9032 17.0854C46.4078 17.5857 45.9159 18.0935 45.3988 18.579C45.1402 18.8218 44.8759 19.0594 44.6007 19.285C44.3261 19.5118 44.0428 19.7288 43.7447 19.9264C43.6708 19.9767 43.5968 20.027 43.52 20.0727C43.4437 20.1195 43.3686 20.168 43.2912 20.2126L43.0567 20.344C42.9793 20.3891 42.8973 20.4257 42.8176 20.4668L42.6972 20.5273C42.6571 20.5467 42.6153 20.5639 42.5746 20.5822C42.492 20.6176 42.4112 20.6558 42.328 20.6895C42.16 20.7535 41.9932 20.8203 41.8212 20.8712C41.6515 20.93 41.4755 20.9694 41.3023 21.0163L41.038 21.0699L40.9056 21.0962L40.772 21.1162C40.4166 21.1693 40.0571 21.1939 39.6976 21.1905C38.9792 21.1836 38.2631 21.0659 37.5797 20.8472C37.238 20.7375 36.9049 20.6021 36.5839 20.4428C36.2634 20.2817 35.9544 20.0984 35.6602 19.8944C34.4872 19.0719 33.5573 17.909 33.0298 16.5787L33 16.5028L33.0659 16.4553C34.0515 15.7454 35.2365 15.3358 36.44 15.2296C37.6451 15.1233 38.8737 15.3244 39.9843 15.7951C40.5392 16.0315 41.0644 16.3348 41.5529 16.6867C42.0402 17.0402 42.4857 17.4481 42.8927 17.889C43.7029 18.7761 44.3473 19.8031 44.838 20.8923C45.0851 21.4366 45.2921 21.9987 45.463 22.571C45.5507 22.8566 45.6235 23.1462 45.6929 23.4364C45.7571 23.7277 45.8173 24.0207 45.8626 24.3154C45.9526 24.9049 46.0225 25.4961 46.0747 26.0889C46.1045 26.3848 46.124 26.6818 46.1481 26.9783C46.167 27.2753 46.1899 27.5717 46.2049 27.8688C46.2719 29.0563 46.3098 30.2449 46.3218 31.4341C46.3356 32.6227 46.3224 33.8119 46.2765 35C46.292 34.406 46.2983 33.8114 46.2983 33.2173C46.296 32.6233 46.2909 32.0287 46.2777 31.4347C46.2536 30.2466 46.2043 29.0591 46.1257 27.8733C46.108 27.5769 46.0822 27.281 46.0604 26.9846C46.0329 26.6887 46.0111 26.3928 45.9784 26.0975C45.9205 25.5069 45.8448 24.9174 45.7496 24.3331C45.651 23.7494 45.5134 23.1725 45.3403 22.6064C45.1677 22.0404 44.9596 21.4852 44.7119 20.9477C44.2206 19.8727 43.5773 18.8623 42.7752 17.9947C42.3722 17.5634 41.933 17.1653 41.4531 16.822C40.9727 16.4799 40.4578 16.1869 39.9143 15.959C38.8267 15.506 37.6302 15.3181 36.4577 15.4284C35.2881 15.5392 34.1759 15.8565 33.2259 16.5447C33.7402 17.8339 34.6466 18.9194 35.7858 19.7151C36.0719 19.9127 36.3717 20.0898 36.6825 20.2452C36.9938 20.3988 37.3171 20.5296 37.6485 20.6353C38.3113 20.846 39.005 20.9586 39.6999 20.9637C40.0473 20.9666 40.3948 20.942 40.7376 20.89L40.866 20.8706L40.9939 20.8449L41.249 20.7923C41.4164 20.7467 41.5861 20.709 41.7501 20.6513C41.9164 20.6016 42.0775 20.5365 42.2397 20.4748C42.32 20.4422 42.3985 20.4051 42.4782 20.3702C42.5178 20.3525 42.5579 20.336 42.5969 20.3166L42.7133 20.2577C42.7901 20.2177 42.8698 20.1818 42.9449 20.1378L43.172 20.0098C43.2471 19.9658 43.3199 19.9184 43.3944 19.8727C43.4689 19.8282 43.5412 19.7791 43.6128 19.7299C43.9029 19.5369 44.1799 19.3238 44.4488 19.1011C44.7188 18.8795 44.9791 18.6441 45.2342 18.4037C45.7456 17.9233 46.2329 17.4149 46.7306 16.914C47.2277 16.4125 47.7333 15.915 48.2746 15.4535C48.544 15.2216 48.8261 15.0028 49.1156 14.7943C49.4052 14.5859 49.7107 14.3979 50.0226 14.2237C50.6493 13.8804 51.3132 13.6063 51.9983 13.4029C52.6846 13.2042 53.3909 13.0722 54.1041 13.0237C55.5294 12.9289 56.9748 13.1185 58.3198 13.6006C59.6643 14.0809 60.9055 14.8412 61.9467 15.8145L62 15.8642L61.9725 15.9304C61.8246 16.2817 61.6606 16.6261 61.4777 16.9608C61.2908 17.2933 61.0896 17.6171 60.8688 17.9284C60.6452 18.2374 60.4084 18.5367 60.1545 18.8206C59.8982 19.1028 59.6304 19.3747 59.3466 19.6294C58.212 20.649 56.8567 21.4189 55.4033 21.8782C53.9499 22.3374 52.3996 22.4905 50.8861 22.3134C49.3725 22.1403 47.9002 21.628 46.6073 20.8289L46.5448 20.7906L46.6005 20.7438C47.238 20.2035 47.8211 19.6009 48.4145 19.0074C49.0084 18.4162 49.615 17.8285 50.3018 17.339C50.9853 16.8466 51.7512 16.4708 52.5544 16.2206C52.9563 16.0966 53.3674 16.0007 53.7831 15.9396C54.1982 15.879 54.619 15.8493 55.0387 15.8505Z" stroke="white" stroke-width="0.48" mask="url(#path-10-outside-3_300_312)"/>
<path d="M47.4893 70.5997C58.5233 77.8432 64.3976 64.646 64.3976 64.646C48.1243 59.8831 47.4893 70.5997 47.4893 70.5997V70.5997Z" fill="#78E33C"/>
<path d="M71.2446 78.2586C79.4209 85.4228 84.1441 71.3722 84.1441 71.3722C70.3119 68.1374 71.2446 78.2586 71.2446 78.2586Z" fill="#78E33C"/>
<path d="M71.2442 78.2587C60.4681 82.704 59.3369 68.336 59.3369 68.336C74.4393 68.3161 71.2442 78.2587 71.2442 78.2587Z" fill="#78E33C"/>
<path d="M47.49 70.5995C47.49 55.4574 27.8232 58.6922 27.8232 58.6922C34.5905 78.617 47.49 70.5995 47.49 70.5995Z" fill="#78E33C"/>
<path d="M17.8609 82.0119C28.6568 87.4694 32.4076 74.3516 32.4076 74.3516C17.4044 70.3626 17.8609 82.0119 17.8609 82.0119V82.0119Z" fill="#78E33C"/>
<path d="M17.8605 82.0119C17.8605 70.442 3.84961 75.4629 3.84961 75.4629C10.5971 88.9181 17.8605 82.0119 17.8605 82.0119Z" fill="#78E33C"/>
<defs>
<linearGradient id="paint0_linear_300_312" x1="1.46875" y1="42.6873" x2="35.2372" y2="45.0747" gradientUnits="userSpaceOnUse">
<stop stop-color="#30C917"/>
<stop offset="1" stop-color="#279A13"/>
</linearGradient>
<linearGradient id="paint1_linear_300_312" x1="54.9521" y1="32.2814" x2="88.6794" y2="34.6659" gradientUnits="userSpaceOnUse">
<stop stop-color="#30C917"/>
<stop offset="1" stop-color="#279A13"/>
</linearGradient>
<linearGradient id="paint2_linear_300_312" x1="27.4463" y1="7.70859" x2="68.8865" y2="10.6442" gradientUnits="userSpaceOnUse">
<stop stop-color="#30C917"/>
<stop offset="1" stop-color="#279A13"/>
</linearGradient>
</defs>
</svg>
