<svg width="144" height="109" viewBox="0 0 144 109" fill="none" xmlns="http://www.w3.org/2000/svg">
<mask id="path-1-outside-1_300_156" maskUnits="userSpaceOnUse" x="-0.827148" y="0.527344" width="145" height="109" fill="black">
<rect fill="white" x="-0.827148" y="0.527344" width="145" height="109"/>
<path d="M108.307 16.3139C106.284 16.3333 104.265 16.5018 102.269 16.8222C100.273 17.1427 98.3069 17.6317 96.388 18.2533C92.5529 19.5102 88.9 21.3418 85.6585 23.7398C82.3977 26.1211 79.518 28.9777 76.6879 31.8618C73.8634 34.7543 71.0443 37.5417 67.9713 40.2076C74.1754 43.962 81.1829 46.1251 88.3837 46.9069C95.579 47.7108 102.94 46.9346 109.818 44.7051C116.698 42.4785 123.096 38.7738 128.43 33.9034C133.764 29.0357 138.16 23.563 140.882 16.8802C135.959 12.2778 130.098 8.68914 123.755 6.42657C117.413 4.15572 110.594 3.27168 103.887 3.73304C100.53 3.96786 97.208 4.60049 93.9803 5.5453C90.7582 6.51221 87.6382 7.8134 84.6949 9.44057C83.2343 10.2666 81.8069 11.1506 80.4429 12.1396C79.0817 13.1286 77.7537 14.1646 76.4781 15.2724C73.9186 17.4742 71.511 19.8639 69.1282 22.2867C66.7426 24.7067 64.3736 27.1626 61.8832 29.5108C60.638 30.685 59.3651 31.8342 58.0398 32.9254C56.7173 34.0222 55.3533 35.072 53.9176 36.0278C53.5614 36.2709 53.2052 36.514 52.8352 36.735C52.468 36.9616 52.1063 37.1964 51.7336 37.4119L50.6043 38.0473C50.2316 38.2655 49.8368 38.4423 49.453 38.6412L48.8732 38.9341C48.6799 39.028 48.4783 39.1109 48.2823 39.1993C47.8847 39.3706 47.4954 39.5557 47.095 39.7187C46.2861 40.0281 45.4826 40.3513 44.6543 40.5972C43.837 40.8817 42.9894 41.0723 42.1555 41.2989L40.8827 41.5585L40.2449 41.6856L39.6016 41.7823C37.8897 42.0392 36.1585 42.158 34.4274 42.1415C30.9678 42.1083 27.5192 41.5392 24.2281 40.4811C22.5825 39.9507 20.9783 39.296 19.4321 38.5252C17.8887 37.7462 16.4005 36.8594 14.9841 35.8731C9.335 31.895 4.85659 26.2703 2.31642 19.8362L2.17285 19.4688L2.49037 19.2395C7.23661 15.8056 12.9437 13.8248 18.7391 13.311C24.5428 12.7971 30.4597 13.7696 35.8079 16.0459C38.4806 17.1897 41.0097 18.6566 43.3621 20.3584C45.709 22.0684 47.8543 24.0409 49.8147 26.1736C53.716 30.4639 56.8194 35.4311 59.1829 40.6994C60.3729 43.3321 61.3696 46.0505 62.1924 48.8187C62.6149 50.2 62.9655 51.6006 63.2996 53.004C63.6088 54.4129 63.8988 55.8301 64.1169 57.2556C64.5504 60.1066 64.8872 62.9659 65.1385 65.8335C65.282 67.2645 65.3759 68.7011 65.4919 70.1349C65.583 71.5714 65.6934 73.0052 65.7652 74.4418C66.0883 80.1852 66.2705 85.9342 66.3285 91.6859C66.3947 97.4349 66.3312 103.187 66.1104 108.933C66.1849 106.06 66.2153 103.184 66.2153 100.311C66.2042 97.4376 66.1794 94.5618 66.1159 91.6887C65.9999 85.9425 65.7625 80.199 65.3842 74.4639C65.2986 73.0301 65.1744 71.599 65.0694 70.1653C64.9369 68.7342 64.832 67.3032 64.6746 65.8749C64.3957 63.0184 64.0313 60.1674 63.573 57.3413C63.0981 54.5179 62.4354 51.7277 61.6016 48.9899C60.7705 46.2522 59.7682 43.567 58.5755 40.9673C56.2092 35.7681 53.1114 30.8811 49.2487 26.6847C47.3076 24.5989 45.1927 22.6734 42.8817 21.0131C40.5679 19.3583 38.0885 17.9411 35.471 16.8388C30.2333 14.6481 24.471 13.7392 18.8247 14.2724C13.1922 14.8083 7.83575 16.3429 3.2607 19.6719C5.73736 25.9071 10.1026 31.1574 15.5888 35.0057C16.9665 35.9615 18.4106 36.8179 19.907 37.5694C21.4063 38.3125 22.9635 38.9451 24.5594 39.4562C27.7512 40.4756 31.092 41.0198 34.4384 41.0447C36.1116 41.0585 37.7848 40.9397 39.4359 40.6883L40.0544 40.5944L40.6701 40.4701L41.8988 40.2159C42.705 39.9949 43.5222 39.8126 44.3119 39.5336C45.1126 39.2932 45.8885 38.9783 46.6698 38.6799C47.0564 38.5224 47.4347 38.3429 47.8184 38.1744C48.0089 38.0887 48.2022 38.0086 48.39 37.9147L48.9505 37.6301C49.3204 37.4368 49.7042 37.2627 50.0659 37.05L51.1593 36.4312C51.521 36.2184 51.8716 35.9891 52.2306 35.7681C52.5895 35.5527 52.9374 35.3151 53.2825 35.0775C54.6796 34.1437 56.0132 33.1133 57.3081 32.0359C58.6086 30.964 59.8621 29.8258 61.0908 28.6627C63.5536 26.3394 65.9005 23.8807 68.2971 21.4579C70.6909 19.0323 73.1262 16.6261 75.7326 14.3939C77.0303 13.2723 78.3887 12.2142 79.783 11.2059C81.1774 10.1975 82.649 9.28862 84.151 8.44603C87.1688 6.78571 90.3661 5.45966 93.6656 4.47618C96.9705 3.51479 100.372 2.87663 103.807 2.64181C110.671 2.18322 117.631 3.1004 124.109 5.43204C130.583 7.75538 136.561 11.4324 141.575 16.1399L141.832 16.3802L141.699 16.7007C140.987 18.3997 140.197 20.0655 139.317 21.6844C138.417 23.2922 137.447 24.8586 136.384 26.3643C135.308 27.8588 134.167 29.3064 132.944 30.6794C131.71 32.0442 130.421 33.3592 129.054 34.5913C123.59 39.5225 117.063 43.2465 110.063 45.4676C103.064 47.6888 95.5983 48.4291 88.3091 47.5727C81.02 46.7357 73.9296 44.2576 67.7035 40.3927L67.4025 40.2076L67.6703 39.9811C70.7406 37.3677 73.5486 34.4531 76.4063 31.5828C79.2667 28.7235 82.1879 25.8808 85.4956 23.5132C88.7868 21.1319 92.4756 19.3141 96.3438 18.1041C98.2793 17.5046 100.259 17.0405 102.261 16.7449C104.26 16.452 106.286 16.3084 108.307 16.3139Z"/>
</mask>
<path d="M108.307 16.3139C106.284 16.3333 104.265 16.5018 102.269 16.8222C100.273 17.1427 98.3069 17.6317 96.388 18.2533C92.5529 19.5102 88.9 21.3418 85.6585 23.7398C82.3977 26.1211 79.518 28.9777 76.6879 31.8618C73.8634 34.7543 71.0443 37.5417 67.9713 40.2076C74.1754 43.962 81.1829 46.1251 88.3837 46.9069C95.579 47.7108 102.94 46.9346 109.818 44.7051C116.698 42.4785 123.096 38.7738 128.43 33.9034C133.764 29.0357 138.16 23.563 140.882 16.8802C135.959 12.2778 130.098 8.68914 123.755 6.42657C117.413 4.15572 110.594 3.27168 103.887 3.73304C100.53 3.96786 97.208 4.60049 93.9803 5.5453C90.7582 6.51221 87.6382 7.8134 84.6949 9.44057C83.2343 10.2666 81.8069 11.1506 80.4429 12.1396C79.0817 13.1286 77.7537 14.1646 76.4781 15.2724C73.9186 17.4742 71.511 19.8639 69.1282 22.2867C66.7426 24.7067 64.3736 27.1626 61.8832 29.5108C60.638 30.685 59.3651 31.8342 58.0398 32.9254C56.7173 34.0222 55.3533 35.072 53.9176 36.0278C53.5614 36.2709 53.2052 36.514 52.8352 36.735C52.468 36.9616 52.1063 37.1964 51.7336 37.4119L50.6043 38.0473C50.2316 38.2655 49.8368 38.4423 49.453 38.6412L48.8732 38.9341C48.6799 39.028 48.4783 39.1109 48.2823 39.1993C47.8847 39.3706 47.4954 39.5557 47.095 39.7187C46.2861 40.0281 45.4826 40.3513 44.6543 40.5972C43.837 40.8817 42.9894 41.0723 42.1555 41.2989L40.8827 41.5585L40.2449 41.6856L39.6016 41.7823C37.8897 42.0392 36.1585 42.158 34.4274 42.1415C30.9678 42.1083 27.5192 41.5392 24.2281 40.4811C22.5825 39.9507 20.9783 39.296 19.4321 38.5252C17.8887 37.7462 16.4005 36.8594 14.9841 35.8731C9.335 31.895 4.85659 26.2703 2.31642 19.8362L2.17285 19.4688L2.49037 19.2395C7.23661 15.8056 12.9437 13.8248 18.7391 13.311C24.5428 12.7971 30.4597 13.7696 35.8079 16.0459C38.4806 17.1897 41.0097 18.6566 43.3621 20.3584C45.709 22.0684 47.8543 24.0409 49.8147 26.1736C53.716 30.4639 56.8194 35.4311 59.1829 40.6994C60.3729 43.3321 61.3696 46.0505 62.1924 48.8187C62.6149 50.2 62.9655 51.6006 63.2996 53.004C63.6088 54.4129 63.8988 55.8301 64.1169 57.2556C64.5504 60.1066 64.8872 62.9659 65.1385 65.8335C65.282 67.2645 65.3759 68.7011 65.4919 70.1349C65.583 71.5714 65.6934 73.0052 65.7652 74.4418C66.0883 80.1852 66.2705 85.9342 66.3285 91.6859C66.3947 97.4349 66.3312 103.187 66.1104 108.933C66.1849 106.06 66.2153 103.184 66.2153 100.311C66.2042 97.4376 66.1794 94.5618 66.1159 91.6887C65.9999 85.9425 65.7625 80.199 65.3842 74.4639C65.2986 73.0301 65.1744 71.599 65.0694 70.1653C64.9369 68.7342 64.832 67.3032 64.6746 65.8749C64.3957 63.0184 64.0313 60.1674 63.573 57.3413C63.0981 54.5179 62.4354 51.7277 61.6016 48.9899C60.7705 46.2522 59.7682 43.567 58.5755 40.9673C56.2092 35.7681 53.1114 30.8811 49.2487 26.6847C47.3076 24.5989 45.1927 22.6734 42.8817 21.0131C40.5679 19.3583 38.0885 17.9411 35.471 16.8388C30.2333 14.6481 24.471 13.7392 18.8247 14.2724C13.1922 14.8083 7.83575 16.3429 3.2607 19.6719C5.73736 25.9071 10.1026 31.1574 15.5888 35.0057C16.9665 35.9615 18.4106 36.8179 19.907 37.5694C21.4063 38.3125 22.9635 38.9451 24.5594 39.4562C27.7512 40.4756 31.092 41.0198 34.4384 41.0447C36.1116 41.0585 37.7848 40.9397 39.4359 40.6883L40.0544 40.5944L40.6701 40.4701L41.8988 40.2159C42.705 39.9949 43.5222 39.8126 44.3119 39.5336C45.1126 39.2932 45.8885 38.9783 46.6698 38.6799C47.0564 38.5224 47.4347 38.3429 47.8184 38.1744C48.0089 38.0887 48.2022 38.0086 48.39 37.9147L48.9505 37.6301C49.3204 37.4368 49.7042 37.2627 50.0659 37.05L51.1593 36.4312C51.521 36.2184 51.8716 35.9891 52.2306 35.7681C52.5895 35.5527 52.9374 35.3151 53.2825 35.0775C54.6796 34.1437 56.0132 33.1133 57.3081 32.0359C58.6086 30.964 59.8621 29.8258 61.0908 28.6627C63.5536 26.3394 65.9005 23.8807 68.2971 21.4579C70.6909 19.0323 73.1262 16.6261 75.7326 14.3939C77.0303 13.2723 78.3887 12.2142 79.783 11.2059C81.1774 10.1975 82.649 9.28862 84.151 8.44603C87.1688 6.78571 90.3661 5.45966 93.6656 4.47618C96.9705 3.51479 100.372 2.87663 103.807 2.64181C110.671 2.18322 117.631 3.1004 124.109 5.43204C130.583 7.75538 136.561 11.4324 141.575 16.1399L141.832 16.3802L141.699 16.7007C140.987 18.3997 140.197 20.0655 139.317 21.6844C138.417 23.2922 137.447 24.8586 136.384 26.3643C135.308 27.8588 134.167 29.3064 132.944 30.6794C131.71 32.0442 130.421 33.3592 129.054 34.5913C123.59 39.5225 117.063 43.2465 110.063 45.4676C103.064 47.6888 95.5983 48.4291 88.3091 47.5727C81.02 46.7357 73.9296 44.2576 67.7035 40.3927L67.4025 40.2076L67.6703 39.9811C70.7406 37.3677 73.5486 34.4531 76.4063 31.5828C79.2667 28.7235 82.1879 25.8808 85.4956 23.5132C88.7868 21.1319 92.4756 19.3141 96.3438 18.1041C98.2793 17.5046 100.259 17.0405 102.261 16.7449C104.26 16.452 106.286 16.3084 108.307 16.3139Z" fill="white"/>
<path d="M108.307 16.3139C106.284 16.3333 104.265 16.5018 102.269 16.8222C100.273 17.1427 98.3069 17.6317 96.388 18.2533C92.5529 19.5102 88.9 21.3418 85.6585 23.7398C82.3977 26.1211 79.518 28.9777 76.6879 31.8618C73.8634 34.7543 71.0443 37.5417 67.9713 40.2076C74.1754 43.962 81.1829 46.1251 88.3837 46.9069C95.579 47.7108 102.94 46.9346 109.818 44.7051C116.698 42.4785 123.096 38.7738 128.43 33.9034C133.764 29.0357 138.16 23.563 140.882 16.8802C135.959 12.2778 130.098 8.68914 123.755 6.42657C117.413 4.15572 110.594 3.27168 103.887 3.73304C100.53 3.96786 97.208 4.60049 93.9803 5.5453C90.7582 6.51221 87.6382 7.8134 84.6949 9.44057C83.2343 10.2666 81.8069 11.1506 80.4429 12.1396C79.0817 13.1286 77.7537 14.1646 76.4781 15.2724C73.9186 17.4742 71.511 19.8639 69.1282 22.2867C66.7426 24.7067 64.3736 27.1626 61.8832 29.5108C60.638 30.685 59.3651 31.8342 58.0398 32.9254C56.7173 34.0222 55.3533 35.072 53.9176 36.0278C53.5614 36.2709 53.2052 36.514 52.8352 36.735C52.468 36.9616 52.1063 37.1964 51.7336 37.4119L50.6043 38.0473C50.2316 38.2655 49.8368 38.4423 49.453 38.6412L48.8732 38.9341C48.6799 39.028 48.4783 39.1109 48.2823 39.1993C47.8847 39.3706 47.4954 39.5557 47.095 39.7187C46.2861 40.0281 45.4826 40.3513 44.6543 40.5972C43.837 40.8817 42.9894 41.0723 42.1555 41.2989L40.8827 41.5585L40.2449 41.6856L39.6016 41.7823C37.8897 42.0392 36.1585 42.158 34.4274 42.1415C30.9678 42.1083 27.5192 41.5392 24.2281 40.4811C22.5825 39.9507 20.9783 39.296 19.4321 38.5252C17.8887 37.7462 16.4005 36.8594 14.9841 35.8731C9.335 31.895 4.85659 26.2703 2.31642 19.8362L2.17285 19.4688L2.49037 19.2395C7.23661 15.8056 12.9437 13.8248 18.7391 13.311C24.5428 12.7971 30.4597 13.7696 35.8079 16.0459C38.4806 17.1897 41.0097 18.6566 43.3621 20.3584C45.709 22.0684 47.8543 24.0409 49.8147 26.1736C53.716 30.4639 56.8194 35.4311 59.1829 40.6994C60.3729 43.3321 61.3696 46.0505 62.1924 48.8187C62.6149 50.2 62.9655 51.6006 63.2996 53.004C63.6088 54.4129 63.8988 55.8301 64.1169 57.2556C64.5504 60.1066 64.8872 62.9659 65.1385 65.8335C65.282 67.2645 65.3759 68.7011 65.4919 70.1349C65.583 71.5714 65.6934 73.0052 65.7652 74.4418C66.0883 80.1852 66.2705 85.9342 66.3285 91.6859C66.3947 97.4349 66.3312 103.187 66.1104 108.933C66.1849 106.06 66.2153 103.184 66.2153 100.311C66.2042 97.4376 66.1794 94.5618 66.1159 91.6887C65.9999 85.9425 65.7625 80.199 65.3842 74.4639C65.2986 73.0301 65.1744 71.599 65.0694 70.1653C64.9369 68.7342 64.832 67.3032 64.6746 65.8749C64.3957 63.0184 64.0313 60.1674 63.573 57.3413C63.0981 54.5179 62.4354 51.7277 61.6016 48.9899C60.7705 46.2522 59.7682 43.567 58.5755 40.9673C56.2092 35.7681 53.1114 30.8811 49.2487 26.6847C47.3076 24.5989 45.1927 22.6734 42.8817 21.0131C40.5679 19.3583 38.0885 17.9411 35.471 16.8388C30.2333 14.6481 24.471 13.7392 18.8247 14.2724C13.1922 14.8083 7.83575 16.3429 3.2607 19.6719C5.73736 25.9071 10.1026 31.1574 15.5888 35.0057C16.9665 35.9615 18.4106 36.8179 19.907 37.5694C21.4063 38.3125 22.9635 38.9451 24.5594 39.4562C27.7512 40.4756 31.092 41.0198 34.4384 41.0447C36.1116 41.0585 37.7848 40.9397 39.4359 40.6883L40.0544 40.5944L40.6701 40.4701L41.8988 40.2159C42.705 39.9949 43.5222 39.8126 44.3119 39.5336C45.1126 39.2932 45.8885 38.9783 46.6698 38.6799C47.0564 38.5224 47.4347 38.3429 47.8184 38.1744C48.0089 38.0887 48.2022 38.0086 48.39 37.9147L48.9505 37.6301C49.3204 37.4368 49.7042 37.2627 50.0659 37.05L51.1593 36.4312C51.521 36.2184 51.8716 35.9891 52.2306 35.7681C52.5895 35.5527 52.9374 35.3151 53.2825 35.0775C54.6796 34.1437 56.0132 33.1133 57.3081 32.0359C58.6086 30.964 59.8621 29.8258 61.0908 28.6627C63.5536 26.3394 65.9005 23.8807 68.2971 21.4579C70.6909 19.0323 73.1262 16.6261 75.7326 14.3939C77.0303 13.2723 78.3887 12.2142 79.783 11.2059C81.1774 10.1975 82.649 9.28862 84.151 8.44603C87.1688 6.78571 90.3661 5.45966 93.6656 4.47618C96.9705 3.51479 100.372 2.87663 103.807 2.64181C110.671 2.18322 117.631 3.1004 124.109 5.43204C130.583 7.75538 136.561 11.4324 141.575 16.1399L141.832 16.3802L141.699 16.7007C140.987 18.3997 140.197 20.0655 139.317 21.6844C138.417 23.2922 137.447 24.8586 136.384 26.3643C135.308 27.8588 134.167 29.3064 132.944 30.6794C131.71 32.0442 130.421 33.3592 129.054 34.5913C123.59 39.5225 117.063 43.2465 110.063 45.4676C103.064 47.6888 95.5983 48.4291 88.3091 47.5727C81.02 46.7357 73.9296 44.2576 67.7035 40.3927L67.4025 40.2076L67.6703 39.9811C70.7406 37.3677 73.5486 34.4531 76.4063 31.5828C79.2667 28.7235 82.1879 25.8808 85.4956 23.5132C88.7868 21.1319 92.4756 19.3141 96.3438 18.1041C98.2793 17.5046 100.259 17.0405 102.261 16.7449C104.26 16.452 106.286 16.3084 108.307 16.3139Z" stroke="white" stroke-width="3.35238" mask="url(#path-1-outside-1_300_156)"/>
</svg>
