<svg width="60" height="60" viewBox="0 0 60 60" fill="none" xmlns="http://www.w3.org/2000/svg">
<g clip-path="url(#clip0_300_577)">
<path d="M8.26957 20.7169L8.75414 12.4382L15.5232 16.2939L18.667 9.7766L24.6128 13.9515L30 2.88281L34.7723 14.3721L41.8032 9.76066L44.2273 16.8157L52.7214 14.8573L51.4 22.2705L60 28.1691L52.3144 32.3914L52.8806 40.8778L43.6389 39.4473L44.9602 57.3352L35.661 40.8778L30.443 45.4378L25.2918 40.7572L17.0164 47.2731L12.2754 37.7968L2.41453 38.5841L6.57949 29.4388L0 22.7693L8.26957 20.7169Z" fill="#FFC250"/>
<path d="M59.9993 28.1712L51.3993 22.2727L52.7207 14.8594L47.6846 16.0205L46.5703 22.2727L55.1704 28.1712L47.4847 32.3936L48.0006 40.1247L52.8799 40.8799L52.3137 32.3936L59.9993 28.1712Z" fill="#EBB044"/>
<path d="M38.7393 38.7383L39.4046 47.5048L44.9598 57.3362L43.6385 39.4483L38.7393 38.7383Z" fill="#EBB044"/>
<path d="M27.9263 23.332C27.9219 23.332 27.9175 23.332 27.913 23.3321C27.413 23.3392 27.0135 23.7504 27.0206 24.2504L27.0878 28.9445L23.4588 23.7562C23.2318 23.4316 22.8202 23.2924 22.4429 23.4122C22.0655 23.5321 21.8098 23.8833 21.8115 24.2793L21.8461 31.777C21.8484 32.2758 22.2533 32.6783 22.7514 32.6783H22.7556C23.2558 32.676 23.6591 32.2687 23.6569 31.7687L23.6357 27.1683L27.0936 32.1121C27.3634 32.4968 27.8098 32.6582 28.2306 32.5246C28.6607 32.3878 28.9372 31.9822 28.935 31.4825L28.8312 24.2242C28.8243 23.7288 28.4203 23.332 27.9263 23.332Z" fill="white"/>
<path d="M19.427 23.375H19.4228C18.9226 23.3773 18.5193 23.7846 18.5215 24.2846L18.5561 31.7964C18.5584 32.2952 18.9633 32.6977 19.4613 32.6977H19.4656C19.9657 32.6954 20.3691 32.2882 20.3668 31.7881L20.3323 24.2763C20.3299 23.7775 19.925 23.375 19.427 23.375Z" fill="white"/>
<path d="M16.3056 27.4825C16.5893 27.0532 16.7404 26.5502 16.738 26.0242V26.0241C16.7312 24.5759 15.5486 23.4023 14.0991 23.4023H14.0868L11.8984 23.4124C11.6583 23.4135 11.4283 23.51 11.2593 23.6805C11.0902 23.8512 10.996 24.0819 10.9971 24.322L11.013 27.7866V27.7886L11.0318 31.8339C11.0329 32.0746 11.1299 32.3051 11.3014 32.4742C11.4709 32.6415 11.6993 32.735 11.9373 32.735H11.9454C11.9456 32.735 13.9572 32.7169 14.512 32.7144C15.2949 32.7108 16.0299 32.4032 16.5813 31.8484C17.1334 31.2928 17.4355 30.5559 17.4318 29.7735C17.4275 28.8437 16.9871 28.0159 16.3056 27.4825ZM14.0952 25.2132H14.099C14.5538 25.2132 14.925 25.58 14.9271 26.0326C14.928 26.2519 14.8433 26.4586 14.6881 26.6147C14.5324 26.7714 14.3244 26.8583 14.1027 26.8594C13.8599 26.8607 13.1687 26.8665 12.8196 26.8673L12.8121 25.2192L14.0952 25.2132ZM15.2967 30.5719C15.0855 30.7843 14.8039 30.9021 14.5037 30.9035C14.1977 30.9049 13.4497 30.9109 12.8383 30.9163L12.8279 28.6705H14.4986C15.1152 28.6705 15.618 29.1679 15.6208 29.7819C15.6224 30.0796 15.5072 30.3602 15.2967 30.5719Z" fill="white"/>
<path d="M37.8008 27.0375H37.7966L35.5429 27.0479C35.0427 27.0503 34.6393 27.4575 34.6416 27.9575C34.6439 28.4563 35.0488 28.8588 35.5468 28.8588H35.5511L36.8024 28.8531C36.7007 29.3135 36.5172 29.718 36.2622 30.0347C35.851 30.5448 35.2791 30.8052 34.562 30.8085H34.5485C32.9768 30.8085 31.6943 29.5384 31.687 27.9713C31.6835 27.2104 31.9776 26.4934 32.5149 25.9527C33.0531 25.4113 33.7705 25.1112 34.5354 25.1077H34.5488C35.1178 25.1077 35.6672 25.2734 36.1382 25.5874C36.5542 25.8648 37.1163 25.7523 37.3937 25.3363C37.6711 24.9203 37.5586 24.3581 37.1426 24.0807C36.367 23.5637 35.464 23.2975 34.5271 23.2969C33.2795 23.3026 32.1087 23.7925 31.2304 24.6764C30.3512 25.5609 29.8702 26.7341 29.876 27.9797C29.8879 30.5427 31.9817 32.6197 34.5482 32.6196H34.57C35.8221 32.614 36.9238 32.0995 37.6718 31.1713C38.3443 30.3368 38.7116 29.1891 38.7059 27.9394C38.7039 27.4402 38.299 27.0375 37.8008 27.0375Z" fill="white"/>
<path d="M44.3301 23.2461H44.3083C43.0608 23.2518 41.8899 23.7417 41.0116 24.6256C40.1325 25.5102 39.6514 26.6832 39.6573 27.9288C39.6691 30.4919 41.7629 32.5688 44.3293 32.5688H44.3511C45.5987 32.5631 46.7695 32.0732 47.6478 31.1893C48.527 30.3048 49.008 29.1316 49.0022 27.886C48.9903 25.323 46.8965 23.2461 44.3301 23.2461ZM46.3635 29.9129C45.8252 30.4543 45.1078 30.7544 44.3429 30.7579H44.3294C42.7578 30.7579 41.4753 29.4879 41.4682 27.9206C41.4647 27.1597 41.7587 26.4429 42.296 25.9021C42.8342 25.3606 43.5517 25.0606 44.3165 25.0571H44.33C45.9016 25.0571 47.1841 26.3272 47.1914 27.8943C47.1948 28.6551 46.9008 29.3721 46.3635 29.9129Z" fill="white"/>
<path d="M10.5621 4.47887C11.7273 4.47887 11.7293 2.66797 10.5621 2.66797C9.39695 2.66797 9.39496 4.47887 10.5621 4.47887Z" fill="#BEDDF3"/>
<path d="M22.7174 7.17027C23.8826 7.17027 23.8846 5.35938 22.7174 5.35938C21.5522 5.35949 21.5502 7.17027 22.7174 7.17027Z" fill="#E28086"/>
<path d="M3.31996 17.2757C4.48515 17.2757 4.48714 15.4648 3.31996 15.4648C2.15476 15.465 2.15277 17.2757 3.31996 17.2757Z" fill="#E28086"/>
<path d="M42.0152 5.27184C43.1804 5.27184 43.1824 3.46094 42.0152 3.46094C40.85 3.46094 40.8482 5.27184 42.0152 5.27184Z" fill="#FFC250"/>
<path d="M57.5885 21.0257C58.7537 21.0257 58.7557 19.2148 57.5885 19.2148C56.4233 19.2148 56.4213 21.0257 57.5885 21.0257Z" fill="#BEDDF3"/>
<path d="M34.7721 48.9125C35.9373 48.9125 35.9392 47.1016 34.7721 47.1016C33.6069 47.1016 33.605 48.9125 34.7721 48.9125Z" fill="#E28086"/>
<path d="M24.4508 53.2562C25.616 53.2562 25.618 51.4453 24.4508 51.4453C23.2856 51.4454 23.2837 53.2562 24.4508 53.2562Z" fill="#FFC250"/>
<path d="M8.87859 44.9281C10.0438 44.9281 10.0458 43.1172 8.87859 43.1172C7.71328 43.1173 7.71141 44.9281 8.87859 44.9281Z" fill="#BEDDF3"/>
</g>
<defs>
<clipPath id="clip0_300_577">
<rect width="60" height="60" fill="white"/>
</clipPath>
</defs>
</svg>
