<svg width="312" height="311" viewBox="0 0 312 311" fill="none" xmlns="http://www.w3.org/2000/svg">
<g filter="url(#filter0_d_300_154)">
<circle cx="156" cy="147" r="88" fill="url(#paint0_linear_300_154)"/>
<mask id="path-2-outside-1_300_154" maskUnits="userSpaceOnUse" x="83.1729" y="106.527" width="145" height="109" fill="black">
<rect fill="white" x="83.1729" y="106.527" width="145" height="109"/>
<path d="M192.307 122.314C190.284 122.333 188.265 122.502 186.269 122.822C184.273 123.143 182.307 123.632 180.388 124.253C176.553 125.51 172.9 127.342 169.659 129.74C166.398 132.121 163.518 134.978 160.688 137.862C157.863 140.754 155.044 143.542 151.971 146.208C158.175 149.962 165.183 152.125 172.384 152.907C179.579 153.711 186.94 152.935 193.818 150.705C200.698 148.478 207.096 144.774 212.43 139.903C217.764 135.036 222.16 129.563 224.882 122.88C219.959 118.278 214.098 114.689 207.755 112.427C201.413 110.156 194.594 109.272 187.887 109.733C184.53 109.968 181.208 110.6 177.98 111.545C174.758 112.512 171.638 113.813 168.695 115.441C167.234 116.267 165.807 117.151 164.443 118.14C163.082 119.129 161.754 120.165 160.478 121.272C157.919 123.474 155.511 125.864 153.128 128.287C150.743 130.707 148.374 133.163 145.883 135.511C144.638 136.685 143.365 137.834 142.04 138.925C140.717 140.022 139.353 141.072 137.918 142.028C137.561 142.271 137.205 142.514 136.835 142.735C136.468 142.962 136.106 143.196 135.734 143.412L134.604 144.047C134.232 144.266 133.837 144.442 133.453 144.641L132.873 144.934C132.68 145.028 132.478 145.111 132.282 145.199C131.885 145.371 131.495 145.556 131.095 145.719C130.286 146.028 129.483 146.351 128.654 146.597C127.837 146.882 126.989 147.072 126.156 147.299L124.883 147.559L124.245 147.686L123.602 147.782C121.89 148.039 120.159 148.158 118.427 148.141C114.968 148.108 111.519 147.539 108.228 146.481C106.582 145.951 104.978 145.296 103.432 144.525C101.889 143.746 100.401 142.859 98.9841 141.873C93.335 137.895 88.8566 132.27 86.3164 125.836L86.1729 125.469L86.4904 125.24C91.2366 121.806 96.9437 119.825 102.739 119.311C108.543 118.797 114.46 119.77 119.808 122.046C122.481 123.19 125.01 124.657 127.362 126.358C129.709 128.068 131.854 130.041 133.815 132.174C137.716 136.464 140.819 141.431 143.183 146.699C144.373 149.332 145.37 152.051 146.192 154.819C146.615 156.2 146.966 157.601 147.3 159.004C147.609 160.413 147.899 161.83 148.117 163.256C148.55 166.107 148.887 168.966 149.138 171.833C149.282 173.265 149.376 174.701 149.492 176.135C149.583 177.571 149.693 179.005 149.765 180.442C150.088 186.185 150.27 191.934 150.328 197.686C150.395 203.435 150.331 209.187 150.11 214.933C150.185 212.06 150.215 209.184 150.215 206.311C150.204 203.438 150.179 200.562 150.116 197.689C150 191.942 149.762 186.199 149.384 180.464C149.299 179.03 149.174 177.599 149.069 176.165C148.937 174.734 148.832 173.303 148.675 171.875C148.396 169.018 148.031 166.167 147.573 163.341C147.098 160.518 146.435 157.728 145.602 154.99C144.77 152.252 143.768 149.567 142.575 146.967C140.209 141.768 137.111 136.881 133.249 132.685C131.308 130.599 129.193 128.673 126.882 127.013C124.568 125.358 122.089 123.941 119.471 122.839C114.233 120.648 108.471 119.739 102.825 120.272C97.1922 120.808 91.8358 122.343 87.2607 125.672C89.7374 131.907 94.1026 137.157 99.5888 141.006C100.967 141.962 102.411 142.818 103.907 143.569C105.406 144.312 106.964 144.945 108.559 145.456C111.751 146.476 115.092 147.02 118.438 147.045C120.112 147.059 121.785 146.94 123.436 146.688L124.054 146.594L124.67 146.47L125.899 146.216C126.705 145.995 127.522 145.813 128.312 145.534C129.113 145.293 129.888 144.978 130.67 144.68C131.056 144.522 131.435 144.343 131.818 144.174C132.009 144.089 132.202 144.009 132.39 143.915L132.95 143.63C133.32 143.437 133.704 143.263 134.066 143.05L135.159 142.431C135.521 142.218 135.872 141.989 136.231 141.768C136.59 141.553 136.937 141.315 137.283 141.077C138.68 140.144 140.013 139.113 141.308 138.036C142.609 136.964 143.862 135.826 145.091 134.663C147.554 132.339 149.901 129.881 152.297 127.458C154.691 125.032 157.126 122.626 159.733 120.394C161.03 119.272 162.389 118.214 163.783 117.206C165.177 116.198 166.649 115.289 168.151 114.446C171.169 112.786 174.366 111.46 177.666 110.476C180.971 109.515 184.372 108.877 187.807 108.642C194.671 108.183 201.631 109.1 208.109 111.432C214.583 113.755 220.561 117.432 225.575 122.14L225.832 122.38L225.699 122.701C224.987 124.4 224.197 126.066 223.317 127.684C222.417 129.292 221.447 130.859 220.384 132.364C219.308 133.859 218.167 135.306 216.944 136.679C215.71 138.044 214.421 139.359 213.054 140.591C207.59 145.523 201.063 149.246 194.063 151.468C187.064 153.689 179.598 154.429 172.309 153.573C165.02 152.736 157.93 150.258 151.703 146.393L151.403 146.208L151.67 145.981C154.741 143.368 157.549 140.453 160.406 137.583C163.267 134.724 166.188 131.881 169.496 129.513C172.787 127.132 176.476 125.314 180.344 124.104C182.279 123.505 184.259 123.04 186.261 122.745C188.26 122.452 190.286 122.308 192.307 122.314Z"/>
</mask>
<path d="M192.307 122.314C190.284 122.333 188.265 122.502 186.269 122.822C184.273 123.143 182.307 123.632 180.388 124.253C176.553 125.51 172.9 127.342 169.659 129.74C166.398 132.121 163.518 134.978 160.688 137.862C157.863 140.754 155.044 143.542 151.971 146.208C158.175 149.962 165.183 152.125 172.384 152.907C179.579 153.711 186.94 152.935 193.818 150.705C200.698 148.478 207.096 144.774 212.43 139.903C217.764 135.036 222.16 129.563 224.882 122.88C219.959 118.278 214.098 114.689 207.755 112.427C201.413 110.156 194.594 109.272 187.887 109.733C184.53 109.968 181.208 110.6 177.98 111.545C174.758 112.512 171.638 113.813 168.695 115.441C167.234 116.267 165.807 117.151 164.443 118.14C163.082 119.129 161.754 120.165 160.478 121.272C157.919 123.474 155.511 125.864 153.128 128.287C150.743 130.707 148.374 133.163 145.883 135.511C144.638 136.685 143.365 137.834 142.04 138.925C140.717 140.022 139.353 141.072 137.918 142.028C137.561 142.271 137.205 142.514 136.835 142.735C136.468 142.962 136.106 143.196 135.734 143.412L134.604 144.047C134.232 144.266 133.837 144.442 133.453 144.641L132.873 144.934C132.68 145.028 132.478 145.111 132.282 145.199C131.885 145.371 131.495 145.556 131.095 145.719C130.286 146.028 129.483 146.351 128.654 146.597C127.837 146.882 126.989 147.072 126.156 147.299L124.883 147.559L124.245 147.686L123.602 147.782C121.89 148.039 120.159 148.158 118.427 148.141C114.968 148.108 111.519 147.539 108.228 146.481C106.582 145.951 104.978 145.296 103.432 144.525C101.889 143.746 100.401 142.859 98.9841 141.873C93.335 137.895 88.8566 132.27 86.3164 125.836L86.1729 125.469L86.4904 125.24C91.2366 121.806 96.9437 119.825 102.739 119.311C108.543 118.797 114.46 119.77 119.808 122.046C122.481 123.19 125.01 124.657 127.362 126.358C129.709 128.068 131.854 130.041 133.815 132.174C137.716 136.464 140.819 141.431 143.183 146.699C144.373 149.332 145.37 152.051 146.192 154.819C146.615 156.2 146.966 157.601 147.3 159.004C147.609 160.413 147.899 161.83 148.117 163.256C148.55 166.107 148.887 168.966 149.138 171.833C149.282 173.265 149.376 174.701 149.492 176.135C149.583 177.571 149.693 179.005 149.765 180.442C150.088 186.185 150.27 191.934 150.328 197.686C150.395 203.435 150.331 209.187 150.11 214.933C150.185 212.06 150.215 209.184 150.215 206.311C150.204 203.438 150.179 200.562 150.116 197.689C150 191.942 149.762 186.199 149.384 180.464C149.299 179.03 149.174 177.599 149.069 176.165C148.937 174.734 148.832 173.303 148.675 171.875C148.396 169.018 148.031 166.167 147.573 163.341C147.098 160.518 146.435 157.728 145.602 154.99C144.77 152.252 143.768 149.567 142.575 146.967C140.209 141.768 137.111 136.881 133.249 132.685C131.308 130.599 129.193 128.673 126.882 127.013C124.568 125.358 122.089 123.941 119.471 122.839C114.233 120.648 108.471 119.739 102.825 120.272C97.1922 120.808 91.8358 122.343 87.2607 125.672C89.7374 131.907 94.1026 137.157 99.5888 141.006C100.967 141.962 102.411 142.818 103.907 143.569C105.406 144.312 106.964 144.945 108.559 145.456C111.751 146.476 115.092 147.02 118.438 147.045C120.112 147.059 121.785 146.94 123.436 146.688L124.054 146.594L124.67 146.47L125.899 146.216C126.705 145.995 127.522 145.813 128.312 145.534C129.113 145.293 129.888 144.978 130.67 144.68C131.056 144.522 131.435 144.343 131.818 144.174C132.009 144.089 132.202 144.009 132.39 143.915L132.95 143.63C133.32 143.437 133.704 143.263 134.066 143.05L135.159 142.431C135.521 142.218 135.872 141.989 136.231 141.768C136.59 141.553 136.937 141.315 137.283 141.077C138.68 140.144 140.013 139.113 141.308 138.036C142.609 136.964 143.862 135.826 145.091 134.663C147.554 132.339 149.901 129.881 152.297 127.458C154.691 125.032 157.126 122.626 159.733 120.394C161.03 119.272 162.389 118.214 163.783 117.206C165.177 116.198 166.649 115.289 168.151 114.446C171.169 112.786 174.366 111.46 177.666 110.476C180.971 109.515 184.372 108.877 187.807 108.642C194.671 108.183 201.631 109.1 208.109 111.432C214.583 113.755 220.561 117.432 225.575 122.14L225.832 122.38L225.699 122.701C224.987 124.4 224.197 126.066 223.317 127.684C222.417 129.292 221.447 130.859 220.384 132.364C219.308 133.859 218.167 135.306 216.944 136.679C215.71 138.044 214.421 139.359 213.054 140.591C207.59 145.523 201.063 149.246 194.063 151.468C187.064 153.689 179.598 154.429 172.309 153.573C165.02 152.736 157.93 150.258 151.703 146.393L151.403 146.208L151.67 145.981C154.741 143.368 157.549 140.453 160.406 137.583C163.267 134.724 166.188 131.881 169.496 129.513C172.787 127.132 176.476 125.314 180.344 124.104C182.279 123.505 184.259 123.04 186.261 122.745C188.26 122.452 190.286 122.308 192.307 122.314Z" fill="white"/>
<path d="M192.307 122.314C190.284 122.333 188.265 122.502 186.269 122.822C184.273 123.143 182.307 123.632 180.388 124.253C176.553 125.51 172.9 127.342 169.659 129.74C166.398 132.121 163.518 134.978 160.688 137.862C157.863 140.754 155.044 143.542 151.971 146.208C158.175 149.962 165.183 152.125 172.384 152.907C179.579 153.711 186.94 152.935 193.818 150.705C200.698 148.478 207.096 144.774 212.43 139.903C217.764 135.036 222.16 129.563 224.882 122.88C219.959 118.278 214.098 114.689 207.755 112.427C201.413 110.156 194.594 109.272 187.887 109.733C184.53 109.968 181.208 110.6 177.98 111.545C174.758 112.512 171.638 113.813 168.695 115.441C167.234 116.267 165.807 117.151 164.443 118.14C163.082 119.129 161.754 120.165 160.478 121.272C157.919 123.474 155.511 125.864 153.128 128.287C150.743 130.707 148.374 133.163 145.883 135.511C144.638 136.685 143.365 137.834 142.04 138.925C140.717 140.022 139.353 141.072 137.918 142.028C137.561 142.271 137.205 142.514 136.835 142.735C136.468 142.962 136.106 143.196 135.734 143.412L134.604 144.047C134.232 144.266 133.837 144.442 133.453 144.641L132.873 144.934C132.68 145.028 132.478 145.111 132.282 145.199C131.885 145.371 131.495 145.556 131.095 145.719C130.286 146.028 129.483 146.351 128.654 146.597C127.837 146.882 126.989 147.072 126.156 147.299L124.883 147.559L124.245 147.686L123.602 147.782C121.89 148.039 120.159 148.158 118.427 148.141C114.968 148.108 111.519 147.539 108.228 146.481C106.582 145.951 104.978 145.296 103.432 144.525C101.889 143.746 100.401 142.859 98.9841 141.873C93.335 137.895 88.8566 132.27 86.3164 125.836L86.1729 125.469L86.4904 125.24C91.2366 121.806 96.9437 119.825 102.739 119.311C108.543 118.797 114.46 119.77 119.808 122.046C122.481 123.19 125.01 124.657 127.362 126.358C129.709 128.068 131.854 130.041 133.815 132.174C137.716 136.464 140.819 141.431 143.183 146.699C144.373 149.332 145.37 152.051 146.192 154.819C146.615 156.2 146.966 157.601 147.3 159.004C147.609 160.413 147.899 161.83 148.117 163.256C148.55 166.107 148.887 168.966 149.138 171.833C149.282 173.265 149.376 174.701 149.492 176.135C149.583 177.571 149.693 179.005 149.765 180.442C150.088 186.185 150.27 191.934 150.328 197.686C150.395 203.435 150.331 209.187 150.11 214.933C150.185 212.06 150.215 209.184 150.215 206.311C150.204 203.438 150.179 200.562 150.116 197.689C150 191.942 149.762 186.199 149.384 180.464C149.299 179.03 149.174 177.599 149.069 176.165C148.937 174.734 148.832 173.303 148.675 171.875C148.396 169.018 148.031 166.167 147.573 163.341C147.098 160.518 146.435 157.728 145.602 154.99C144.77 152.252 143.768 149.567 142.575 146.967C140.209 141.768 137.111 136.881 133.249 132.685C131.308 130.599 129.193 128.673 126.882 127.013C124.568 125.358 122.089 123.941 119.471 122.839C114.233 120.648 108.471 119.739 102.825 120.272C97.1922 120.808 91.8358 122.343 87.2607 125.672C89.7374 131.907 94.1026 137.157 99.5888 141.006C100.967 141.962 102.411 142.818 103.907 143.569C105.406 144.312 106.964 144.945 108.559 145.456C111.751 146.476 115.092 147.02 118.438 147.045C120.112 147.059 121.785 146.94 123.436 146.688L124.054 146.594L124.67 146.47L125.899 146.216C126.705 145.995 127.522 145.813 128.312 145.534C129.113 145.293 129.888 144.978 130.67 144.68C131.056 144.522 131.435 144.343 131.818 144.174C132.009 144.089 132.202 144.009 132.39 143.915L132.95 143.63C133.32 143.437 133.704 143.263 134.066 143.05L135.159 142.431C135.521 142.218 135.872 141.989 136.231 141.768C136.59 141.553 136.937 141.315 137.283 141.077C138.68 140.144 140.013 139.113 141.308 138.036C142.609 136.964 143.862 135.826 145.091 134.663C147.554 132.339 149.901 129.881 152.297 127.458C154.691 125.032 157.126 122.626 159.733 120.394C161.03 119.272 162.389 118.214 163.783 117.206C165.177 116.198 166.649 115.289 168.151 114.446C171.169 112.786 174.366 111.46 177.666 110.476C180.971 109.515 184.372 108.877 187.807 108.642C194.671 108.183 201.631 109.1 208.109 111.432C214.583 113.755 220.561 117.432 225.575 122.14L225.832 122.38L225.699 122.701C224.987 124.4 224.197 126.066 223.317 127.684C222.417 129.292 221.447 130.859 220.384 132.364C219.308 133.859 218.167 135.306 216.944 136.679C215.71 138.044 214.421 139.359 213.054 140.591C207.59 145.523 201.063 149.246 194.063 151.468C187.064 153.689 179.598 154.429 172.309 153.573C165.02 152.736 157.93 150.258 151.703 146.393L151.403 146.208L151.67 145.981C154.741 143.368 157.549 140.453 160.406 137.583C163.267 134.724 166.188 131.881 169.496 129.513C172.787 127.132 176.476 125.314 180.344 124.104C182.279 123.505 184.259 123.04 186.261 122.745C188.26 122.452 190.286 122.308 192.307 122.314Z" stroke="white" stroke-width="3.35238" mask="url(#path-2-outside-1_300_154)"/>
</g>
<defs>
<filter id="filter0_d_300_154" x="0.952385" y="0.333337" width="310.095" height="310.095" filterUnits="userSpaceOnUse" color-interpolation-filters="sRGB">
<feFlood flood-opacity="0" result="BackgroundImageFix"/>
<feColorMatrix in="SourceAlpha" type="matrix" values="0 0 0 0 0 0 0 0 0 0 0 0 0 0 0 0 0 0 127 0" result="hardAlpha"/>
<feOffset dy="8.38095"/>
<feGaussianBlur stdDeviation="33.5238"/>
<feComposite in2="hardAlpha" operator="out"/>
<feColorMatrix type="matrix" values="0 0 0 0 0.104167 0 0 0 0 0.066116 0 0 0 0 0.030816 0 0 0 0.12 0"/>
<feBlend mode="normal" in2="BackgroundImageFix" result="effect1_dropShadow_300_154"/>
<feBlend mode="normal" in="SourceGraphic" in2="effect1_dropShadow_300_154" result="shape"/>
</filter>
<linearGradient id="paint0_linear_300_154" x1="68" y1="92" x2="249.941" y2="104.863" gradientUnits="userSpaceOnUse">
<stop stop-color="#30C917"/>
<stop offset="1" stop-color="#279A13"/>
</linearGradient>
</defs>
</svg>
