<svg width="60" height="60" viewBox="0 0 60 60" fill="none" xmlns="http://www.w3.org/2000/svg">
<path d="M44.7268 50.8093L46.0089 51.035C47.0101 51.2117 48.0419 51.0112 48.9043 50.4728L53.8486 47.3848C55.828 46.1483 57.1898 44.1301 57.5949 41.8316L59.3367 31.9531C59.4544 31.2875 59.0099 30.653 58.3443 30.5358L38.8646 27.1008C38.199 26.9836 37.5646 27.4276 37.4474 28.0932L35.7051 37.9722C35.3 40.2702 35.8892 42.6327 37.3265 44.4715L40.9168 49.0643C41.543 49.8654 42.4434 50.4065 43.445 50.5832L44.7268 50.8093Z" fill="#C4D3D6"/>
<path d="M49.9267 21.3184L47.1902 20.8359L45.8682 28.3355L51.3403 29.3004L52.6628 21.8009L49.9267 21.3184Z" fill="#C4D3D6"/>
<path d="M52.5536 6.42389L49.8171 5.94141L47.1904 20.8384L49.9269 21.3209L52.663 21.8034L55.2896 6.90637L52.5536 6.42389Z" fill="#F4AC03"/>
<path d="M59.5219 4.82985L59.7919 3.29864C59.9091 2.63305 59.4651 1.99859 58.7995 1.8814L48.2375 0.0187585C47.5724 -0.098429 46.9379 0.345602 46.8203 1.01119L46.5502 2.54241L46.2806 4.07363C46.163 4.73922 46.6074 5.37368 47.273 5.49087L57.8345 7.35351C58.5001 7.47069 59.1346 7.02666 59.2522 6.36107L59.5219 4.82985Z" fill="#5DBCD9"/>
<path d="M41.502 34.7695C41.2832 34.3126 40.7357 34.119 40.2784 34.3373L34.6584 37.0235C33.0338 37.6392 31.7475 38.644 30.8251 39.5632V23.5428C30.8251 23.0361 30.4145 22.625 29.9077 22.625C29.401 22.625 28.9899 23.0361 28.9899 23.5428V37.728C28.0675 36.8088 26.7817 35.804 25.1571 35.1883L19.5371 32.5022C19.0798 32.2838 18.5318 32.4774 18.3135 32.9348C18.0951 33.3916 18.2883 33.9395 18.7456 34.1579L24.3409 36.8322C24.3761 36.8509 24.4123 36.8683 24.4507 36.8825C26.9378 37.8022 28.5386 39.9184 28.9899 40.5771V47.5223C28.9899 48.0291 29.401 48.4397 29.9077 48.4397C30.4145 48.4397 30.8251 48.0291 30.8251 47.5223V42.4123C31.2769 41.7536 32.8777 39.6373 35.3643 38.7177C35.4027 38.7035 35.4393 38.6861 35.4746 38.6678L41.0698 35.9935C41.5267 35.7747 41.7203 35.2268 41.502 34.7695Z" fill="#378900"/>
<path d="M49.7271 59.9996H58.5853C59.4102 59.9996 60.0089 59.1971 59.7539 58.4125C59.0856 56.3512 57.1497 54.8612 54.8655 54.8612C54.2461 54.8612 53.6524 54.9706 53.1022 55.1715C51.4986 52.6332 48.6697 50.9459 45.4447 50.9459C44.9576 50.9459 44.4793 50.9857 44.0128 51.0599C43.5445 48.3545 41.188 46.2969 38.3489 46.2969C36.2624 46.2969 34.4355 47.4083 33.4275 49.0714C32.5555 48.1183 31.3012 47.5205 29.9073 47.5205C28.5129 47.5205 27.2591 48.1183 26.3866 49.0714C25.3786 47.4083 23.5517 46.2969 21.4652 46.2969C18.6262 46.2969 16.2696 48.3545 15.8013 51.0599C15.3348 50.9857 14.8565 50.9459 14.3694 50.9459C11.1445 50.9459 8.31596 52.6332 6.71195 55.1715C6.16218 54.9706 5.568 54.8612 4.94865 54.8612C2.66487 54.8612 0.728525 56.3512 0.06019 58.4125C-0.194327 59.1971 0.404428 59.9996 1.22886 59.9996H49.7271Z" fill="#915431"/>
<path d="M13.8802 54.8632C13.8802 55.2687 13.5515 55.5974 13.1459 55.5974C12.7408 55.5974 12.4121 55.2687 12.4121 54.8632C12.4121 54.4576 12.7408 54.1289 13.1459 54.1289C13.5515 54.1289 13.8802 54.4576 13.8802 54.8632Z" fill="#915431"/>
<g filter="url(#filter0_d_300_168)">
<circle cx="18" cy="33" r="5" fill="url(#paint0_linear_300_168)"/>
<mask id="path-9-outside-1_300_168" maskUnits="userSpaceOnUse" x="13.0322" y="29.8125" width="10" height="8" fill="black">
<rect fill="white" x="13.0322" y="29.8125" width="10" height="8"/>
<path d="M20.0626 31.5958C19.9476 31.5969 19.8329 31.6065 19.7195 31.6247C19.6061 31.6429 19.4944 31.6707 19.3854 31.706C19.1675 31.7774 18.9599 31.8815 18.7757 32.0178C18.5905 32.1531 18.4268 32.3154 18.266 32.4792C18.1056 32.6436 17.9454 32.802 17.7708 32.9534C18.1233 33.1667 18.5214 33.2896 18.9306 33.3341C19.3394 33.3797 19.7576 33.3356 20.1484 33.209C20.5393 33.0825 20.9028 32.872 21.2059 32.5952C21.509 32.3187 21.7588 32.0077 21.9134 31.628C21.6337 31.3665 21.3007 31.1626 20.9403 31.034C20.58 30.905 20.1925 30.8548 19.8114 30.881C19.6207 30.8943 19.4319 30.9303 19.2486 30.984C19.0655 31.0389 18.8882 31.1128 18.721 31.2053C18.638 31.2522 18.5569 31.3025 18.4794 31.3587C18.402 31.4148 18.3266 31.4737 18.2541 31.5367C18.1087 31.6618 17.9719 31.7975 17.8365 31.9352C17.701 32.0727 17.5664 32.2122 17.4249 32.3457C17.3541 32.4124 17.2818 32.4777 17.2065 32.5397C17.1313 32.602 17.0538 32.6616 16.9723 32.7159C16.952 32.7297 16.9318 32.7436 16.9108 32.7561C16.8899 32.769 16.8694 32.7823 16.8482 32.7946L16.784 32.8307C16.7628 32.8431 16.7404 32.8531 16.7186 32.8644L16.6857 32.8811C16.6747 32.8864 16.6632 32.8911 16.6521 32.8961C16.6295 32.9059 16.6074 32.9164 16.5846 32.9256C16.5387 32.9432 16.493 32.9616 16.4459 32.9756C16.3995 32.9917 16.3513 33.0026 16.304 33.0154L16.2316 33.0302L16.1954 33.0374L16.1589 33.0429C16.0616 33.0575 15.9632 33.0642 15.8649 33.0633C15.6683 33.0614 15.4724 33.0291 15.2854 32.969C15.1919 32.9388 15.1007 32.9016 15.0129 32.8578C14.9252 32.8136 14.8406 32.7632 14.7601 32.7071C14.4392 32.4811 14.1847 32.1615 14.0404 31.796L14.0322 31.7751L14.0503 31.7621C14.3199 31.5669 14.6442 31.4544 14.9735 31.4252C15.3032 31.396 15.6394 31.4513 15.9433 31.5806C16.0952 31.6456 16.2389 31.7289 16.3725 31.8256C16.5059 31.9228 16.6278 32.0349 16.7391 32.156C16.9608 32.3998 17.1371 32.682 17.2714 32.9814C17.339 33.131 17.3957 33.2854 17.4424 33.4427C17.4664 33.5212 17.4864 33.6008 17.5053 33.6805C17.5229 33.7605 17.5394 33.8411 17.5518 33.9221C17.5764 34.084 17.5955 34.2465 17.6098 34.4094C17.618 34.4907 17.6233 34.5724 17.6299 34.6538C17.6351 34.7355 17.6414 34.8169 17.6454 34.8985C17.6638 35.2249 17.6741 35.5515 17.6774 35.8783C17.6812 36.205 17.6776 36.5318 17.665 36.8583C17.6693 36.695 17.671 36.5316 17.671 36.3684C17.6704 36.2051 17.669 36.0417 17.6654 35.8785C17.6588 35.552 17.6453 35.2257 17.6238 34.8998C17.6189 34.8183 17.6119 34.737 17.6059 34.6556C17.5984 34.5743 17.5924 34.4929 17.5835 34.4118C17.5676 34.2495 17.5469 34.0875 17.5209 33.9269C17.4939 33.7665 17.4562 33.608 17.4089 33.4524C17.3616 33.2969 17.3047 33.1443 17.2369 32.9966C17.1025 32.7012 16.9265 32.4235 16.707 32.1851C16.5967 32.0666 16.4765 31.9572 16.3452 31.8628C16.2138 31.7688 16.0729 31.6883 15.9242 31.6257C15.6266 31.5012 15.2992 31.4495 14.9784 31.4798C14.6583 31.5103 14.354 31.5975 14.094 31.7866C14.2348 32.1409 14.4828 32.4392 14.7945 32.6579C14.8728 32.7122 14.9548 32.7608 15.0399 32.8035C15.125 32.8457 15.2135 32.8817 15.3042 32.9107C15.4855 32.9687 15.6754 32.9996 15.8655 33.001C15.9606 33.0018 16.0556 32.995 16.1494 32.9807L16.1846 32.9754L16.2196 32.9683L16.2894 32.9539C16.3352 32.9413 16.3816 32.931 16.4265 32.9151C16.472 32.9015 16.5161 32.8836 16.5605 32.8666C16.5824 32.8577 16.6039 32.8475 16.6257 32.8379C16.6365 32.833 16.6475 32.8285 16.6582 32.8231L16.69 32.807C16.7111 32.796 16.7329 32.7861 16.7534 32.774L16.8155 32.7389C16.8361 32.7268 16.856 32.7137 16.8764 32.7012C16.8968 32.6889 16.9166 32.6754 16.9362 32.6619C17.0156 32.6089 17.0913 32.5503 17.1649 32.4891C17.2388 32.4282 17.31 32.3635 17.3798 32.2975C17.5198 32.1655 17.6531 32.0258 17.7893 31.8881C17.9253 31.7503 18.0637 31.6136 18.2118 31.4867C18.2855 31.423 18.3627 31.3629 18.4419 31.3056C18.5211 31.2483 18.6047 31.1967 18.6901 31.1488C18.8615 31.0545 19.0432 30.9791 19.2307 30.9232C19.4185 30.8686 19.6117 30.8323 19.8069 30.819C20.1969 30.7929 20.5924 30.8451 20.9604 30.9775C21.3283 31.1095 21.6679 31.3185 21.9528 31.5859L21.9674 31.5996L21.9599 31.6178C21.9194 31.7143 21.8745 31.809 21.8245 31.901C21.7733 31.9923 21.7183 32.0813 21.6579 32.1669C21.5967 32.2518 21.5319 32.334 21.4624 32.4121C21.3923 32.4896 21.319 32.5643 21.2414 32.6343C20.9309 32.9145 20.5601 33.1261 20.1624 33.2523C19.7647 33.3785 19.3405 33.4206 18.9263 33.3719C18.5122 33.3243 18.1093 33.1835 17.7556 32.9639L17.7385 32.9534L17.7537 32.9406C17.9281 32.7921 18.0877 32.6265 18.25 32.4634C18.4126 32.3009 18.5785 32.1394 18.7665 32.0049C18.9535 31.8696 19.1631 31.7663 19.3828 31.6975C19.4928 31.6635 19.6053 31.6371 19.719 31.6203C19.8326 31.6037 19.9478 31.5955 20.0626 31.5958Z"/>
</mask>
<path d="M20.0626 31.5958C19.9476 31.5969 19.8329 31.6065 19.7195 31.6247C19.6061 31.6429 19.4944 31.6707 19.3854 31.706C19.1675 31.7774 18.9599 31.8815 18.7757 32.0178C18.5905 32.1531 18.4268 32.3154 18.266 32.4792C18.1056 32.6436 17.9454 32.802 17.7708 32.9534C18.1233 33.1667 18.5214 33.2896 18.9306 33.3341C19.3394 33.3797 19.7576 33.3356 20.1484 33.209C20.5393 33.0825 20.9028 32.872 21.2059 32.5952C21.509 32.3187 21.7588 32.0077 21.9134 31.628C21.6337 31.3665 21.3007 31.1626 20.9403 31.034C20.58 30.905 20.1925 30.8548 19.8114 30.881C19.6207 30.8943 19.4319 30.9303 19.2486 30.984C19.0655 31.0389 18.8882 31.1128 18.721 31.2053C18.638 31.2522 18.5569 31.3025 18.4794 31.3587C18.402 31.4148 18.3266 31.4737 18.2541 31.5367C18.1087 31.6618 17.9719 31.7975 17.8365 31.9352C17.701 32.0727 17.5664 32.2122 17.4249 32.3457C17.3541 32.4124 17.2818 32.4777 17.2065 32.5397C17.1313 32.602 17.0538 32.6616 16.9723 32.7159C16.952 32.7297 16.9318 32.7436 16.9108 32.7561C16.8899 32.769 16.8694 32.7823 16.8482 32.7946L16.784 32.8307C16.7628 32.8431 16.7404 32.8531 16.7186 32.8644L16.6857 32.8811C16.6747 32.8864 16.6632 32.8911 16.6521 32.8961C16.6295 32.9059 16.6074 32.9164 16.5846 32.9256C16.5387 32.9432 16.493 32.9616 16.4459 32.9756C16.3995 32.9917 16.3513 33.0026 16.304 33.0154L16.2316 33.0302L16.1954 33.0374L16.1589 33.0429C16.0616 33.0575 15.9632 33.0642 15.8649 33.0633C15.6683 33.0614 15.4724 33.0291 15.2854 32.969C15.1919 32.9388 15.1007 32.9016 15.0129 32.8578C14.9252 32.8136 14.8406 32.7632 14.7601 32.7071C14.4392 32.4811 14.1847 32.1615 14.0404 31.796L14.0322 31.7751L14.0503 31.7621C14.3199 31.5669 14.6442 31.4544 14.9735 31.4252C15.3032 31.396 15.6394 31.4513 15.9433 31.5806C16.0952 31.6456 16.2389 31.7289 16.3725 31.8256C16.5059 31.9228 16.6278 32.0349 16.7391 32.156C16.9608 32.3998 17.1371 32.682 17.2714 32.9814C17.339 33.131 17.3957 33.2854 17.4424 33.4427C17.4664 33.5212 17.4864 33.6008 17.5053 33.6805C17.5229 33.7605 17.5394 33.8411 17.5518 33.9221C17.5764 34.084 17.5955 34.2465 17.6098 34.4094C17.618 34.4907 17.6233 34.5724 17.6299 34.6538C17.6351 34.7355 17.6414 34.8169 17.6454 34.8985C17.6638 35.2249 17.6741 35.5515 17.6774 35.8783C17.6812 36.205 17.6776 36.5318 17.665 36.8583C17.6693 36.695 17.671 36.5316 17.671 36.3684C17.6704 36.2051 17.669 36.0417 17.6654 35.8785C17.6588 35.552 17.6453 35.2257 17.6238 34.8998C17.6189 34.8183 17.6119 34.737 17.6059 34.6556C17.5984 34.5743 17.5924 34.4929 17.5835 34.4118C17.5676 34.2495 17.5469 34.0875 17.5209 33.9269C17.4939 33.7665 17.4562 33.608 17.4089 33.4524C17.3616 33.2969 17.3047 33.1443 17.2369 32.9966C17.1025 32.7012 16.9265 32.4235 16.707 32.1851C16.5967 32.0666 16.4765 31.9572 16.3452 31.8628C16.2138 31.7688 16.0729 31.6883 15.9242 31.6257C15.6266 31.5012 15.2992 31.4495 14.9784 31.4798C14.6583 31.5103 14.354 31.5975 14.094 31.7866C14.2348 32.1409 14.4828 32.4392 14.7945 32.6579C14.8728 32.7122 14.9548 32.7608 15.0399 32.8035C15.125 32.8457 15.2135 32.8817 15.3042 32.9107C15.4855 32.9687 15.6754 32.9996 15.8655 33.001C15.9606 33.0018 16.0556 32.995 16.1494 32.9807L16.1846 32.9754L16.2196 32.9683L16.2894 32.9539C16.3352 32.9413 16.3816 32.931 16.4265 32.9151C16.472 32.9015 16.5161 32.8836 16.5605 32.8666C16.5824 32.8577 16.6039 32.8475 16.6257 32.8379C16.6365 32.833 16.6475 32.8285 16.6582 32.8231L16.69 32.807C16.7111 32.796 16.7329 32.7861 16.7534 32.774L16.8155 32.7389C16.8361 32.7268 16.856 32.7137 16.8764 32.7012C16.8968 32.6889 16.9166 32.6754 16.9362 32.6619C17.0156 32.6089 17.0913 32.5503 17.1649 32.4891C17.2388 32.4282 17.31 32.3635 17.3798 32.2975C17.5198 32.1655 17.6531 32.0258 17.7893 31.8881C17.9253 31.7503 18.0637 31.6136 18.2118 31.4867C18.2855 31.423 18.3627 31.3629 18.4419 31.3056C18.5211 31.2483 18.6047 31.1967 18.6901 31.1488C18.8615 31.0545 19.0432 30.9791 19.2307 30.9232C19.4185 30.8686 19.6117 30.8323 19.8069 30.819C20.1969 30.7929 20.5924 30.8451 20.9604 30.9775C21.3283 31.1095 21.6679 31.3185 21.9528 31.5859L21.9674 31.5996L21.9599 31.6178C21.9194 31.7143 21.8745 31.809 21.8245 31.901C21.7733 31.9923 21.7183 32.0813 21.6579 32.1669C21.5967 32.2518 21.5319 32.334 21.4624 32.4121C21.3923 32.4896 21.319 32.5643 21.2414 32.6343C20.9309 32.9145 20.5601 33.1261 20.1624 33.2523C19.7647 33.3785 19.3405 33.4206 18.9263 33.3719C18.5122 33.3243 18.1093 33.1835 17.7556 32.9639L17.7385 32.9534L17.7537 32.9406C17.9281 32.7921 18.0877 32.6265 18.25 32.4634C18.4126 32.3009 18.5785 32.1394 18.7665 32.0049C18.9535 31.8696 19.1631 31.7663 19.3828 31.6975C19.4928 31.6635 19.6053 31.6371 19.719 31.6203C19.8326 31.6037 19.9478 31.5955 20.0626 31.5958Z" fill="white"/>
<path d="M20.0626 31.5958C19.9476 31.5969 19.8329 31.6065 19.7195 31.6247C19.6061 31.6429 19.4944 31.6707 19.3854 31.706C19.1675 31.7774 18.9599 31.8815 18.7757 32.0178C18.5905 32.1531 18.4268 32.3154 18.266 32.4792C18.1056 32.6436 17.9454 32.802 17.7708 32.9534C18.1233 33.1667 18.5214 33.2896 18.9306 33.3341C19.3394 33.3797 19.7576 33.3356 20.1484 33.209C20.5393 33.0825 20.9028 32.872 21.2059 32.5952C21.509 32.3187 21.7588 32.0077 21.9134 31.628C21.6337 31.3665 21.3007 31.1626 20.9403 31.034C20.58 30.905 20.1925 30.8548 19.8114 30.881C19.6207 30.8943 19.4319 30.9303 19.2486 30.984C19.0655 31.0389 18.8882 31.1128 18.721 31.2053C18.638 31.2522 18.5569 31.3025 18.4794 31.3587C18.402 31.4148 18.3266 31.4737 18.2541 31.5367C18.1087 31.6618 17.9719 31.7975 17.8365 31.9352C17.701 32.0727 17.5664 32.2122 17.4249 32.3457C17.3541 32.4124 17.2818 32.4777 17.2065 32.5397C17.1313 32.602 17.0538 32.6616 16.9723 32.7159C16.952 32.7297 16.9318 32.7436 16.9108 32.7561C16.8899 32.769 16.8694 32.7823 16.8482 32.7946L16.784 32.8307C16.7628 32.8431 16.7404 32.8531 16.7186 32.8644L16.6857 32.8811C16.6747 32.8864 16.6632 32.8911 16.6521 32.8961C16.6295 32.9059 16.6074 32.9164 16.5846 32.9256C16.5387 32.9432 16.493 32.9616 16.4459 32.9756C16.3995 32.9917 16.3513 33.0026 16.304 33.0154L16.2316 33.0302L16.1954 33.0374L16.1589 33.0429C16.0616 33.0575 15.9632 33.0642 15.8649 33.0633C15.6683 33.0614 15.4724 33.0291 15.2854 32.969C15.1919 32.9388 15.1007 32.9016 15.0129 32.8578C14.9252 32.8136 14.8406 32.7632 14.7601 32.7071C14.4392 32.4811 14.1847 32.1615 14.0404 31.796L14.0322 31.7751L14.0503 31.7621C14.3199 31.5669 14.6442 31.4544 14.9735 31.4252C15.3032 31.396 15.6394 31.4513 15.9433 31.5806C16.0952 31.6456 16.2389 31.7289 16.3725 31.8256C16.5059 31.9228 16.6278 32.0349 16.7391 32.156C16.9608 32.3998 17.1371 32.682 17.2714 32.9814C17.339 33.131 17.3957 33.2854 17.4424 33.4427C17.4664 33.5212 17.4864 33.6008 17.5053 33.6805C17.5229 33.7605 17.5394 33.8411 17.5518 33.9221C17.5764 34.084 17.5955 34.2465 17.6098 34.4094C17.618 34.4907 17.6233 34.5724 17.6299 34.6538C17.6351 34.7355 17.6414 34.8169 17.6454 34.8985C17.6638 35.2249 17.6741 35.5515 17.6774 35.8783C17.6812 36.205 17.6776 36.5318 17.665 36.8583C17.6693 36.695 17.671 36.5316 17.671 36.3684C17.6704 36.2051 17.669 36.0417 17.6654 35.8785C17.6588 35.552 17.6453 35.2257 17.6238 34.8998C17.6189 34.8183 17.6119 34.737 17.6059 34.6556C17.5984 34.5743 17.5924 34.4929 17.5835 34.4118C17.5676 34.2495 17.5469 34.0875 17.5209 33.9269C17.4939 33.7665 17.4562 33.608 17.4089 33.4524C17.3616 33.2969 17.3047 33.1443 17.2369 32.9966C17.1025 32.7012 16.9265 32.4235 16.707 32.1851C16.5967 32.0666 16.4765 31.9572 16.3452 31.8628C16.2138 31.7688 16.0729 31.6883 15.9242 31.6257C15.6266 31.5012 15.2992 31.4495 14.9784 31.4798C14.6583 31.5103 14.354 31.5975 14.094 31.7866C14.2348 32.1409 14.4828 32.4392 14.7945 32.6579C14.8728 32.7122 14.9548 32.7608 15.0399 32.8035C15.125 32.8457 15.2135 32.8817 15.3042 32.9107C15.4855 32.9687 15.6754 32.9996 15.8655 33.001C15.9606 33.0018 16.0556 32.995 16.1494 32.9807L16.1846 32.9754L16.2196 32.9683L16.2894 32.9539C16.3352 32.9413 16.3816 32.931 16.4265 32.9151C16.472 32.9015 16.5161 32.8836 16.5605 32.8666C16.5824 32.8577 16.6039 32.8475 16.6257 32.8379C16.6365 32.833 16.6475 32.8285 16.6582 32.8231L16.69 32.807C16.7111 32.796 16.7329 32.7861 16.7534 32.774L16.8155 32.7389C16.8361 32.7268 16.856 32.7137 16.8764 32.7012C16.8968 32.6889 16.9166 32.6754 16.9362 32.6619C17.0156 32.6089 17.0913 32.5503 17.1649 32.4891C17.2388 32.4282 17.31 32.3635 17.3798 32.2975C17.5198 32.1655 17.6531 32.0258 17.7893 31.8881C17.9253 31.7503 18.0637 31.6136 18.2118 31.4867C18.2855 31.423 18.3627 31.3629 18.4419 31.3056C18.5211 31.2483 18.6047 31.1967 18.6901 31.1488C18.8615 31.0545 19.0432 30.9791 19.2307 30.9232C19.4185 30.8686 19.6117 30.8323 19.8069 30.819C20.1969 30.7929 20.5924 30.8451 20.9604 30.9775C21.3283 31.1095 21.6679 31.3185 21.9528 31.5859L21.9674 31.5996L21.9599 31.6178C21.9194 31.7143 21.8745 31.809 21.8245 31.901C21.7733 31.9923 21.7183 32.0813 21.6579 32.1669C21.5967 32.2518 21.5319 32.334 21.4624 32.4121C21.3923 32.4896 21.319 32.5643 21.2414 32.6343C20.9309 32.9145 20.5601 33.1261 20.1624 33.2523C19.7647 33.3785 19.3405 33.4206 18.9263 33.3719C18.5122 33.3243 18.1093 33.1835 17.7556 32.9639L17.7385 32.9534L17.7537 32.9406C17.9281 32.7921 18.0877 32.6265 18.25 32.4634C18.4126 32.3009 18.5785 32.1394 18.7665 32.0049C18.9535 31.8696 19.1631 31.7663 19.3828 31.6975C19.4928 31.6635 19.6053 31.6371 19.719 31.6203C19.8326 31.6037 19.9478 31.5955 20.0626 31.5958Z" stroke="white" stroke-width="0.170455" mask="url(#path-9-outside-1_300_168)"/>
</g>
<g filter="url(#filter1_d_300_168)">
<circle cx="43" cy="33" r="5" fill="url(#paint1_linear_300_168)"/>
<mask id="path-11-outside-2_300_168" maskUnits="userSpaceOnUse" x="38.0322" y="29.8125" width="10" height="8" fill="black">
<rect fill="white" x="38.0322" y="29.8125" width="10" height="8"/>
<path d="M45.0626 31.5958C44.9476 31.5969 44.8329 31.6065 44.7195 31.6247C44.6061 31.6429 44.4944 31.6707 44.3854 31.706C44.1675 31.7774 43.9599 31.8815 43.7757 32.0178C43.5905 32.1531 43.4268 32.3154 43.266 32.4792C43.1056 32.6436 42.9454 32.802 42.7708 32.9534C43.1233 33.1667 43.5214 33.2896 43.9306 33.3341C44.3394 33.3797 44.7576 33.3356 45.1484 33.209C45.5393 33.0825 45.9028 32.872 46.2059 32.5952C46.509 32.3187 46.7588 32.0077 46.9134 31.628C46.6337 31.3665 46.3007 31.1626 45.9403 31.034C45.58 30.905 45.1925 30.8548 44.8114 30.881C44.6207 30.8943 44.4319 30.9303 44.2486 30.984C44.0655 31.0389 43.8882 31.1128 43.721 31.2053C43.638 31.2522 43.5569 31.3025 43.4794 31.3587C43.402 31.4148 43.3266 31.4737 43.2541 31.5367C43.1087 31.6618 42.9719 31.7975 42.8365 31.9352C42.701 32.0727 42.5664 32.2122 42.4249 32.3457C42.3541 32.4124 42.2818 32.4777 42.2065 32.5397C42.1313 32.602 42.0538 32.6616 41.9723 32.7159C41.952 32.7297 41.9318 32.7436 41.9108 32.7561C41.8899 32.769 41.8694 32.7823 41.8482 32.7946L41.784 32.8307C41.7628 32.8431 41.7404 32.8531 41.7186 32.8644L41.6857 32.8811C41.6747 32.8864 41.6632 32.8911 41.6521 32.8961C41.6295 32.9059 41.6074 32.9164 41.5846 32.9256C41.5387 32.9432 41.493 32.9616 41.4459 32.9756C41.3995 32.9917 41.3513 33.0026 41.304 33.0154L41.2316 33.0302L41.1954 33.0374L41.1589 33.0429C41.0616 33.0575 40.9632 33.0642 40.8649 33.0633C40.6683 33.0614 40.4724 33.0291 40.2854 32.969C40.1919 32.9388 40.1007 32.9016 40.0129 32.8578C39.9252 32.8136 39.8406 32.7632 39.7601 32.7071C39.4392 32.4811 39.1847 32.1615 39.0404 31.796L39.0322 31.7751L39.0503 31.7621C39.3199 31.5669 39.6442 31.4544 39.9735 31.4252C40.3032 31.396 40.6394 31.4513 40.9433 31.5806C41.0952 31.6456 41.2389 31.7289 41.3725 31.8256C41.5059 31.9228 41.6278 32.0349 41.7391 32.156C41.9608 32.3998 42.1371 32.682 42.2714 32.9814C42.339 33.131 42.3957 33.2854 42.4424 33.4427C42.4664 33.5212 42.4864 33.6008 42.5053 33.6805C42.5229 33.7605 42.5394 33.8411 42.5518 33.9221C42.5764 34.084 42.5955 34.2465 42.6098 34.4094C42.618 34.4907 42.6233 34.5724 42.6299 34.6538C42.6351 34.7355 42.6414 34.8169 42.6454 34.8985C42.6638 35.2249 42.6741 35.5515 42.6774 35.8783C42.6812 36.205 42.6776 36.5318 42.665 36.8583C42.6693 36.695 42.671 36.5316 42.671 36.3684C42.6704 36.2051 42.669 36.0417 42.6654 35.8785C42.6588 35.552 42.6453 35.2257 42.6238 34.8998C42.6189 34.8183 42.6119 34.737 42.6059 34.6556C42.5984 34.5743 42.5924 34.4929 42.5835 34.4118C42.5676 34.2495 42.5469 34.0875 42.5209 33.9269C42.4939 33.7665 42.4562 33.608 42.4089 33.4524C42.3616 33.2969 42.3047 33.1443 42.2369 32.9966C42.1025 32.7012 41.9265 32.4235 41.707 32.1851C41.5967 32.0666 41.4765 31.9572 41.3452 31.8628C41.2138 31.7688 41.0729 31.6883 40.9242 31.6257C40.6266 31.5012 40.2992 31.4495 39.9784 31.4798C39.6583 31.5103 39.354 31.5975 39.094 31.7866C39.2348 32.1409 39.4828 32.4392 39.7945 32.6579C39.8728 32.7122 39.9548 32.7608 40.0399 32.8035C40.125 32.8457 40.2135 32.8817 40.3042 32.9107C40.4855 32.9687 40.6754 32.9996 40.8655 33.001C40.9606 33.0018 41.0556 32.995 41.1494 32.9807L41.1846 32.9754L41.2196 32.9683L41.2894 32.9539C41.3352 32.9413 41.3816 32.931 41.4265 32.9151C41.472 32.9015 41.5161 32.8836 41.5605 32.8666C41.5824 32.8577 41.6039 32.8475 41.6257 32.8379C41.6365 32.833 41.6475 32.8285 41.6582 32.8231L41.69 32.807C41.7111 32.796 41.7329 32.7861 41.7534 32.774L41.8155 32.7389C41.8361 32.7268 41.856 32.7137 41.8764 32.7012C41.8968 32.6889 41.9166 32.6754 41.9362 32.6619C42.0156 32.6089 42.0913 32.5503 42.1649 32.4891C42.2388 32.4282 42.31 32.3635 42.3798 32.2975C42.5198 32.1655 42.6531 32.0258 42.7893 31.8881C42.9253 31.7503 43.0637 31.6136 43.2118 31.4867C43.2855 31.423 43.3627 31.3629 43.4419 31.3056C43.5211 31.2483 43.6047 31.1967 43.6901 31.1488C43.8615 31.0545 44.0432 30.9791 44.2307 30.9232C44.4185 30.8686 44.6117 30.8323 44.8069 30.819C45.1969 30.7929 45.5924 30.8451 45.9604 30.9775C46.3283 31.1095 46.6679 31.3185 46.9528 31.5859L46.9674 31.5996L46.9599 31.6178C46.9194 31.7143 46.8745 31.809 46.8245 31.901C46.7733 31.9923 46.7183 32.0813 46.6579 32.1669C46.5967 32.2518 46.5319 32.334 46.4624 32.4121C46.3923 32.4896 46.319 32.5643 46.2414 32.6343C45.9309 32.9145 45.5601 33.1261 45.1624 33.2523C44.7647 33.3785 44.3405 33.4206 43.9263 33.3719C43.5122 33.3243 43.1093 33.1835 42.7556 32.9639L42.7385 32.9534L42.7537 32.9406C42.9281 32.7921 43.0877 32.6265 43.25 32.4634C43.4126 32.3009 43.5785 32.1394 43.7665 32.0049C43.9535 31.8696 44.1631 31.7663 44.3828 31.6975C44.4928 31.6635 44.6053 31.6371 44.719 31.6203C44.8326 31.6037 44.9478 31.5955 45.0626 31.5958Z"/>
</mask>
<path d="M45.0626 31.5958C44.9476 31.5969 44.8329 31.6065 44.7195 31.6247C44.6061 31.6429 44.4944 31.6707 44.3854 31.706C44.1675 31.7774 43.9599 31.8815 43.7757 32.0178C43.5905 32.1531 43.4268 32.3154 43.266 32.4792C43.1056 32.6436 42.9454 32.802 42.7708 32.9534C43.1233 33.1667 43.5214 33.2896 43.9306 33.3341C44.3394 33.3797 44.7576 33.3356 45.1484 33.209C45.5393 33.0825 45.9028 32.872 46.2059 32.5952C46.509 32.3187 46.7588 32.0077 46.9134 31.628C46.6337 31.3665 46.3007 31.1626 45.9403 31.034C45.58 30.905 45.1925 30.8548 44.8114 30.881C44.6207 30.8943 44.4319 30.9303 44.2486 30.984C44.0655 31.0389 43.8882 31.1128 43.721 31.2053C43.638 31.2522 43.5569 31.3025 43.4794 31.3587C43.402 31.4148 43.3266 31.4737 43.2541 31.5367C43.1087 31.6618 42.9719 31.7975 42.8365 31.9352C42.701 32.0727 42.5664 32.2122 42.4249 32.3457C42.3541 32.4124 42.2818 32.4777 42.2065 32.5397C42.1313 32.602 42.0538 32.6616 41.9723 32.7159C41.952 32.7297 41.9318 32.7436 41.9108 32.7561C41.8899 32.769 41.8694 32.7823 41.8482 32.7946L41.784 32.8307C41.7628 32.8431 41.7404 32.8531 41.7186 32.8644L41.6857 32.8811C41.6747 32.8864 41.6632 32.8911 41.6521 32.8961C41.6295 32.9059 41.6074 32.9164 41.5846 32.9256C41.5387 32.9432 41.493 32.9616 41.4459 32.9756C41.3995 32.9917 41.3513 33.0026 41.304 33.0154L41.2316 33.0302L41.1954 33.0374L41.1589 33.0429C41.0616 33.0575 40.9632 33.0642 40.8649 33.0633C40.6683 33.0614 40.4724 33.0291 40.2854 32.969C40.1919 32.9388 40.1007 32.9016 40.0129 32.8578C39.9252 32.8136 39.8406 32.7632 39.7601 32.7071C39.4392 32.4811 39.1847 32.1615 39.0404 31.796L39.0322 31.7751L39.0503 31.7621C39.3199 31.5669 39.6442 31.4544 39.9735 31.4252C40.3032 31.396 40.6394 31.4513 40.9433 31.5806C41.0952 31.6456 41.2389 31.7289 41.3725 31.8256C41.5059 31.9228 41.6278 32.0349 41.7391 32.156C41.9608 32.3998 42.1371 32.682 42.2714 32.9814C42.339 33.131 42.3957 33.2854 42.4424 33.4427C42.4664 33.5212 42.4864 33.6008 42.5053 33.6805C42.5229 33.7605 42.5394 33.8411 42.5518 33.9221C42.5764 34.084 42.5955 34.2465 42.6098 34.4094C42.618 34.4907 42.6233 34.5724 42.6299 34.6538C42.6351 34.7355 42.6414 34.8169 42.6454 34.8985C42.6638 35.2249 42.6741 35.5515 42.6774 35.8783C42.6812 36.205 42.6776 36.5318 42.665 36.8583C42.6693 36.695 42.671 36.5316 42.671 36.3684C42.6704 36.2051 42.669 36.0417 42.6654 35.8785C42.6588 35.552 42.6453 35.2257 42.6238 34.8998C42.6189 34.8183 42.6119 34.737 42.6059 34.6556C42.5984 34.5743 42.5924 34.4929 42.5835 34.4118C42.5676 34.2495 42.5469 34.0875 42.5209 33.9269C42.4939 33.7665 42.4562 33.608 42.4089 33.4524C42.3616 33.2969 42.3047 33.1443 42.2369 32.9966C42.1025 32.7012 41.9265 32.4235 41.707 32.1851C41.5967 32.0666 41.4765 31.9572 41.3452 31.8628C41.2138 31.7688 41.0729 31.6883 40.9242 31.6257C40.6266 31.5012 40.2992 31.4495 39.9784 31.4798C39.6583 31.5103 39.354 31.5975 39.094 31.7866C39.2348 32.1409 39.4828 32.4392 39.7945 32.6579C39.8728 32.7122 39.9548 32.7608 40.0399 32.8035C40.125 32.8457 40.2135 32.8817 40.3042 32.9107C40.4855 32.9687 40.6754 32.9996 40.8655 33.001C40.9606 33.0018 41.0556 32.995 41.1494 32.9807L41.1846 32.9754L41.2196 32.9683L41.2894 32.9539C41.3352 32.9413 41.3816 32.931 41.4265 32.9151C41.472 32.9015 41.5161 32.8836 41.5605 32.8666C41.5824 32.8577 41.6039 32.8475 41.6257 32.8379C41.6365 32.833 41.6475 32.8285 41.6582 32.8231L41.69 32.807C41.7111 32.796 41.7329 32.7861 41.7534 32.774L41.8155 32.7389C41.8361 32.7268 41.856 32.7137 41.8764 32.7012C41.8968 32.6889 41.9166 32.6754 41.9362 32.6619C42.0156 32.6089 42.0913 32.5503 42.1649 32.4891C42.2388 32.4282 42.31 32.3635 42.3798 32.2975C42.5198 32.1655 42.6531 32.0258 42.7893 31.8881C42.9253 31.7503 43.0637 31.6136 43.2118 31.4867C43.2855 31.423 43.3627 31.3629 43.4419 31.3056C43.5211 31.2483 43.6047 31.1967 43.6901 31.1488C43.8615 31.0545 44.0432 30.9791 44.2307 30.9232C44.4185 30.8686 44.6117 30.8323 44.8069 30.819C45.1969 30.7929 45.5924 30.8451 45.9604 30.9775C46.3283 31.1095 46.6679 31.3185 46.9528 31.5859L46.9674 31.5996L46.9599 31.6178C46.9194 31.7143 46.8745 31.809 46.8245 31.901C46.7733 31.9923 46.7183 32.0813 46.6579 32.1669C46.5967 32.2518 46.5319 32.334 46.4624 32.4121C46.3923 32.4896 46.319 32.5643 46.2414 32.6343C45.9309 32.9145 45.5601 33.1261 45.1624 33.2523C44.7647 33.3785 44.3405 33.4206 43.9263 33.3719C43.5122 33.3243 43.1093 33.1835 42.7556 32.9639L42.7385 32.9534L42.7537 32.9406C42.9281 32.7921 43.0877 32.6265 43.25 32.4634C43.4126 32.3009 43.5785 32.1394 43.7665 32.0049C43.9535 31.8696 44.1631 31.7663 44.3828 31.6975C44.4928 31.6635 44.6053 31.6371 44.719 31.6203C44.8326 31.6037 44.9478 31.5955 45.0626 31.5958Z" fill="white"/>
<path d="M45.0626 31.5958C44.9476 31.5969 44.8329 31.6065 44.7195 31.6247C44.6061 31.6429 44.4944 31.6707 44.3854 31.706C44.1675 31.7774 43.9599 31.8815 43.7757 32.0178C43.5905 32.1531 43.4268 32.3154 43.266 32.4792C43.1056 32.6436 42.9454 32.802 42.7708 32.9534C43.1233 33.1667 43.5214 33.2896 43.9306 33.3341C44.3394 33.3797 44.7576 33.3356 45.1484 33.209C45.5393 33.0825 45.9028 32.872 46.2059 32.5952C46.509 32.3187 46.7588 32.0077 46.9134 31.628C46.6337 31.3665 46.3007 31.1626 45.9403 31.034C45.58 30.905 45.1925 30.8548 44.8114 30.881C44.6207 30.8943 44.4319 30.9303 44.2486 30.984C44.0655 31.0389 43.8882 31.1128 43.721 31.2053C43.638 31.2522 43.5569 31.3025 43.4794 31.3587C43.402 31.4148 43.3266 31.4737 43.2541 31.5367C43.1087 31.6618 42.9719 31.7975 42.8365 31.9352C42.701 32.0727 42.5664 32.2122 42.4249 32.3457C42.3541 32.4124 42.2818 32.4777 42.2065 32.5397C42.1313 32.602 42.0538 32.6616 41.9723 32.7159C41.952 32.7297 41.9318 32.7436 41.9108 32.7561C41.8899 32.769 41.8694 32.7823 41.8482 32.7946L41.784 32.8307C41.7628 32.8431 41.7404 32.8531 41.7186 32.8644L41.6857 32.8811C41.6747 32.8864 41.6632 32.8911 41.6521 32.8961C41.6295 32.9059 41.6074 32.9164 41.5846 32.9256C41.5387 32.9432 41.493 32.9616 41.4459 32.9756C41.3995 32.9917 41.3513 33.0026 41.304 33.0154L41.2316 33.0302L41.1954 33.0374L41.1589 33.0429C41.0616 33.0575 40.9632 33.0642 40.8649 33.0633C40.6683 33.0614 40.4724 33.0291 40.2854 32.969C40.1919 32.9388 40.1007 32.9016 40.0129 32.8578C39.9252 32.8136 39.8406 32.7632 39.7601 32.7071C39.4392 32.4811 39.1847 32.1615 39.0404 31.796L39.0322 31.7751L39.0503 31.7621C39.3199 31.5669 39.6442 31.4544 39.9735 31.4252C40.3032 31.396 40.6394 31.4513 40.9433 31.5806C41.0952 31.6456 41.2389 31.7289 41.3725 31.8256C41.5059 31.9228 41.6278 32.0349 41.7391 32.156C41.9608 32.3998 42.1371 32.682 42.2714 32.9814C42.339 33.131 42.3957 33.2854 42.4424 33.4427C42.4664 33.5212 42.4864 33.6008 42.5053 33.6805C42.5229 33.7605 42.5394 33.8411 42.5518 33.9221C42.5764 34.084 42.5955 34.2465 42.6098 34.4094C42.618 34.4907 42.6233 34.5724 42.6299 34.6538C42.6351 34.7355 42.6414 34.8169 42.6454 34.8985C42.6638 35.2249 42.6741 35.5515 42.6774 35.8783C42.6812 36.205 42.6776 36.5318 42.665 36.8583C42.6693 36.695 42.671 36.5316 42.671 36.3684C42.6704 36.2051 42.669 36.0417 42.6654 35.8785C42.6588 35.552 42.6453 35.2257 42.6238 34.8998C42.6189 34.8183 42.6119 34.737 42.6059 34.6556C42.5984 34.5743 42.5924 34.4929 42.5835 34.4118C42.5676 34.2495 42.5469 34.0875 42.5209 33.9269C42.4939 33.7665 42.4562 33.608 42.4089 33.4524C42.3616 33.2969 42.3047 33.1443 42.2369 32.9966C42.1025 32.7012 41.9265 32.4235 41.707 32.1851C41.5967 32.0666 41.4765 31.9572 41.3452 31.8628C41.2138 31.7688 41.0729 31.6883 40.9242 31.6257C40.6266 31.5012 40.2992 31.4495 39.9784 31.4798C39.6583 31.5103 39.354 31.5975 39.094 31.7866C39.2348 32.1409 39.4828 32.4392 39.7945 32.6579C39.8728 32.7122 39.9548 32.7608 40.0399 32.8035C40.125 32.8457 40.2135 32.8817 40.3042 32.9107C40.4855 32.9687 40.6754 32.9996 40.8655 33.001C40.9606 33.0018 41.0556 32.995 41.1494 32.9807L41.1846 32.9754L41.2196 32.9683L41.2894 32.9539C41.3352 32.9413 41.3816 32.931 41.4265 32.9151C41.472 32.9015 41.5161 32.8836 41.5605 32.8666C41.5824 32.8577 41.6039 32.8475 41.6257 32.8379C41.6365 32.833 41.6475 32.8285 41.6582 32.8231L41.69 32.807C41.7111 32.796 41.7329 32.7861 41.7534 32.774L41.8155 32.7389C41.8361 32.7268 41.856 32.7137 41.8764 32.7012C41.8968 32.6889 41.9166 32.6754 41.9362 32.6619C42.0156 32.6089 42.0913 32.5503 42.1649 32.4891C42.2388 32.4282 42.31 32.3635 42.3798 32.2975C42.5198 32.1655 42.6531 32.0258 42.7893 31.8881C42.9253 31.7503 43.0637 31.6136 43.2118 31.4867C43.2855 31.423 43.3627 31.3629 43.4419 31.3056C43.5211 31.2483 43.6047 31.1967 43.6901 31.1488C43.8615 31.0545 44.0432 30.9791 44.2307 30.9232C44.4185 30.8686 44.6117 30.8323 44.8069 30.819C45.1969 30.7929 45.5924 30.8451 45.9604 30.9775C46.3283 31.1095 46.6679 31.3185 46.9528 31.5859L46.9674 31.5996L46.9599 31.6178C46.9194 31.7143 46.8745 31.809 46.8245 31.901C46.7733 31.9923 46.7183 32.0813 46.6579 32.1669C46.5967 32.2518 46.5319 32.334 46.4624 32.4121C46.3923 32.4896 46.319 32.5643 46.2414 32.6343C45.9309 32.9145 45.5601 33.1261 45.1624 33.2523C44.7647 33.3785 44.3405 33.4206 43.9263 33.3719C43.5122 33.3243 43.1093 33.1835 42.7556 32.9639L42.7385 32.9534L42.7537 32.9406C42.9281 32.7921 43.0877 32.6265 43.25 32.4634C43.4126 32.3009 43.5785 32.1394 43.7665 32.0049C43.9535 31.8696 44.1631 31.7663 44.3828 31.6975C44.4928 31.6635 44.6053 31.6371 44.719 31.6203C44.8326 31.6037 44.9478 31.5955 45.0626 31.5958Z" stroke="white" stroke-width="0.170455" mask="url(#path-11-outside-2_300_168)"/>
</g>
<g filter="url(#filter2_d_300_168)">
<circle cx="30" cy="21" r="6" fill="url(#paint2_linear_300_168)"/>
<mask id="path-13-outside-3_300_168" maskUnits="userSpaceOnUse" x="24.2393" y="17.375" width="11" height="9" fill="black">
<rect fill="white" x="24.2393" y="17.375" width="11" height="9"/>
<path d="M32.4757 19.315C32.3377 19.3163 32.2001 19.3278 32.064 19.3497C31.9279 19.3715 31.7938 19.4048 31.663 19.4472C31.4015 19.5329 31.1525 19.6578 30.9315 19.8213C30.7091 19.9837 30.5128 20.1784 30.3198 20.3751C30.1272 20.5723 29.935 20.7623 29.7255 20.9441C30.1485 21.2001 30.6263 21.3476 31.1173 21.4009C31.6079 21.4557 32.1097 21.4028 32.5787 21.2508C33.0478 21.0989 33.484 20.8464 33.8477 20.5143C34.2114 20.1824 34.5111 19.8092 34.6967 19.3536C34.3611 19.0398 33.9614 18.7951 33.529 18.6409C33.0966 18.486 32.6316 18.4258 32.1743 18.4572C31.9454 18.4732 31.7189 18.5164 31.4989 18.5808C31.2792 18.6467 31.0664 18.7354 30.8658 18.8464C30.7662 18.9027 30.6688 18.963 30.5759 19.0304C30.483 19.0978 30.3925 19.1685 30.3055 19.244C30.131 19.3941 29.9669 19.557 29.8044 19.7222C29.6417 19.8872 29.4802 20.0547 29.3104 20.2148C29.2255 20.2948 29.1387 20.3732 29.0484 20.4476C28.9582 20.5224 28.8652 20.594 28.7673 20.6591C28.743 20.6757 28.7187 20.6923 28.6935 20.7073C28.6685 20.7228 28.6438 20.7388 28.6184 20.7535L28.5414 20.7968C28.516 20.8117 28.4891 20.8237 28.4629 20.8373L28.4234 20.8573C28.4102 20.8637 28.3964 20.8693 28.3831 20.8754C28.356 20.887 28.3294 20.8997 28.3021 20.9108C28.247 20.9319 28.1922 20.9539 28.1357 20.9707C28.08 20.9901 28.0222 21.0031 27.9653 21.0185L27.8786 21.0362L27.8351 21.0449L27.7912 21.0515C27.6745 21.069 27.5565 21.0771 27.4384 21.076C27.2025 21.0737 26.9674 21.0349 26.743 20.9628C26.6308 20.9266 26.5214 20.882 26.416 20.8294C26.3108 20.7763 26.2093 20.7158 26.1128 20.6486C25.7276 20.3773 25.4222 19.9938 25.249 19.5552L25.2393 19.5301L25.2609 19.5145C25.5845 19.2803 25.9736 19.1453 26.3688 19.1102C26.7645 19.0752 27.1679 19.1415 27.5326 19.2967C27.7148 19.3747 27.8872 19.4747 28.0476 19.5908C28.2076 19.7073 28.3539 19.8418 28.4876 19.9872C28.7536 20.2798 28.9652 20.6184 29.1263 20.9776C29.2074 21.1571 29.2754 21.3425 29.3315 21.5312C29.3603 21.6254 29.3842 21.7209 29.407 21.8166C29.4281 21.9127 29.4478 22.0093 29.4627 22.1065C29.4923 22.3009 29.5152 22.4958 29.5324 22.6913C29.5422 22.7889 29.5486 22.8868 29.5565 22.9846C29.5627 23.0825 29.5702 23.1803 29.5751 23.2783C29.5971 23.6699 29.6096 24.0618 29.6135 24.454C29.618 24.846 29.6137 25.2381 29.5986 25.6299C29.6037 25.434 29.6058 25.2379 29.6058 25.042C29.605 24.8462 29.6033 24.6501 29.599 24.4542C29.5911 24.0624 29.5749 23.6708 29.5491 23.2798C29.5433 23.182 29.5348 23.0844 29.5277 22.9867C29.5186 22.8891 29.5115 22.7915 29.5007 22.6942C29.4817 22.4994 29.4569 22.305 29.4256 22.1123C29.3932 21.9198 29.3481 21.7296 29.2912 21.5429C29.2346 21.3562 29.1662 21.1732 29.0849 20.9959C28.9236 20.6414 28.7123 20.3082 28.449 20.0221C28.3166 19.8799 28.1724 19.7486 28.0149 19.6354C27.8571 19.5226 27.6881 19.4259 27.5096 19.3508C27.1525 19.2014 26.7596 19.1394 26.3746 19.1758C25.9906 19.2123 25.6254 19.317 25.3134 19.5439C25.4823 19.9691 25.7799 20.327 26.154 20.5894C26.2479 20.6546 26.3464 20.713 26.4484 20.7642C26.5506 20.8149 26.6568 20.858 26.7656 20.8929C26.9832 20.9624 27.211 20.9995 27.4392 21.0012C27.5533 21.0021 27.6673 20.994 27.7799 20.9769L27.8221 20.9705L27.8641 20.962L27.9478 20.9447C28.0028 20.9296 28.0585 20.9172 28.1124 20.8982C28.167 20.8818 28.2199 20.8603 28.2731 20.8399C28.2995 20.8292 28.3253 20.817 28.3515 20.8055C28.3644 20.7996 28.3776 20.7942 28.3904 20.7878L28.4286 20.7684C28.4539 20.7552 28.48 20.7433 28.5047 20.7288L28.5792 20.6866C28.6039 20.6721 28.6278 20.6565 28.6523 20.6414C28.6768 20.6267 28.7005 20.6105 28.724 20.5943C28.8193 20.5307 28.9102 20.4604 28.9985 20.3869C29.0871 20.3139 29.1726 20.2363 29.2564 20.157C29.4243 19.9985 29.5843 19.8309 29.7477 19.6657C29.9109 19.5003 30.077 19.3363 30.2547 19.1841C30.3432 19.1076 30.4358 19.0355 30.5309 18.9667C30.6259 18.898 30.7263 18.836 30.8287 18.7785C31.0344 18.6653 31.2524 18.5749 31.4774 18.5079C31.7027 18.4423 31.9347 18.3988 32.1688 18.3828C32.6368 18.3515 33.1114 18.4141 33.5531 18.573C33.9945 18.7315 34.4021 18.9822 34.744 19.3031L34.7615 19.3195L34.7524 19.3414C34.7039 19.4572 34.65 19.5708 34.59 19.6812C34.5286 19.7908 34.4625 19.8976 34.39 20.0002C34.3166 20.1021 34.2389 20.2008 34.1555 20.2945C34.0713 20.3875 33.9834 20.4772 33.8902 20.5612C33.5177 20.8974 33.0727 21.1513 32.5954 21.3027C32.1182 21.4542 31.6092 21.5047 31.1122 21.4463C30.6152 21.3892 30.1318 21.2202 29.7073 20.9567L29.6867 20.9441L29.705 20.9287C29.9143 20.7505 30.1058 20.5518 30.3006 20.3561C30.4957 20.1611 30.6948 19.9673 30.9204 19.8059C31.1448 19.6435 31.3963 19.5196 31.66 19.437C31.792 19.3962 31.9269 19.3645 32.0634 19.3444C32.1997 19.3244 32.3379 19.3146 32.4757 19.315Z"/>
</mask>
<path d="M32.4757 19.315C32.3377 19.3163 32.2001 19.3278 32.064 19.3497C31.9279 19.3715 31.7938 19.4048 31.663 19.4472C31.4015 19.5329 31.1525 19.6578 30.9315 19.8213C30.7091 19.9837 30.5128 20.1784 30.3198 20.3751C30.1272 20.5723 29.935 20.7623 29.7255 20.9441C30.1485 21.2001 30.6263 21.3476 31.1173 21.4009C31.6079 21.4557 32.1097 21.4028 32.5787 21.2508C33.0478 21.0989 33.484 20.8464 33.8477 20.5143C34.2114 20.1824 34.5111 19.8092 34.6967 19.3536C34.3611 19.0398 33.9614 18.7951 33.529 18.6409C33.0966 18.486 32.6316 18.4258 32.1743 18.4572C31.9454 18.4732 31.7189 18.5164 31.4989 18.5808C31.2792 18.6467 31.0664 18.7354 30.8658 18.8464C30.7662 18.9027 30.6688 18.963 30.5759 19.0304C30.483 19.0978 30.3925 19.1685 30.3055 19.244C30.131 19.3941 29.9669 19.557 29.8044 19.7222C29.6417 19.8872 29.4802 20.0547 29.3104 20.2148C29.2255 20.2948 29.1387 20.3732 29.0484 20.4476C28.9582 20.5224 28.8652 20.594 28.7673 20.6591C28.743 20.6757 28.7187 20.6923 28.6935 20.7073C28.6685 20.7228 28.6438 20.7388 28.6184 20.7535L28.5414 20.7968C28.516 20.8117 28.4891 20.8237 28.4629 20.8373L28.4234 20.8573C28.4102 20.8637 28.3964 20.8693 28.3831 20.8754C28.356 20.887 28.3294 20.8997 28.3021 20.9108C28.247 20.9319 28.1922 20.9539 28.1357 20.9707C28.08 20.9901 28.0222 21.0031 27.9653 21.0185L27.8786 21.0362L27.8351 21.0449L27.7912 21.0515C27.6745 21.069 27.5565 21.0771 27.4384 21.076C27.2025 21.0737 26.9674 21.0349 26.743 20.9628C26.6308 20.9266 26.5214 20.882 26.416 20.8294C26.3108 20.7763 26.2093 20.7158 26.1128 20.6486C25.7276 20.3773 25.4222 19.9938 25.249 19.5552L25.2393 19.5301L25.2609 19.5145C25.5845 19.2803 25.9736 19.1453 26.3688 19.1102C26.7645 19.0752 27.1679 19.1415 27.5326 19.2967C27.7148 19.3747 27.8872 19.4747 28.0476 19.5908C28.2076 19.7073 28.3539 19.8418 28.4876 19.9872C28.7536 20.2798 28.9652 20.6184 29.1263 20.9776C29.2074 21.1571 29.2754 21.3425 29.3315 21.5312C29.3603 21.6254 29.3842 21.7209 29.407 21.8166C29.4281 21.9127 29.4478 22.0093 29.4627 22.1065C29.4923 22.3009 29.5152 22.4958 29.5324 22.6913C29.5422 22.7889 29.5486 22.8868 29.5565 22.9846C29.5627 23.0825 29.5702 23.1803 29.5751 23.2783C29.5971 23.6699 29.6096 24.0618 29.6135 24.454C29.618 24.846 29.6137 25.2381 29.5986 25.6299C29.6037 25.434 29.6058 25.2379 29.6058 25.042C29.605 24.8462 29.6033 24.6501 29.599 24.4542C29.5911 24.0624 29.5749 23.6708 29.5491 23.2798C29.5433 23.182 29.5348 23.0844 29.5277 22.9867C29.5186 22.8891 29.5115 22.7915 29.5007 22.6942C29.4817 22.4994 29.4569 22.305 29.4256 22.1123C29.3932 21.9198 29.3481 21.7296 29.2912 21.5429C29.2346 21.3562 29.1662 21.1732 29.0849 20.9959C28.9236 20.6414 28.7123 20.3082 28.449 20.0221C28.3166 19.8799 28.1724 19.7486 28.0149 19.6354C27.8571 19.5226 27.6881 19.4259 27.5096 19.3508C27.1525 19.2014 26.7596 19.1394 26.3746 19.1758C25.9906 19.2123 25.6254 19.317 25.3134 19.5439C25.4823 19.9691 25.7799 20.327 26.154 20.5894C26.2479 20.6546 26.3464 20.713 26.4484 20.7642C26.5506 20.8149 26.6568 20.858 26.7656 20.8929C26.9832 20.9624 27.211 20.9995 27.4392 21.0012C27.5533 21.0021 27.6673 20.994 27.7799 20.9769L27.8221 20.9705L27.8641 20.962L27.9478 20.9447C28.0028 20.9296 28.0585 20.9172 28.1124 20.8982C28.167 20.8818 28.2199 20.8603 28.2731 20.8399C28.2995 20.8292 28.3253 20.817 28.3515 20.8055C28.3644 20.7996 28.3776 20.7942 28.3904 20.7878L28.4286 20.7684C28.4539 20.7552 28.48 20.7433 28.5047 20.7288L28.5792 20.6866C28.6039 20.6721 28.6278 20.6565 28.6523 20.6414C28.6768 20.6267 28.7005 20.6105 28.724 20.5943C28.8193 20.5307 28.9102 20.4604 28.9985 20.3869C29.0871 20.3139 29.1726 20.2363 29.2564 20.157C29.4243 19.9985 29.5843 19.8309 29.7477 19.6657C29.9109 19.5003 30.077 19.3363 30.2547 19.1841C30.3432 19.1076 30.4358 19.0355 30.5309 18.9667C30.6259 18.898 30.7263 18.836 30.8287 18.7785C31.0344 18.6653 31.2524 18.5749 31.4774 18.5079C31.7027 18.4423 31.9347 18.3988 32.1688 18.3828C32.6368 18.3515 33.1114 18.4141 33.5531 18.573C33.9945 18.7315 34.4021 18.9822 34.744 19.3031L34.7615 19.3195L34.7524 19.3414C34.7039 19.4572 34.65 19.5708 34.59 19.6812C34.5286 19.7908 34.4625 19.8976 34.39 20.0002C34.3166 20.1021 34.2389 20.2008 34.1555 20.2945C34.0713 20.3875 33.9834 20.4772 33.8902 20.5612C33.5177 20.8974 33.0727 21.1513 32.5954 21.3027C32.1182 21.4542 31.6092 21.5047 31.1122 21.4463C30.6152 21.3892 30.1318 21.2202 29.7073 20.9567L29.6867 20.9441L29.705 20.9287C29.9143 20.7505 30.1058 20.5518 30.3006 20.3561C30.4957 20.1611 30.6948 19.9673 30.9204 19.8059C31.1448 19.6435 31.3963 19.5196 31.66 19.437C31.792 19.3962 31.9269 19.3645 32.0634 19.3444C32.1997 19.3244 32.3379 19.3146 32.4757 19.315Z" fill="white"/>
<path d="M32.4757 19.315C32.3377 19.3163 32.2001 19.3278 32.064 19.3497C31.9279 19.3715 31.7938 19.4048 31.663 19.4472C31.4015 19.5329 31.1525 19.6578 30.9315 19.8213C30.7091 19.9837 30.5128 20.1784 30.3198 20.3751C30.1272 20.5723 29.935 20.7623 29.7255 20.9441C30.1485 21.2001 30.6263 21.3476 31.1173 21.4009C31.6079 21.4557 32.1097 21.4028 32.5787 21.2508C33.0478 21.0989 33.484 20.8464 33.8477 20.5143C34.2114 20.1824 34.5111 19.8092 34.6967 19.3536C34.3611 19.0398 33.9614 18.7951 33.529 18.6409C33.0966 18.486 32.6316 18.4258 32.1743 18.4572C31.9454 18.4732 31.7189 18.5164 31.4989 18.5808C31.2792 18.6467 31.0664 18.7354 30.8658 18.8464C30.7662 18.9027 30.6688 18.963 30.5759 19.0304C30.483 19.0978 30.3925 19.1685 30.3055 19.244C30.131 19.3941 29.9669 19.557 29.8044 19.7222C29.6417 19.8872 29.4802 20.0547 29.3104 20.2148C29.2255 20.2948 29.1387 20.3732 29.0484 20.4476C28.9582 20.5224 28.8652 20.594 28.7673 20.6591C28.743 20.6757 28.7187 20.6923 28.6935 20.7073C28.6685 20.7228 28.6438 20.7388 28.6184 20.7535L28.5414 20.7968C28.516 20.8117 28.4891 20.8237 28.4629 20.8373L28.4234 20.8573C28.4102 20.8637 28.3964 20.8693 28.3831 20.8754C28.356 20.887 28.3294 20.8997 28.3021 20.9108C28.247 20.9319 28.1922 20.9539 28.1357 20.9707C28.08 20.9901 28.0222 21.0031 27.9653 21.0185L27.8786 21.0362L27.8351 21.0449L27.7912 21.0515C27.6745 21.069 27.5565 21.0771 27.4384 21.076C27.2025 21.0737 26.9674 21.0349 26.743 20.9628C26.6308 20.9266 26.5214 20.882 26.416 20.8294C26.3108 20.7763 26.2093 20.7158 26.1128 20.6486C25.7276 20.3773 25.4222 19.9938 25.249 19.5552L25.2393 19.5301L25.2609 19.5145C25.5845 19.2803 25.9736 19.1453 26.3688 19.1102C26.7645 19.0752 27.1679 19.1415 27.5326 19.2967C27.7148 19.3747 27.8872 19.4747 28.0476 19.5908C28.2076 19.7073 28.3539 19.8418 28.4876 19.9872C28.7536 20.2798 28.9652 20.6184 29.1263 20.9776C29.2074 21.1571 29.2754 21.3425 29.3315 21.5312C29.3603 21.6254 29.3842 21.7209 29.407 21.8166C29.4281 21.9127 29.4478 22.0093 29.4627 22.1065C29.4923 22.3009 29.5152 22.4958 29.5324 22.6913C29.5422 22.7889 29.5486 22.8868 29.5565 22.9846C29.5627 23.0825 29.5702 23.1803 29.5751 23.2783C29.5971 23.6699 29.6096 24.0618 29.6135 24.454C29.618 24.846 29.6137 25.2381 29.5986 25.6299C29.6037 25.434 29.6058 25.2379 29.6058 25.042C29.605 24.8462 29.6033 24.6501 29.599 24.4542C29.5911 24.0624 29.5749 23.6708 29.5491 23.2798C29.5433 23.182 29.5348 23.0844 29.5277 22.9867C29.5186 22.8891 29.5115 22.7915 29.5007 22.6942C29.4817 22.4994 29.4569 22.305 29.4256 22.1123C29.3932 21.9198 29.3481 21.7296 29.2912 21.5429C29.2346 21.3562 29.1662 21.1732 29.0849 20.9959C28.9236 20.6414 28.7123 20.3082 28.449 20.0221C28.3166 19.8799 28.1724 19.7486 28.0149 19.6354C27.8571 19.5226 27.6881 19.4259 27.5096 19.3508C27.1525 19.2014 26.7596 19.1394 26.3746 19.1758C25.9906 19.2123 25.6254 19.317 25.3134 19.5439C25.4823 19.9691 25.7799 20.327 26.154 20.5894C26.2479 20.6546 26.3464 20.713 26.4484 20.7642C26.5506 20.8149 26.6568 20.858 26.7656 20.8929C26.9832 20.9624 27.211 20.9995 27.4392 21.0012C27.5533 21.0021 27.6673 20.994 27.7799 20.9769L27.8221 20.9705L27.8641 20.962L27.9478 20.9447C28.0028 20.9296 28.0585 20.9172 28.1124 20.8982C28.167 20.8818 28.2199 20.8603 28.2731 20.8399C28.2995 20.8292 28.3253 20.817 28.3515 20.8055C28.3644 20.7996 28.3776 20.7942 28.3904 20.7878L28.4286 20.7684C28.4539 20.7552 28.48 20.7433 28.5047 20.7288L28.5792 20.6866C28.6039 20.6721 28.6278 20.6565 28.6523 20.6414C28.6768 20.6267 28.7005 20.6105 28.724 20.5943C28.8193 20.5307 28.9102 20.4604 28.9985 20.3869C29.0871 20.3139 29.1726 20.2363 29.2564 20.157C29.4243 19.9985 29.5843 19.8309 29.7477 19.6657C29.9109 19.5003 30.077 19.3363 30.2547 19.1841C30.3432 19.1076 30.4358 19.0355 30.5309 18.9667C30.6259 18.898 30.7263 18.836 30.8287 18.7785C31.0344 18.6653 31.2524 18.5749 31.4774 18.5079C31.7027 18.4423 31.9347 18.3988 32.1688 18.3828C32.6368 18.3515 33.1114 18.4141 33.5531 18.573C33.9945 18.7315 34.4021 18.9822 34.744 19.3031L34.7615 19.3195L34.7524 19.3414C34.7039 19.4572 34.65 19.5708 34.59 19.6812C34.5286 19.7908 34.4625 19.8976 34.39 20.0002C34.3166 20.1021 34.2389 20.2008 34.1555 20.2945C34.0713 20.3875 33.9834 20.4772 33.8902 20.5612C33.5177 20.8974 33.0727 21.1513 32.5954 21.3027C32.1182 21.4542 31.6092 21.5047 31.1122 21.4463C30.6152 21.3892 30.1318 21.2202 29.7073 20.9567L29.6867 20.9441L29.705 20.9287C29.9143 20.7505 30.1058 20.5518 30.3006 20.3561C30.4957 20.1611 30.6948 19.9673 30.9204 19.8059C31.1448 19.6435 31.3963 19.5196 31.66 19.437C31.792 19.3962 31.9269 19.3645 32.0634 19.3444C32.1997 19.3244 32.3379 19.3146 32.4757 19.315Z" stroke="white" stroke-width="0.204545" mask="url(#path-13-outside-3_300_168)"/>
</g>
<defs>
<filter id="filter0_d_300_168" x="9.19048" y="24.6667" width="17.619" height="17.619" filterUnits="userSpaceOnUse" color-interpolation-filters="sRGB">
<feFlood flood-opacity="0" result="BackgroundImageFix"/>
<feColorMatrix in="SourceAlpha" type="matrix" values="0 0 0 0 0 0 0 0 0 0 0 0 0 0 0 0 0 0 127 0" result="hardAlpha"/>
<feOffset dy="0.47619"/>
<feGaussianBlur stdDeviation="1.90476"/>
<feComposite in2="hardAlpha" operator="out"/>
<feColorMatrix type="matrix" values="0 0 0 0 0.104167 0 0 0 0 0.066116 0 0 0 0 0.030816 0 0 0 0.12 0"/>
<feBlend mode="normal" in2="BackgroundImageFix" result="effect1_dropShadow_300_168"/>
<feBlend mode="normal" in="SourceGraphic" in2="effect1_dropShadow_300_168" result="shape"/>
</filter>
<filter id="filter1_d_300_168" x="34.1905" y="24.6667" width="17.619" height="17.619" filterUnits="userSpaceOnUse" color-interpolation-filters="sRGB">
<feFlood flood-opacity="0" result="BackgroundImageFix"/>
<feColorMatrix in="SourceAlpha" type="matrix" values="0 0 0 0 0 0 0 0 0 0 0 0 0 0 0 0 0 0 127 0" result="hardAlpha"/>
<feOffset dy="0.47619"/>
<feGaussianBlur stdDeviation="1.90476"/>
<feComposite in2="hardAlpha" operator="out"/>
<feColorMatrix type="matrix" values="0 0 0 0 0.104167 0 0 0 0 0.066116 0 0 0 0 0.030816 0 0 0 0.12 0"/>
<feBlend mode="normal" in2="BackgroundImageFix" result="effect1_dropShadow_300_168"/>
<feBlend mode="normal" in="SourceGraphic" in2="effect1_dropShadow_300_168" result="shape"/>
</filter>
<filter id="filter2_d_300_168" x="19.4286" y="11" width="21.1429" height="21.1429" filterUnits="userSpaceOnUse" color-interpolation-filters="sRGB">
<feFlood flood-opacity="0" result="BackgroundImageFix"/>
<feColorMatrix in="SourceAlpha" type="matrix" values="0 0 0 0 0 0 0 0 0 0 0 0 0 0 0 0 0 0 127 0" result="hardAlpha"/>
<feOffset dy="0.571429"/>
<feGaussianBlur stdDeviation="2.28571"/>
<feComposite in2="hardAlpha" operator="out"/>
<feColorMatrix type="matrix" values="0 0 0 0 0.104167 0 0 0 0 0.066116 0 0 0 0 0.030816 0 0 0 0.12 0"/>
<feBlend mode="normal" in2="BackgroundImageFix" result="effect1_dropShadow_300_168"/>
<feBlend mode="normal" in="SourceGraphic" in2="effect1_dropShadow_300_168" result="shape"/>
</filter>
<linearGradient id="paint0_linear_300_168" x1="13" y1="29.875" x2="23.3376" y2="30.6059" gradientUnits="userSpaceOnUse">
<stop stop-color="#30C917"/>
<stop offset="1" stop-color="#279A13"/>
</linearGradient>
<linearGradient id="paint1_linear_300_168" x1="38" y1="29.875" x2="48.3376" y2="30.6059" gradientUnits="userSpaceOnUse">
<stop stop-color="#30C917"/>
<stop offset="1" stop-color="#279A13"/>
</linearGradient>
<linearGradient id="paint2_linear_300_168" x1="24" y1="17.25" x2="36.4051" y2="18.127" gradientUnits="userSpaceOnUse">
<stop stop-color="#30C917"/>
<stop offset="1" stop-color="#279A13"/>
</linearGradient>
</defs>
</svg>
