<svg width="60" height="60" viewBox="0 0 60 60" fill="none" xmlns="http://www.w3.org/2000/svg">
<path d="M56.7309 12.0548L37.1775 0.225386C36.1484 -0.397231 34.8341 0.343746 34.8341 1.54644V7.09187C34.834 7.09187 34.1791 7.20015 33.0333 7.38941C26.5067 8.468 20.2298 11.3826 14.8479 15.1729C10.1583 18.4756 5.63364 22.602 2.41486 27.3802C2.03857 27.7778 2.05579 28.4051 2.45353 28.7814C2.85114 29.1577 3.47845 29.1405 3.85474 28.7427C3.85357 28.7441 3.88556 28.7181 3.93407 28.6848C7.747 26.0584 11.9336 23.9287 16.3387 22.4915C21.659 20.7557 27.3418 19.9489 32.9162 20.6903C33.5577 20.7831 34.1983 20.8858 34.8343 21.0129V26.5584C34.8343 27.7612 36.1487 28.502 37.1777 27.8794L56.7311 16.05C58.2325 15.1416 58.2325 12.9633 56.7309 12.0548Z" fill="#378900"/>
<path d="M3.26987 47.9434L22.8233 59.7727C23.8523 60.3954 25.1667 59.6543 25.1667 58.4517V52.9063C25.1668 52.9063 25.8217 52.798 26.9675 52.6087C33.4941 51.5301 39.771 48.6156 45.1529 44.8252C49.8423 41.5224 54.367 37.396 57.5858 32.6178C57.9621 32.2202 57.9449 31.5929 57.5471 31.2166C57.1495 30.8403 56.5222 30.8576 56.1459 31.2553C56.1471 31.2539 56.1151 31.2799 56.0666 31.3133C52.2537 33.9397 48.067 36.0695 43.6619 37.5067C38.3416 39.2424 32.6589 40.0493 27.0845 39.3078C26.443 39.215 25.8023 39.1124 25.1664 38.9852V33.4398C25.1664 32.237 23.852 31.4961 22.823 32.1187L3.26987 43.9479C1.76812 44.8564 1.76812 47.0348 3.26987 47.9434Z" fill="#FF4755"/>
</svg>
