<svg width="60" height="60" viewBox="0 0 60 60" fill="none" xmlns="http://www.w3.org/2000/svg">
<g clip-path="url(#clip0_300_675)">
<path fill-rule="evenodd" clip-rule="evenodd" d="M59.9997 1.31559L59.4825 7.97972C59.4415 8.54104 59.0769 9.02688 58.5494 9.22298C58.0218 9.41908 57.4284 9.28939 57.0307 8.8911L55.5307 7.39007L45.5563 17.378C43.9386 18.992 41.3198 18.992 39.7021 17.378L35.0852 12.759C34.6813 12.3552 34.0264 12.3552 33.6225 12.759L18.4456 27.9421C17.6694 28.7191 16.6162 29.1557 15.518 29.1557C14.4197 29.1557 13.3665 28.7191 12.5904 27.9421L10.0425 25.3932C9.63862 24.99 8.98458 24.99 8.58074 25.3932L3.52936 30.4363C2.71985 31.2323 1.42162 31.2323 0.612117 30.4363C0.220568 30.0517 0 29.5259 0 28.9771C0 28.4283 0.220568 27.9025 0.612117 27.518L6.38453 21.7332C7.16063 20.9565 8.21361 20.5201 9.3116 20.5201C10.4096 20.5201 11.4626 20.9565 12.2387 21.7332L15.5169 25.0135L31.4273 9.10214C32.2034 8.32545 33.2564 7.88905 34.3544 7.88905C35.4523 7.88905 36.5053 8.32545 37.2814 9.10214L41.8963 13.7159C42.0903 13.9102 42.3536 14.0193 42.6282 14.0193C42.9027 14.0193 43.166 13.9102 43.36 13.7159L52.6104 4.46145L51.1104 2.96145C50.7137 2.5649 50.5849 1.97332 50.7808 1.44772C50.9767 0.922124 51.4613 0.559183 52.0207 0.519034L58.6931 -0.00131089C59.0481 -0.0243898 59.3956 0.107301 59.6461 0.359792C59.8966 0.612283 60.0256 0.960852 59.9997 1.31559Z" fill="url(#paint0_linear_300_675)"/>
<path d="M15.5169 55.8594H3.10315C1.96049 55.8594 1.03418 56.7857 1.03418 57.9283C1.03418 59.071 1.96049 59.9973 3.10315 59.9973H15.5169C16.6596 59.9973 17.5859 59.071 17.5859 57.9283C17.5859 56.7857 16.6596 55.8594 15.5169 55.8594Z" fill="#F0C419"/>
<path d="M36.2064 55.8594H23.7926C22.6499 55.8594 21.7236 56.7857 21.7236 57.9283C21.7236 59.071 22.6499 59.9973 23.7926 59.9973H36.2064C37.349 59.9973 38.2754 59.071 38.2754 57.9283C38.2754 56.7857 37.349 55.8594 36.2064 55.8594Z" fill="#F0C419"/>
<path d="M36.2064 51.7227H23.7926C22.6499 51.7227 21.7236 52.649 21.7236 53.7916C21.7236 54.9343 22.6499 55.8606 23.7926 55.8606H36.2064C37.349 55.8606 38.2754 54.9343 38.2754 53.7916C38.2754 52.649 37.349 51.7227 36.2064 51.7227Z" fill="#F3D55B"/>
<path d="M36.2064 47.5859H23.7926C22.6499 47.5859 21.7236 48.5122 21.7236 49.6549C21.7236 50.7976 22.6499 51.7239 23.7926 51.7239H36.2064C37.349 51.7239 38.2754 50.7976 38.2754 49.6549C38.2754 48.5122 37.349 47.5859 36.2064 47.5859Z" fill="#F0C419"/>
<path d="M56.8958 55.8594H44.4821C43.3394 55.8594 42.4131 56.7857 42.4131 57.9283C42.4131 59.071 43.3394 59.9973 44.4821 59.9973H56.8958C58.0385 59.9973 58.9648 59.071 58.9648 57.9283C58.9648 56.7857 58.0385 55.8594 56.8958 55.8594Z" fill="#F0C419"/>
<path d="M56.8958 51.7227H44.4821C43.3394 51.7227 42.4131 52.649 42.4131 53.7916C42.4131 54.9343 43.3394 55.8606 44.4821 55.8606H56.8958C58.0385 55.8606 58.9648 54.9343 58.9648 53.7916C58.9648 52.649 58.0385 51.7227 56.8958 51.7227Z" fill="#F3D55B"/>
<path d="M56.8958 47.5859H44.4821C43.3394 47.5859 42.4131 48.5122 42.4131 49.6549C42.4131 50.7976 43.3394 51.7239 44.4821 51.7239H56.8958C58.0385 51.7239 58.9648 50.7976 58.9648 49.6549C58.9648 48.5122 58.0385 47.5859 56.8958 47.5859Z" fill="#F0C419"/>
<path d="M56.8958 43.4453H44.4821C43.3394 43.4453 42.4131 44.3716 42.4131 45.5143C42.4131 46.6569 43.3394 47.5832 44.4821 47.5832H56.8958C58.0385 47.5832 58.9648 46.6569 58.9648 45.5143C58.9648 44.3716 58.0385 43.4453 56.8958 43.4453Z" fill="#F3D55B"/>
<path d="M56.8958 39.3086H44.4821C43.3394 39.3086 42.4131 40.2349 42.4131 41.3776C42.4131 42.5202 43.3394 43.4465 44.4821 43.4465H56.8958C58.0385 43.4465 58.9648 42.5202 58.9648 41.3776C58.9648 40.2349 58.0385 39.3086 56.8958 39.3086Z" fill="#F0C419"/>
<g filter="url(#filter0_d_300_675)">
<circle cx="10" cy="45" r="9" fill="url(#paint1_linear_300_675)"/>
<mask id="path-12-outside-1_300_675" maskUnits="userSpaceOnUse" x="1.8584" y="40.0625" width="16" height="12" fill="black">
<rect fill="white" x="1.8584" y="40.0625" width="16" height="12"/>
<path d="M13.7131 42.4725C13.5061 42.4745 13.2997 42.4917 13.0955 42.5245C12.8913 42.5573 12.6903 42.6073 12.494 42.6708C12.1018 42.7994 11.7282 42.9867 11.3967 43.232C11.0632 43.4755 10.7687 43.7676 10.4793 44.0626C10.1904 44.3584 9.90207 44.6435 9.58778 44.9162C10.2223 45.3001 10.939 45.5214 11.6754 45.6013C12.4113 45.6835 13.1641 45.6041 13.8675 45.3761C14.5712 45.1484 15.2255 44.7695 15.771 44.2714C16.3166 43.7736 16.7661 43.2139 17.0446 42.5304C16.5411 42.0597 15.9416 41.6927 15.293 41.4613C14.6443 41.229 13.9469 41.1386 13.261 41.1858C12.9176 41.2098 12.5779 41.2745 12.2478 41.3712C11.9183 41.47 11.5992 41.6031 11.2982 41.7695C11.1488 41.854 11.0028 41.9444 10.8633 42.0456C10.7241 42.1467 10.5882 42.2527 10.4578 42.366C10.196 42.5912 9.94979 42.8356 9.7061 43.0833C9.46212 43.3308 9.21984 43.582 8.96513 43.8222C8.83778 43.9423 8.7076 44.0598 8.57206 44.1714C8.4368 44.2836 8.29731 44.3909 8.15047 44.4887C8.11404 44.5135 8.07762 44.5384 8.03978 44.561C8.00222 44.5842 7.96523 44.6082 7.92711 44.6302L7.81161 44.6952C7.77349 44.7175 7.73311 44.7356 7.69386 44.756L7.63456 44.7859C7.6148 44.7955 7.59418 44.804 7.57413 44.813C7.53347 44.8306 7.49366 44.8495 7.45271 44.8662C7.36997 44.8978 7.2878 44.9309 7.20309 44.956C7.1195 44.9851 7.03281 45.0046 6.94753 45.0278L6.81736 45.0543L6.75213 45.0673L6.68633 45.0772C6.51126 45.1035 6.33421 45.1156 6.15715 45.1139C5.80333 45.1105 5.45064 45.0523 5.11404 44.9441C4.94575 44.8899 4.78168 44.8229 4.62355 44.7441C4.4657 44.6644 4.3135 44.5737 4.16864 44.4729C3.59089 44.066 3.13287 43.4908 2.87308 42.8327L2.8584 42.7951L2.89087 42.7717C3.37628 42.4205 3.95996 42.2179 4.55267 42.1654C5.14624 42.1128 5.75137 42.2123 6.29834 42.4451C6.57169 42.5621 6.83035 42.7121 7.07093 42.8861C7.31096 43.061 7.53036 43.2627 7.73085 43.4809C8.12986 43.9197 8.44725 44.4277 8.68897 44.9665C8.81067 45.2357 8.91261 45.5137 8.99676 45.7968C9.03996 45.9381 9.07583 46.0814 9.10999 46.2249C9.14162 46.369 9.17127 46.5139 9.19358 46.6597C9.23791 46.9513 9.27236 47.2437 9.29806 47.537C9.31274 47.6833 9.32234 47.8303 9.3342 47.9769C9.34352 48.1238 9.35482 48.2705 9.36216 48.4174C9.3952 49.0048 9.41383 49.5927 9.41976 50.181C9.42654 50.7689 9.42005 51.3572 9.39746 51.9449C9.40508 51.651 9.40819 51.3569 9.40819 51.0631C9.40706 50.7692 9.40452 50.4751 9.39802 50.1813C9.38616 49.5936 9.36188 49.0062 9.32319 48.4196C9.31444 48.273 9.30173 48.1266 9.291 47.98C9.27744 47.8337 9.26671 47.6873 9.25062 47.5412C9.2221 47.2491 9.18482 46.9575 9.13795 46.6685C9.08938 46.3797 9.02161 46.0943 8.93633 45.8144C8.85133 45.5344 8.74883 45.2597 8.62684 44.9939C8.38484 44.4621 8.06801 43.9623 7.67297 43.5331C7.47445 43.3198 7.25815 43.1229 7.0218 42.9531C6.78517 42.7838 6.53159 42.6389 6.26389 42.5262C5.72822 42.3021 5.13889 42.2092 4.56143 42.2637C3.98537 42.3185 3.43756 42.4755 2.96966 42.8159C3.22295 43.4536 3.66939 43.9906 4.23048 44.3841C4.37139 44.4819 4.51907 44.5695 4.67212 44.6463C4.82545 44.7223 4.98471 44.787 5.14793 44.8393C5.47436 44.9436 5.81604 44.9992 6.15828 45.0018C6.32941 45.0032 6.50053 44.991 6.66939 44.9653L6.73264 44.9557L6.79561 44.943L6.92127 44.917C7.00373 44.8944 7.08731 44.8758 7.16807 44.8472C7.24996 44.8226 7.32931 44.7904 7.40922 44.7599C7.44876 44.7438 7.48744 44.7255 7.52669 44.7082C7.54618 44.6995 7.56594 44.6913 7.58515 44.6817L7.64247 44.6526C7.68031 44.6328 7.71956 44.615 7.75655 44.5932L7.86837 44.5299C7.90536 44.5082 7.94123 44.4847 7.97794 44.4621C8.01464 44.4401 8.05022 44.4158 8.08552 44.3915C8.22841 44.296 8.3648 44.1906 8.49723 44.0804C8.63023 43.9708 8.75843 43.8544 8.88409 43.7354C9.13597 43.4978 9.376 43.2464 9.6211 42.9986C9.86592 42.7505 10.115 42.5044 10.3815 42.2761C10.5143 42.1614 10.6532 42.0532 10.7958 41.9501C10.9384 41.8469 11.0889 41.754 11.2425 41.6678C11.5512 41.498 11.8782 41.3624 12.2156 41.2618C12.5536 41.1635 12.9015 41.0982 13.2528 41.0742C13.9548 41.0273 14.6667 41.1211 15.3291 41.3596C15.9913 41.5972 16.6026 41.9732 17.1154 42.4547L17.1417 42.4793L17.1282 42.512C17.0553 42.6858 16.9745 42.8562 16.8845 43.0217C16.7924 43.1862 16.6933 43.3464 16.5846 43.5004C16.4744 43.6532 16.3578 43.8013 16.2327 43.9417C16.1065 44.0813 15.9746 44.2158 15.8349 44.3418C15.276 44.8461 14.6085 45.227 13.8927 45.4541C13.1768 45.6813 12.4133 45.757 11.6678 45.6694C10.9223 45.5838 10.1972 45.3304 9.56039 44.9351L9.52961 44.9162L9.557 44.893C9.87101 44.6257 10.1582 44.3276 10.4504 44.0341C10.743 43.7417 11.0418 43.4509 11.38 43.2088C11.7166 42.9652 12.0939 42.7793 12.4895 42.6556C12.6875 42.5943 12.8899 42.5468 13.0946 42.5166C13.2991 42.4866 13.5064 42.4719 13.7131 42.4725Z"/>
</mask>
<path d="M13.7131 42.4725C13.5061 42.4745 13.2997 42.4917 13.0955 42.5245C12.8913 42.5573 12.6903 42.6073 12.494 42.6708C12.1018 42.7994 11.7282 42.9867 11.3967 43.232C11.0632 43.4755 10.7687 43.7676 10.4793 44.0626C10.1904 44.3584 9.90207 44.6435 9.58778 44.9162C10.2223 45.3001 10.939 45.5214 11.6754 45.6013C12.4113 45.6835 13.1641 45.6041 13.8675 45.3761C14.5712 45.1484 15.2255 44.7695 15.771 44.2714C16.3166 43.7736 16.7661 43.2139 17.0446 42.5304C16.5411 42.0597 15.9416 41.6927 15.293 41.4613C14.6443 41.229 13.9469 41.1386 13.261 41.1858C12.9176 41.2098 12.5779 41.2745 12.2478 41.3712C11.9183 41.47 11.5992 41.6031 11.2982 41.7695C11.1488 41.854 11.0028 41.9444 10.8633 42.0456C10.7241 42.1467 10.5882 42.2527 10.4578 42.366C10.196 42.5912 9.94979 42.8356 9.7061 43.0833C9.46212 43.3308 9.21984 43.582 8.96513 43.8222C8.83778 43.9423 8.7076 44.0598 8.57206 44.1714C8.4368 44.2836 8.29731 44.3909 8.15047 44.4887C8.11404 44.5135 8.07762 44.5384 8.03978 44.561C8.00222 44.5842 7.96523 44.6082 7.92711 44.6302L7.81161 44.6952C7.77349 44.7175 7.73311 44.7356 7.69386 44.756L7.63456 44.7859C7.6148 44.7955 7.59418 44.804 7.57413 44.813C7.53347 44.8306 7.49366 44.8495 7.45271 44.8662C7.36997 44.8978 7.2878 44.9309 7.20309 44.956C7.1195 44.9851 7.03281 45.0046 6.94753 45.0278L6.81736 45.0543L6.75213 45.0673L6.68633 45.0772C6.51126 45.1035 6.33421 45.1156 6.15715 45.1139C5.80333 45.1105 5.45064 45.0523 5.11404 44.9441C4.94575 44.8899 4.78168 44.8229 4.62355 44.7441C4.4657 44.6644 4.3135 44.5737 4.16864 44.4729C3.59089 44.066 3.13287 43.4908 2.87308 42.8327L2.8584 42.7951L2.89087 42.7717C3.37628 42.4205 3.95996 42.2179 4.55267 42.1654C5.14624 42.1128 5.75137 42.2123 6.29834 42.4451C6.57169 42.5621 6.83035 42.7121 7.07093 42.8861C7.31096 43.061 7.53036 43.2627 7.73085 43.4809C8.12986 43.9197 8.44725 44.4277 8.68897 44.9665C8.81067 45.2357 8.91261 45.5137 8.99676 45.7968C9.03996 45.9381 9.07583 46.0814 9.10999 46.2249C9.14162 46.369 9.17127 46.5139 9.19358 46.6597C9.23791 46.9513 9.27236 47.2437 9.29806 47.537C9.31274 47.6833 9.32234 47.8303 9.3342 47.9769C9.34352 48.1238 9.35482 48.2705 9.36216 48.4174C9.3952 49.0048 9.41383 49.5927 9.41976 50.181C9.42654 50.7689 9.42005 51.3572 9.39746 51.9449C9.40508 51.651 9.40819 51.3569 9.40819 51.0631C9.40706 50.7692 9.40452 50.4751 9.39802 50.1813C9.38616 49.5936 9.36188 49.0062 9.32319 48.4196C9.31444 48.273 9.30173 48.1266 9.291 47.98C9.27744 47.8337 9.26671 47.6873 9.25062 47.5412C9.2221 47.2491 9.18482 46.9575 9.13795 46.6685C9.08938 46.3797 9.02161 46.0943 8.93633 45.8144C8.85133 45.5344 8.74883 45.2597 8.62684 44.9939C8.38484 44.4621 8.06801 43.9623 7.67297 43.5331C7.47445 43.3198 7.25815 43.1229 7.0218 42.9531C6.78517 42.7838 6.53159 42.6389 6.26389 42.5262C5.72822 42.3021 5.13889 42.2092 4.56143 42.2637C3.98537 42.3185 3.43756 42.4755 2.96966 42.8159C3.22295 43.4536 3.66939 43.9906 4.23048 44.3841C4.37139 44.4819 4.51907 44.5695 4.67212 44.6463C4.82545 44.7223 4.98471 44.787 5.14793 44.8393C5.47436 44.9436 5.81604 44.9992 6.15828 45.0018C6.32941 45.0032 6.50053 44.991 6.66939 44.9653L6.73264 44.9557L6.79561 44.943L6.92127 44.917C7.00373 44.8944 7.08731 44.8758 7.16807 44.8472C7.24996 44.8226 7.32931 44.7904 7.40922 44.7599C7.44876 44.7438 7.48744 44.7255 7.52669 44.7082C7.54618 44.6995 7.56594 44.6913 7.58515 44.6817L7.64247 44.6526C7.68031 44.6328 7.71956 44.615 7.75655 44.5932L7.86837 44.5299C7.90536 44.5082 7.94123 44.4847 7.97794 44.4621C8.01464 44.4401 8.05022 44.4158 8.08552 44.3915C8.22841 44.296 8.3648 44.1906 8.49723 44.0804C8.63023 43.9708 8.75843 43.8544 8.88409 43.7354C9.13597 43.4978 9.376 43.2464 9.6211 42.9986C9.86592 42.7505 10.115 42.5044 10.3815 42.2761C10.5143 42.1614 10.6532 42.0532 10.7958 41.9501C10.9384 41.8469 11.0889 41.754 11.2425 41.6678C11.5512 41.498 11.8782 41.3624 12.2156 41.2618C12.5536 41.1635 12.9015 41.0982 13.2528 41.0742C13.9548 41.0273 14.6667 41.1211 15.3291 41.3596C15.9913 41.5972 16.6026 41.9732 17.1154 42.4547L17.1417 42.4793L17.1282 42.512C17.0553 42.6858 16.9745 42.8562 16.8845 43.0217C16.7924 43.1862 16.6933 43.3464 16.5846 43.5004C16.4744 43.6532 16.3578 43.8013 16.2327 43.9417C16.1065 44.0813 15.9746 44.2158 15.8349 44.3418C15.276 44.8461 14.6085 45.227 13.8927 45.4541C13.1768 45.6813 12.4133 45.757 11.6678 45.6694C10.9223 45.5838 10.1972 45.3304 9.56039 44.9351L9.52961 44.9162L9.557 44.893C9.87101 44.6257 10.1582 44.3276 10.4504 44.0341C10.743 43.7417 11.0418 43.4509 11.38 43.2088C11.7166 42.9652 12.0939 42.7793 12.4895 42.6556C12.6875 42.5943 12.8899 42.5468 13.0946 42.5166C13.2991 42.4866 13.5064 42.4719 13.7131 42.4725Z" fill="white"/>
<path d="M13.7131 42.4725C13.5061 42.4745 13.2997 42.4917 13.0955 42.5245C12.8913 42.5573 12.6903 42.6073 12.494 42.6708C12.1018 42.7994 11.7282 42.9867 11.3967 43.232C11.0632 43.4755 10.7687 43.7676 10.4793 44.0626C10.1904 44.3584 9.90207 44.6435 9.58778 44.9162C10.2223 45.3001 10.939 45.5214 11.6754 45.6013C12.4113 45.6835 13.1641 45.6041 13.8675 45.3761C14.5712 45.1484 15.2255 44.7695 15.771 44.2714C16.3166 43.7736 16.7661 43.2139 17.0446 42.5304C16.5411 42.0597 15.9416 41.6927 15.293 41.4613C14.6443 41.229 13.9469 41.1386 13.261 41.1858C12.9176 41.2098 12.5779 41.2745 12.2478 41.3712C11.9183 41.47 11.5992 41.6031 11.2982 41.7695C11.1488 41.854 11.0028 41.9444 10.8633 42.0456C10.7241 42.1467 10.5882 42.2527 10.4578 42.366C10.196 42.5912 9.94979 42.8356 9.7061 43.0833C9.46212 43.3308 9.21984 43.582 8.96513 43.8222C8.83778 43.9423 8.7076 44.0598 8.57206 44.1714C8.4368 44.2836 8.29731 44.3909 8.15047 44.4887C8.11404 44.5135 8.07762 44.5384 8.03978 44.561C8.00222 44.5842 7.96523 44.6082 7.92711 44.6302L7.81161 44.6952C7.77349 44.7175 7.73311 44.7356 7.69386 44.756L7.63456 44.7859C7.6148 44.7955 7.59418 44.804 7.57413 44.813C7.53347 44.8306 7.49366 44.8495 7.45271 44.8662C7.36997 44.8978 7.2878 44.9309 7.20309 44.956C7.1195 44.9851 7.03281 45.0046 6.94753 45.0278L6.81736 45.0543L6.75213 45.0673L6.68633 45.0772C6.51126 45.1035 6.33421 45.1156 6.15715 45.1139C5.80333 45.1105 5.45064 45.0523 5.11404 44.9441C4.94575 44.8899 4.78168 44.8229 4.62355 44.7441C4.4657 44.6644 4.3135 44.5737 4.16864 44.4729C3.59089 44.066 3.13287 43.4908 2.87308 42.8327L2.8584 42.7951L2.89087 42.7717C3.37628 42.4205 3.95996 42.2179 4.55267 42.1654C5.14624 42.1128 5.75137 42.2123 6.29834 42.4451C6.57169 42.5621 6.83035 42.7121 7.07093 42.8861C7.31096 43.061 7.53036 43.2627 7.73085 43.4809C8.12986 43.9197 8.44725 44.4277 8.68897 44.9665C8.81067 45.2357 8.91261 45.5137 8.99676 45.7968C9.03996 45.9381 9.07583 46.0814 9.10999 46.2249C9.14162 46.369 9.17127 46.5139 9.19358 46.6597C9.23791 46.9513 9.27236 47.2437 9.29806 47.537C9.31274 47.6833 9.32234 47.8303 9.3342 47.9769C9.34352 48.1238 9.35482 48.2705 9.36216 48.4174C9.3952 49.0048 9.41383 49.5927 9.41976 50.181C9.42654 50.7689 9.42005 51.3572 9.39746 51.9449C9.40508 51.651 9.40819 51.3569 9.40819 51.0631C9.40706 50.7692 9.40452 50.4751 9.39802 50.1813C9.38616 49.5936 9.36188 49.0062 9.32319 48.4196C9.31444 48.273 9.30173 48.1266 9.291 47.98C9.27744 47.8337 9.26671 47.6873 9.25062 47.5412C9.2221 47.2491 9.18482 46.9575 9.13795 46.6685C9.08938 46.3797 9.02161 46.0943 8.93633 45.8144C8.85133 45.5344 8.74883 45.2597 8.62684 44.9939C8.38484 44.4621 8.06801 43.9623 7.67297 43.5331C7.47445 43.3198 7.25815 43.1229 7.0218 42.9531C6.78517 42.7838 6.53159 42.6389 6.26389 42.5262C5.72822 42.3021 5.13889 42.2092 4.56143 42.2637C3.98537 42.3185 3.43756 42.4755 2.96966 42.8159C3.22295 43.4536 3.66939 43.9906 4.23048 44.3841C4.37139 44.4819 4.51907 44.5695 4.67212 44.6463C4.82545 44.7223 4.98471 44.787 5.14793 44.8393C5.47436 44.9436 5.81604 44.9992 6.15828 45.0018C6.32941 45.0032 6.50053 44.991 6.66939 44.9653L6.73264 44.9557L6.79561 44.943L6.92127 44.917C7.00373 44.8944 7.08731 44.8758 7.16807 44.8472C7.24996 44.8226 7.32931 44.7904 7.40922 44.7599C7.44876 44.7438 7.48744 44.7255 7.52669 44.7082C7.54618 44.6995 7.56594 44.6913 7.58515 44.6817L7.64247 44.6526C7.68031 44.6328 7.71956 44.615 7.75655 44.5932L7.86837 44.5299C7.90536 44.5082 7.94123 44.4847 7.97794 44.4621C8.01464 44.4401 8.05022 44.4158 8.08552 44.3915C8.22841 44.296 8.3648 44.1906 8.49723 44.0804C8.63023 43.9708 8.75843 43.8544 8.88409 43.7354C9.13597 43.4978 9.376 43.2464 9.6211 42.9986C9.86592 42.7505 10.115 42.5044 10.3815 42.2761C10.5143 42.1614 10.6532 42.0532 10.7958 41.9501C10.9384 41.8469 11.0889 41.754 11.2425 41.6678C11.5512 41.498 11.8782 41.3624 12.2156 41.2618C12.5536 41.1635 12.9015 41.0982 13.2528 41.0742C13.9548 41.0273 14.6667 41.1211 15.3291 41.3596C15.9913 41.5972 16.6026 41.9732 17.1154 42.4547L17.1417 42.4793L17.1282 42.512C17.0553 42.6858 16.9745 42.8562 16.8845 43.0217C16.7924 43.1862 16.6933 43.3464 16.5846 43.5004C16.4744 43.6532 16.3578 43.8013 16.2327 43.9417C16.1065 44.0813 15.9746 44.2158 15.8349 44.3418C15.276 44.8461 14.6085 45.227 13.8927 45.4541C13.1768 45.6813 12.4133 45.757 11.6678 45.6694C10.9223 45.5838 10.1972 45.3304 9.56039 44.9351L9.52961 44.9162L9.557 44.893C9.87101 44.6257 10.1582 44.3276 10.4504 44.0341C10.743 43.7417 11.0418 43.4509 11.38 43.2088C11.7166 42.9652 12.0939 42.7793 12.4895 42.6556C12.6875 42.5943 12.8899 42.5468 13.0946 42.5166C13.2991 42.4866 13.5064 42.4719 13.7131 42.4725Z" stroke="white" stroke-width="0.306818" mask="url(#path-12-outside-1_300_675)"/>
</g>
<g filter="url(#filter1_d_300_675)">
<circle cx="30" cy="36" r="9" fill="url(#paint2_linear_300_675)"/>
<mask id="path-14-outside-2_300_675" maskUnits="userSpaceOnUse" x="21.8584" y="31.0625" width="16" height="12" fill="black">
<rect fill="white" x="21.8584" y="31.0625" width="16" height="12"/>
<path d="M33.7131 33.4725C33.5061 33.4745 33.2997 33.4917 33.0955 33.5245C32.8913 33.5573 32.6903 33.6073 32.494 33.6708C32.1018 33.7994 31.7282 33.9867 31.3967 34.232C31.0632 34.4755 30.7687 34.7676 30.4793 35.0626C30.1904 35.3584 29.9021 35.6435 29.5878 35.9162C30.2223 36.3001 30.939 36.5214 31.6754 36.6013C32.4113 36.6835 33.1641 36.6041 33.8675 36.3761C34.5712 36.1484 35.2255 35.7695 35.771 35.2714C36.3166 34.7736 36.7661 34.2139 37.0446 33.5304C36.5411 33.0597 35.9416 32.6927 35.293 32.4613C34.6443 32.229 33.9469 32.1386 33.261 32.1858C32.9176 32.2098 32.5779 32.2745 32.2478 32.3712C31.9183 32.47 31.5992 32.6031 31.2982 32.7695C31.1488 32.854 31.0028 32.9444 30.8633 33.0456C30.7241 33.1467 30.5882 33.2527 30.4578 33.366C30.196 33.5912 29.9498 33.8356 29.7061 34.0833C29.4621 34.3308 29.2198 34.582 28.9651 34.8222C28.8378 34.9423 28.7076 35.0598 28.5721 35.1714C28.4368 35.2836 28.2973 35.3909 28.1505 35.4887C28.114 35.5135 28.0776 35.5384 28.0398 35.561C28.0022 35.5842 27.9652 35.6082 27.9271 35.6302L27.8116 35.6952C27.7735 35.7175 27.7331 35.7356 27.6939 35.756L27.6346 35.7859C27.6148 35.7955 27.5942 35.804 27.5741 35.813C27.5335 35.8306 27.4937 35.8495 27.4527 35.8662C27.37 35.8978 27.2878 35.9309 27.2031 35.956C27.1195 35.9851 27.0328 36.0046 26.9475 36.0278L26.8174 36.0543L26.7521 36.0673L26.6863 36.0772C26.5113 36.1035 26.3342 36.1156 26.1572 36.1139C25.8033 36.1105 25.4506 36.0523 25.114 35.9441C24.9457 35.8899 24.7817 35.8229 24.6236 35.7441C24.4657 35.6644 24.3135 35.5737 24.1686 35.4729C23.5909 35.066 23.1329 34.4908 22.8731 33.8327L22.8584 33.7951L22.8909 33.7717C23.3763 33.4205 23.96 33.2179 24.5527 33.1654C25.1462 33.1128 25.7514 33.2123 26.2983 33.4451C26.5717 33.5621 26.8303 33.7121 27.0709 33.8861C27.311 34.061 27.5304 34.2627 27.7309 34.4809C28.1299 34.9197 28.4472 35.4277 28.689 35.9665C28.8107 36.2357 28.9126 36.5137 28.9968 36.7968C29.04 36.9381 29.0758 37.0814 29.11 37.2249C29.1416 37.369 29.1713 37.5139 29.1936 37.6597C29.2379 37.9513 29.2724 38.2437 29.2981 38.537C29.3127 38.6833 29.3223 38.8303 29.3342 38.9769C29.3435 39.1238 29.3548 39.2705 29.3622 39.4174C29.3952 40.0048 29.4138 40.5927 29.4198 41.181C29.4265 41.7689 29.42 42.3572 29.3975 42.9449C29.4051 42.651 29.4082 42.3569 29.4082 42.0631C29.4071 41.7692 29.4045 41.4751 29.398 41.1813C29.3862 40.5936 29.3619 40.0062 29.3232 39.4196C29.3144 39.273 29.3017 39.1266 29.291 38.98C29.2774 38.8337 29.2667 38.6873 29.2506 38.5412C29.2221 38.2491 29.1848 37.9575 29.1379 37.6685C29.0894 37.3797 29.0216 37.0943 28.9363 36.8144C28.8513 36.5344 28.7488 36.2597 28.6268 35.9939C28.3848 35.4621 28.068 34.9623 27.673 34.5331C27.4745 34.3198 27.2582 34.1229 27.0218 33.9531C26.7852 33.7838 26.5316 33.6389 26.2639 33.5262C25.7282 33.3021 25.1389 33.2092 24.5614 33.2637C23.9854 33.3185 23.4376 33.4755 22.9697 33.8159C23.223 34.4536 23.6694 34.9906 24.2305 35.3841C24.3714 35.4819 24.5191 35.5695 24.6721 35.6463C24.8255 35.7223 24.9847 35.787 25.1479 35.8393C25.4744 35.9436 25.816 35.9992 26.1583 36.0018C26.3294 36.0032 26.5005 35.991 26.6694 35.9653L26.7326 35.9557L26.7956 35.943L26.9213 35.917C27.0037 35.8944 27.0873 35.8758 27.1681 35.8472C27.25 35.8226 27.3293 35.7904 27.4092 35.7599C27.4488 35.7438 27.4874 35.7255 27.5267 35.7082C27.5462 35.6995 27.5659 35.6913 27.5851 35.6817L27.6425 35.6526C27.6803 35.6328 27.7196 35.615 27.7566 35.5932L27.8684 35.5299C27.9054 35.5082 27.9412 35.4847 27.9779 35.4621C28.0146 35.4401 28.0502 35.4158 28.0855 35.3915C28.2284 35.296 28.3648 35.1906 28.4972 35.0804C28.6302 34.9708 28.7584 34.8544 28.8841 34.7354C29.136 34.4978 29.376 34.2464 29.6211 33.9986C29.8659 33.7505 30.115 33.5044 30.3815 33.2761C30.5143 33.1614 30.6532 33.0532 30.7958 32.9501C30.9384 32.8469 31.0889 32.754 31.2425 32.6678C31.5512 32.498 31.8782 32.3624 32.2156 32.2618C32.5536 32.1635 32.9015 32.0982 33.2528 32.0742C33.9548 32.0273 34.6667 32.1211 35.3291 32.3596C35.9913 32.5972 36.6026 32.9732 37.1154 33.4547L37.1417 33.4793L37.1282 33.512C37.0553 33.6858 36.9745 33.8562 36.8845 34.0217C36.7924 34.1862 36.6933 34.3464 36.5846 34.5004C36.4744 34.6532 36.3578 34.8013 36.2327 34.9417C36.1065 35.0813 35.9746 35.2158 35.8349 35.3418C35.276 35.8461 34.6085 36.227 33.8927 36.4541C33.1768 36.6813 32.4133 36.757 31.6678 36.6694C30.9223 36.5838 30.1972 36.3304 29.5604 35.9351L29.5296 35.9162L29.557 35.893C29.871 35.6257 30.1582 35.3276 30.4504 35.0341C30.743 34.7417 31.0418 34.4509 31.38 34.2088C31.7166 33.9652 32.0939 33.7793 32.4895 33.6556C32.6875 33.5943 32.8899 33.5468 33.0946 33.5166C33.2991 33.4866 33.5064 33.4719 33.7131 33.4725Z"/>
</mask>
<path d="M33.7131 33.4725C33.5061 33.4745 33.2997 33.4917 33.0955 33.5245C32.8913 33.5573 32.6903 33.6073 32.494 33.6708C32.1018 33.7994 31.7282 33.9867 31.3967 34.232C31.0632 34.4755 30.7687 34.7676 30.4793 35.0626C30.1904 35.3584 29.9021 35.6435 29.5878 35.9162C30.2223 36.3001 30.939 36.5214 31.6754 36.6013C32.4113 36.6835 33.1641 36.6041 33.8675 36.3761C34.5712 36.1484 35.2255 35.7695 35.771 35.2714C36.3166 34.7736 36.7661 34.2139 37.0446 33.5304C36.5411 33.0597 35.9416 32.6927 35.293 32.4613C34.6443 32.229 33.9469 32.1386 33.261 32.1858C32.9176 32.2098 32.5779 32.2745 32.2478 32.3712C31.9183 32.47 31.5992 32.6031 31.2982 32.7695C31.1488 32.854 31.0028 32.9444 30.8633 33.0456C30.7241 33.1467 30.5882 33.2527 30.4578 33.366C30.196 33.5912 29.9498 33.8356 29.7061 34.0833C29.4621 34.3308 29.2198 34.582 28.9651 34.8222C28.8378 34.9423 28.7076 35.0598 28.5721 35.1714C28.4368 35.2836 28.2973 35.3909 28.1505 35.4887C28.114 35.5135 28.0776 35.5384 28.0398 35.561C28.0022 35.5842 27.9652 35.6082 27.9271 35.6302L27.8116 35.6952C27.7735 35.7175 27.7331 35.7356 27.6939 35.756L27.6346 35.7859C27.6148 35.7955 27.5942 35.804 27.5741 35.813C27.5335 35.8306 27.4937 35.8495 27.4527 35.8662C27.37 35.8978 27.2878 35.9309 27.2031 35.956C27.1195 35.9851 27.0328 36.0046 26.9475 36.0278L26.8174 36.0543L26.7521 36.0673L26.6863 36.0772C26.5113 36.1035 26.3342 36.1156 26.1572 36.1139C25.8033 36.1105 25.4506 36.0523 25.114 35.9441C24.9457 35.8899 24.7817 35.8229 24.6236 35.7441C24.4657 35.6644 24.3135 35.5737 24.1686 35.4729C23.5909 35.066 23.1329 34.4908 22.8731 33.8327L22.8584 33.7951L22.8909 33.7717C23.3763 33.4205 23.96 33.2179 24.5527 33.1654C25.1462 33.1128 25.7514 33.2123 26.2983 33.4451C26.5717 33.5621 26.8303 33.7121 27.0709 33.8861C27.311 34.061 27.5304 34.2627 27.7309 34.4809C28.1299 34.9197 28.4472 35.4277 28.689 35.9665C28.8107 36.2357 28.9126 36.5137 28.9968 36.7968C29.04 36.9381 29.0758 37.0814 29.11 37.2249C29.1416 37.369 29.1713 37.5139 29.1936 37.6597C29.2379 37.9513 29.2724 38.2437 29.2981 38.537C29.3127 38.6833 29.3223 38.8303 29.3342 38.9769C29.3435 39.1238 29.3548 39.2705 29.3622 39.4174C29.3952 40.0048 29.4138 40.5927 29.4198 41.181C29.4265 41.7689 29.42 42.3572 29.3975 42.9449C29.4051 42.651 29.4082 42.3569 29.4082 42.0631C29.4071 41.7692 29.4045 41.4751 29.398 41.1813C29.3862 40.5936 29.3619 40.0062 29.3232 39.4196C29.3144 39.273 29.3017 39.1266 29.291 38.98C29.2774 38.8337 29.2667 38.6873 29.2506 38.5412C29.2221 38.2491 29.1848 37.9575 29.1379 37.6685C29.0894 37.3797 29.0216 37.0943 28.9363 36.8144C28.8513 36.5344 28.7488 36.2597 28.6268 35.9939C28.3848 35.4621 28.068 34.9623 27.673 34.5331C27.4745 34.3198 27.2582 34.1229 27.0218 33.9531C26.7852 33.7838 26.5316 33.6389 26.2639 33.5262C25.7282 33.3021 25.1389 33.2092 24.5614 33.2637C23.9854 33.3185 23.4376 33.4755 22.9697 33.8159C23.223 34.4536 23.6694 34.9906 24.2305 35.3841C24.3714 35.4819 24.5191 35.5695 24.6721 35.6463C24.8255 35.7223 24.9847 35.787 25.1479 35.8393C25.4744 35.9436 25.816 35.9992 26.1583 36.0018C26.3294 36.0032 26.5005 35.991 26.6694 35.9653L26.7326 35.9557L26.7956 35.943L26.9213 35.917C27.0037 35.8944 27.0873 35.8758 27.1681 35.8472C27.25 35.8226 27.3293 35.7904 27.4092 35.7599C27.4488 35.7438 27.4874 35.7255 27.5267 35.7082C27.5462 35.6995 27.5659 35.6913 27.5851 35.6817L27.6425 35.6526C27.6803 35.6328 27.7196 35.615 27.7566 35.5932L27.8684 35.5299C27.9054 35.5082 27.9412 35.4847 27.9779 35.4621C28.0146 35.4401 28.0502 35.4158 28.0855 35.3915C28.2284 35.296 28.3648 35.1906 28.4972 35.0804C28.6302 34.9708 28.7584 34.8544 28.8841 34.7354C29.136 34.4978 29.376 34.2464 29.6211 33.9986C29.8659 33.7505 30.115 33.5044 30.3815 33.2761C30.5143 33.1614 30.6532 33.0532 30.7958 32.9501C30.9384 32.8469 31.0889 32.754 31.2425 32.6678C31.5512 32.498 31.8782 32.3624 32.2156 32.2618C32.5536 32.1635 32.9015 32.0982 33.2528 32.0742C33.9548 32.0273 34.6667 32.1211 35.3291 32.3596C35.9913 32.5972 36.6026 32.9732 37.1154 33.4547L37.1417 33.4793L37.1282 33.512C37.0553 33.6858 36.9745 33.8562 36.8845 34.0217C36.7924 34.1862 36.6933 34.3464 36.5846 34.5004C36.4744 34.6532 36.3578 34.8013 36.2327 34.9417C36.1065 35.0813 35.9746 35.2158 35.8349 35.3418C35.276 35.8461 34.6085 36.227 33.8927 36.4541C33.1768 36.6813 32.4133 36.757 31.6678 36.6694C30.9223 36.5838 30.1972 36.3304 29.5604 35.9351L29.5296 35.9162L29.557 35.893C29.871 35.6257 30.1582 35.3276 30.4504 35.0341C30.743 34.7417 31.0418 34.4509 31.38 34.2088C31.7166 33.9652 32.0939 33.7793 32.4895 33.6556C32.6875 33.5943 32.8899 33.5468 33.0946 33.5166C33.2991 33.4866 33.5064 33.4719 33.7131 33.4725Z" fill="white"/>
<path d="M33.7131 33.4725C33.5061 33.4745 33.2997 33.4917 33.0955 33.5245C32.8913 33.5573 32.6903 33.6073 32.494 33.6708C32.1018 33.7994 31.7282 33.9867 31.3967 34.232C31.0632 34.4755 30.7687 34.7676 30.4793 35.0626C30.1904 35.3584 29.9021 35.6435 29.5878 35.9162C30.2223 36.3001 30.939 36.5214 31.6754 36.6013C32.4113 36.6835 33.1641 36.6041 33.8675 36.3761C34.5712 36.1484 35.2255 35.7695 35.771 35.2714C36.3166 34.7736 36.7661 34.2139 37.0446 33.5304C36.5411 33.0597 35.9416 32.6927 35.293 32.4613C34.6443 32.229 33.9469 32.1386 33.261 32.1858C32.9176 32.2098 32.5779 32.2745 32.2478 32.3712C31.9183 32.47 31.5992 32.6031 31.2982 32.7695C31.1488 32.854 31.0028 32.9444 30.8633 33.0456C30.7241 33.1467 30.5882 33.2527 30.4578 33.366C30.196 33.5912 29.9498 33.8356 29.7061 34.0833C29.4621 34.3308 29.2198 34.582 28.9651 34.8222C28.8378 34.9423 28.7076 35.0598 28.5721 35.1714C28.4368 35.2836 28.2973 35.3909 28.1505 35.4887C28.114 35.5135 28.0776 35.5384 28.0398 35.561C28.0022 35.5842 27.9652 35.6082 27.9271 35.6302L27.8116 35.6952C27.7735 35.7175 27.7331 35.7356 27.6939 35.756L27.6346 35.7859C27.6148 35.7955 27.5942 35.804 27.5741 35.813C27.5335 35.8306 27.4937 35.8495 27.4527 35.8662C27.37 35.8978 27.2878 35.9309 27.2031 35.956C27.1195 35.9851 27.0328 36.0046 26.9475 36.0278L26.8174 36.0543L26.7521 36.0673L26.6863 36.0772C26.5113 36.1035 26.3342 36.1156 26.1572 36.1139C25.8033 36.1105 25.4506 36.0523 25.114 35.9441C24.9457 35.8899 24.7817 35.8229 24.6236 35.7441C24.4657 35.6644 24.3135 35.5737 24.1686 35.4729C23.5909 35.066 23.1329 34.4908 22.8731 33.8327L22.8584 33.7951L22.8909 33.7717C23.3763 33.4205 23.96 33.2179 24.5527 33.1654C25.1462 33.1128 25.7514 33.2123 26.2983 33.4451C26.5717 33.5621 26.8303 33.7121 27.0709 33.8861C27.311 34.061 27.5304 34.2627 27.7309 34.4809C28.1299 34.9197 28.4472 35.4277 28.689 35.9665C28.8107 36.2357 28.9126 36.5137 28.9968 36.7968C29.04 36.9381 29.0758 37.0814 29.11 37.2249C29.1416 37.369 29.1713 37.5139 29.1936 37.6597C29.2379 37.9513 29.2724 38.2437 29.2981 38.537C29.3127 38.6833 29.3223 38.8303 29.3342 38.9769C29.3435 39.1238 29.3548 39.2705 29.3622 39.4174C29.3952 40.0048 29.4138 40.5927 29.4198 41.181C29.4265 41.7689 29.42 42.3572 29.3975 42.9449C29.4051 42.651 29.4082 42.3569 29.4082 42.0631C29.4071 41.7692 29.4045 41.4751 29.398 41.1813C29.3862 40.5936 29.3619 40.0062 29.3232 39.4196C29.3144 39.273 29.3017 39.1266 29.291 38.98C29.2774 38.8337 29.2667 38.6873 29.2506 38.5412C29.2221 38.2491 29.1848 37.9575 29.1379 37.6685C29.0894 37.3797 29.0216 37.0943 28.9363 36.8144C28.8513 36.5344 28.7488 36.2597 28.6268 35.9939C28.3848 35.4621 28.068 34.9623 27.673 34.5331C27.4745 34.3198 27.2582 34.1229 27.0218 33.9531C26.7852 33.7838 26.5316 33.6389 26.2639 33.5262C25.7282 33.3021 25.1389 33.2092 24.5614 33.2637C23.9854 33.3185 23.4376 33.4755 22.9697 33.8159C23.223 34.4536 23.6694 34.9906 24.2305 35.3841C24.3714 35.4819 24.5191 35.5695 24.6721 35.6463C24.8255 35.7223 24.9847 35.787 25.1479 35.8393C25.4744 35.9436 25.816 35.9992 26.1583 36.0018C26.3294 36.0032 26.5005 35.991 26.6694 35.9653L26.7326 35.9557L26.7956 35.943L26.9213 35.917C27.0037 35.8944 27.0873 35.8758 27.1681 35.8472C27.25 35.8226 27.3293 35.7904 27.4092 35.7599C27.4488 35.7438 27.4874 35.7255 27.5267 35.7082C27.5462 35.6995 27.5659 35.6913 27.5851 35.6817L27.6425 35.6526C27.6803 35.6328 27.7196 35.615 27.7566 35.5932L27.8684 35.5299C27.9054 35.5082 27.9412 35.4847 27.9779 35.4621C28.0146 35.4401 28.0502 35.4158 28.0855 35.3915C28.2284 35.296 28.3648 35.1906 28.4972 35.0804C28.6302 34.9708 28.7584 34.8544 28.8841 34.7354C29.136 34.4978 29.376 34.2464 29.6211 33.9986C29.8659 33.7505 30.115 33.5044 30.3815 33.2761C30.5143 33.1614 30.6532 33.0532 30.7958 32.9501C30.9384 32.8469 31.0889 32.754 31.2425 32.6678C31.5512 32.498 31.8782 32.3624 32.2156 32.2618C32.5536 32.1635 32.9015 32.0982 33.2528 32.0742C33.9548 32.0273 34.6667 32.1211 35.3291 32.3596C35.9913 32.5972 36.6026 32.9732 37.1154 33.4547L37.1417 33.4793L37.1282 33.512C37.0553 33.6858 36.9745 33.8562 36.8845 34.0217C36.7924 34.1862 36.6933 34.3464 36.5846 34.5004C36.4744 34.6532 36.3578 34.8013 36.2327 34.9417C36.1065 35.0813 35.9746 35.2158 35.8349 35.3418C35.276 35.8461 34.6085 36.227 33.8927 36.4541C33.1768 36.6813 32.4133 36.757 31.6678 36.6694C30.9223 36.5838 30.1972 36.3304 29.5604 35.9351L29.5296 35.9162L29.557 35.893C29.871 35.6257 30.1582 35.3276 30.4504 35.0341C30.743 34.7417 31.0418 34.4509 31.38 34.2088C31.7166 33.9652 32.0939 33.7793 32.4895 33.6556C32.6875 33.5943 32.8899 33.5468 33.0946 33.5166C33.2991 33.4866 33.5064 33.4719 33.7131 33.4725Z" stroke="white" stroke-width="0.306818" mask="url(#path-14-outside-2_300_675)"/>
</g>
<g filter="url(#filter2_d_300_675)">
<circle cx="51" cy="28" r="9" fill="url(#paint3_linear_300_675)"/>
<mask id="path-16-outside-3_300_675" maskUnits="userSpaceOnUse" x="42.8584" y="23.0625" width="16" height="12" fill="black">
<rect fill="white" x="42.8584" y="23.0625" width="16" height="12"/>
<path d="M54.7131 25.4725C54.5061 25.4745 54.2997 25.4917 54.0955 25.5245C53.8913 25.5573 53.6903 25.6073 53.494 25.6708C53.1018 25.7994 52.7282 25.9867 52.3967 26.232C52.0632 26.4755 51.7687 26.7676 51.4793 27.0626C51.1904 27.3584 50.9021 27.6435 50.5878 27.9162C51.2223 28.3001 51.939 28.5214 52.6754 28.6013C53.4113 28.6835 54.1641 28.6041 54.8675 28.3761C55.5712 28.1484 56.2255 27.7695 56.771 27.2714C57.3166 26.7736 57.7661 26.2139 58.0446 25.5304C57.5411 25.0597 56.9416 24.6927 56.293 24.4613C55.6443 24.229 54.9469 24.1386 54.261 24.1858C53.9176 24.2098 53.5779 24.2745 53.2478 24.3712C52.9183 24.47 52.5992 24.6031 52.2982 24.7695C52.1488 24.854 52.0028 24.9444 51.8633 25.0456C51.7241 25.1467 51.5882 25.2527 51.4578 25.366C51.196 25.5912 50.9498 25.8356 50.7061 26.0833C50.4621 26.3308 50.2198 26.582 49.9651 26.8222C49.8378 26.9423 49.7076 27.0598 49.5721 27.1714C49.4368 27.2836 49.2973 27.3909 49.1505 27.4887C49.114 27.5135 49.0776 27.5384 49.0398 27.561C49.0022 27.5842 48.9652 27.6082 48.9271 27.6302L48.8116 27.6952C48.7735 27.7175 48.7331 27.7356 48.6939 27.756L48.6346 27.7859C48.6148 27.7955 48.5942 27.804 48.5741 27.813C48.5335 27.8306 48.4937 27.8495 48.4527 27.8662C48.37 27.8978 48.2878 27.9309 48.2031 27.956C48.1195 27.9851 48.0328 28.0046 47.9475 28.0278L47.8174 28.0543L47.7521 28.0673L47.6863 28.0772C47.5113 28.1035 47.3342 28.1156 47.1572 28.1139C46.8033 28.1105 46.4506 28.0523 46.114 27.9441C45.9457 27.8899 45.7817 27.8229 45.6236 27.7441C45.4657 27.6644 45.3135 27.5737 45.1686 27.4729C44.5909 27.066 44.1329 26.4908 43.8731 25.8327L43.8584 25.7951L43.8909 25.7717C44.3763 25.4205 44.96 25.2179 45.5527 25.1654C46.1462 25.1128 46.7514 25.2123 47.2983 25.4451C47.5717 25.5621 47.8303 25.7121 48.0709 25.8861C48.311 26.061 48.5304 26.2627 48.7309 26.4809C49.1299 26.9197 49.4472 27.4277 49.689 27.9665C49.8107 28.2357 49.9126 28.5137 49.9968 28.7968C50.04 28.9381 50.0758 29.0814 50.11 29.2249C50.1416 29.369 50.1713 29.5139 50.1936 29.6597C50.2379 29.9513 50.2724 30.2437 50.2981 30.537C50.3127 30.6833 50.3223 30.8303 50.3342 30.9769C50.3435 31.1238 50.3548 31.2705 50.3622 31.4174C50.3952 32.0048 50.4138 32.5927 50.4198 33.181C50.4265 33.7689 50.42 34.3572 50.3975 34.9449C50.4051 34.651 50.4082 34.3569 50.4082 34.0631C50.4071 33.7692 50.4045 33.4751 50.398 33.1813C50.3862 32.5936 50.3619 32.0062 50.3232 31.4196C50.3144 31.273 50.3017 31.1266 50.291 30.98C50.2774 30.8337 50.2667 30.6873 50.2506 30.5412C50.2221 30.2491 50.1848 29.9575 50.1379 29.6685C50.0894 29.3797 50.0216 29.0943 49.9363 28.8144C49.8513 28.5344 49.7488 28.2597 49.6268 27.9939C49.3848 27.4621 49.068 26.9623 48.673 26.5331C48.4745 26.3198 48.2582 26.1229 48.0218 25.9531C47.7852 25.7838 47.5316 25.6389 47.2639 25.5262C46.7282 25.3021 46.1389 25.2092 45.5614 25.2637C44.9854 25.3185 44.4376 25.4755 43.9697 25.8159C44.223 26.4536 44.6694 26.9906 45.2305 27.3841C45.3714 27.4819 45.5191 27.5695 45.6721 27.6463C45.8255 27.7223 45.9847 27.787 46.1479 27.8393C46.4744 27.9436 46.816 27.9992 47.1583 28.0018C47.3294 28.0032 47.5005 27.991 47.6694 27.9653L47.7326 27.9557L47.7956 27.943L47.9213 27.917C48.0037 27.8944 48.0873 27.8758 48.1681 27.8472C48.25 27.8226 48.3293 27.7904 48.4092 27.7599C48.4488 27.7438 48.4874 27.7255 48.5267 27.7082C48.5462 27.6995 48.5659 27.6913 48.5851 27.6817L48.6425 27.6526C48.6803 27.6328 48.7196 27.615 48.7566 27.5932L48.8684 27.5299C48.9054 27.5082 48.9412 27.4847 48.9779 27.4621C49.0146 27.4401 49.0502 27.4158 49.0855 27.3915C49.2284 27.296 49.3648 27.1906 49.4972 27.0804C49.6302 26.9708 49.7584 26.8544 49.8841 26.7354C50.136 26.4978 50.376 26.2464 50.6211 25.9986C50.8659 25.7505 51.115 25.5044 51.3815 25.2761C51.5143 25.1614 51.6532 25.0532 51.7958 24.9501C51.9384 24.8469 52.0889 24.754 52.2425 24.6678C52.5512 24.498 52.8782 24.3624 53.2156 24.2618C53.5536 24.1635 53.9015 24.0982 54.2528 24.0742C54.9548 24.0273 55.6667 24.1211 56.3291 24.3596C56.9913 24.5972 57.6026 24.9732 58.1154 25.4547L58.1417 25.4793L58.1282 25.512C58.0553 25.6858 57.9745 25.8562 57.8845 26.0217C57.7924 26.1862 57.6933 26.3464 57.5846 26.5004C57.4744 26.6532 57.3578 26.8013 57.2327 26.9417C57.1065 27.0813 56.9746 27.2158 56.8349 27.3418C56.276 27.8461 55.6085 28.227 54.8927 28.4541C54.1768 28.6813 53.4133 28.757 52.6678 28.6694C51.9223 28.5838 51.1972 28.3304 50.5604 27.9351L50.5296 27.9162L50.557 27.893C50.871 27.6257 51.1582 27.3276 51.4504 27.0341C51.743 26.7417 52.0418 26.4509 52.38 26.2088C52.7166 25.9652 53.0939 25.7793 53.4895 25.6556C53.6875 25.5943 53.8899 25.5468 54.0946 25.5166C54.2991 25.4866 54.5064 25.4719 54.7131 25.4725Z"/>
</mask>
<path d="M54.7131 25.4725C54.5061 25.4745 54.2997 25.4917 54.0955 25.5245C53.8913 25.5573 53.6903 25.6073 53.494 25.6708C53.1018 25.7994 52.7282 25.9867 52.3967 26.232C52.0632 26.4755 51.7687 26.7676 51.4793 27.0626C51.1904 27.3584 50.9021 27.6435 50.5878 27.9162C51.2223 28.3001 51.939 28.5214 52.6754 28.6013C53.4113 28.6835 54.1641 28.6041 54.8675 28.3761C55.5712 28.1484 56.2255 27.7695 56.771 27.2714C57.3166 26.7736 57.7661 26.2139 58.0446 25.5304C57.5411 25.0597 56.9416 24.6927 56.293 24.4613C55.6443 24.229 54.9469 24.1386 54.261 24.1858C53.9176 24.2098 53.5779 24.2745 53.2478 24.3712C52.9183 24.47 52.5992 24.6031 52.2982 24.7695C52.1488 24.854 52.0028 24.9444 51.8633 25.0456C51.7241 25.1467 51.5882 25.2527 51.4578 25.366C51.196 25.5912 50.9498 25.8356 50.7061 26.0833C50.4621 26.3308 50.2198 26.582 49.9651 26.8222C49.8378 26.9423 49.7076 27.0598 49.5721 27.1714C49.4368 27.2836 49.2973 27.3909 49.1505 27.4887C49.114 27.5135 49.0776 27.5384 49.0398 27.561C49.0022 27.5842 48.9652 27.6082 48.9271 27.6302L48.8116 27.6952C48.7735 27.7175 48.7331 27.7356 48.6939 27.756L48.6346 27.7859C48.6148 27.7955 48.5942 27.804 48.5741 27.813C48.5335 27.8306 48.4937 27.8495 48.4527 27.8662C48.37 27.8978 48.2878 27.9309 48.2031 27.956C48.1195 27.9851 48.0328 28.0046 47.9475 28.0278L47.8174 28.0543L47.7521 28.0673L47.6863 28.0772C47.5113 28.1035 47.3342 28.1156 47.1572 28.1139C46.8033 28.1105 46.4506 28.0523 46.114 27.9441C45.9457 27.8899 45.7817 27.8229 45.6236 27.7441C45.4657 27.6644 45.3135 27.5737 45.1686 27.4729C44.5909 27.066 44.1329 26.4908 43.8731 25.8327L43.8584 25.7951L43.8909 25.7717C44.3763 25.4205 44.96 25.2179 45.5527 25.1654C46.1462 25.1128 46.7514 25.2123 47.2983 25.4451C47.5717 25.5621 47.8303 25.7121 48.0709 25.8861C48.311 26.061 48.5304 26.2627 48.7309 26.4809C49.1299 26.9197 49.4472 27.4277 49.689 27.9665C49.8107 28.2357 49.9126 28.5137 49.9968 28.7968C50.04 28.9381 50.0758 29.0814 50.11 29.2249C50.1416 29.369 50.1713 29.5139 50.1936 29.6597C50.2379 29.9513 50.2724 30.2437 50.2981 30.537C50.3127 30.6833 50.3223 30.8303 50.3342 30.9769C50.3435 31.1238 50.3548 31.2705 50.3622 31.4174C50.3952 32.0048 50.4138 32.5927 50.4198 33.181C50.4265 33.7689 50.42 34.3572 50.3975 34.9449C50.4051 34.651 50.4082 34.3569 50.4082 34.0631C50.4071 33.7692 50.4045 33.4751 50.398 33.1813C50.3862 32.5936 50.3619 32.0062 50.3232 31.4196C50.3144 31.273 50.3017 31.1266 50.291 30.98C50.2774 30.8337 50.2667 30.6873 50.2506 30.5412C50.2221 30.2491 50.1848 29.9575 50.1379 29.6685C50.0894 29.3797 50.0216 29.0943 49.9363 28.8144C49.8513 28.5344 49.7488 28.2597 49.6268 27.9939C49.3848 27.4621 49.068 26.9623 48.673 26.5331C48.4745 26.3198 48.2582 26.1229 48.0218 25.9531C47.7852 25.7838 47.5316 25.6389 47.2639 25.5262C46.7282 25.3021 46.1389 25.2092 45.5614 25.2637C44.9854 25.3185 44.4376 25.4755 43.9697 25.8159C44.223 26.4536 44.6694 26.9906 45.2305 27.3841C45.3714 27.4819 45.5191 27.5695 45.6721 27.6463C45.8255 27.7223 45.9847 27.787 46.1479 27.8393C46.4744 27.9436 46.816 27.9992 47.1583 28.0018C47.3294 28.0032 47.5005 27.991 47.6694 27.9653L47.7326 27.9557L47.7956 27.943L47.9213 27.917C48.0037 27.8944 48.0873 27.8758 48.1681 27.8472C48.25 27.8226 48.3293 27.7904 48.4092 27.7599C48.4488 27.7438 48.4874 27.7255 48.5267 27.7082C48.5462 27.6995 48.5659 27.6913 48.5851 27.6817L48.6425 27.6526C48.6803 27.6328 48.7196 27.615 48.7566 27.5932L48.8684 27.5299C48.9054 27.5082 48.9412 27.4847 48.9779 27.4621C49.0146 27.4401 49.0502 27.4158 49.0855 27.3915C49.2284 27.296 49.3648 27.1906 49.4972 27.0804C49.6302 26.9708 49.7584 26.8544 49.8841 26.7354C50.136 26.4978 50.376 26.2464 50.6211 25.9986C50.8659 25.7505 51.115 25.5044 51.3815 25.2761C51.5143 25.1614 51.6532 25.0532 51.7958 24.9501C51.9384 24.8469 52.0889 24.754 52.2425 24.6678C52.5512 24.498 52.8782 24.3624 53.2156 24.2618C53.5536 24.1635 53.9015 24.0982 54.2528 24.0742C54.9548 24.0273 55.6667 24.1211 56.3291 24.3596C56.9913 24.5972 57.6026 24.9732 58.1154 25.4547L58.1417 25.4793L58.1282 25.512C58.0553 25.6858 57.9745 25.8562 57.8845 26.0217C57.7924 26.1862 57.6933 26.3464 57.5846 26.5004C57.4744 26.6532 57.3578 26.8013 57.2327 26.9417C57.1065 27.0813 56.9746 27.2158 56.8349 27.3418C56.276 27.8461 55.6085 28.227 54.8927 28.4541C54.1768 28.6813 53.4133 28.757 52.6678 28.6694C51.9223 28.5838 51.1972 28.3304 50.5604 27.9351L50.5296 27.9162L50.557 27.893C50.871 27.6257 51.1582 27.3276 51.4504 27.0341C51.743 26.7417 52.0418 26.4509 52.38 26.2088C52.7166 25.9652 53.0939 25.7793 53.4895 25.6556C53.6875 25.5943 53.8899 25.5468 54.0946 25.5166C54.2991 25.4866 54.5064 25.4719 54.7131 25.4725Z" fill="white"/>
<path d="M54.7131 25.4725C54.5061 25.4745 54.2997 25.4917 54.0955 25.5245C53.8913 25.5573 53.6903 25.6073 53.494 25.6708C53.1018 25.7994 52.7282 25.9867 52.3967 26.232C52.0632 26.4755 51.7687 26.7676 51.4793 27.0626C51.1904 27.3584 50.9021 27.6435 50.5878 27.9162C51.2223 28.3001 51.939 28.5214 52.6754 28.6013C53.4113 28.6835 54.1641 28.6041 54.8675 28.3761C55.5712 28.1484 56.2255 27.7695 56.771 27.2714C57.3166 26.7736 57.7661 26.2139 58.0446 25.5304C57.5411 25.0597 56.9416 24.6927 56.293 24.4613C55.6443 24.229 54.9469 24.1386 54.261 24.1858C53.9176 24.2098 53.5779 24.2745 53.2478 24.3712C52.9183 24.47 52.5992 24.6031 52.2982 24.7695C52.1488 24.854 52.0028 24.9444 51.8633 25.0456C51.7241 25.1467 51.5882 25.2527 51.4578 25.366C51.196 25.5912 50.9498 25.8356 50.7061 26.0833C50.4621 26.3308 50.2198 26.582 49.9651 26.8222C49.8378 26.9423 49.7076 27.0598 49.5721 27.1714C49.4368 27.2836 49.2973 27.3909 49.1505 27.4887C49.114 27.5135 49.0776 27.5384 49.0398 27.561C49.0022 27.5842 48.9652 27.6082 48.9271 27.6302L48.8116 27.6952C48.7735 27.7175 48.7331 27.7356 48.6939 27.756L48.6346 27.7859C48.6148 27.7955 48.5942 27.804 48.5741 27.813C48.5335 27.8306 48.4937 27.8495 48.4527 27.8662C48.37 27.8978 48.2878 27.9309 48.2031 27.956C48.1195 27.9851 48.0328 28.0046 47.9475 28.0278L47.8174 28.0543L47.7521 28.0673L47.6863 28.0772C47.5113 28.1035 47.3342 28.1156 47.1572 28.1139C46.8033 28.1105 46.4506 28.0523 46.114 27.9441C45.9457 27.8899 45.7817 27.8229 45.6236 27.7441C45.4657 27.6644 45.3135 27.5737 45.1686 27.4729C44.5909 27.066 44.1329 26.4908 43.8731 25.8327L43.8584 25.7951L43.8909 25.7717C44.3763 25.4205 44.96 25.2179 45.5527 25.1654C46.1462 25.1128 46.7514 25.2123 47.2983 25.4451C47.5717 25.5621 47.8303 25.7121 48.0709 25.8861C48.311 26.061 48.5304 26.2627 48.7309 26.4809C49.1299 26.9197 49.4472 27.4277 49.689 27.9665C49.8107 28.2357 49.9126 28.5137 49.9968 28.7968C50.04 28.9381 50.0758 29.0814 50.11 29.2249C50.1416 29.369 50.1713 29.5139 50.1936 29.6597C50.2379 29.9513 50.2724 30.2437 50.2981 30.537C50.3127 30.6833 50.3223 30.8303 50.3342 30.9769C50.3435 31.1238 50.3548 31.2705 50.3622 31.4174C50.3952 32.0048 50.4138 32.5927 50.4198 33.181C50.4265 33.7689 50.42 34.3572 50.3975 34.9449C50.4051 34.651 50.4082 34.3569 50.4082 34.0631C50.4071 33.7692 50.4045 33.4751 50.398 33.1813C50.3862 32.5936 50.3619 32.0062 50.3232 31.4196C50.3144 31.273 50.3017 31.1266 50.291 30.98C50.2774 30.8337 50.2667 30.6873 50.2506 30.5412C50.2221 30.2491 50.1848 29.9575 50.1379 29.6685C50.0894 29.3797 50.0216 29.0943 49.9363 28.8144C49.8513 28.5344 49.7488 28.2597 49.6268 27.9939C49.3848 27.4621 49.068 26.9623 48.673 26.5331C48.4745 26.3198 48.2582 26.1229 48.0218 25.9531C47.7852 25.7838 47.5316 25.6389 47.2639 25.5262C46.7282 25.3021 46.1389 25.2092 45.5614 25.2637C44.9854 25.3185 44.4376 25.4755 43.9697 25.8159C44.223 26.4536 44.6694 26.9906 45.2305 27.3841C45.3714 27.4819 45.5191 27.5695 45.6721 27.6463C45.8255 27.7223 45.9847 27.787 46.1479 27.8393C46.4744 27.9436 46.816 27.9992 47.1583 28.0018C47.3294 28.0032 47.5005 27.991 47.6694 27.9653L47.7326 27.9557L47.7956 27.943L47.9213 27.917C48.0037 27.8944 48.0873 27.8758 48.1681 27.8472C48.25 27.8226 48.3293 27.7904 48.4092 27.7599C48.4488 27.7438 48.4874 27.7255 48.5267 27.7082C48.5462 27.6995 48.5659 27.6913 48.5851 27.6817L48.6425 27.6526C48.6803 27.6328 48.7196 27.615 48.7566 27.5932L48.8684 27.5299C48.9054 27.5082 48.9412 27.4847 48.9779 27.4621C49.0146 27.4401 49.0502 27.4158 49.0855 27.3915C49.2284 27.296 49.3648 27.1906 49.4972 27.0804C49.6302 26.9708 49.7584 26.8544 49.8841 26.7354C50.136 26.4978 50.376 26.2464 50.6211 25.9986C50.8659 25.7505 51.115 25.5044 51.3815 25.2761C51.5143 25.1614 51.6532 25.0532 51.7958 24.9501C51.9384 24.8469 52.0889 24.754 52.2425 24.6678C52.5512 24.498 52.8782 24.3624 53.2156 24.2618C53.5536 24.1635 53.9015 24.0982 54.2528 24.0742C54.9548 24.0273 55.6667 24.1211 56.3291 24.3596C56.9913 24.5972 57.6026 24.9732 58.1154 25.4547L58.1417 25.4793L58.1282 25.512C58.0553 25.6858 57.9745 25.8562 57.8845 26.0217C57.7924 26.1862 57.6933 26.3464 57.5846 26.5004C57.4744 26.6532 57.3578 26.8013 57.2327 26.9417C57.1065 27.0813 56.9746 27.2158 56.8349 27.3418C56.276 27.8461 55.6085 28.227 54.8927 28.4541C54.1768 28.6813 53.4133 28.757 52.6678 28.6694C51.9223 28.5838 51.1972 28.3304 50.5604 27.9351L50.5296 27.9162L50.557 27.893C50.871 27.6257 51.1582 27.3276 51.4504 27.0341C51.743 26.7417 52.0418 26.4509 52.38 26.2088C52.7166 25.9652 53.0939 25.7793 53.4895 25.6556C53.6875 25.5943 53.8899 25.5468 54.0946 25.5166C54.2991 25.4866 54.5064 25.4719 54.7131 25.4725Z" stroke="white" stroke-width="0.306818" mask="url(#path-16-outside-3_300_675)"/>
</g>
</g>
<defs>
<filter id="filter0_d_300_675" x="-5.85714" y="30" width="31.7143" height="31.7143" filterUnits="userSpaceOnUse" color-interpolation-filters="sRGB">
<feFlood flood-opacity="0" result="BackgroundImageFix"/>
<feColorMatrix in="SourceAlpha" type="matrix" values="0 0 0 0 0 0 0 0 0 0 0 0 0 0 0 0 0 0 127 0" result="hardAlpha"/>
<feOffset dy="0.857143"/>
<feGaussianBlur stdDeviation="3.42857"/>
<feComposite in2="hardAlpha" operator="out"/>
<feColorMatrix type="matrix" values="0 0 0 0 0.104167 0 0 0 0 0.066116 0 0 0 0 0.030816 0 0 0 0.12 0"/>
<feBlend mode="normal" in2="BackgroundImageFix" result="effect1_dropShadow_300_675"/>
<feBlend mode="normal" in="SourceGraphic" in2="effect1_dropShadow_300_675" result="shape"/>
</filter>
<filter id="filter1_d_300_675" x="14.1429" y="21" width="31.7143" height="31.7143" filterUnits="userSpaceOnUse" color-interpolation-filters="sRGB">
<feFlood flood-opacity="0" result="BackgroundImageFix"/>
<feColorMatrix in="SourceAlpha" type="matrix" values="0 0 0 0 0 0 0 0 0 0 0 0 0 0 0 0 0 0 127 0" result="hardAlpha"/>
<feOffset dy="0.857143"/>
<feGaussianBlur stdDeviation="3.42857"/>
<feComposite in2="hardAlpha" operator="out"/>
<feColorMatrix type="matrix" values="0 0 0 0 0.104167 0 0 0 0 0.066116 0 0 0 0 0.030816 0 0 0 0.12 0"/>
<feBlend mode="normal" in2="BackgroundImageFix" result="effect1_dropShadow_300_675"/>
<feBlend mode="normal" in="SourceGraphic" in2="effect1_dropShadow_300_675" result="shape"/>
</filter>
<filter id="filter2_d_300_675" x="35.1429" y="13" width="31.7143" height="31.7143" filterUnits="userSpaceOnUse" color-interpolation-filters="sRGB">
<feFlood flood-opacity="0" result="BackgroundImageFix"/>
<feColorMatrix in="SourceAlpha" type="matrix" values="0 0 0 0 0 0 0 0 0 0 0 0 0 0 0 0 0 0 127 0" result="hardAlpha"/>
<feOffset dy="0.857143"/>
<feGaussianBlur stdDeviation="3.42857"/>
<feComposite in2="hardAlpha" operator="out"/>
<feColorMatrix type="matrix" values="0 0 0 0 0.104167 0 0 0 0 0.066116 0 0 0 0 0.030816 0 0 0 0.12 0"/>
<feBlend mode="normal" in2="BackgroundImageFix" result="effect1_dropShadow_300_675"/>
<feBlend mode="normal" in="SourceGraphic" in2="effect1_dropShadow_300_675" result="shape"/>
</filter>
<linearGradient id="paint0_linear_300_675" x1="3.47202e-07" y1="5.81557" x2="61.1954" y2="14.1798" gradientUnits="userSpaceOnUse">
<stop stop-color="#30C917"/>
<stop offset="1" stop-color="#279A13"/>
</linearGradient>
<linearGradient id="paint1_linear_300_675" x1="1" y1="39.375" x2="19.6076" y2="40.6906" gradientUnits="userSpaceOnUse">
<stop stop-color="#30C917"/>
<stop offset="1" stop-color="#279A13"/>
</linearGradient>
<linearGradient id="paint2_linear_300_675" x1="21" y1="30.375" x2="39.6076" y2="31.6906" gradientUnits="userSpaceOnUse">
<stop stop-color="#30C917"/>
<stop offset="1" stop-color="#279A13"/>
</linearGradient>
<linearGradient id="paint3_linear_300_675" x1="42" y1="22.375" x2="60.6076" y2="23.6906" gradientUnits="userSpaceOnUse">
<stop stop-color="#30C917"/>
<stop offset="1" stop-color="#279A13"/>
</linearGradient>
<clipPath id="clip0_300_675">
<rect width="60" height="60" fill="white"/>
</clipPath>
</defs>
</svg>
