<svg width="60" height="44" viewBox="0 0 60 44" fill="none" xmlns="http://www.w3.org/2000/svg">
<path d="M43.5488 18.6143V19.2934C43.5488 20.1255 43.683 20.9521 43.9461 21.7415L45.4843 26.3561H48.3875V15.7109H46.452C44.8487 15.7111 43.5488 17.0108 43.5488 18.6143Z" fill="#5A4146"/>
<path d="M56.7984 20.6234L55.1609 26.355L47.4189 19.5809C46.3499 19.5809 45.4834 18.7143 45.4834 17.6454C45.4834 16.042 46.7832 14.7422 48.3866 14.7422H55.1607C56.2297 14.7422 57.0962 15.6088 57.0962 16.6777V18.4966C57.0963 19.2158 56.996 19.9316 56.7984 20.6234Z" fill="#5A4146"/>
<path d="M53.2253 29.2578H47.4189V33.5409H53.2253V29.2578Z" fill="#E6AF78"/>
<path d="M47.4189 31.0354C48.3165 31.4001 49.2952 31.6054 50.3222 31.6054C51.3491 31.6054 52.3278 31.4001 53.2254 31.0354V29.2578H47.4189V31.0354Z" fill="#E6AF78"/>
<path d="M57.8946 32.9394L53.2258 31.6056L50.3229 33.532L47.4196 31.6055L42.7511 32.9394C41.5047 33.2955 40.6455 34.4347 40.6455 35.7309V42.8063C40.6455 43.3407 41.0787 43.774 41.6132 43.774H59.0326C59.5671 43.774 60.0003 43.3407 60.0003 42.8063V35.7309C60.0003 34.4346 59.141 33.2955 57.8946 32.9394Z" fill="#D5DCED"/>
<path d="M51.29 43.7759H49.3545L49.8384 33.543H50.8061L51.29 43.7759Z" fill="#AFB9D2"/>
<path d="M50.323 30.2271C47.1162 30.2271 44.5166 27.6274 44.5166 24.4207V23.2869C44.5166 22.7736 44.7205 22.2813 45.0834 21.9182L46.8383 20.1634C47.2099 19.7918 47.718 19.5781 48.2433 19.5946C51.3368 19.6923 54.075 20.355 55.5718 21.8169C55.9383 22.1748 56.1295 22.6754 56.1295 23.1875V24.4207C56.1295 27.6275 53.5298 30.2271 50.323 30.2271Z" fill="#F0C087"/>
<path d="M47.4198 23.527C47.4198 22.4107 48.3573 21.5233 49.4714 21.5943C51.425 21.719 54.324 22.0455 56.1026 22.901C56.0446 22.4927 55.8691 22.1073 55.5718 21.8169C54.075 20.355 51.3368 19.6923 48.2433 19.5946L48.2432 19.5948V19.5946C47.718 19.5781 47.2098 19.7919 46.8383 20.1634L45.0836 21.9181C44.7205 22.281 44.5166 22.7734 44.5166 23.2867V24.4205C44.5166 27.0685 46.2909 29.298 48.7143 29.9962C47.9077 29.001 47.4199 27.7378 47.4199 26.356L47.4198 23.527Z" fill="#F0C087"/>
<path d="M56.1289 38.6143C56.1289 37.8442 56.4348 37.1058 56.9792 36.5614L59.4703 34.0703C59.8032 34.5462 59.9998 35.1191 59.9998 35.7307V42.8061C59.9998 43.3405 59.5666 43.7738 59.0321 43.7738H56.1289V38.6143Z" fill="#C7CFE2"/>
<path d="M50.8061 35.4784H49.8384C49.5712 35.4784 49.3545 35.2618 49.3545 34.9946V33.543H51.29V34.9946C51.29 35.2618 51.0734 35.4784 50.8061 35.4784Z" fill="#959CB5"/>
<path d="M50.3221 33.5311L48.6818 34.7839C48.3993 34.9998 47.9908 34.9133 47.82 34.6013L46.3486 31.9142L46.9409 31.0108C47.0723 30.8105 47.3522 30.7763 47.5279 30.9392L50.3221 33.5311Z" fill="#C7CFE2"/>
<path d="M50.3223 33.531L51.9625 34.7839C52.2451 34.9998 52.6536 34.9133 52.8243 34.6013L54.2957 31.9142L53.7035 31.0108C53.5721 30.8104 53.2921 30.7763 53.1165 30.9392L50.3223 33.531Z" fill="#C7CFE2"/>
<path d="M17.3229 29.8221C16.4959 27.6309 15.84 23.8642 15.6983 21.903C15.4288 18.1711 12.6164 15.1289 8.81462 15.1289C5.01282 15.1289 2.20044 18.1712 1.93091 21.903C1.78923 23.8641 1.13333 27.6309 0.306338 29.8221C0.124112 30.3052 0.334463 30.8378 0.810127 31.0534C1.6963 31.455 3.58571 32.2418 5.86442 32.5482H11.7647C14.0327 32.2411 15.9354 31.4538 16.819 31.0534C17.2948 30.8378 17.5051 30.3052 17.3229 29.8221Z" fill="#5A4146"/>
<path d="M16.8187 31.0534C17.2943 30.8378 17.5047 30.3052 17.3224 29.8221C16.4955 27.6309 15.8395 23.8642 15.6979 21.903C15.4285 18.1711 12.616 15.1289 8.81433 15.1289C8.80472 15.1289 8.79523 15.1289 8.78562 15.129C5.86847 15.1409 4.83758 19.1193 7.34879 20.6037C7.49961 20.6929 7.59629 20.7357 7.59629 20.7357L9.79578 32.5482H11.7644C14.0325 32.2409 15.9351 31.4537 16.8187 31.0534Z" fill="#5A4146"/>
<path d="M15.8145 34.4934L12.6827 32.9276C12.027 32.5997 11.6127 31.9294 11.6128 31.1963L11.613 28.293H5.80641V31.1964C5.80641 31.9295 5.39227 32.5996 4.73648 32.9275L1.60477 34.4934C0.621211 34.9851 0 35.9903 0 37.0899V42.8089C0 43.3432 0.433242 43.7766 0.967734 43.7766H16.4516C16.9861 43.7766 17.4193 43.3432 17.4193 42.8089V37.09C17.4193 35.9903 16.798 34.9851 15.8145 34.4934Z" fill="#E6AF78"/>
<path d="M8.70949 32.1639C9.75152 32.1639 10.7496 31.9491 11.6646 31.5667C11.6406 31.4447 11.6126 31.3234 11.6126 31.1963L11.6128 28.293H5.80617V31.1964C5.80617 31.3243 5.77816 31.4461 5.75391 31.5686C6.66949 31.949 7.66711 32.1639 8.70949 32.1639Z" fill="#E6AF78"/>
<path d="M15.8145 34.4906L13.5834 33.3751C12.5489 34.9726 10.7546 36.0321 8.70973 36.0321C6.6648 36.0321 4.87043 34.9726 3.8359 33.375L1.60488 34.4906C0.621328 34.9823 0 35.9876 0 37.0871V42.8061C0 43.3406 0.433242 43.7739 0.967734 43.7739H16.4516C16.9861 43.7739 17.4193 43.3406 17.4193 42.8061V37.0873C17.4193 35.9876 16.798 34.9823 15.8145 34.4906Z" fill="#D5DCED"/>
<path d="M8.70922 30.2257C5.75703 30.2257 3.31953 28.0226 2.95098 25.1708C2.89754 24.7576 3.09617 24.3525 3.46812 24.1649C3.91367 23.9401 4.56113 23.5611 5.18105 23.008C5.8714 22.3921 6.2764 21.7425 6.50515 21.2657C6.70215 20.855 7.15496 20.6228 7.59629 20.7354C11.0036 21.6044 13.3234 23.3771 14.165 24.1009C14.3909 24.2952 14.5211 24.5817 14.4979 24.8789C14.2634 27.8707 11.7614 30.2257 8.70922 30.2257Z" fill="#F0C087"/>
<path d="M14.1658 24.1009C13.3243 23.3771 11.0045 21.6044 7.59712 20.7354C7.15579 20.6228 6.70298 20.855 6.50598 21.2657C6.33278 21.6268 6.04649 22.0869 5.62169 22.5566C5.62157 22.5578 5.62122 22.5587 5.6211 22.5599C5.48927 22.7093 5.34887 22.8591 5.182 23.0081C4.56208 23.5614 3.91462 23.9402 3.46907 24.165C3.09712 24.3526 2.8986 24.7578 2.95192 25.171C3.28298 27.7322 5.28712 29.7708 7.82985 30.1596C6.67122 29.3714 5.80696 28.2874 5.80696 26.355V24.975C6.0268 24.8127 6.24817 24.6509 6.47059 24.4523C7.00848 23.9723 7.47806 23.4172 7.85458 22.8196C10.4612 23.633 12.2284 24.9878 12.8983 25.5639C13.0817 25.7246 13.5369 26.1442 14.0694 26.6437C14.2985 26.0924 14.45 25.5008 14.4986 24.8791C14.522 24.5818 14.3918 24.2953 14.1658 24.1009Z" fill="#F0C087"/>
<path d="M0.589922 35.3438C0.217148 35.8385 0 36.4454 0 37.0882V42.8072C0 43.3417 0.433242 43.7749 0.967734 43.7749H3.87094V38.8987C3.87094 38.3108 3.60363 37.7546 3.14449 37.3874L0.589922 35.3438Z" fill="#C7CFE2"/>
<path d="M43.9039 33.171L35.8068 30.2266L30.0004 32.1622L24.194 30.2267L16.097 33.1711C14.5672 33.7274 13.5488 35.1813 13.5488 36.809V42.8073C13.5488 43.3417 13.9821 43.7751 14.5166 43.7751H45.4843C46.0188 43.7751 46.452 43.3417 46.452 42.8073V36.809C46.452 35.1811 45.4338 33.7273 43.9039 33.171Z" fill="url(#paint0_linear_300_708)"/>
<path d="M43.9039 33.171L35.8068 30.2266L30.0004 32.1622L24.194 30.2267L16.097 33.1711C14.5672 33.7274 13.5488 35.1813 13.5488 36.809V42.8073C13.5488 43.3417 13.9821 43.7751 14.5166 43.7751H45.4843C46.0188 43.7751 46.452 43.3417 46.452 42.8073V36.809C46.452 35.1811 45.4338 33.7273 43.9039 33.171Z" fill="white" fill-opacity="0.2"/>
<path d="M28.9861 34.0977L28.0645 43.7749H31.9354L31.0137 34.0977H28.9861Z" fill="#707487"/>
<path d="M31.0161 35.4252H28.9841C28.6099 35.4252 28.3066 35.122 28.3066 34.7478V32.1602H31.6935V34.7478C31.6936 35.1218 31.3903 35.4252 31.0161 35.4252Z" fill="#5B5D6E"/>
<path d="M45.4102 34.1719C46.0637 34.8732 46.4519 35.8073 46.4519 36.8093V42.8077C46.4519 43.3421 46.0187 43.7754 45.4842 43.7754H40.6455V40.5401C40.6455 39.5134 41.0533 38.5288 41.7793 37.8029L45.4102 34.1719Z" fill="url(#paint1_linear_300_708)"/>
<path d="M40.6449 10.2691V2.16203C40.6449 1.09305 39.7783 0.226562 38.7094 0.226562H27.0965C22.8208 0.226562 19.3545 3.69273 19.3545 7.96855V10.2691C19.3545 11.3092 19.5222 12.3426 19.8511 13.3293L20.1733 14.2957C20.272 14.5918 20.3222 14.9017 20.3222 15.2138V15.7104H39.677V15.2138C39.677 14.9017 39.7273 14.5918 39.826 14.2957L40.1481 13.3293C40.4772 12.3425 40.6449 11.3091 40.6449 10.2691Z" fill="#5A4146"/>
<path d="M24.1934 4.15797C24.1934 6.32922 25.9535 8.08938 28.1248 8.08938H28.6691L28.9318 15.7103H39.6771V15.2137C39.6771 14.9016 39.7274 14.5916 39.8261 14.2956L40.1482 13.3292C40.4771 12.3425 40.6448 11.3091 40.6448 10.2689V2.16203C40.6448 1.09305 39.7782 0.226562 38.7094 0.226562H28.1248C25.9535 0.226562 24.1934 1.98672 24.1934 4.15797Z" fill="#5A4146"/>
<path d="M35.8066 23.4531H24.1934V32.1625H35.8066V23.4531Z" fill="#E6AF78"/>
<path d="M24.1935 26.7255C25.903 27.7158 27.8822 28.2918 29.9999 28.2918C32.1176 28.2918 34.0969 27.7158 35.8063 26.7255V23.4531H24.1934L24.1935 26.7255Z" fill="#E6AF78"/>
<path d="M29.9997 32.164L26.9132 35.2505C26.4984 35.6653 25.8127 35.6186 25.4581 35.1512L22.2578 30.9343L23.0949 29.1703C23.3419 28.6498 23.9862 28.459 24.4768 28.7613L29.9997 32.164Z" fill="url(#paint2_linear_300_708)"/>
<path d="M30 32.164L33.0865 35.2505C33.5013 35.6653 34.187 35.6186 34.5416 35.1512L37.7419 30.9343L36.9048 29.1703C36.6578 28.6498 36.0135 28.459 35.5229 28.7613L30 32.164Z" fill="url(#paint3_linear_300_708)"/>
<path d="M29.9997 26.3535C24.655 26.3535 20.3223 22.0207 20.3223 16.676V15.5422C20.3223 15.0289 20.5262 14.5366 20.8891 14.1736L21.6908 13.3719C22.0537 13.009 22.2576 12.5167 22.2576 12.0033V9.68344C22.2576 9.23531 22.5586 8.84601 22.9946 8.74301C25.2834 8.20242 32.4057 6.92191 37.2527 10.4868C37.5675 10.7182 37.7415 11.0985 37.7415 11.4892V12.0033C37.7415 12.5166 37.9454 13.0089 38.3083 13.3719L39.11 14.1736C39.4729 14.5365 39.6768 15.0288 39.6768 15.5422V16.676C39.6772 22.0207 35.3444 26.3535 29.9997 26.3535Z" fill="#F0C087"/>
<path d="M37.2528 10.489C33.8438 7.98181 29.3156 7.8733 26.1288 8.21654C24.7845 8.36127 23.6738 8.58498 22.9948 8.74529C22.5588 8.8483 22.2579 9.23759 22.2579 9.68572V12.0054C22.2579 12.5188 22.0539 13.0111 21.6909 13.3742L20.8892 14.1759C20.5262 14.5389 20.3223 15.0312 20.3223 15.5446V16.6783C20.3223 21.6264 24.0383 25.7 28.8303 26.2783C27.1605 24.5394 26.1287 22.1828 26.1287 19.5815V12.5079C26.1287 11.5272 26.8579 10.7076 27.8309 10.5856C30.1534 10.2944 34.407 10.1193 37.7415 12.0057V11.4915C37.7417 11.1008 37.5673 10.7204 37.2528 10.489Z" fill="#F0C087"/>
<path d="M14.5905 34.1719C13.9371 34.8732 13.5488 35.8073 13.5488 36.8093V42.8077C13.5488 43.3421 13.9821 43.7754 14.5166 43.7754H19.3552V40.5401C19.3552 39.5134 18.9474 38.5288 18.2214 37.8029L14.5905 34.1719Z" fill="url(#paint4_linear_300_708)"/>
<defs>
<linearGradient id="paint0_linear_300_708" x1="13.5488" y1="32.7669" x2="46.7539" y2="38.4682" gradientUnits="userSpaceOnUse">
<stop stop-color="#30C917"/>
<stop offset="1" stop-color="#279A13"/>
</linearGradient>
<linearGradient id="paint1_linear_300_708" x1="40.6455" y1="35.9725" x2="46.6669" y2="36.2299" gradientUnits="userSpaceOnUse">
<stop stop-color="#30C917"/>
<stop offset="1" stop-color="#279A13"/>
</linearGradient>
<linearGradient id="paint2_linear_300_708" x1="22.2578" y1="29.9141" x2="30.251" y2="30.5466" gradientUnits="userSpaceOnUse">
<stop stop-color="#30C917"/>
<stop offset="1" stop-color="#279A13"/>
</linearGradient>
<linearGradient id="paint3_linear_300_708" x1="30" y1="29.9141" x2="37.9932" y2="30.5466" gradientUnits="userSpaceOnUse">
<stop stop-color="#30C917"/>
<stop offset="1" stop-color="#279A13"/>
</linearGradient>
<linearGradient id="paint4_linear_300_708" x1="13.5488" y1="35.9725" x2="19.5702" y2="36.2299" gradientUnits="userSpaceOnUse">
<stop stop-color="#30C917"/>
<stop offset="1" stop-color="#279A13"/>
</linearGradient>
</defs>
</svg>
