<svg width="60" height="60" viewBox="0 0 60 60" fill="none" xmlns="http://www.w3.org/2000/svg">
<path d="M31.3646 59.9995H1.36457C0.546484 59.9995 0.000976562 59.428 0.000976562 58.5709V55.7137C0.000976562 54.8565 0.546484 54.2852 1.36457 54.2852H31.3646C32.1828 54.2852 32.7282 54.8566 32.7282 55.7137V58.5709C32.7283 59.428 32.1828 59.9995 31.3646 59.9995Z" fill="#F6B545"/>
<path d="M25.9101 55.7137H0.000976562C0.000976562 54.8565 0.546484 54.2852 1.36457 54.2852H25.9101V55.7137Z" fill="#FFCB5B"/>
<path d="M25.9101 55.715V57.1435C25.9101 58.0007 25.3646 58.572 24.5465 58.572H0.000976562C0.000976562 59.4292 0.546484 60.0005 1.36457 60.0005H24.5464H31.3646C32.1828 60.0005 32.7282 59.4291 32.7282 58.572V55.7148H25.9101V55.715Z" fill="#F19920"/>
<path d="M4.09113 58.572V56.4291C4.09113 56.0005 3.81844 55.7148 3.40934 55.7148C3.00023 55.7148 2.72754 56.0005 2.72754 56.4291V58.572" fill="#F19920"/>
<path d="M8.18195 58.572V56.4291C8.18195 56.0005 7.90926 55.7148 7.50016 55.7148C7.09105 55.7148 6.81836 56.0005 6.81836 56.4291V58.572" fill="#F19920"/>
<path d="M12.2737 58.572V56.4291C12.2737 56.0005 12.0011 55.7148 11.592 55.7148C11.1829 55.7148 10.9102 56.0005 10.9102 56.4291V58.572" fill="#F19920"/>
<path d="M16.3646 58.572V56.4291C16.3646 56.0005 16.0919 55.7148 15.6828 55.7148C15.2737 55.7148 15.001 56.0005 15.001 56.4291V58.572" fill="#F19920"/>
<path d="M20.4554 58.572V56.4291C20.4554 56.0005 20.1827 55.7148 19.7736 55.7148C19.3645 55.7148 19.0918 56.0005 19.0918 56.4291V58.572" fill="#F19920"/>
<path d="M24.5462 58.572V56.4291C24.5462 56.0005 24.2735 55.7148 23.8644 55.7148C23.4553 55.7148 23.1826 56.0005 23.1826 56.4291V58.572" fill="#F19920"/>
<path d="M34.0921 54.2845H4.09211C3.27391 54.2845 2.72852 53.713 2.72852 52.856V49.9988C2.72852 49.1417 3.27402 48.5703 4.09211 48.5703H34.0921C34.9103 48.5703 35.4557 49.1418 35.4557 49.9988V52.856C35.4557 53.7132 34.9103 54.2845 34.0921 54.2845Z" fill="#F6B545"/>
<path d="M28.6376 49.9988H2.72852C2.72852 49.1417 3.27402 48.5703 4.09211 48.5703H28.6376V49.9988Z" fill="#FFCB5B"/>
<path d="M28.6376 50.0001V51.4287C28.6376 52.2858 28.0921 52.8572 27.274 52.8572H2.72852C2.72852 53.7143 3.27402 54.2857 4.09211 54.2857H27.2739H34.0921C34.9103 54.2857 35.4557 53.7142 35.4557 52.8572V50H28.6376V50.0001Z" fill="#F19920"/>
<path d="M6.81867 52.8572V50.7143C6.81867 50.2857 6.54598 50 6.13687 50C5.72777 50 5.45508 50.2857 5.45508 50.7143V52.8572" fill="#F19920"/>
<path d="M10.9105 52.8572V50.7143C10.9105 50.2857 10.6378 50 10.2287 50C9.81957 50 9.54688 50.2857 9.54688 50.7143V52.8572" fill="#F19920"/>
<path d="M15.0013 52.8572V50.7143C15.0013 50.2857 14.7286 50 14.3195 50C13.9104 50 13.6377 50.2857 13.6377 50.7143V52.8572" fill="#F19920"/>
<path d="M19.0921 52.8572V50.7143C19.0921 50.2857 18.8194 50 18.4103 50C18.0012 50 17.7285 50.2857 17.7285 50.7143V52.8572" fill="#F19920"/>
<path d="M23.1829 52.8572V50.7143C23.1829 50.2857 22.9102 50 22.5011 50C22.092 50 21.8193 50.2857 21.8193 50.7143V52.8572" fill="#F19920"/>
<path d="M27.2738 52.8572V50.7143C27.2738 50.2857 27.0011 50 26.592 50C26.1829 50 25.9102 50.2857 25.9102 50.7143V52.8572" fill="#F19920"/>
<path d="M36.8197 42.8548H6.81965C6.00145 42.8548 5.45605 42.2834 5.45605 41.4263V38.5691C5.45605 37.712 6.00156 37.1406 6.81965 37.1406H36.8197C37.6379 37.1406 38.1832 37.7121 38.1832 38.5691V41.4263C38.1832 42.2835 37.6379 42.8548 36.8197 42.8548Z" fill="#F6B545"/>
<path d="M31.3652 38.5691H5.45605C5.45605 37.712 6.00156 37.1406 6.81965 37.1406H31.3652V38.5691Z" fill="#FFCB5B"/>
<path d="M31.3642 38.5704V39.999C31.3642 40.8561 30.8187 41.4275 30.0006 41.4275H5.45508C5.45508 42.2846 6.00059 42.856 6.81867 42.856H30.0006H36.8188C37.637 42.856 38.1824 42.2845 38.1824 41.4275V38.5703H31.3642V38.5704Z" fill="#F19920"/>
<path d="M9.54523 41.4275V39.2846C9.54523 38.856 9.27254 38.5703 8.86344 38.5703C8.45434 38.5703 8.18164 38.856 8.18164 39.2846V41.4275" fill="#F19920"/>
<path d="M13.637 41.4275V39.2846C13.637 38.856 13.3643 38.5703 12.9552 38.5703C12.5461 38.5703 12.2734 38.856 12.2734 39.2846V41.4275" fill="#F19920"/>
<path d="M17.7279 41.4275V39.2846C17.7279 38.856 17.4552 38.5703 17.0461 38.5703C16.637 38.5703 16.3643 38.856 16.3643 39.2846V41.4275" fill="#F19920"/>
<path d="M21.8187 41.4275V39.2846C21.8187 38.856 21.546 38.5703 21.1369 38.5703C20.7278 38.5703 20.4551 38.856 20.4551 39.2846V41.4275" fill="#F19920"/>
<path d="M25.9095 41.4275V39.2846C25.9095 38.856 25.6368 38.5703 25.2277 38.5703C24.8186 38.5703 24.5459 38.856 24.5459 39.2846V41.4275" fill="#F19920"/>
<path d="M30.0003 41.4275V39.2846C30.0003 38.856 29.7276 38.5703 29.3185 38.5703C28.9094 38.5703 28.6367 38.856 28.6367 39.2846V41.4275" fill="#F19920"/>
<path d="M34.0921 37.1439H4.09211C3.27391 37.1439 2.72852 36.5724 2.72852 35.7154V32.8582C2.72852 32.0011 3.27402 31.4297 4.09211 31.4297H34.0921C34.9103 31.4297 35.4557 32.0012 35.4557 32.8582V35.7154C35.4557 36.5724 34.9103 37.1439 34.0921 37.1439Z" fill="#F6B545"/>
<path d="M28.6376 32.8582H2.72852C2.72852 32.0011 3.27402 31.4297 4.09211 31.4297H28.6376V32.8582Z" fill="#FFCB5B"/>
<path d="M28.6376 32.8556V34.2841C28.6376 35.1413 28.0921 35.7126 27.274 35.7126H2.72852C2.72852 36.5698 3.27402 37.1412 4.09211 37.1412H27.2739H34.0921C34.9103 37.1412 35.4557 36.5697 35.4557 35.7126V32.8555H28.6376V32.8556Z" fill="#F19920"/>
<path d="M6.81867 35.7126V33.5697C6.81867 33.1411 6.54598 32.8555 6.13687 32.8555C5.72777 32.8555 5.45508 33.1411 5.45508 33.5697V35.7126" fill="#F19920"/>
<path d="M10.9095 35.7126V33.5697C10.9095 33.1411 10.6368 32.8555 10.2277 32.8555C9.81859 32.8555 9.5459 33.1411 9.5459 33.5697V35.7126" fill="#F19920"/>
<path d="M15.0013 35.7126V33.5697C15.0013 33.1411 14.7286 32.8555 14.3195 32.8555C13.9104 32.8555 13.6377 33.1411 13.6377 33.5697V35.7126" fill="#F19920"/>
<path d="M19.0921 35.7126V33.5697C19.0921 33.1411 18.8194 32.8555 18.4103 32.8555C18.0012 32.8555 17.7285 33.1411 17.7285 33.5697V35.7126" fill="#F19920"/>
<path d="M23.1829 35.7126V33.5697C23.1829 33.1411 22.9102 32.8555 22.5011 32.8555C22.092 32.8555 21.8193 33.1411 21.8193 33.5697V35.7126" fill="#F19920"/>
<path d="M27.2738 35.7126V33.5697C27.2738 33.1411 27.0011 32.8555 26.592 32.8555C26.1829 32.8555 25.9102 33.1411 25.9102 33.5697V35.7126" fill="#F19920"/>
<path d="M31.3646 48.5698H1.36457C0.546484 48.5698 0.000976562 47.9983 0.000976562 47.1412V44.284C0.000976562 43.4268 0.546484 42.8555 1.36457 42.8555H31.3646C32.1828 42.8555 32.7282 43.427 32.7282 44.284V47.1412C32.7283 47.9983 32.1828 48.5698 31.3646 48.5698Z" fill="#F6B545"/>
<path d="M25.9101 44.2879H0.000976562C0.000976562 43.4307 0.546484 42.8594 1.36457 42.8594H25.9101V44.2879Z" fill="#FFCB5B"/>
<path d="M25.9101 44.2853V45.7138C25.9101 46.571 25.3646 47.1423 24.5465 47.1423H0.000976562C0.000976562 47.9995 0.546484 48.5709 1.36457 48.5709H24.5464H31.3646C32.1828 48.5709 32.7282 47.9994 32.7282 47.1423V44.2852H25.9101V44.2853Z" fill="#F19920"/>
<path d="M4.09113 47.1423V44.9994C4.09113 44.5708 3.81844 44.2852 3.40934 44.2852C3.00023 44.2852 2.72754 44.5708 2.72754 44.9994V47.1423" fill="#F19920"/>
<path d="M8.18293 47.1423V44.9994C8.18293 44.5708 7.91023 44.2852 7.50113 44.2852C7.09203 44.2852 6.81934 44.5708 6.81934 44.9994V47.1423" fill="#F19920"/>
<path d="M12.2728 47.1423V44.9994C12.2728 44.5708 12.0001 44.2852 11.591 44.2852C11.1819 44.2852 10.9092 44.5708 10.9092 44.9994V47.1423" fill="#F19920"/>
<path d="M16.3646 47.1423V44.9994C16.3646 44.5708 16.0919 44.2852 15.6828 44.2852C15.2737 44.2852 15.001 44.5708 15.001 44.9994V47.1423" fill="#F19920"/>
<path d="M20.4554 47.1423V44.9994C20.4554 44.5708 20.1827 44.2852 19.7736 44.2852C19.3645 44.2852 19.0918 44.5708 19.0918 44.9994V47.1423" fill="#F19920"/>
<path d="M24.5462 47.1423V44.9994C24.5462 44.5708 24.2735 44.2852 23.8644 44.2852C23.4553 44.2852 23.1826 44.5708 23.1826 44.9994V47.1423" fill="#F19920"/>
<path d="M57.2736 50.7142C55.5009 49.4285 54.5463 47.2857 54.5463 45C54.5463 36.2857 51.2736 28 45.4099 21.8572L39.5463 15.7144V11.4287L44.319 5.14298C44.7282 4.5715 45.0009 3.85724 45.0009 3.14285C45.0009 1.42852 43.6373 0 42.0009 0H36.8191L35.4555 2.85717L32.7282 0H26.1827C24.5463 0 23.1827 1.42852 23.1827 3.14285C23.1827 3.85711 23.4554 4.57138 23.8645 5.14286L28.6372 11.4286V15.7143L22.7736 21.8571C16.91 27.9999 13.6372 36.2856 13.6372 44.9999C13.6372 47.2856 12.6827 49.4285 10.9099 50.7141C9.13711 51.9997 8.18262 54.1426 8.18262 56.4283C8.18262 58.4283 9.68262 59.9997 11.5917 59.9997H56.5917C58.5008 59.9997 60.0008 58.4283 60.0008 56.4283C60.0009 54.1429 59.0464 52 57.2736 50.7142Z" fill="#C97629"/>
<path d="M40.2295 15.7155H27.9566C26.8657 15.7155 25.9111 14.7156 25.9111 13.5726C25.9111 12.4298 26.8656 11.4297 27.9566 11.4297H40.2293C41.3202 11.4297 42.2748 12.4296 42.2748 13.5726C42.2748 14.7156 41.3204 15.7155 40.2295 15.7155Z" fill="#FFCB5B"/>
<path d="M27.9562 11.4297H34.7744C35.1835 11.4297 35.4562 11.7154 35.4562 12.1439C35.4562 12.5725 35.1835 12.8582 34.7744 12.8582H27.9562C27.5471 12.8582 27.2744 12.5725 27.2744 12.1439C27.2744 11.7155 27.5472 11.4297 27.9562 11.4297Z" fill="#FFE278"/>
<path d="M40.2287 11.4297H39.5469V12.8582C39.5469 13.7154 39.0014 14.2867 38.1833 14.2867H26.0469C26.3196 15.1439 27.1378 15.7153 27.956 15.7153H40.2287C41.3196 15.7153 42.2742 14.7153 42.2742 13.5724C42.2742 12.4294 41.3196 11.4297 40.2287 11.4297Z" fill="#F6B545"/>
<path d="M36.1379 14.2852H40.2288C40.6379 14.2852 40.9105 14.5708 40.9105 14.9994C40.9105 15.428 40.6379 15.7137 40.2288 15.7137H36.1379C35.7288 15.7137 35.4561 15.428 35.4561 14.9994C35.4559 14.5708 35.7288 14.2852 36.1379 14.2852Z" fill="#F19920"/>
<path d="M42.4104 29.8555C44.0468 31.8555 45.0013 34.2841 45.0013 37.1412C45.0013 43.4269 40.0922 48.5698 34.0922 48.5698C31.3649 48.5698 29.0467 47.5699 27.1377 45.8555C29.1832 48.4269 32.1832 49.9983 35.4559 49.9983C41.4559 49.9983 46.365 44.8555 46.365 38.5698C46.3649 34.9983 44.8649 31.8555 42.4104 29.8555Z" fill="#B06328"/>
<ellipse cx="34.4551" cy="37.1992" rx="10.6641" ry="11.1719" fill="url(#paint0_linear_300_610)"/>
<mask id="path-53-outside-1_300_610" maskUnits="userSpaceOnUse" x="24.9932" y="31.3125" width="19" height="15" fill="black">
<rect fill="white" x="24.9932" y="31.3125" width="19" height="15"/>
<path d="M38.8548 34.0627C38.6096 34.0652 38.365 34.0866 38.1231 34.1273C37.8812 34.168 37.6429 34.23 37.4104 34.309C36.9456 34.4685 36.503 34.7011 36.1102 35.0055C35.715 35.3078 35.366 35.6704 35.0231 36.0366C34.6808 36.4038 34.3392 36.7577 33.9668 37.0961C34.7186 37.5728 35.5678 37.8474 36.4404 37.9466C37.3124 38.0487 38.2044 37.9501 39.0378 37.6671C39.8716 37.3844 40.6469 36.9141 41.2933 36.2958C41.9397 35.6778 42.4724 34.983 42.8023 34.1346C42.2057 33.5503 41.4954 33.0948 40.7268 32.8075C39.9583 32.5192 39.1319 32.407 38.3191 32.4656C37.9123 32.4954 37.5098 32.5757 37.1186 32.6956C36.7282 32.8184 36.3501 32.9836 35.9934 33.1902C35.8164 33.295 35.6434 33.4073 35.4781 33.5328C35.3132 33.6584 35.1522 33.7899 34.9977 33.9305C34.6875 34.21 34.3957 34.5134 34.107 34.821C33.8179 35.1282 33.5308 35.44 33.229 35.7381C33.0781 35.8872 32.9239 36.0331 32.7633 36.1716C32.603 36.3109 32.4377 36.4441 32.2637 36.5655C32.2206 36.5963 32.1774 36.6272 32.1326 36.6553C32.0881 36.684 32.0442 36.7138 31.9991 36.7412L31.8622 36.8219C31.817 36.8496 31.7692 36.872 31.7227 36.8973L31.6524 36.9344C31.629 36.9464 31.6046 36.9569 31.5808 36.9681C31.5326 36.9899 31.4855 37.0134 31.4369 37.034C31.3389 37.0733 31.2415 37.1144 31.1412 37.1456C31.0421 37.1817 30.9394 37.2059 30.8384 37.2347L30.6841 37.2676L30.6068 37.2838L30.5289 37.296C30.3214 37.3287 30.1116 37.3437 29.9018 37.3416C29.4826 37.3374 29.0647 37.2652 28.6659 37.1308C28.4665 37.0635 28.2721 36.9804 28.0847 36.8825C27.8977 36.7836 27.7173 36.6711 27.5457 36.5458C26.8611 36.0408 26.3184 35.3267 26.0106 34.5099L25.9932 34.4633L26.0316 34.4342C26.6068 33.9982 27.2984 33.7467 28.0007 33.6815C28.704 33.6163 29.421 33.7397 30.0691 34.0287C30.393 34.1739 30.6995 34.3602 30.9846 34.5762C31.269 34.7933 31.529 35.0437 31.7665 35.3145C32.2393 35.8591 32.6154 36.4897 32.9018 37.1586C33.046 37.4928 33.1668 37.8379 33.2665 38.1893C33.3177 38.3647 33.3602 38.5425 33.4007 38.7207C33.4381 38.8995 33.4733 39.0794 33.4997 39.2604C33.5522 39.6224 33.593 39.9854 33.6235 40.3494C33.6409 40.5311 33.6523 40.7135 33.6663 40.8955C33.6774 41.0778 33.6907 41.2599 33.6994 41.4422C33.7386 42.1714 33.7607 42.9012 33.7677 43.6314C33.7757 44.3613 33.768 45.0915 33.7413 45.821C33.7503 45.4562 33.754 45.0911 33.754 44.7264C33.7526 44.3616 33.7496 43.9965 33.7419 43.6318C33.7279 42.9023 33.6991 42.1731 33.6533 41.4451C33.6429 41.263 33.6278 41.0814 33.6151 40.8993C33.5991 40.7177 33.5864 40.536 33.5673 40.3547C33.5335 39.992 33.4893 39.6301 33.4338 39.2713C33.3762 38.9129 33.2959 38.5586 33.1949 38.2111C33.0942 37.8635 32.9727 37.5226 32.8282 37.1926C32.5414 36.5325 32.166 35.9121 31.6979 35.3793C31.4627 35.1146 31.2064 34.8701 30.9264 34.6593C30.646 34.4492 30.3455 34.2693 30.0283 34.1294C29.3936 33.8513 28.6953 33.7359 28.0111 33.8036C27.3285 33.8716 26.6794 34.0664 26.125 34.489C26.4251 35.2806 26.9541 35.9472 27.6189 36.4357C27.7859 36.5571 27.9609 36.6658 28.1422 36.7612C28.3239 36.8555 28.5126 36.9358 28.706 37.0007C29.0928 37.1301 29.4977 37.1992 29.9032 37.2024C30.1059 37.2041 30.3087 37.1891 30.5088 37.1571L30.5837 37.1452L30.6584 37.1294L30.8072 37.0972C30.9049 37.0691 31.004 37.046 31.0997 37.0105C31.1967 36.98 31.2907 36.9401 31.3854 36.9022C31.4323 36.8822 31.4781 36.8594 31.5246 36.838C31.5477 36.8271 31.5711 36.817 31.5939 36.805L31.6618 36.7689C31.7066 36.7444 31.7531 36.7223 31.797 36.6953L31.9295 36.6167C31.9733 36.5897 32.0158 36.5606 32.0593 36.5325C32.1028 36.5052 32.1449 36.475 32.1868 36.4448C32.3561 36.3263 32.5177 36.1955 32.6746 36.0587C32.8322 35.9226 32.9841 35.7781 33.133 35.6305C33.4314 35.3355 33.7158 35.0234 34.0063 34.7158C34.2964 34.4079 34.5915 34.1024 34.9073 33.819C35.0646 33.6766 35.2292 33.5423 35.3982 33.4143C35.5671 33.2863 35.7455 33.1709 35.9275 33.0639C36.2932 32.8531 36.6806 32.6848 37.0805 32.5599C37.481 32.4379 37.8932 32.3568 38.3094 32.327C39.1412 32.2688 39.9847 32.3853 40.7697 32.6813C41.5543 32.9762 42.2787 33.443 42.8863 34.0407L42.9174 34.0712L42.9013 34.1118C42.815 34.3275 42.7193 34.539 42.6126 34.7445C42.5035 34.9487 42.3861 35.1475 42.2573 35.3387C42.1268 35.5284 41.9886 35.7122 41.8404 35.8865C41.6908 36.0597 41.5345 36.2267 41.3689 36.3831C40.7068 37.0091 39.9158 37.4819 39.0676 37.7639C38.2194 38.0459 37.3147 38.1399 36.4314 38.0311C35.5481 37.9249 34.6888 37.6103 33.9343 37.1196L33.8979 37.0961L33.9303 37.0674C34.3024 36.7356 34.6427 36.3656 34.989 36.0012C35.3356 35.6382 35.6896 35.2773 36.0904 34.9767C36.4893 34.6744 36.9363 34.4436 37.405 34.29C37.6396 34.2139 37.8795 34.155 38.1221 34.1175C38.3643 34.0803 38.6099 34.062 38.8548 34.0627Z"/>
</mask>
<path d="M38.8548 34.0627C38.6096 34.0652 38.365 34.0866 38.1231 34.1273C37.8812 34.168 37.6429 34.23 37.4104 34.309C36.9456 34.4685 36.503 34.7011 36.1102 35.0055C35.715 35.3078 35.366 35.6704 35.0231 36.0366C34.6808 36.4038 34.3392 36.7577 33.9668 37.0961C34.7186 37.5728 35.5678 37.8474 36.4404 37.9466C37.3124 38.0487 38.2044 37.9501 39.0378 37.6671C39.8716 37.3844 40.6469 36.9141 41.2933 36.2958C41.9397 35.6778 42.4724 34.983 42.8023 34.1346C42.2057 33.5503 41.4954 33.0948 40.7268 32.8075C39.9583 32.5192 39.1319 32.407 38.3191 32.4656C37.9123 32.4954 37.5098 32.5757 37.1186 32.6956C36.7282 32.8184 36.3501 32.9836 35.9934 33.1902C35.8164 33.295 35.6434 33.4073 35.4781 33.5328C35.3132 33.6584 35.1522 33.7899 34.9977 33.9305C34.6875 34.21 34.3957 34.5134 34.107 34.821C33.8179 35.1282 33.5308 35.44 33.229 35.7381C33.0781 35.8872 32.9239 36.0331 32.7633 36.1716C32.603 36.3109 32.4377 36.4441 32.2637 36.5655C32.2206 36.5963 32.1774 36.6272 32.1326 36.6553C32.0881 36.684 32.0442 36.7138 31.9991 36.7412L31.8622 36.8219C31.817 36.8496 31.7692 36.872 31.7227 36.8973L31.6524 36.9344C31.629 36.9464 31.6046 36.9569 31.5808 36.9681C31.5326 36.9899 31.4855 37.0134 31.4369 37.034C31.3389 37.0733 31.2415 37.1144 31.1412 37.1456C31.0421 37.1817 30.9394 37.2059 30.8384 37.2347L30.6841 37.2676L30.6068 37.2838L30.5289 37.296C30.3214 37.3287 30.1116 37.3437 29.9018 37.3416C29.4826 37.3374 29.0647 37.2652 28.6659 37.1308C28.4665 37.0635 28.2721 36.9804 28.0847 36.8825C27.8977 36.7836 27.7173 36.6711 27.5457 36.5458C26.8611 36.0408 26.3184 35.3267 26.0106 34.5099L25.9932 34.4633L26.0316 34.4342C26.6068 33.9982 27.2984 33.7467 28.0007 33.6815C28.704 33.6163 29.421 33.7397 30.0691 34.0287C30.393 34.1739 30.6995 34.3602 30.9846 34.5762C31.269 34.7933 31.529 35.0437 31.7665 35.3145C32.2393 35.8591 32.6154 36.4897 32.9018 37.1586C33.046 37.4928 33.1668 37.8379 33.2665 38.1893C33.3177 38.3647 33.3602 38.5425 33.4007 38.7207C33.4381 38.8995 33.4733 39.0794 33.4997 39.2604C33.5522 39.6224 33.593 39.9854 33.6235 40.3494C33.6409 40.5311 33.6523 40.7135 33.6663 40.8955C33.6774 41.0778 33.6907 41.2599 33.6994 41.4422C33.7386 42.1714 33.7607 42.9012 33.7677 43.6314C33.7757 44.3613 33.768 45.0915 33.7413 45.821C33.7503 45.4562 33.754 45.0911 33.754 44.7264C33.7526 44.3616 33.7496 43.9965 33.7419 43.6318C33.7279 42.9023 33.6991 42.1731 33.6533 41.4451C33.6429 41.263 33.6278 41.0814 33.6151 40.8993C33.5991 40.7177 33.5864 40.536 33.5673 40.3547C33.5335 39.992 33.4893 39.6301 33.4338 39.2713C33.3762 38.9129 33.2959 38.5586 33.1949 38.2111C33.0942 37.8635 32.9727 37.5226 32.8282 37.1926C32.5414 36.5325 32.166 35.9121 31.6979 35.3793C31.4627 35.1146 31.2064 34.8701 30.9264 34.6593C30.646 34.4492 30.3455 34.2693 30.0283 34.1294C29.3936 33.8513 28.6953 33.7359 28.0111 33.8036C27.3285 33.8716 26.6794 34.0664 26.125 34.489C26.4251 35.2806 26.9541 35.9472 27.6189 36.4357C27.7859 36.5571 27.9609 36.6658 28.1422 36.7612C28.3239 36.8555 28.5126 36.9358 28.706 37.0007C29.0928 37.1301 29.4977 37.1992 29.9032 37.2024C30.1059 37.2041 30.3087 37.1891 30.5088 37.1571L30.5837 37.1452L30.6584 37.1294L30.8072 37.0972C30.9049 37.0691 31.004 37.046 31.0997 37.0105C31.1967 36.98 31.2907 36.9401 31.3854 36.9022C31.4323 36.8822 31.4781 36.8594 31.5246 36.838C31.5477 36.8271 31.5711 36.817 31.5939 36.805L31.6618 36.7689C31.7066 36.7444 31.7531 36.7223 31.797 36.6953L31.9295 36.6167C31.9733 36.5897 32.0158 36.5606 32.0593 36.5325C32.1028 36.5052 32.1449 36.475 32.1868 36.4448C32.3561 36.3263 32.5177 36.1955 32.6746 36.0587C32.8322 35.9226 32.9841 35.7781 33.133 35.6305C33.4314 35.3355 33.7158 35.0234 34.0063 34.7158C34.2964 34.4079 34.5915 34.1024 34.9073 33.819C35.0646 33.6766 35.2292 33.5423 35.3982 33.4143C35.5671 33.2863 35.7455 33.1709 35.9275 33.0639C36.2932 32.8531 36.6806 32.6848 37.0805 32.5599C37.481 32.4379 37.8932 32.3568 38.3094 32.327C39.1412 32.2688 39.9847 32.3853 40.7697 32.6813C41.5543 32.9762 42.2787 33.443 42.8863 34.0407L42.9174 34.0712L42.9013 34.1118C42.815 34.3275 42.7193 34.539 42.6126 34.7445C42.5035 34.9487 42.3861 35.1475 42.2573 35.3387C42.1268 35.5284 41.9886 35.7122 41.8404 35.8865C41.6908 36.0597 41.5345 36.2267 41.3689 36.3831C40.7068 37.0091 39.9158 37.4819 39.0676 37.7639C38.2194 38.0459 37.3147 38.1399 36.4314 38.0311C35.5481 37.9249 34.6888 37.6103 33.9343 37.1196L33.8979 37.0961L33.9303 37.0674C34.3024 36.7356 34.6427 36.3656 34.989 36.0012C35.3356 35.6382 35.6896 35.2773 36.0904 34.9767C36.4893 34.6744 36.9363 34.4436 37.405 34.29C37.6396 34.2139 37.8795 34.155 38.1221 34.1175C38.3643 34.0803 38.6099 34.062 38.8548 34.0627Z" fill="white"/>
<path d="M38.8548 34.0627C38.6096 34.0652 38.365 34.0866 38.1231 34.1273C37.8812 34.168 37.6429 34.23 37.4104 34.309C36.9456 34.4685 36.503 34.7011 36.1102 35.0055C35.715 35.3078 35.366 35.6704 35.0231 36.0366C34.6808 36.4038 34.3392 36.7577 33.9668 37.0961C34.7186 37.5728 35.5678 37.8474 36.4404 37.9466C37.3124 38.0487 38.2044 37.9501 39.0378 37.6671C39.8716 37.3844 40.6469 36.9141 41.2933 36.2958C41.9397 35.6778 42.4724 34.983 42.8023 34.1346C42.2057 33.5503 41.4954 33.0948 40.7268 32.8075C39.9583 32.5192 39.1319 32.407 38.3191 32.4656C37.9123 32.4954 37.5098 32.5757 37.1186 32.6956C36.7282 32.8184 36.3501 32.9836 35.9934 33.1902C35.8164 33.295 35.6434 33.4073 35.4781 33.5328C35.3132 33.6584 35.1522 33.7899 34.9977 33.9305C34.6875 34.21 34.3957 34.5134 34.107 34.821C33.8179 35.1282 33.5308 35.44 33.229 35.7381C33.0781 35.8872 32.9239 36.0331 32.7633 36.1716C32.603 36.3109 32.4377 36.4441 32.2637 36.5655C32.2206 36.5963 32.1774 36.6272 32.1326 36.6553C32.0881 36.684 32.0442 36.7138 31.9991 36.7412L31.8622 36.8219C31.817 36.8496 31.7692 36.872 31.7227 36.8973L31.6524 36.9344C31.629 36.9464 31.6046 36.9569 31.5808 36.9681C31.5326 36.9899 31.4855 37.0134 31.4369 37.034C31.3389 37.0733 31.2415 37.1144 31.1412 37.1456C31.0421 37.1817 30.9394 37.2059 30.8384 37.2347L30.6841 37.2676L30.6068 37.2838L30.5289 37.296C30.3214 37.3287 30.1116 37.3437 29.9018 37.3416C29.4826 37.3374 29.0647 37.2652 28.6659 37.1308C28.4665 37.0635 28.2721 36.9804 28.0847 36.8825C27.8977 36.7836 27.7173 36.6711 27.5457 36.5458C26.8611 36.0408 26.3184 35.3267 26.0106 34.5099L25.9932 34.4633L26.0316 34.4342C26.6068 33.9982 27.2984 33.7467 28.0007 33.6815C28.704 33.6163 29.421 33.7397 30.0691 34.0287C30.393 34.1739 30.6995 34.3602 30.9846 34.5762C31.269 34.7933 31.529 35.0437 31.7665 35.3145C32.2393 35.8591 32.6154 36.4897 32.9018 37.1586C33.046 37.4928 33.1668 37.8379 33.2665 38.1893C33.3177 38.3647 33.3602 38.5425 33.4007 38.7207C33.4381 38.8995 33.4733 39.0794 33.4997 39.2604C33.5522 39.6224 33.593 39.9854 33.6235 40.3494C33.6409 40.5311 33.6523 40.7135 33.6663 40.8955C33.6774 41.0778 33.6907 41.2599 33.6994 41.4422C33.7386 42.1714 33.7607 42.9012 33.7677 43.6314C33.7757 44.3613 33.768 45.0915 33.7413 45.821C33.7503 45.4562 33.754 45.0911 33.754 44.7264C33.7526 44.3616 33.7496 43.9965 33.7419 43.6318C33.7279 42.9023 33.6991 42.1731 33.6533 41.4451C33.6429 41.263 33.6278 41.0814 33.6151 40.8993C33.5991 40.7177 33.5864 40.536 33.5673 40.3547C33.5335 39.992 33.4893 39.6301 33.4338 39.2713C33.3762 38.9129 33.2959 38.5586 33.1949 38.2111C33.0942 37.8635 32.9727 37.5226 32.8282 37.1926C32.5414 36.5325 32.166 35.9121 31.6979 35.3793C31.4627 35.1146 31.2064 34.8701 30.9264 34.6593C30.646 34.4492 30.3455 34.2693 30.0283 34.1294C29.3936 33.8513 28.6953 33.7359 28.0111 33.8036C27.3285 33.8716 26.6794 34.0664 26.125 34.489C26.4251 35.2806 26.9541 35.9472 27.6189 36.4357C27.7859 36.5571 27.9609 36.6658 28.1422 36.7612C28.3239 36.8555 28.5126 36.9358 28.706 37.0007C29.0928 37.1301 29.4977 37.1992 29.9032 37.2024C30.1059 37.2041 30.3087 37.1891 30.5088 37.1571L30.5837 37.1452L30.6584 37.1294L30.8072 37.0972C30.9049 37.0691 31.004 37.046 31.0997 37.0105C31.1967 36.98 31.2907 36.9401 31.3854 36.9022C31.4323 36.8822 31.4781 36.8594 31.5246 36.838C31.5477 36.8271 31.5711 36.817 31.5939 36.805L31.6618 36.7689C31.7066 36.7444 31.7531 36.7223 31.797 36.6953L31.9295 36.6167C31.9733 36.5897 32.0158 36.5606 32.0593 36.5325C32.1028 36.5052 32.1449 36.475 32.1868 36.4448C32.3561 36.3263 32.5177 36.1955 32.6746 36.0587C32.8322 35.9226 32.9841 35.7781 33.133 35.6305C33.4314 35.3355 33.7158 35.0234 34.0063 34.7158C34.2964 34.4079 34.5915 34.1024 34.9073 33.819C35.0646 33.6766 35.2292 33.5423 35.3982 33.4143C35.5671 33.2863 35.7455 33.1709 35.9275 33.0639C36.2932 32.8531 36.6806 32.6848 37.0805 32.5599C37.481 32.4379 37.8932 32.3568 38.3094 32.327C39.1412 32.2688 39.9847 32.3853 40.7697 32.6813C41.5543 32.9762 42.2787 33.443 42.8863 34.0407L42.9174 34.0712L42.9013 34.1118C42.815 34.3275 42.7193 34.539 42.6126 34.7445C42.5035 34.9487 42.3861 35.1475 42.2573 35.3387C42.1268 35.5284 41.9886 35.7122 41.8404 35.8865C41.6908 36.0597 41.5345 36.2267 41.3689 36.3831C40.7068 37.0091 39.9158 37.4819 39.0676 37.7639C38.2194 38.0459 37.3147 38.1399 36.4314 38.0311C35.5481 37.9249 34.6888 37.6103 33.9343 37.1196L33.8979 37.0961L33.9303 37.0674C34.3024 36.7356 34.6427 36.3656 34.989 36.0012C35.3356 35.6382 35.6896 35.2773 36.0904 34.9767C36.4893 34.6744 36.9363 34.4436 37.405 34.29C37.6396 34.2139 37.8795 34.155 38.1221 34.1175C38.3643 34.0803 38.6099 34.062 38.8548 34.0627Z" stroke="white" stroke-width="0.360089" mask="url(#path-53-outside-1_300_610)"/>
<defs>
<linearGradient id="paint0_linear_300_610" x1="23.791" y1="30.2168" x2="45.8489" y2="31.7054" gradientUnits="userSpaceOnUse">
<stop stop-color="#30C917"/>
<stop offset="1" stop-color="#279A13"/>
</linearGradient>
</defs>
</svg>
