<svg width="60" height="60" viewBox="0 0 60 60" fill="none" xmlns="http://www.w3.org/2000/svg">
<g clip-path="url(#clip0_300_757)">
<path d="M60.0001 48.0905L41.0107 36.125V41.3156H30.0001L28.749 47.603L30.0001 54.8654H41.0107V60.056L60.0001 48.0905Z" fill="#F0C419"/>
<path d="M25.9445 41.3161L14.5947 30.2812V43.0757C14.5947 49.5769 19.8837 54.8659 26.3849 54.8659H30.0003V41.3161H25.9445Z" fill="#F0C419"/>
<path d="M33.6151 5.30859H29.9997L27.4971 11.3199L29.9997 18.8584H34.0555L45.4052 29.8932V17.0988C45.4052 10.5976 40.1162 5.30859 33.6151 5.30859Z" fill="#D5DCED"/>
<path d="M18.9899 5.30777V0.117188L0 12.0827L18.9899 24.0477V18.8576H30V5.30777H18.9899Z" fill="#D5DCED"/>
<circle cx="29.9514" cy="30.0012" r="16.9231" fill="url(#paint0_linear_300_757)"/>
<mask id="path-6-outside-1_300_757" maskUnits="userSpaceOnUse" x="15.5234" y="21.6016" width="29" height="22" fill="black">
<rect fill="white" x="15.5234" y="21.6016" width="29" height="22"/>
<path d="M36.9339 25.2528C36.5447 25.2565 36.1566 25.289 35.7727 25.3506C35.3888 25.4122 35.0108 25.5062 34.6417 25.6258C33.9042 25.8675 33.2017 26.2197 32.5784 26.6809C31.9513 27.1388 31.3975 27.6882 30.8533 28.2428C30.3101 28.799 29.768 29.3351 29.177 29.8478C30.3701 30.5698 31.7177 30.9858 33.1024 31.1361C34.4862 31.2907 35.9017 31.1414 37.2244 30.7127C38.5475 30.2845 39.7778 29.572 40.8036 28.6354C41.8295 27.6993 42.6748 26.6469 43.1983 25.3617C42.2516 24.4766 41.1243 23.7865 39.9047 23.3514C38.6851 22.9147 37.3736 22.7447 36.0838 22.8334C35.4382 22.8786 34.7994 23.0002 34.1787 23.1819C33.5591 23.3679 32.9591 23.6181 32.3931 23.931C32.1122 24.0899 31.8377 24.2599 31.5754 24.4501C31.3136 24.6403 31.0582 24.8395 30.8129 25.0525C30.3207 25.476 29.8577 25.9355 29.3995 26.4014C28.9407 26.8668 28.4851 27.3391 28.0062 27.7907C27.7667 28.0165 27.522 28.2375 27.2671 28.4473C27.0128 28.6583 26.7505 28.8601 26.4743 29.044C26.4059 29.0907 26.3374 29.1375 26.2662 29.18C26.1956 29.2235 26.126 29.2687 26.0543 29.3101L25.8372 29.4323C25.7655 29.4743 25.6896 29.5083 25.6158 29.5465L25.5043 29.6029C25.4671 29.6209 25.4283 29.6369 25.3906 29.6539C25.3142 29.6868 25.2393 29.7224 25.1623 29.7537C25.0067 29.8132 24.8522 29.8754 24.6929 29.9227C24.5358 29.9774 24.3728 30.0141 24.2124 30.0576L23.9676 30.1076L23.845 30.132L23.7213 30.1506C23.3921 30.2 23.0591 30.2228 22.7262 30.2197C22.0609 30.2133 21.3977 30.1038 20.7648 29.9004C20.4484 29.7984 20.1399 29.6725 19.8425 29.5242C19.5457 29.3744 19.2595 29.2039 18.9871 29.0142C17.9008 28.2492 17.0395 27.1675 16.551 25.9302L16.5234 25.8595L16.5845 25.8154C17.4972 25.1551 18.5948 24.7742 19.7093 24.6753C20.8254 24.5765 21.9632 24.7635 22.9917 25.2013C23.5057 25.4212 23.9921 25.7033 24.4444 26.0306C24.8958 26.3595 25.3083 26.7388 25.6853 27.1489C26.4356 27.974 27.0324 28.9292 27.4869 29.9423C27.7158 30.4486 27.9074 30.9714 28.0657 31.5037C28.1469 31.7694 28.2143 32.0387 28.2786 32.3086C28.3381 32.5796 28.3938 32.8521 28.4358 33.1262C28.5191 33.6745 28.5839 34.2244 28.6322 34.7758C28.6598 35.051 28.6779 35.3273 28.7002 35.603C28.7177 35.8793 28.7389 36.155 28.7527 36.4313C28.8149 37.5358 28.8499 38.6413 28.8611 39.7474C28.8738 40.853 28.8616 41.9591 28.8191 43.0642C28.8334 42.5116 28.8393 41.9586 28.8393 41.4061C28.8372 40.8535 28.8324 40.3005 28.8202 39.748C28.7979 38.6429 28.7522 37.5384 28.6795 36.4355C28.663 36.1598 28.6391 35.8846 28.6189 35.6089C28.5934 35.3337 28.5733 35.0585 28.543 34.7838C28.4894 34.2345 28.4193 33.6862 28.3311 33.1427C28.2398 32.5997 28.1124 32.0632 27.952 31.5367C27.7922 31.0102 27.5995 30.4938 27.3701 29.9939C26.9151 28.994 26.3193 28.0542 25.5765 27.2472C25.2032 26.8461 24.7965 26.4758 24.3521 26.1565C23.9071 25.8383 23.4303 25.5657 22.9269 25.3538C21.9197 24.9325 20.8116 24.7577 19.7257 24.8602C18.6425 24.9633 17.6125 25.2584 16.7326 25.8986C17.2089 27.0977 18.0484 28.1073 19.1034 28.8474C19.3684 29.0312 19.6461 29.1959 19.9339 29.3404C20.2222 29.4833 20.5216 29.605 20.8285 29.7033C21.4423 29.8993 22.0848 30.004 22.7284 30.0087C23.0501 30.0114 23.3719 29.9886 23.6894 29.9402L23.8083 29.9222L23.9268 29.8982L24.163 29.8494C24.3181 29.8069 24.4752 29.7718 24.6271 29.7181C24.7811 29.6719 24.9303 29.6114 25.0806 29.554C25.1549 29.5237 25.2276 29.4892 25.3014 29.4568C25.3381 29.4403 25.3752 29.4249 25.4113 29.4068L25.5191 29.3521C25.5903 29.3149 25.6641 29.2814 25.7336 29.2405L25.9439 29.1215C26.0135 29.0806 26.0809 29.0365 26.1499 28.994C26.219 28.9526 26.2859 28.9069 26.3522 28.8612C26.6209 28.6816 26.8774 28.4835 27.1264 28.2763C27.3765 28.0701 27.6175 27.8513 27.8538 27.6276C28.3274 27.1808 28.7788 26.708 29.2396 26.242C29.7 25.7756 30.1683 25.3129 30.6695 24.8836C30.9191 24.6679 31.1803 24.4644 31.4485 24.2705C31.7166 24.0766 31.9996 23.9018 32.2885 23.7398C32.8688 23.4205 33.4837 23.1655 34.1182 22.9763C34.7538 22.7915 35.4079 22.6687 36.0684 22.6236C37.3884 22.5354 38.727 22.7118 39.9727 23.1602C41.2178 23.607 42.3673 24.3141 43.3316 25.2194L43.381 25.2656L43.3555 25.3272C43.2185 25.6539 43.0666 25.9743 42.8973 26.2856C42.7242 26.5948 42.5378 26.896 42.3334 27.1856C42.1263 27.473 41.907 27.7514 41.6718 28.0154C41.4344 28.2779 41.1865 28.5308 40.9236 28.7677C39.8728 29.716 38.6176 30.4322 37.2716 30.8593C35.9256 31.2864 34.4899 31.4288 33.0881 31.2641C31.6863 31.1032 30.3228 30.6266 29.1255 29.8834L29.0676 29.8478L29.1191 29.8042C29.7095 29.3016 30.2495 28.7411 30.7991 28.1892C31.3492 27.6393 31.9109 27.0926 32.5471 26.6373C33.18 26.1794 33.8893 25.8298 34.6332 25.5971C35.0054 25.4818 35.3861 25.3926 35.7711 25.3357C36.1555 25.2794 36.5453 25.2518 36.9339 25.2528Z"/>
</mask>
<path d="M36.9339 25.2528C36.5447 25.2565 36.1566 25.289 35.7727 25.3506C35.3888 25.4122 35.0108 25.5062 34.6417 25.6258C33.9042 25.8675 33.2017 26.2197 32.5784 26.6809C31.9513 27.1388 31.3975 27.6882 30.8533 28.2428C30.3101 28.799 29.768 29.3351 29.177 29.8478C30.3701 30.5698 31.7177 30.9858 33.1024 31.1361C34.4862 31.2907 35.9017 31.1414 37.2244 30.7127C38.5475 30.2845 39.7778 29.572 40.8036 28.6354C41.8295 27.6993 42.6748 26.6469 43.1983 25.3617C42.2516 24.4766 41.1243 23.7865 39.9047 23.3514C38.6851 22.9147 37.3736 22.7447 36.0838 22.8334C35.4382 22.8786 34.7994 23.0002 34.1787 23.1819C33.5591 23.3679 32.9591 23.6181 32.3931 23.931C32.1122 24.0899 31.8377 24.2599 31.5754 24.4501C31.3136 24.6403 31.0582 24.8395 30.8129 25.0525C30.3207 25.476 29.8577 25.9355 29.3995 26.4014C28.9407 26.8668 28.4851 27.3391 28.0062 27.7907C27.7667 28.0165 27.522 28.2375 27.2671 28.4473C27.0128 28.6583 26.7505 28.8601 26.4743 29.044C26.4059 29.0907 26.3374 29.1375 26.2662 29.18C26.1956 29.2235 26.126 29.2687 26.0543 29.3101L25.8372 29.4323C25.7655 29.4743 25.6896 29.5083 25.6158 29.5465L25.5043 29.6029C25.4671 29.6209 25.4283 29.6369 25.3906 29.6539C25.3142 29.6868 25.2393 29.7224 25.1623 29.7537C25.0067 29.8132 24.8522 29.8754 24.6929 29.9227C24.5358 29.9774 24.3728 30.0141 24.2124 30.0576L23.9676 30.1076L23.845 30.132L23.7213 30.1506C23.3921 30.2 23.0591 30.2228 22.7262 30.2197C22.0609 30.2133 21.3977 30.1038 20.7648 29.9004C20.4484 29.7984 20.1399 29.6725 19.8425 29.5242C19.5457 29.3744 19.2595 29.2039 18.9871 29.0142C17.9008 28.2492 17.0395 27.1675 16.551 25.9302L16.5234 25.8595L16.5845 25.8154C17.4972 25.1551 18.5948 24.7742 19.7093 24.6753C20.8254 24.5765 21.9632 24.7635 22.9917 25.2013C23.5057 25.4212 23.9921 25.7033 24.4444 26.0306C24.8958 26.3595 25.3083 26.7388 25.6853 27.1489C26.4356 27.974 27.0324 28.9292 27.4869 29.9423C27.7158 30.4486 27.9074 30.9714 28.0657 31.5037C28.1469 31.7694 28.2143 32.0387 28.2786 32.3086C28.3381 32.5796 28.3938 32.8521 28.4358 33.1262C28.5191 33.6745 28.5839 34.2244 28.6322 34.7758C28.6598 35.051 28.6779 35.3273 28.7002 35.603C28.7177 35.8793 28.7389 36.155 28.7527 36.4313C28.8149 37.5358 28.8499 38.6413 28.8611 39.7474C28.8738 40.853 28.8616 41.9591 28.8191 43.0642C28.8334 42.5116 28.8393 41.9586 28.8393 41.4061C28.8372 40.8535 28.8324 40.3005 28.8202 39.748C28.7979 38.6429 28.7522 37.5384 28.6795 36.4355C28.663 36.1598 28.6391 35.8846 28.6189 35.6089C28.5934 35.3337 28.5733 35.0585 28.543 34.7838C28.4894 34.2345 28.4193 33.6862 28.3311 33.1427C28.2398 32.5997 28.1124 32.0632 27.952 31.5367C27.7922 31.0102 27.5995 30.4938 27.3701 29.9939C26.9151 28.994 26.3193 28.0542 25.5765 27.2472C25.2032 26.8461 24.7965 26.4758 24.3521 26.1565C23.9071 25.8383 23.4303 25.5657 22.9269 25.3538C21.9197 24.9325 20.8116 24.7577 19.7257 24.8602C18.6425 24.9633 17.6125 25.2584 16.7326 25.8986C17.2089 27.0977 18.0484 28.1073 19.1034 28.8474C19.3684 29.0312 19.6461 29.1959 19.9339 29.3404C20.2222 29.4833 20.5216 29.605 20.8285 29.7033C21.4423 29.8993 22.0848 30.004 22.7284 30.0087C23.0501 30.0114 23.3719 29.9886 23.6894 29.9402L23.8083 29.9222L23.9268 29.8982L24.163 29.8494C24.3181 29.8069 24.4752 29.7718 24.6271 29.7181C24.7811 29.6719 24.9303 29.6114 25.0806 29.554C25.1549 29.5237 25.2276 29.4892 25.3014 29.4568C25.3381 29.4403 25.3752 29.4249 25.4113 29.4068L25.5191 29.3521C25.5903 29.3149 25.6641 29.2814 25.7336 29.2405L25.9439 29.1215C26.0135 29.0806 26.0809 29.0365 26.1499 28.994C26.219 28.9526 26.2859 28.9069 26.3522 28.8612C26.6209 28.6816 26.8774 28.4835 27.1264 28.2763C27.3765 28.0701 27.6175 27.8513 27.8538 27.6276C28.3274 27.1808 28.7788 26.708 29.2396 26.242C29.7 25.7756 30.1683 25.3129 30.6695 24.8836C30.9191 24.6679 31.1803 24.4644 31.4485 24.2705C31.7166 24.0766 31.9996 23.9018 32.2885 23.7398C32.8688 23.4205 33.4837 23.1655 34.1182 22.9763C34.7538 22.7915 35.4079 22.6687 36.0684 22.6236C37.3884 22.5354 38.727 22.7118 39.9727 23.1602C41.2178 23.607 42.3673 24.3141 43.3316 25.2194L43.381 25.2656L43.3555 25.3272C43.2185 25.6539 43.0666 25.9743 42.8973 26.2856C42.7242 26.5948 42.5378 26.896 42.3334 27.1856C42.1263 27.473 41.907 27.7514 41.6718 28.0154C41.4344 28.2779 41.1865 28.5308 40.9236 28.7677C39.8728 29.716 38.6176 30.4322 37.2716 30.8593C35.9256 31.2864 34.4899 31.4288 33.0881 31.2641C31.6863 31.1032 30.3228 30.6266 29.1255 29.8834L29.0676 29.8478L29.1191 29.8042C29.7095 29.3016 30.2495 28.7411 30.7991 28.1892C31.3492 27.6393 31.9109 27.0926 32.5471 26.6373C33.18 26.1794 33.8893 25.8298 34.6332 25.5971C35.0054 25.4818 35.3861 25.3926 35.7711 25.3357C36.1555 25.2794 36.5453 25.2518 36.9339 25.2528Z" fill="white"/>
<path d="M36.9339 25.2528C36.5447 25.2565 36.1566 25.289 35.7727 25.3506C35.3888 25.4122 35.0108 25.5062 34.6417 25.6258C33.9042 25.8675 33.2017 26.2197 32.5784 26.6809C31.9513 27.1388 31.3975 27.6882 30.8533 28.2428C30.3101 28.799 29.768 29.3351 29.177 29.8478C30.3701 30.5698 31.7177 30.9858 33.1024 31.1361C34.4862 31.2907 35.9017 31.1414 37.2244 30.7127C38.5475 30.2845 39.7778 29.572 40.8036 28.6354C41.8295 27.6993 42.6748 26.6469 43.1983 25.3617C42.2516 24.4766 41.1243 23.7865 39.9047 23.3514C38.6851 22.9147 37.3736 22.7447 36.0838 22.8334C35.4382 22.8786 34.7994 23.0002 34.1787 23.1819C33.5591 23.3679 32.9591 23.6181 32.3931 23.931C32.1122 24.0899 31.8377 24.2599 31.5754 24.4501C31.3136 24.6403 31.0582 24.8395 30.8129 25.0525C30.3207 25.476 29.8577 25.9355 29.3995 26.4014C28.9407 26.8668 28.4851 27.3391 28.0062 27.7907C27.7667 28.0165 27.522 28.2375 27.2671 28.4473C27.0128 28.6583 26.7505 28.8601 26.4743 29.044C26.4059 29.0907 26.3374 29.1375 26.2662 29.18C26.1956 29.2235 26.126 29.2687 26.0543 29.3101L25.8372 29.4323C25.7655 29.4743 25.6896 29.5083 25.6158 29.5465L25.5043 29.6029C25.4671 29.6209 25.4283 29.6369 25.3906 29.6539C25.3142 29.6868 25.2393 29.7224 25.1623 29.7537C25.0067 29.8132 24.8522 29.8754 24.6929 29.9227C24.5358 29.9774 24.3728 30.0141 24.2124 30.0576L23.9676 30.1076L23.845 30.132L23.7213 30.1506C23.3921 30.2 23.0591 30.2228 22.7262 30.2197C22.0609 30.2133 21.3977 30.1038 20.7648 29.9004C20.4484 29.7984 20.1399 29.6725 19.8425 29.5242C19.5457 29.3744 19.2595 29.2039 18.9871 29.0142C17.9008 28.2492 17.0395 27.1675 16.551 25.9302L16.5234 25.8595L16.5845 25.8154C17.4972 25.1551 18.5948 24.7742 19.7093 24.6753C20.8254 24.5765 21.9632 24.7635 22.9917 25.2013C23.5057 25.4212 23.9921 25.7033 24.4444 26.0306C24.8958 26.3595 25.3083 26.7388 25.6853 27.1489C26.4356 27.974 27.0324 28.9292 27.4869 29.9423C27.7158 30.4486 27.9074 30.9714 28.0657 31.5037C28.1469 31.7694 28.2143 32.0387 28.2786 32.3086C28.3381 32.5796 28.3938 32.8521 28.4358 33.1262C28.5191 33.6745 28.5839 34.2244 28.6322 34.7758C28.6598 35.051 28.6779 35.3273 28.7002 35.603C28.7177 35.8793 28.7389 36.155 28.7527 36.4313C28.8149 37.5358 28.8499 38.6413 28.8611 39.7474C28.8738 40.853 28.8616 41.9591 28.8191 43.0642C28.8334 42.5116 28.8393 41.9586 28.8393 41.4061C28.8372 40.8535 28.8324 40.3005 28.8202 39.748C28.7979 38.6429 28.7522 37.5384 28.6795 36.4355C28.663 36.1598 28.6391 35.8846 28.6189 35.6089C28.5934 35.3337 28.5733 35.0585 28.543 34.7838C28.4894 34.2345 28.4193 33.6862 28.3311 33.1427C28.2398 32.5997 28.1124 32.0632 27.952 31.5367C27.7922 31.0102 27.5995 30.4938 27.3701 29.9939C26.9151 28.994 26.3193 28.0542 25.5765 27.2472C25.2032 26.8461 24.7965 26.4758 24.3521 26.1565C23.9071 25.8383 23.4303 25.5657 22.9269 25.3538C21.9197 24.9325 20.8116 24.7577 19.7257 24.8602C18.6425 24.9633 17.6125 25.2584 16.7326 25.8986C17.2089 27.0977 18.0484 28.1073 19.1034 28.8474C19.3684 29.0312 19.6461 29.1959 19.9339 29.3404C20.2222 29.4833 20.5216 29.605 20.8285 29.7033C21.4423 29.8993 22.0848 30.004 22.7284 30.0087C23.0501 30.0114 23.3719 29.9886 23.6894 29.9402L23.8083 29.9222L23.9268 29.8982L24.163 29.8494C24.3181 29.8069 24.4752 29.7718 24.6271 29.7181C24.7811 29.6719 24.9303 29.6114 25.0806 29.554C25.1549 29.5237 25.2276 29.4892 25.3014 29.4568C25.3381 29.4403 25.3752 29.4249 25.4113 29.4068L25.5191 29.3521C25.5903 29.3149 25.6641 29.2814 25.7336 29.2405L25.9439 29.1215C26.0135 29.0806 26.0809 29.0365 26.1499 28.994C26.219 28.9526 26.2859 28.9069 26.3522 28.8612C26.6209 28.6816 26.8774 28.4835 27.1264 28.2763C27.3765 28.0701 27.6175 27.8513 27.8538 27.6276C28.3274 27.1808 28.7788 26.708 29.2396 26.242C29.7 25.7756 30.1683 25.3129 30.6695 24.8836C30.9191 24.6679 31.1803 24.4644 31.4485 24.2705C31.7166 24.0766 31.9996 23.9018 32.2885 23.7398C32.8688 23.4205 33.4837 23.1655 34.1182 22.9763C34.7538 22.7915 35.4079 22.6687 36.0684 22.6236C37.3884 22.5354 38.727 22.7118 39.9727 23.1602C41.2178 23.607 42.3673 24.3141 43.3316 25.2194L43.381 25.2656L43.3555 25.3272C43.2185 25.6539 43.0666 25.9743 42.8973 26.2856C42.7242 26.5948 42.5378 26.896 42.3334 27.1856C42.1263 27.473 41.907 27.7514 41.6718 28.0154C41.4344 28.2779 41.1865 28.5308 40.9236 28.7677C39.8728 29.716 38.6176 30.4322 37.2716 30.8593C35.9256 31.2864 34.4899 31.4288 33.0881 31.2641C31.6863 31.1032 30.3228 30.6266 29.1255 29.8834L29.0676 29.8478L29.1191 29.8042C29.7095 29.3016 30.2495 28.7411 30.7991 28.1892C31.3492 27.6393 31.9109 27.0926 32.5471 26.6373C33.18 26.1794 33.8893 25.8298 34.6332 25.5971C35.0054 25.4818 35.3861 25.3926 35.7711 25.3357C36.1555 25.2794 36.5453 25.2518 36.9339 25.2528Z" stroke="white" stroke-width="0.360089" mask="url(#path-6-outside-1_300_757)"/>
</g>
<defs>
<linearGradient id="paint0_linear_300_757" x1="13.0283" y1="19.4243" x2="48.0171" y2="21.898" gradientUnits="userSpaceOnUse">
<stop stop-color="#30C917"/>
<stop offset="1" stop-color="#279A13"/>
</linearGradient>
<clipPath id="clip0_300_757">
<rect width="60" height="60" fill="white"/>
</clipPath>
</defs>
</svg>
