<svg width="60" height="60" viewBox="0 0 60 60" fill="none" xmlns="http://www.w3.org/2000/svg">
<g clip-path="url(#clip0_300_769)">
<path d="M50.4624 4.55109L40.4767 1.54358C33.6437 -0.514526 26.3561 -0.514526 19.5235 1.54358L9.53741 4.55109C8.03228 5.00427 6.82196 6.12946 6.25982 7.5975L1.48352 20.0702C-2.05362 29.3065 0.88293 39.7696 8.70932 45.8171L21.7675 55.9067C26.6161 59.653 33.3837 59.653 38.2323 55.9067L51.2905 45.8171C59.1169 39.7696 62.0534 29.3065 58.5163 20.0702L53.7404 7.5975C53.1779 6.12946 51.9675 5.00427 50.4624 4.55109Z" fill="url(#paint0_linear_300_769)"/>
<path d="M47.4134 8.24791L38.9155 5.68855C33.1009 3.93715 26.8996 3.93715 21.0846 5.68855L12.5872 8.24791C11.3059 8.63335 10.2759 9.59099 9.79756 10.8402L5.73308 21.4539C2.72328 29.3142 5.22176 38.2182 11.8822 43.3643L22.9944 51.9501C27.1207 55.1385 32.8794 55.1385 37.0057 51.9501L48.1179 43.3643C54.7779 38.2182 57.2768 29.3142 54.267 21.4539L50.2025 10.8402C49.7242 9.59099 48.6942 8.63335 47.4134 8.24791Z" fill="url(#paint1_linear_300_769)"/>
<path d="M40.4565 46.5272C33.5305 48.4183 26.469 48.4183 19.5431 46.5272C18.7777 46.3185 18.248 45.6209 18.248 44.8271V26.5633C18.248 25.77 18.7777 25.0723 19.5431 24.8636C26.469 22.9726 33.5305 22.9726 40.4565 24.8636C41.2218 25.0723 41.7515 25.77 41.7515 26.5633V44.8271C41.7515 45.6209 41.2218 46.3185 40.4565 46.5272Z" fill="url(#paint2_linear_300_769)"/>
<path d="M40.0978 24.7687C39.9564 24.7316 39.8149 24.6945 39.6735 24.6588C39.5782 24.635 39.483 24.6117 39.3878 24.5883C39.25 24.5545 39.1127 24.5215 38.9749 24.4895C38.8783 24.467 38.7822 24.4446 38.6856 24.4231C38.5478 24.392 38.41 24.3618 38.2718 24.332C38.1766 24.3114 38.0814 24.2913 37.9861 24.2711C37.8442 24.2418 37.7019 24.2134 37.5595 24.1855C37.4693 24.1681 37.3787 24.1498 37.2885 24.1329C37.1324 24.1031 36.9763 24.0757 36.8202 24.0477C36.7438 24.0345 36.6673 24.0203 36.5909 24.007C36.3593 23.9672 36.1272 23.9296 35.8946 23.8939C35.8905 23.8935 35.8864 23.893 35.8823 23.8921C35.6538 23.8573 35.4254 23.8248 35.1974 23.7941C35.1205 23.7841 35.0436 23.7749 34.9667 23.7648C34.8106 23.7451 34.6545 23.725 34.4984 23.7072C34.4078 23.6966 34.3172 23.687 34.2261 23.6769C34.0833 23.6614 33.9404 23.6463 33.7976 23.6321C33.7024 23.6229 33.6067 23.6142 33.511 23.6055C33.3723 23.5927 33.2336 23.5808 33.0949 23.5698C32.9979 23.562 32.9008 23.5547 32.8038 23.5479C32.6656 23.5378 32.5269 23.5286 32.3886 23.5199C32.2925 23.514 32.1964 23.508 32.1002 23.503C31.9574 23.4952 31.8146 23.4888 31.6718 23.4828C31.5811 23.4787 31.4905 23.4746 31.3994 23.4709C31.2428 23.4655 31.0858 23.4613 30.9288 23.4577C30.8524 23.4558 30.7759 23.4531 30.699 23.4517C30.466 23.4476 30.233 23.4453 30 23.4453H29.9995C29.7665 23.4453 29.5335 23.4476 29.3005 23.4522C29.2241 23.4536 29.1476 23.4558 29.0707 23.4577C28.9142 23.4618 28.7572 23.4655 28.6006 23.4714C28.51 23.4746 28.4189 23.4787 28.3282 23.4828C28.1854 23.4888 28.0421 23.4952 27.8993 23.503C27.8036 23.5085 27.7075 23.514 27.6118 23.5204C27.4731 23.5286 27.3349 23.5378 27.1962 23.5479C27.0992 23.5547 27.0021 23.562 26.9051 23.5698C26.7664 23.5808 26.6277 23.5932 26.489 23.6055C26.3933 23.6142 26.2981 23.6229 26.2024 23.6321C26.0596 23.6463 25.9167 23.6614 25.7739 23.6769C25.6833 23.687 25.5927 23.6966 25.502 23.7072C25.3455 23.725 25.1894 23.7451 25.0333 23.7648C24.9564 23.7749 24.8799 23.7841 24.803 23.7941C24.575 23.8248 24.3466 23.8573 24.1187 23.8921C24.1141 23.8925 24.11 23.8935 24.1054 23.8939C23.8733 23.9292 23.6412 23.9672 23.4091 24.0065C23.3327 24.0198 23.2567 24.034 23.1802 24.0473C23.0241 24.0752 22.8676 24.1031 22.7115 24.1324C22.6213 24.1494 22.5311 24.1677 22.4409 24.1855C22.2986 24.2134 22.1562 24.2414 22.0139 24.2711C21.9186 24.2908 21.8234 24.3114 21.7282 24.332C21.5904 24.3613 21.4526 24.3915 21.3148 24.4226C21.2183 24.4446 21.1217 24.467 21.0251 24.4895C20.8873 24.5215 20.75 24.5545 20.6126 24.5879C20.5174 24.6112 20.4222 24.6346 20.327 24.6588C20.1855 24.6941 20.0436 24.7312 19.9022 24.7687C19.812 24.7925 19.7218 24.8159 19.6317 24.8401C19.5918 24.8506 19.552 24.8625 19.5122 24.8731C19.0878 24.9976 18.739 25.2727 18.5156 25.6307C26.1122 27.9145 33.8878 27.9145 41.4844 25.6307C41.2614 25.2727 40.9122 24.9976 40.4878 24.8731C40.448 24.8621 40.4082 24.8506 40.3683 24.8401C40.2782 24.8159 40.188 24.7925 40.0978 24.7687Z" fill="url(#paint3_linear_300_769)"/>
<path d="M33.1286 35.1839C33.1286 33.3817 31.6056 31.9356 29.7764 32.0624C28.2365 32.1691 26.9882 33.4147 26.8783 34.9546C26.7991 36.0651 27.3004 37.0635 28.1092 37.6769C28.6618 38.0967 28.9712 38.7627 28.9712 39.4567V40.738C28.9712 41.3038 29.4143 41.7895 29.9801 41.8C30.5569 41.8105 31.0275 41.3463 31.0275 40.7718V39.4224C31.0275 38.7462 31.3301 38.0958 31.8716 37.6906C32.6347 37.1198 33.1286 36.2098 33.1286 35.1839Z" fill="url(#paint4_linear_300_769)"/>
<path d="M37.2009 26.1583C36.3678 26.1583 35.6926 25.4831 35.6926 24.65V17.2841C35.6926 14.1447 33.1387 11.5909 29.9994 11.5909C26.86 11.5909 24.3062 14.1447 24.3062 17.2841V24.65C24.3062 25.4831 23.631 26.1583 22.7979 26.1583C21.9647 26.1583 21.2891 25.4831 21.2891 24.65V17.2841C21.2891 12.4812 25.1965 8.57422 29.9994 8.57422C34.8018 8.57422 38.7093 12.4812 38.7093 17.2841V24.65C38.7093 25.4831 38.0341 26.1583 37.2009 26.1583Z" fill="url(#paint5_linear_300_769)"/>
</g>
<defs>
<linearGradient id="paint0_linear_300_769" x1="17.17" y1="12.4702" x2="41.591" y2="36.8912" gradientUnits="userSpaceOnUse">
<stop stop-color="#ECF7FF"/>
<stop offset="1" stop-color="#C2E0FF"/>
</linearGradient>
<linearGradient id="paint1_linear_300_769" x1="4.4707" y1="13.7437" x2="57.2413" y2="17.5561" gradientUnits="userSpaceOnUse">
<stop stop-color="#30C917"/>
<stop offset="1" stop-color="#279A13"/>
</linearGradient>
<linearGradient id="paint2_linear_300_769" x1="22.0296" y1="30.9222" x2="43.1949" y2="43.5975" gradientUnits="userSpaceOnUse">
<stop stop-color="#FFC738"/>
<stop offset="0.4286" stop-color="#FFBB23"/>
<stop offset="1" stop-color="#FFA700"/>
</linearGradient>
<linearGradient id="paint3_linear_300_769" x1="30.0001" y1="23.7861" x2="30.0001" y2="26.6958" gradientUnits="userSpaceOnUse">
<stop stop-color="#FFC738"/>
<stop offset="0.4286" stop-color="#FFBB23"/>
<stop offset="1" stop-color="#FFA700"/>
</linearGradient>
<linearGradient id="paint4_linear_300_769" x1="29.0161" y1="33.9372" x2="32.8155" y2="40.9688" gradientUnits="userSpaceOnUse">
<stop stop-color="#3B395F"/>
<stop offset="0.0633" stop-color="#37355A"/>
<stop offset="0.4033" stop-color="#232543"/>
<stop offset="0.7232" stop-color="#171B35"/>
<stop offset="1" stop-color="#131830"/>
</linearGradient>
<linearGradient id="paint5_linear_300_769" x1="29.9994" y1="21.9775" x2="29.9994" y2="27.5358" gradientUnits="userSpaceOnUse">
<stop stop-color="#3B395F"/>
<stop offset="0.0633" stop-color="#37355A"/>
<stop offset="0.4033" stop-color="#232543"/>
<stop offset="0.7232" stop-color="#171B35"/>
<stop offset="1" stop-color="#131830"/>
</linearGradient>
<clipPath id="clip0_300_769">
<rect width="60" height="60" fill="white"/>
</clipPath>
</defs>
</svg>
