<svg width="60" height="60" viewBox="0 0 60 60" fill="none" xmlns="http://www.w3.org/2000/svg">
<g clip-path="url(#clip0_300_793)">
<path d="M44.1765 34.8061C52.9131 34.8061 59.9955 27.7236 59.9955 18.987C59.9955 10.2504 52.9131 3.16797 44.1765 3.16797C35.4398 3.16797 28.3574 10.2504 28.3574 18.987C28.3574 27.7236 35.4398 34.8061 44.1765 34.8061Z" fill="url(#paint0_linear_300_793)"/>
<mask id="path-2-outside-1_300_793" maskUnits="userSpaceOnUse" x="33" y="12" width="24" height="18" fill="black">
<rect fill="white" x="33" y="12" width="24" height="18"/>
<path d="M50.719 15.0731C50.4002 15.076 50.0822 15.1013 49.7678 15.1495C49.4533 15.1977 49.1436 15.2712 48.8414 15.3647C48.2372 15.5537 47.6618 15.8291 47.1512 16.1897C46.6375 16.5478 46.1839 16.9773 45.7381 17.411C45.2931 17.8459 44.8491 18.265 44.365 18.6659C45.3423 19.2305 46.4462 19.5557 47.5805 19.6733C48.7139 19.7942 49.8735 19.6774 50.9569 19.3422C52.0408 19.0074 53.0485 18.4503 53.8888 17.718C54.7291 16.986 55.4215 16.1631 55.8504 15.1582C55.0749 14.4662 54.1515 13.9265 53.1525 13.5863C52.1534 13.2449 51.0791 13.1119 50.0227 13.1813C49.4938 13.2166 48.9705 13.3117 48.4621 13.4538C47.9545 13.5992 47.4631 13.7949 46.9994 14.0395C46.7693 14.1637 46.5445 14.2967 46.3296 14.4454C46.1152 14.5941 45.906 14.7499 45.705 14.9165C45.3018 15.2475 44.9226 15.6069 44.5472 15.9712C44.1714 16.3351 43.7983 16.7044 43.406 17.0575C43.2098 17.234 43.0093 17.4068 42.8005 17.5709C42.5922 17.7358 42.3773 17.8937 42.1512 18.0374C42.0951 18.074 42.0389 18.1105 41.9807 18.1437C41.9228 18.1778 41.8658 18.2131 41.8071 18.2455L41.6292 18.3411C41.5705 18.3739 41.5083 18.4005 41.4479 18.4304L41.3565 18.4744C41.3261 18.4885 41.2943 18.501 41.2635 18.5143C41.2008 18.54 41.1395 18.5679 41.0764 18.5924C40.949 18.6389 40.8224 18.6875 40.6919 18.7245C40.5632 18.7673 40.4297 18.7959 40.2983 18.83L40.0978 18.8691L39.9974 18.8882L39.896 18.9027C39.6263 18.9413 39.3536 18.9592 39.0809 18.9567C38.536 18.9517 37.9927 18.8661 37.4743 18.707C37.2151 18.6273 36.9624 18.5288 36.7188 18.4129C36.4757 18.2958 36.2412 18.1624 36.0181 18.0141C35.1282 17.416 34.4228 16.5702 34.0226 15.6027L34 15.5475L34.05 15.513C34.7977 14.9966 35.6967 14.6988 36.6096 14.6215C37.5239 14.5442 38.4559 14.6905 39.2984 15.0328C39.7194 15.2047 40.1178 15.4253 40.4884 15.6812C40.8581 15.9384 41.196 16.235 41.5048 16.5557C42.1194 17.2008 42.6083 17.9477 42.9806 18.7399C43.168 19.1357 43.3251 19.5445 43.4547 19.9607C43.5212 20.1684 43.5764 20.3791 43.6291 20.5901C43.6778 20.8019 43.7235 21.015 43.7578 21.2294C43.8261 21.6581 43.8792 22.088 43.9187 22.5192C43.9414 22.7344 43.9561 22.9504 43.9744 23.166C43.9888 23.382 44.0062 23.5976 44.0175 23.8136C44.0684 24.6773 44.0971 25.5417 44.1062 26.4066C44.1166 27.2711 44.1066 28.136 44.0718 29C44.0836 28.568 44.0884 28.1355 44.0884 27.7035C44.0866 27.2715 44.0827 26.8391 44.0727 26.407C44.0544 25.543 44.017 24.6794 43.9575 23.817C43.944 23.6014 43.9244 23.3862 43.9079 23.1706C43.887 22.9554 43.8705 22.7402 43.8457 22.5255C43.8017 22.0959 43.7443 21.6672 43.6721 21.2423C43.5973 20.8177 43.4929 20.3982 43.3616 19.9865C43.2307 19.5748 43.0728 19.1711 42.8849 18.7802C42.5122 17.9984 42.0242 17.2635 41.4157 16.6325C41.1099 16.3189 40.7768 16.0293 40.4127 15.7797C40.0482 15.5308 39.6577 15.3177 39.2453 15.152C38.4203 14.8226 37.5126 14.6859 36.6231 14.7661C35.7358 14.8467 34.8921 15.0774 34.1714 15.578C34.5615 16.5156 35.2491 17.305 36.1134 17.8837C36.3304 18.0274 36.5579 18.1562 36.7936 18.2692C37.0298 18.3809 37.2751 18.4761 37.5265 18.5529C38.0293 18.7062 38.5555 18.788 39.0827 18.7918C39.3462 18.7939 39.6098 18.776 39.8699 18.7382L39.9673 18.7241L40.0643 18.7054L40.2579 18.6672C40.3849 18.6339 40.5136 18.6065 40.638 18.5646C40.7641 18.5284 40.8864 18.4811 41.0095 18.4362C41.0703 18.4125 41.1299 18.3855 41.1904 18.3602C41.2204 18.3473 41.2508 18.3353 41.2804 18.3211L41.3687 18.2783C41.427 18.2493 41.4874 18.2231 41.5444 18.1911L41.7167 18.0981C41.7736 18.0661 41.8289 18.0316 41.8854 17.9984C41.942 17.966 41.9968 17.9302 42.0511 17.8945C42.2712 17.7541 42.4813 17.5992 42.6853 17.4371C42.8901 17.276 43.0876 17.1048 43.2811 16.9299C43.6691 16.5806 44.0388 16.2109 44.4163 15.8466C44.7934 15.4818 45.177 15.12 45.5876 14.7844C45.792 14.6157 46.006 14.4566 46.2257 14.305C46.4453 14.1534 46.6771 14.0167 46.9137 13.89C47.3891 13.6403 47.8928 13.4409 48.4125 13.293C48.9331 13.1485 49.469 13.0525 50.01 13.0172C51.0913 12.9483 52.1878 13.0862 53.2081 13.4368C54.2281 13.7861 55.1697 14.339 55.9596 15.0469L56 15.083L55.9791 15.1312C55.8669 15.3867 55.7425 15.6372 55.6038 15.8806C55.462 16.1224 55.3093 16.3579 55.1419 16.5843C54.9722 16.809 54.7926 17.0267 54.5999 17.2332C54.4055 17.4384 54.2024 17.6361 53.9871 17.8214C53.1264 18.5629 52.0982 19.1229 50.9956 19.4569C49.893 19.7908 48.717 19.9022 47.5687 19.7734C46.4205 19.6475 45.3036 19.2749 44.3228 18.6938L44.2754 18.6659L44.3176 18.6319C44.8012 18.2389 45.2436 17.8006 45.6937 17.369C46.1443 16.9391 46.6045 16.5116 47.1255 16.1556C47.644 15.7975 48.2251 15.5242 48.8344 15.3422C49.1393 15.2521 49.4511 15.1823 49.7665 15.1379C50.0814 15.0938 50.4006 15.0722 50.719 15.0731Z"/>
</mask>
<path d="M50.719 15.0731C50.4002 15.076 50.0822 15.1013 49.7678 15.1495C49.4533 15.1977 49.1436 15.2712 48.8414 15.3647C48.2372 15.5537 47.6618 15.8291 47.1512 16.1897C46.6375 16.5478 46.1839 16.9773 45.7381 17.411C45.2931 17.8459 44.8491 18.265 44.365 18.6659C45.3423 19.2305 46.4462 19.5557 47.5805 19.6733C48.7139 19.7942 49.8735 19.6774 50.9569 19.3422C52.0408 19.0074 53.0485 18.4503 53.8888 17.718C54.7291 16.986 55.4215 16.1631 55.8504 15.1582C55.0749 14.4662 54.1515 13.9265 53.1525 13.5863C52.1534 13.2449 51.0791 13.1119 50.0227 13.1813C49.4938 13.2166 48.9705 13.3117 48.4621 13.4538C47.9545 13.5992 47.4631 13.7949 46.9994 14.0395C46.7693 14.1637 46.5445 14.2967 46.3296 14.4454C46.1152 14.5941 45.906 14.7499 45.705 14.9165C45.3018 15.2475 44.9226 15.6069 44.5472 15.9712C44.1714 16.3351 43.7983 16.7044 43.406 17.0575C43.2098 17.234 43.0093 17.4068 42.8005 17.5709C42.5922 17.7358 42.3773 17.8937 42.1512 18.0374C42.0951 18.074 42.0389 18.1105 41.9807 18.1437C41.9228 18.1778 41.8658 18.2131 41.8071 18.2455L41.6292 18.3411C41.5705 18.3739 41.5083 18.4005 41.4479 18.4304L41.3565 18.4744C41.3261 18.4885 41.2943 18.501 41.2635 18.5143C41.2008 18.54 41.1395 18.5679 41.0764 18.5924C40.949 18.6389 40.8224 18.6875 40.6919 18.7245C40.5632 18.7673 40.4297 18.7959 40.2983 18.83L40.0978 18.8691L39.9974 18.8882L39.896 18.9027C39.6263 18.9413 39.3536 18.9592 39.0809 18.9567C38.536 18.9517 37.9927 18.8661 37.4743 18.707C37.2151 18.6273 36.9624 18.5288 36.7188 18.4129C36.4757 18.2958 36.2412 18.1624 36.0181 18.0141C35.1282 17.416 34.4228 16.5702 34.0226 15.6027L34 15.5475L34.05 15.513C34.7977 14.9966 35.6967 14.6988 36.6096 14.6215C37.5239 14.5442 38.4559 14.6905 39.2984 15.0328C39.7194 15.2047 40.1178 15.4253 40.4884 15.6812C40.8581 15.9384 41.196 16.235 41.5048 16.5557C42.1194 17.2008 42.6083 17.9477 42.9806 18.7399C43.168 19.1357 43.3251 19.5445 43.4547 19.9607C43.5212 20.1684 43.5764 20.3791 43.6291 20.5901C43.6778 20.8019 43.7235 21.015 43.7578 21.2294C43.8261 21.6581 43.8792 22.088 43.9187 22.5192C43.9414 22.7344 43.9561 22.9504 43.9744 23.166C43.9888 23.382 44.0062 23.5976 44.0175 23.8136C44.0684 24.6773 44.0971 25.5417 44.1062 26.4066C44.1166 27.2711 44.1066 28.136 44.0718 29C44.0836 28.568 44.0884 28.1355 44.0884 27.7035C44.0866 27.2715 44.0827 26.8391 44.0727 26.407C44.0544 25.543 44.017 24.6794 43.9575 23.817C43.944 23.6014 43.9244 23.3862 43.9079 23.1706C43.887 22.9554 43.8705 22.7402 43.8457 22.5255C43.8017 22.0959 43.7443 21.6672 43.6721 21.2423C43.5973 20.8177 43.4929 20.3982 43.3616 19.9865C43.2307 19.5748 43.0728 19.1711 42.8849 18.7802C42.5122 17.9984 42.0242 17.2635 41.4157 16.6325C41.1099 16.3189 40.7768 16.0293 40.4127 15.7797C40.0482 15.5308 39.6577 15.3177 39.2453 15.152C38.4203 14.8226 37.5126 14.6859 36.6231 14.7661C35.7358 14.8467 34.8921 15.0774 34.1714 15.578C34.5615 16.5156 35.2491 17.305 36.1134 17.8837C36.3304 18.0274 36.5579 18.1562 36.7936 18.2692C37.0298 18.3809 37.2751 18.4761 37.5265 18.5529C38.0293 18.7062 38.5555 18.788 39.0827 18.7918C39.3462 18.7939 39.6098 18.776 39.8699 18.7382L39.9673 18.7241L40.0643 18.7054L40.2579 18.6672C40.3849 18.6339 40.5136 18.6065 40.638 18.5646C40.7641 18.5284 40.8864 18.4811 41.0095 18.4362C41.0703 18.4125 41.1299 18.3855 41.1904 18.3602C41.2204 18.3473 41.2508 18.3353 41.2804 18.3211L41.3687 18.2783C41.427 18.2493 41.4874 18.2231 41.5444 18.1911L41.7167 18.0981C41.7736 18.0661 41.8289 18.0316 41.8854 17.9984C41.942 17.966 41.9968 17.9302 42.0511 17.8945C42.2712 17.7541 42.4813 17.5992 42.6853 17.4371C42.8901 17.276 43.0876 17.1048 43.2811 16.9299C43.6691 16.5806 44.0388 16.2109 44.4163 15.8466C44.7934 15.4818 45.177 15.12 45.5876 14.7844C45.792 14.6157 46.006 14.4566 46.2257 14.305C46.4453 14.1534 46.6771 14.0167 46.9137 13.89C47.3891 13.6403 47.8928 13.4409 48.4125 13.293C48.9331 13.1485 49.469 13.0525 50.01 13.0172C51.0913 12.9483 52.1878 13.0862 53.2081 13.4368C54.2281 13.7861 55.1697 14.339 55.9596 15.0469L56 15.083L55.9791 15.1312C55.8669 15.3867 55.7425 15.6372 55.6038 15.8806C55.462 16.1224 55.3093 16.3579 55.1419 16.5843C54.9722 16.809 54.7926 17.0267 54.5999 17.2332C54.4055 17.4384 54.2024 17.6361 53.9871 17.8214C53.1264 18.5629 52.0982 19.1229 50.9956 19.4569C49.893 19.7908 48.717 19.9022 47.5687 19.7734C46.4205 19.6475 45.3036 19.2749 44.3228 18.6938L44.2754 18.6659L44.3176 18.6319C44.8012 18.2389 45.2436 17.8006 45.6937 17.369C46.1443 16.9391 46.6045 16.5116 47.1255 16.1556C47.644 15.7975 48.2251 15.5242 48.8344 15.3422C49.1393 15.2521 49.4511 15.1823 49.7665 15.1379C50.0814 15.0938 50.4006 15.0722 50.719 15.0731Z" fill="white"/>
<path d="M50.719 15.0731C50.4002 15.076 50.0822 15.1013 49.7678 15.1495C49.4533 15.1977 49.1436 15.2712 48.8414 15.3647C48.2372 15.5537 47.6618 15.8291 47.1512 16.1897C46.6375 16.5478 46.1839 16.9773 45.7381 17.411C45.2931 17.8459 44.8491 18.265 44.365 18.6659C45.3423 19.2305 46.4462 19.5557 47.5805 19.6733C48.7139 19.7942 49.8735 19.6774 50.9569 19.3422C52.0408 19.0074 53.0485 18.4503 53.8888 17.718C54.7291 16.986 55.4215 16.1631 55.8504 15.1582C55.0749 14.4662 54.1515 13.9265 53.1525 13.5863C52.1534 13.2449 51.0791 13.1119 50.0227 13.1813C49.4938 13.2166 48.9705 13.3117 48.4621 13.4538C47.9545 13.5992 47.4631 13.7949 46.9994 14.0395C46.7693 14.1637 46.5445 14.2967 46.3296 14.4454C46.1152 14.5941 45.906 14.7499 45.705 14.9165C45.3018 15.2475 44.9226 15.6069 44.5472 15.9712C44.1714 16.3351 43.7983 16.7044 43.406 17.0575C43.2098 17.234 43.0093 17.4068 42.8005 17.5709C42.5922 17.7358 42.3773 17.8937 42.1512 18.0374C42.0951 18.074 42.0389 18.1105 41.9807 18.1437C41.9228 18.1778 41.8658 18.2131 41.8071 18.2455L41.6292 18.3411C41.5705 18.3739 41.5083 18.4005 41.4479 18.4304L41.3565 18.4744C41.3261 18.4885 41.2943 18.501 41.2635 18.5143C41.2008 18.54 41.1395 18.5679 41.0764 18.5924C40.949 18.6389 40.8224 18.6875 40.6919 18.7245C40.5632 18.7673 40.4297 18.7959 40.2983 18.83L40.0978 18.8691L39.9974 18.8882L39.896 18.9027C39.6263 18.9413 39.3536 18.9592 39.0809 18.9567C38.536 18.9517 37.9927 18.8661 37.4743 18.707C37.2151 18.6273 36.9624 18.5288 36.7188 18.4129C36.4757 18.2958 36.2412 18.1624 36.0181 18.0141C35.1282 17.416 34.4228 16.5702 34.0226 15.6027L34 15.5475L34.05 15.513C34.7977 14.9966 35.6967 14.6988 36.6096 14.6215C37.5239 14.5442 38.4559 14.6905 39.2984 15.0328C39.7194 15.2047 40.1178 15.4253 40.4884 15.6812C40.8581 15.9384 41.196 16.235 41.5048 16.5557C42.1194 17.2008 42.6083 17.9477 42.9806 18.7399C43.168 19.1357 43.3251 19.5445 43.4547 19.9607C43.5212 20.1684 43.5764 20.3791 43.6291 20.5901C43.6778 20.8019 43.7235 21.015 43.7578 21.2294C43.8261 21.6581 43.8792 22.088 43.9187 22.5192C43.9414 22.7344 43.9561 22.9504 43.9744 23.166C43.9888 23.382 44.0062 23.5976 44.0175 23.8136C44.0684 24.6773 44.0971 25.5417 44.1062 26.4066C44.1166 27.2711 44.1066 28.136 44.0718 29C44.0836 28.568 44.0884 28.1355 44.0884 27.7035C44.0866 27.2715 44.0827 26.8391 44.0727 26.407C44.0544 25.543 44.017 24.6794 43.9575 23.817C43.944 23.6014 43.9244 23.3862 43.9079 23.1706C43.887 22.9554 43.8705 22.7402 43.8457 22.5255C43.8017 22.0959 43.7443 21.6672 43.6721 21.2423C43.5973 20.8177 43.4929 20.3982 43.3616 19.9865C43.2307 19.5748 43.0728 19.1711 42.8849 18.7802C42.5122 17.9984 42.0242 17.2635 41.4157 16.6325C41.1099 16.3189 40.7768 16.0293 40.4127 15.7797C40.0482 15.5308 39.6577 15.3177 39.2453 15.152C38.4203 14.8226 37.5126 14.6859 36.6231 14.7661C35.7358 14.8467 34.8921 15.0774 34.1714 15.578C34.5615 16.5156 35.2491 17.305 36.1134 17.8837C36.3304 18.0274 36.5579 18.1562 36.7936 18.2692C37.0298 18.3809 37.2751 18.4761 37.5265 18.5529C38.0293 18.7062 38.5555 18.788 39.0827 18.7918C39.3462 18.7939 39.6098 18.776 39.8699 18.7382L39.9673 18.7241L40.0643 18.7054L40.2579 18.6672C40.3849 18.6339 40.5136 18.6065 40.638 18.5646C40.7641 18.5284 40.8864 18.4811 41.0095 18.4362C41.0703 18.4125 41.1299 18.3855 41.1904 18.3602C41.2204 18.3473 41.2508 18.3353 41.2804 18.3211L41.3687 18.2783C41.427 18.2493 41.4874 18.2231 41.5444 18.1911L41.7167 18.0981C41.7736 18.0661 41.8289 18.0316 41.8854 17.9984C41.942 17.966 41.9968 17.9302 42.0511 17.8945C42.2712 17.7541 42.4813 17.5992 42.6853 17.4371C42.8901 17.276 43.0876 17.1048 43.2811 16.9299C43.6691 16.5806 44.0388 16.2109 44.4163 15.8466C44.7934 15.4818 45.177 15.12 45.5876 14.7844C45.792 14.6157 46.006 14.4566 46.2257 14.305C46.4453 14.1534 46.6771 14.0167 46.9137 13.89C47.3891 13.6403 47.8928 13.4409 48.4125 13.293C48.9331 13.1485 49.469 13.0525 50.01 13.0172C51.0913 12.9483 52.1878 13.0862 53.2081 13.4368C54.2281 13.7861 55.1697 14.339 55.9596 15.0469L56 15.083L55.9791 15.1312C55.8669 15.3867 55.7425 15.6372 55.6038 15.8806C55.462 16.1224 55.3093 16.3579 55.1419 16.5843C54.9722 16.809 54.7926 17.0267 54.5999 17.2332C54.4055 17.4384 54.2024 17.6361 53.9871 17.8214C53.1264 18.5629 52.0982 19.1229 50.9956 19.4569C49.893 19.7908 48.717 19.9022 47.5687 19.7734C46.4205 19.6475 45.3036 19.2749 44.3228 18.6938L44.2754 18.6659L44.3176 18.6319C44.8012 18.2389 45.2436 17.8006 45.6937 17.369C46.1443 16.9391 46.6045 16.5116 47.1255 16.1556C47.644 15.7975 48.2251 15.5242 48.8344 15.3422C49.1393 15.2521 49.4511 15.1823 49.7665 15.1379C50.0814 15.0938 50.4006 15.0722 50.719 15.0731Z" stroke="white" stroke-width="0.56" mask="url(#path-2-outside-1_300_793)"/>
<path d="M59.3627 40.323C58.2378 38.7059 56.0583 38.3193 54.4764 39.4442L45.0553 46.0531C44.7757 46.2155 44.4666 46.3056 44.1764 46.4447C41.3288 47.8086 38.0323 48.0934 35.0014 47.0725L24.2796 43.4867C23.3656 43.2056 22.8733 42.1861 23.1898 41.2723C23.4709 40.3935 24.3849 39.9013 25.2989 40.1474C25.3341 40.1474 37.3566 44.0846 37.3566 44.0846C39.4008 44.6973 41.2171 43.5406 41.7859 41.8348C42.3834 39.9715 41.364 38.0029 39.5361 37.4054L23.1195 31.9917C17.8429 30.0708 9.86293 31.4261 5.76545 37.4756L3.51562 43.8371V51.2357L24.4554 55.9663C26.9818 56.522 29.3437 56.8333 31.7321 56.8333H32.1188C36.3171 56.7833 40.3782 55.8571 44.1764 54.2942C45.7211 53.6586 47.233 52.9382 48.6762 52.0641L58.4839 45.2093C60.136 44.0493 60.4525 41.8698 59.3627 40.323Z" fill="#FFE1BA"/>
<path d="M58.4832 45.213C60.1353 44.0529 60.4518 41.8735 59.3621 40.3267C58.2372 38.7095 56.0576 38.323 54.4757 39.4479L45.0546 46.0567C44.775 46.2191 44.4659 46.3092 44.1758 46.4483V54.298C45.7204 53.6624 47.2324 52.942 48.6755 52.0678L58.4832 45.213Z" fill="#FFE1BA"/>
<path d="M5.27302 55.8967H1.75767C0.786968 55.8967 0 55.1098 0 54.1391V36.5624C0 35.5917 0.786968 34.8047 1.75767 34.8047H5.27302C6.24372 34.8047 7.03069 35.5917 7.03069 36.5624V54.1391C7.03069 55.1098 6.24372 55.8967 5.27302 55.8967Z" fill="url(#paint1_linear_300_793)"/>
</g>
<defs>
<linearGradient id="paint0_linear_300_793" x1="28.3574" y1="9.10011" x2="61.0636" y2="11.4124" gradientUnits="userSpaceOnUse">
<stop stop-color="#30C917"/>
<stop offset="1" stop-color="#279A13"/>
</linearGradient>
<linearGradient id="paint1_linear_300_793" x1="4.06825e-08" y1="38.7594" x2="7.3003" y2="38.9315" gradientUnits="userSpaceOnUse">
<stop stop-color="#30C917"/>
<stop offset="1" stop-color="#279A13"/>
</linearGradient>
<clipPath id="clip0_300_793">
<rect width="60" height="60" fill="white"/>
</clipPath>
</defs>
</svg>
