<svg width="60" height="60" viewBox="0 0 60 60" fill="none" xmlns="http://www.w3.org/2000/svg">
<path fill-rule="evenodd" clip-rule="evenodd" d="M15.0799 41.9936L9.22781 49.9883C4.23973 44.8058 1.17188 37.7619 1.17188 30.0008C1.17188 23.6516 3.22594 17.7827 6.70395 13.02L3.91277 10.2288C3.74168 10.0577 3.69316 9.81395 3.78574 9.59023C3.87832 9.36664 4.08504 9.22848 4.32703 9.22848H10.0125C11.8282 7.48098 13.8724 5.96902 16.0958 4.74219C18.223 8.46383 19.8263 11.2673 20.9057 13.1526C19.8795 13.7079 18.9097 14.3541 18.0071 15.0806V22.9086C18.0071 23.1506 17.8691 23.3573 17.6455 23.4499C17.4219 23.5426 17.1782 23.4941 17.007 23.3229L13.6782 19.9941C11.889 22.9058 10.8568 26.3327 10.8568 30.0008C10.8568 34.5413 12.4386 38.7118 15.0799 41.9936Z" fill="#5DBCD9"/>
<path fill-rule="evenodd" clip-rule="evenodd" d="M41.9927 44.9195L49.9875 50.7716C44.8048 55.7596 37.7609 58.8276 29.9998 58.8276C23.6506 58.8276 17.7818 56.7736 13.019 53.2955L10.2279 56.0867C10.0568 56.2579 9.81289 56.3063 9.5893 56.2137C9.3657 56.1211 9.22754 55.9144 9.22754 55.6724V43.1641C9.22754 42.5186 9.75395 41.9922 10.3994 41.9922H22.9077C23.1496 41.9922 23.3564 42.1302 23.4489 42.3538C23.5416 42.5774 23.4931 42.8212 23.3219 42.9924L19.9932 46.3211C22.9047 48.1103 26.3316 49.1425 29.9997 49.1425C34.5404 49.1426 38.7109 47.5608 41.9927 44.9195Z" fill="#FF4755"/>
<path fill-rule="evenodd" clip-rule="evenodd" d="M44.9205 18.0065L50.7726 10.0117C55.7607 15.1943 58.8286 22.2382 58.8286 29.9993C58.8286 36.3486 56.7746 42.2174 53.4193 47.103L56.0877 49.7713C56.2587 49.9424 56.3073 50.1863 56.2147 50.4099C56.122 50.6335 55.9154 50.7715 55.6734 50.7715H43.165C42.5196 50.7715 41.9932 50.2451 41.9932 49.5997V37.0914C41.9932 36.8494 42.1312 36.6427 42.3548 36.5501C42.5784 36.4574 42.8221 36.5059 42.9934 36.6772L46.3221 40.0059C48.1113 37.0943 49.1435 33.6674 49.1435 29.9993C49.1436 25.4588 47.5618 21.2883 44.9205 18.0065Z" fill="#F0C419"/>
<path fill-rule="evenodd" clip-rule="evenodd" d="M18.0073 15.0799C21.2892 12.4386 25.4596 10.8568 30.0002 10.8568C33.6683 10.8568 37.0952 11.889 40.0067 13.6782L36.678 17.007C36.5069 17.178 36.4584 17.4218 36.551 17.6455C36.6436 17.8691 36.8503 18.0071 37.0923 18.0071H49.6005C50.246 18.0071 50.7724 17.4807 50.7724 16.8353V4.32715C50.7724 4.08516 50.6343 3.87844 50.4106 3.78586C50.187 3.69328 49.9433 3.74168 49.7721 3.91289L46.9809 6.70395C42.2183 3.22594 36.3494 1.17188 30.0002 1.17188C22.2391 1.17188 15.1952 4.23973 10.0127 9.22781H16.8356C17.4811 9.22781 18.0075 9.75422 18.0075 10.3997V15.0799H18.0073Z" fill="#D5DCED"/>
<path d="M30 42C36.6274 42 42 36.6274 42 30C42 23.3726 36.6274 18 30 18C23.3726 18 18 23.3726 18 30C18 36.6274 23.3726 42 30 42Z" fill="url(#paint0_linear_300_780)"/>
<mask id="path-6-outside-1_300_780" maskUnits="userSpaceOnUse" x="21.2803" y="24.4609" width="19" height="14" fill="black">
<rect fill="white" x="21.2803" y="24.4609" width="19" height="14"/>
<path d="M34.963 27.0335C34.7211 27.0357 34.4799 27.0549 34.2414 27.0915C34.0028 27.1281 33.7679 27.1838 33.5386 27.2547C33.0803 27.3981 32.6438 27.607 32.2565 27.8806C31.8668 28.1522 31.5227 28.478 31.1845 28.807C30.847 29.1369 30.5102 29.4549 30.1429 29.759C30.8843 30.1872 31.7217 30.434 32.5821 30.5231C33.442 30.6148 34.3216 30.5263 35.1434 30.272C35.9656 30.018 36.7301 29.5954 37.3675 29.0399C38.0049 28.4846 38.5302 27.8604 38.8555 27.0981C38.2672 26.5731 37.5668 26.1638 36.8089 25.9057C36.0511 25.6467 35.2361 25.5458 34.4347 25.5985C34.0335 25.6253 33.6366 25.6974 33.2509 25.8052C32.8659 25.9155 32.4931 26.0639 32.1414 26.2495C31.9668 26.3437 31.7962 26.4446 31.6333 26.5574C31.4706 26.6702 31.3119 26.7884 31.1595 26.9147C30.8536 27.1659 30.5659 27.4384 30.2812 27.7148C29.9961 27.9909 29.713 28.271 29.4154 28.5388C29.2666 28.6728 29.1145 28.8039 28.9562 28.9283C28.7981 29.0534 28.6351 29.1732 28.4636 29.2822C28.421 29.3099 28.3785 29.3377 28.3342 29.3629C28.2904 29.3887 28.2471 29.4155 28.2026 29.4401L28.0677 29.5126C28.0231 29.5375 27.9759 29.5576 27.9301 29.5803L27.8608 29.6137C27.8377 29.6244 27.8136 29.6339 27.7902 29.644C27.7427 29.6635 27.6961 29.6846 27.6483 29.7032C27.5516 29.7385 27.4556 29.7754 27.3566 29.8034C27.259 29.8359 27.1577 29.8576 27.0581 29.8835L26.906 29.9131L26.8297 29.9276L26.7529 29.9386C26.5483 29.9679 26.3414 29.9815 26.1346 29.9796C25.7212 29.9758 25.3091 29.9109 24.9158 29.7902C24.7191 29.7297 24.5275 29.655 24.3427 29.5671C24.1583 29.4782 23.9804 29.3771 23.8112 29.2646C23.1361 28.8108 22.601 28.1692 22.2974 27.4353L22.2803 27.3934L22.3182 27.3672C22.8854 26.9755 23.5673 26.7496 24.2599 26.691C24.9534 26.6324 25.6605 26.7433 26.2995 27.003C26.6189 27.1334 26.9211 27.3007 27.2022 27.4949C27.4827 27.6899 27.739 27.9149 27.9733 28.1582C28.4395 28.6476 28.8103 29.2141 29.0928 29.8151C29.235 30.1154 29.3541 30.4255 29.4524 30.7412C29.5029 30.8988 29.5448 31.0585 29.5847 31.2186C29.6216 31.3793 29.6563 31.541 29.6824 31.7036C29.7342 32.0288 29.7744 32.3549 29.8044 32.682C29.8216 32.8453 29.8328 33.0091 29.8467 33.1727C29.8575 33.3365 29.8707 33.5001 29.8793 33.6639C29.9179 34.3191 29.9397 34.9748 29.9466 35.6309C29.9545 36.2867 29.947 36.9428 29.9206 37.5982C29.9295 37.2705 29.9331 36.9424 29.9331 36.6147C29.9318 36.287 29.9288 35.959 29.9212 35.6312C29.9074 34.9758 29.879 34.3207 29.8338 33.6665C29.8236 33.5029 29.8087 33.3397 29.7962 33.1761C29.7803 33.0129 29.7678 32.8497 29.749 32.6868C29.7157 32.3609 29.6721 32.0357 29.6174 31.7134C29.5606 31.3913 29.4814 31.073 29.3818 30.7607C29.2825 30.4485 29.1627 30.1422 29.0202 29.8456C28.7374 29.2526 28.3672 28.6951 27.9057 28.2165C27.6737 27.9786 27.421 27.7589 27.1448 27.5695C26.8683 27.3808 26.5721 27.2191 26.2593 27.0934C25.6334 26.8435 24.9448 26.7398 24.2701 26.8006C23.597 26.8618 22.957 27.0368 22.4103 27.4165C22.7062 28.1278 23.2278 28.7267 23.8834 29.1656C24.0481 29.2746 24.2206 29.3723 24.3994 29.458C24.5786 29.5428 24.7647 29.615 24.9554 29.6733C25.3368 29.7896 25.736 29.8516 26.1359 29.8545C26.3358 29.856 26.5358 29.8425 26.7331 29.8138L26.807 29.8031L26.8805 29.7889L27.0274 29.7599C27.1237 29.7347 27.2214 29.7139 27.3157 29.6821C27.4114 29.6547 27.5041 29.6188 27.5975 29.5847C27.6437 29.5668 27.6889 29.5463 27.7347 29.5271C27.7575 29.5173 27.7806 29.5082 27.803 29.4974L27.87 29.465C27.9142 29.4429 27.9601 29.4231 28.0033 29.3988L28.134 29.3282C28.1772 29.304 28.2191 29.2778 28.262 29.2526C28.3049 29.228 28.3464 29.2009 28.3877 29.1738C28.5546 29.0673 28.714 28.9498 28.8687 28.8269C29.0241 28.7046 29.1739 28.5748 29.3207 28.4421C29.615 28.1771 29.8955 27.8966 30.1819 27.6203C30.4679 27.3436 30.7589 27.0691 31.0704 26.8145C31.2255 26.6866 31.3878 26.5659 31.5544 26.4509C31.721 26.3358 31.8969 26.2322 32.0764 26.1361C32.437 25.9467 32.819 25.7954 33.2133 25.6832C33.6082 25.5736 34.0147 25.5008 34.4252 25.474C35.2454 25.4217 36.0771 25.5263 36.8512 25.7923C37.6249 26.0573 38.3392 26.4767 38.9383 27.0137L38.969 27.0411L38.9532 27.0776C38.8681 27.2714 38.7737 27.4615 38.6684 27.6461C38.5609 27.8295 38.4451 28.0082 38.3181 28.1799C38.1894 28.3504 38.0531 28.5155 37.907 28.6721C37.7595 28.8278 37.6054 28.9778 37.4421 29.1183C36.7891 29.6808 36.0092 30.1056 35.1728 30.359C34.3364 30.6123 33.4443 30.6968 32.5732 30.5991C31.7022 30.5036 30.8549 30.221 30.1109 29.7801L30.075 29.759L30.107 29.7331C30.4739 29.435 30.8094 29.1026 31.1509 28.7752C31.4927 28.449 31.8418 28.1248 32.237 27.8547C32.6303 27.5831 33.0711 27.3757 33.5333 27.2377C33.7646 27.1693 34.0012 27.1164 34.2404 27.0827C34.4793 27.0493 34.7214 27.0329 34.963 27.0335Z"/>
</mask>
<path d="M34.963 27.0335C34.7211 27.0357 34.4799 27.0549 34.2414 27.0915C34.0028 27.1281 33.7679 27.1838 33.5386 27.2547C33.0803 27.3981 32.6438 27.607 32.2565 27.8806C31.8668 28.1522 31.5227 28.478 31.1845 28.807C30.847 29.1369 30.5102 29.4549 30.1429 29.759C30.8843 30.1872 31.7217 30.434 32.5821 30.5231C33.442 30.6148 34.3216 30.5263 35.1434 30.272C35.9656 30.018 36.7301 29.5954 37.3675 29.0399C38.0049 28.4846 38.5302 27.8604 38.8555 27.0981C38.2672 26.5731 37.5668 26.1638 36.8089 25.9057C36.0511 25.6467 35.2361 25.5458 34.4347 25.5985C34.0335 25.6253 33.6366 25.6974 33.2509 25.8052C32.8659 25.9155 32.4931 26.0639 32.1414 26.2495C31.9668 26.3437 31.7962 26.4446 31.6333 26.5574C31.4706 26.6702 31.3119 26.7884 31.1595 26.9147C30.8536 27.1659 30.5659 27.4384 30.2812 27.7148C29.9961 27.9909 29.713 28.271 29.4154 28.5388C29.2666 28.6728 29.1145 28.8039 28.9562 28.9283C28.7981 29.0534 28.6351 29.1732 28.4636 29.2822C28.421 29.3099 28.3785 29.3377 28.3342 29.3629C28.2904 29.3887 28.2471 29.4155 28.2026 29.4401L28.0677 29.5126C28.0231 29.5375 27.9759 29.5576 27.9301 29.5803L27.8608 29.6137C27.8377 29.6244 27.8136 29.6339 27.7902 29.644C27.7427 29.6635 27.6961 29.6846 27.6483 29.7032C27.5516 29.7385 27.4556 29.7754 27.3566 29.8034C27.259 29.8359 27.1577 29.8576 27.0581 29.8835L26.906 29.9131L26.8297 29.9276L26.7529 29.9386C26.5483 29.9679 26.3414 29.9815 26.1346 29.9796C25.7212 29.9758 25.3091 29.9109 24.9158 29.7902C24.7191 29.7297 24.5275 29.655 24.3427 29.5671C24.1583 29.4782 23.9804 29.3771 23.8112 29.2646C23.1361 28.8108 22.601 28.1692 22.2974 27.4353L22.2803 27.3934L22.3182 27.3672C22.8854 26.9755 23.5673 26.7496 24.2599 26.691C24.9534 26.6324 25.6605 26.7433 26.2995 27.003C26.6189 27.1334 26.9211 27.3007 27.2022 27.4949C27.4827 27.6899 27.739 27.9149 27.9733 28.1582C28.4395 28.6476 28.8103 29.2141 29.0928 29.8151C29.235 30.1154 29.3541 30.4255 29.4524 30.7412C29.5029 30.8988 29.5448 31.0585 29.5847 31.2186C29.6216 31.3793 29.6563 31.541 29.6824 31.7036C29.7342 32.0288 29.7744 32.3549 29.8044 32.682C29.8216 32.8453 29.8328 33.0091 29.8467 33.1727C29.8575 33.3365 29.8707 33.5001 29.8793 33.6639C29.9179 34.3191 29.9397 34.9748 29.9466 35.6309C29.9545 36.2867 29.947 36.9428 29.9206 37.5982C29.9295 37.2705 29.9331 36.9424 29.9331 36.6147C29.9318 36.287 29.9288 35.959 29.9212 35.6312C29.9074 34.9758 29.879 34.3207 29.8338 33.6665C29.8236 33.5029 29.8087 33.3397 29.7962 33.1761C29.7803 33.0129 29.7678 32.8497 29.749 32.6868C29.7157 32.3609 29.6721 32.0357 29.6174 31.7134C29.5606 31.3913 29.4814 31.073 29.3818 30.7607C29.2825 30.4485 29.1627 30.1422 29.0202 29.8456C28.7374 29.2526 28.3672 28.6951 27.9057 28.2165C27.6737 27.9786 27.421 27.7589 27.1448 27.5695C26.8683 27.3808 26.5721 27.2191 26.2593 27.0934C25.6334 26.8435 24.9448 26.7398 24.2701 26.8006C23.597 26.8618 22.957 27.0368 22.4103 27.4165C22.7062 28.1278 23.2278 28.7267 23.8834 29.1656C24.0481 29.2746 24.2206 29.3723 24.3994 29.458C24.5786 29.5428 24.7647 29.615 24.9554 29.6733C25.3368 29.7896 25.736 29.8516 26.1359 29.8545C26.3358 29.856 26.5358 29.8425 26.7331 29.8138L26.807 29.8031L26.8805 29.7889L27.0274 29.7599C27.1237 29.7347 27.2214 29.7139 27.3157 29.6821C27.4114 29.6547 27.5041 29.6188 27.5975 29.5847C27.6437 29.5668 27.6889 29.5463 27.7347 29.5271C27.7575 29.5173 27.7806 29.5082 27.803 29.4974L27.87 29.465C27.9142 29.4429 27.9601 29.4231 28.0033 29.3988L28.134 29.3282C28.1772 29.304 28.2191 29.2778 28.262 29.2526C28.3049 29.228 28.3464 29.2009 28.3877 29.1738C28.5546 29.0673 28.714 28.9498 28.8687 28.8269C29.0241 28.7046 29.1739 28.5748 29.3207 28.4421C29.615 28.1771 29.8955 27.8966 30.1819 27.6203C30.4679 27.3436 30.7589 27.0691 31.0704 26.8145C31.2255 26.6866 31.3878 26.5659 31.5544 26.4509C31.721 26.3358 31.8969 26.2322 32.0764 26.1361C32.437 25.9467 32.819 25.7954 33.2133 25.6832C33.6082 25.5736 34.0147 25.5008 34.4252 25.474C35.2454 25.4217 36.0771 25.5263 36.8512 25.7923C37.6249 26.0573 38.3392 26.4767 38.9383 27.0137L38.969 27.0411L38.9532 27.0776C38.8681 27.2714 38.7737 27.4615 38.6684 27.6461C38.5609 27.8295 38.4451 28.0082 38.3181 28.1799C38.1894 28.3504 38.0531 28.5155 37.907 28.6721C37.7595 28.8278 37.6054 28.9778 37.4421 29.1183C36.7891 29.6808 36.0092 30.1056 35.1728 30.359C34.3364 30.6123 33.4443 30.6968 32.5732 30.5991C31.7022 30.5036 30.8549 30.221 30.1109 29.7801L30.075 29.759L30.107 29.7331C30.4739 29.435 30.8094 29.1026 31.1509 28.7752C31.4927 28.449 31.8418 28.1248 32.237 27.8547C32.6303 27.5831 33.0711 27.3757 33.5333 27.2377C33.7646 27.1693 34.0012 27.1164 34.2404 27.0827C34.4793 27.0493 34.7214 27.0329 34.963 27.0335Z" fill="white"/>
<path d="M34.963 27.0335C34.7211 27.0357 34.4799 27.0549 34.2414 27.0915C34.0028 27.1281 33.7679 27.1838 33.5386 27.2547C33.0803 27.3981 32.6438 27.607 32.2565 27.8806C31.8668 28.1522 31.5227 28.478 31.1845 28.807C30.847 29.1369 30.5102 29.4549 30.1429 29.759C30.8843 30.1872 31.7217 30.434 32.5821 30.5231C33.442 30.6148 34.3216 30.5263 35.1434 30.272C35.9656 30.018 36.7301 29.5954 37.3675 29.0399C38.0049 28.4846 38.5302 27.8604 38.8555 27.0981C38.2672 26.5731 37.5668 26.1638 36.8089 25.9057C36.0511 25.6467 35.2361 25.5458 34.4347 25.5985C34.0335 25.6253 33.6366 25.6974 33.2509 25.8052C32.8659 25.9155 32.4931 26.0639 32.1414 26.2495C31.9668 26.3437 31.7962 26.4446 31.6333 26.5574C31.4706 26.6702 31.3119 26.7884 31.1595 26.9147C30.8536 27.1659 30.5659 27.4384 30.2812 27.7148C29.9961 27.9909 29.713 28.271 29.4154 28.5388C29.2666 28.6728 29.1145 28.8039 28.9562 28.9283C28.7981 29.0534 28.6351 29.1732 28.4636 29.2822C28.421 29.3099 28.3785 29.3377 28.3342 29.3629C28.2904 29.3887 28.2471 29.4155 28.2026 29.4401L28.0677 29.5126C28.0231 29.5375 27.9759 29.5576 27.9301 29.5803L27.8608 29.6137C27.8377 29.6244 27.8136 29.6339 27.7902 29.644C27.7427 29.6635 27.6961 29.6846 27.6483 29.7032C27.5516 29.7385 27.4556 29.7754 27.3566 29.8034C27.259 29.8359 27.1577 29.8576 27.0581 29.8835L26.906 29.9131L26.8297 29.9276L26.7529 29.9386C26.5483 29.9679 26.3414 29.9815 26.1346 29.9796C25.7212 29.9758 25.3091 29.9109 24.9158 29.7902C24.7191 29.7297 24.5275 29.655 24.3427 29.5671C24.1583 29.4782 23.9804 29.3771 23.8112 29.2646C23.1361 28.8108 22.601 28.1692 22.2974 27.4353L22.2803 27.3934L22.3182 27.3672C22.8854 26.9755 23.5673 26.7496 24.2599 26.691C24.9534 26.6324 25.6605 26.7433 26.2995 27.003C26.6189 27.1334 26.9211 27.3007 27.2022 27.4949C27.4827 27.6899 27.739 27.9149 27.9733 28.1582C28.4395 28.6476 28.8103 29.2141 29.0928 29.8151C29.235 30.1154 29.3541 30.4255 29.4524 30.7412C29.5029 30.8988 29.5448 31.0585 29.5847 31.2186C29.6216 31.3793 29.6563 31.541 29.6824 31.7036C29.7342 32.0288 29.7744 32.3549 29.8044 32.682C29.8216 32.8453 29.8328 33.0091 29.8467 33.1727C29.8575 33.3365 29.8707 33.5001 29.8793 33.6639C29.9179 34.3191 29.9397 34.9748 29.9466 35.6309C29.9545 36.2867 29.947 36.9428 29.9206 37.5982C29.9295 37.2705 29.9331 36.9424 29.9331 36.6147C29.9318 36.287 29.9288 35.959 29.9212 35.6312C29.9074 34.9758 29.879 34.3207 29.8338 33.6665C29.8236 33.5029 29.8087 33.3397 29.7962 33.1761C29.7803 33.0129 29.7678 32.8497 29.749 32.6868C29.7157 32.3609 29.6721 32.0357 29.6174 31.7134C29.5606 31.3913 29.4814 31.073 29.3818 30.7607C29.2825 30.4485 29.1627 30.1422 29.0202 29.8456C28.7374 29.2526 28.3672 28.6951 27.9057 28.2165C27.6737 27.9786 27.421 27.7589 27.1448 27.5695C26.8683 27.3808 26.5721 27.2191 26.2593 27.0934C25.6334 26.8435 24.9448 26.7398 24.2701 26.8006C23.597 26.8618 22.957 27.0368 22.4103 27.4165C22.7062 28.1278 23.2278 28.7267 23.8834 29.1656C24.0481 29.2746 24.2206 29.3723 24.3994 29.458C24.5786 29.5428 24.7647 29.615 24.9554 29.6733C25.3368 29.7896 25.736 29.8516 26.1359 29.8545C26.3358 29.856 26.5358 29.8425 26.7331 29.8138L26.807 29.8031L26.8805 29.7889L27.0274 29.7599C27.1237 29.7347 27.2214 29.7139 27.3157 29.6821C27.4114 29.6547 27.5041 29.6188 27.5975 29.5847C27.6437 29.5668 27.6889 29.5463 27.7347 29.5271C27.7575 29.5173 27.7806 29.5082 27.803 29.4974L27.87 29.465C27.9142 29.4429 27.9601 29.4231 28.0033 29.3988L28.134 29.3282C28.1772 29.304 28.2191 29.2778 28.262 29.2526C28.3049 29.228 28.3464 29.2009 28.3877 29.1738C28.5546 29.0673 28.714 28.9498 28.8687 28.8269C29.0241 28.7046 29.1739 28.5748 29.3207 28.4421C29.615 28.1771 29.8955 27.8966 30.1819 27.6203C30.4679 27.3436 30.7589 27.0691 31.0704 26.8145C31.2255 26.6866 31.3878 26.5659 31.5544 26.4509C31.721 26.3358 31.8969 26.2322 32.0764 26.1361C32.437 25.9467 32.819 25.7954 33.2133 25.6832C33.6082 25.5736 34.0147 25.5008 34.4252 25.474C35.2454 25.4217 36.0771 25.5263 36.8512 25.7923C37.6249 26.0573 38.3392 26.4767 38.9383 27.0137L38.969 27.0411L38.9532 27.0776C38.8681 27.2714 38.7737 27.4615 38.6684 27.6461C38.5609 27.8295 38.4451 28.0082 38.3181 28.1799C38.1894 28.3504 38.0531 28.5155 37.907 28.6721C37.7595 28.8278 37.6054 28.9778 37.4421 29.1183C36.7891 29.6808 36.0092 30.1056 35.1728 30.359C34.3364 30.6123 33.4443 30.6968 32.5732 30.5991C31.7022 30.5036 30.8549 30.221 30.1109 29.7801L30.075 29.759L30.107 29.7331C30.4739 29.435 30.8094 29.1026 31.1509 28.7752C31.4927 28.449 31.8418 28.1248 32.237 27.8547C32.6303 27.5831 33.0711 27.3757 33.5333 27.2377C33.7646 27.1693 34.0012 27.1164 34.2404 27.0827C34.4793 27.0493 34.7214 27.0329 34.963 27.0335Z" stroke="white" stroke-width="0.56" mask="url(#path-6-outside-1_300_780)"/>
<defs>
<linearGradient id="paint0_linear_300_780" x1="18" y1="22.5" x2="42.8102" y2="24.2541" gradientUnits="userSpaceOnUse">
<stop stop-color="#30C917"/>
<stop offset="1" stop-color="#279A13"/>
</linearGradient>
</defs>
</svg>
