<svg width="60" height="60" viewBox="0 0 60 60" fill="none" xmlns="http://www.w3.org/2000/svg">
<g clip-path="url(#clip0_300_747)">
<path d="M57.2422 30.0021L59.8745 23.1363C60.1632 22.3789 59.9383 21.5202 59.3046 21.0065L53.5974 16.3793L52.4425 9.11603C52.315 8.31359 51.6851 7.68738 50.8826 7.55989L43.6194 6.40497L38.9959 0.694107C38.486 0.0604003 37.6085 -0.164584 36.8698 0.124146L30.0003 2.76022L23.1345 0.127896C22.3733 -0.164584 21.5221 0.0678998 21.0084 0.697857L16.3812 6.40872L9.11798 7.56364C8.31929 7.69113 7.68933 8.32109 7.56184 9.11978L6.40692 16.383L0.696059 21.0102C0.0661017 21.5202 -0.162633 22.3789 0.126098 23.1363L2.75842 30.0021L0.126098 36.8679C-0.166382 37.6253 0.0661017 38.484 0.696059 38.994L6.40692 43.6174L7.56184 50.8807C7.68933 51.6831 8.31554 52.3131 9.11798 52.4406L16.3812 53.5955L21.0084 59.3026C21.5221 59.9401 22.3808 60.165 23.1383 59.8726L30.0003 57.244L36.8661 59.8763C37.0836 59.9588 37.3086 60 37.5373 60C38.0885 60 38.6322 59.7563 38.9959 59.3026L43.6194 53.5955L50.8826 52.4406C51.6851 52.3131 52.315 51.6831 52.4425 50.8807L53.5974 43.6174L59.3046 38.994C59.9383 38.4803 60.1632 37.6253 59.8745 36.8679L57.2422 30.0021Z" fill="url(#paint0_linear_300_747)"/>
<path d="M24.3756 26.2492C21.2746 26.2492 18.751 23.7257 18.751 20.6246C18.751 17.5236 21.2746 15 24.3756 15C27.4766 15 30.0002 17.5236 30.0002 20.6246C30.0002 23.7257 27.4766 26.2492 24.3756 26.2492ZM24.3756 18.7497C23.3407 18.7497 22.5007 19.5897 22.5007 20.6246C22.5007 21.6595 23.3407 22.4995 24.3756 22.4995C25.4105 22.4995 26.2505 21.6595 26.2505 20.6246C26.2505 19.5897 25.4105 18.7497 24.3756 18.7497Z" fill="#FAFAFA"/>
<path d="M35.6246 44.9992C32.5236 44.9992 30 42.4757 30 39.3746C30 36.2736 32.5236 33.75 35.6246 33.75C38.7257 33.75 41.2492 36.2736 41.2492 39.3746C41.2492 42.4757 38.7257 44.9992 35.6246 44.9992ZM35.6246 37.4997C34.5934 37.4997 33.7497 38.3434 33.7497 39.3746C33.7497 40.4058 34.5934 41.2495 35.6246 41.2495C36.6558 41.2495 37.4995 40.4058 37.4995 39.3746C37.4995 38.3434 36.6558 37.4997 35.6246 37.4997Z" fill="#FAFAFA"/>
<path d="M20.6261 45C20.2474 45 19.8687 44.8875 19.5387 44.6513C18.695 44.0476 18.5 42.8777 19.1037 42.034L37.8525 15.7858C38.4562 14.9421 39.6261 14.7471 40.4698 15.3508C41.3135 15.9508 41.5047 17.1244 40.9047 17.9644L22.156 44.2126C21.7848 44.7263 21.2111 45 20.6261 45Z" fill="#FAFAFA"/>
</g>
<defs>
<linearGradient id="paint0_linear_300_747" x1="0.00097691" y1="11.25" x2="62.0241" y2="15.6349" gradientUnits="userSpaceOnUse">
<stop stop-color="#30C917"/>
<stop offset="1" stop-color="#279A13"/>
</linearGradient>
<clipPath id="clip0_300_747">
<rect width="60" height="60" fill="white"/>
</clipPath>
</defs>
</svg>
