<svg width="430" height="434" viewBox="0 0 430 434" fill="none" xmlns="http://www.w3.org/2000/svg">
<mask id="path-1-outside-1_300_83" maskUnits="userSpaceOnUse" x="-170.485" y="-32.8981" width="621.715" height="547.767" fill="black">
<rect fill="white" x="-170.485" y="-32.8981" width="621.715" height="547.767"/>
<path d="M64.7386 59.7369C71.7037 62.3558 78.4616 65.4829 84.9516 69.1069C91.4416 72.7309 97.6142 76.8986 103.458 81.4651C115.117 90.6422 125.423 101.574 133.594 113.943C141.852 126.279 148.195 139.776 154.332 153.305C160.439 166.856 166.34 180.559 173.591 193.641L174.228 192.251C148.068 197.394 120.822 196.896 94.9681 190.516C69.1051 184.219 44.6626 172.255 23.7212 155.883C2.76673 139.517 -14.6552 118.656 -26.9359 95.1085C-39.2201 71.5709 -46.3727 45.3442 -47.3476 18.8321L-48.4743 20.6156C-25.6689 10.9286 -0.899936 5.92674 23.856 6.11031C48.6225 6.26526 73.2897 11.812 95.8695 21.8624C107.168 26.9071 117.842 33.2804 127.797 40.6135C137.706 48.0159 146.84 56.4439 154.953 65.775C158.955 70.4695 162.771 75.3226 166.234 80.4582C169.688 85.5902 172.968 90.8427 175.976 96.2771C182.039 107.109 187.341 118.398 192.515 129.769C197.701 141.135 202.786 152.604 208.426 163.855C211.246 169.48 214.192 175.054 217.393 180.494C220.578 185.949 223.964 191.294 227.717 196.406C228.641 197.695 229.564 198.984 230.563 200.213C231.546 201.459 232.499 202.726 233.515 203.94L236.613 207.558C237.625 208.782 238.766 209.891 239.841 211.062L241.474 212.804C242.023 213.372 242.614 213.913 243.18 214.465C244.337 215.558 245.448 216.688 246.625 217.756C249.029 219.845 251.396 221.974 253.947 223.868C256.41 225.881 259.097 227.608 261.691 229.442L265.76 231.944L267.802 233.187L269.902 234.332C275.49 237.378 281.319 239.971 287.319 242.097C299.308 246.345 311.936 248.728 324.636 249.225C330.988 249.468 337.354 249.23 343.665 248.517C349.978 247.773 356.236 246.587 362.371 244.967C386.897 238.352 409.456 224.574 426.343 205.557L427.302 204.469L426.494 203.277C414.433 185.433 397.221 171.395 377.854 162.313C358.459 153.219 336.798 149.117 315.458 150.234C304.785 150.814 294.201 152.691 283.931 155.601C273.669 158.548 263.773 162.654 254.313 167.548C235.43 177.445 218.448 190.686 203.642 205.9C196.213 213.492 189.343 221.623 183.01 230.145C179.81 234.383 176.832 238.778 173.909 243.203C171.064 247.679 168.276 252.208 165.725 256.856C160.633 266.156 155.864 275.605 151.38 285.192C149.08 289.953 146.944 294.796 144.736 299.601C142.609 304.448 140.42 309.26 138.361 314.131C130.002 333.559 122.124 353.183 114.67 372.974C107.192 392.745 100.158 412.689 93.675 432.812C97.0406 422.796 100.562 412.826 104.185 402.903C107.846 392.995 111.559 383.094 115.401 373.252C123.048 353.553 131.11 334.017 139.649 314.688C141.752 309.844 143.986 305.058 146.156 300.239C148.418 295.464 150.585 290.654 152.93 285.92C157.495 276.406 162.349 267.02 167.496 257.838C172.696 248.686 178.503 239.885 184.835 231.482C191.157 223.075 198.005 215.065 205.402 207.591C220.13 192.619 236.992 179.648 255.624 170.027C264.957 165.271 274.689 161.288 284.764 158.468C294.842 155.671 305.191 153.903 315.621 153.397C336.472 152.436 357.519 156.563 376.346 165.525C395.123 174.478 411.801 188.083 423.403 205.349L423.555 203.069C407.139 221.479 385.177 234.837 361.377 241.209C355.413 242.773 349.346 243.909 343.231 244.617C337.116 245.293 330.94 245.515 324.784 245.267C312.476 244.763 300.252 242.43 288.663 238.296C282.868 236.233 277.239 233.713 271.854 230.763L269.836 229.659L267.867 228.453L263.944 226.026C261.438 224.246 258.846 222.586 256.47 220.626C254.008 218.786 251.726 216.72 249.404 214.705C248.267 213.673 247.187 212.576 246.074 211.51C245.524 210.974 244.958 210.454 244.428 209.893L242.851 208.203C241.817 207.069 240.711 205.984 239.73 204.793L236.735 201.277C235.754 200.087 234.832 198.852 233.871 197.637C232.903 196.44 232.001 195.181 231.109 193.925C227.461 188.938 224.155 183.698 221.042 178.344C217.902 173.002 215.008 167.491 212.232 161.925C206.656 150.795 201.651 139.345 196.43 127.955C191.221 116.56 185.845 105.179 179.659 94.1832C176.591 88.6733 173.234 83.3061 169.69 78.0655C166.146 72.8248 162.21 67.8302 158.085 63.0262C149.757 53.4867 140.387 44.8753 130.232 37.3181C120.031 29.8303 109.088 23.3369 97.522 18.1947C74.3953 7.95546 49.1999 2.34561 23.8896 2.22996C-1.4007 2.08917 -26.6816 7.25008 -49.9341 17.1848L-51.124 17.6911L-51.0703 18.9649C-50.7527 25.7308 -50.1262 32.4796 -49.1259 39.1812C-48.0448 45.869 -46.6731 52.5007 -44.9005 59.0409C-43.0664 65.5603 -40.9537 71.9976 -38.4609 78.2818C-35.9195 84.5512 -33.1247 90.7186 -29.9584 96.6973C-17.3061 120.618 0.539616 141.71 21.911 158.206C43.2825 174.703 68.1325 186.675 94.386 192.909C120.615 199.21 148.227 199.593 174.603 194.096L175.876 193.837L175.236 192.717C167.929 179.819 161.906 166.213 155.657 152.696C149.384 139.215 142.88 125.714 134.442 113.366C126.079 100.992 115.631 90.0623 103.798 81.0056C97.8698 76.4945 91.6182 72.3953 85.0778 68.8502C78.5434 65.3181 71.7255 62.2665 64.7386 59.7369Z"/>
</mask>
<path d="M64.7386 59.7369C71.7037 62.3558 78.4616 65.4829 84.9516 69.1069C91.4416 72.7309 97.6142 76.8986 103.458 81.4651C115.117 90.6422 125.423 101.574 133.594 113.943C141.852 126.279 148.195 139.776 154.332 153.305C160.439 166.856 166.34 180.559 173.591 193.641L174.228 192.251C148.068 197.394 120.822 196.896 94.9681 190.516C69.1051 184.219 44.6626 172.255 23.7212 155.883C2.76673 139.517 -14.6552 118.656 -26.9359 95.1085C-39.2201 71.5709 -46.3727 45.3442 -47.3476 18.8321L-48.4743 20.6156C-25.6689 10.9286 -0.899936 5.92674 23.856 6.11031C48.6225 6.26526 73.2897 11.812 95.8695 21.8624C107.168 26.9071 117.842 33.2804 127.797 40.6135C137.706 48.0159 146.84 56.4439 154.953 65.775C158.955 70.4695 162.771 75.3226 166.234 80.4582C169.688 85.5902 172.968 90.8427 175.976 96.2771C182.039 107.109 187.341 118.398 192.515 129.769C197.701 141.135 202.786 152.604 208.426 163.855C211.246 169.48 214.192 175.054 217.393 180.494C220.578 185.949 223.964 191.294 227.717 196.406C228.641 197.695 229.564 198.984 230.563 200.213C231.546 201.459 232.499 202.726 233.515 203.94L236.613 207.558C237.625 208.782 238.766 209.891 239.841 211.062L241.474 212.804C242.023 213.372 242.614 213.913 243.18 214.465C244.337 215.558 245.448 216.688 246.625 217.756C249.029 219.845 251.396 221.974 253.947 223.868C256.41 225.881 259.097 227.608 261.691 229.442L265.76 231.944L267.802 233.187L269.902 234.332C275.49 237.378 281.319 239.971 287.319 242.097C299.308 246.345 311.936 248.728 324.636 249.225C330.988 249.468 337.354 249.23 343.665 248.517C349.978 247.773 356.236 246.587 362.371 244.967C386.897 238.352 409.456 224.574 426.343 205.557L427.302 204.469L426.494 203.277C414.433 185.433 397.221 171.395 377.854 162.313C358.459 153.219 336.798 149.117 315.458 150.234C304.785 150.814 294.201 152.691 283.931 155.601C273.669 158.548 263.773 162.654 254.313 167.548C235.43 177.445 218.448 190.686 203.642 205.9C196.213 213.492 189.343 221.623 183.01 230.145C179.81 234.383 176.832 238.778 173.909 243.203C171.064 247.679 168.276 252.208 165.725 256.856C160.633 266.156 155.864 275.605 151.38 285.192C149.08 289.953 146.944 294.796 144.736 299.601C142.609 304.448 140.42 309.26 138.361 314.131C130.002 333.559 122.124 353.183 114.67 372.974C107.192 392.745 100.158 412.689 93.675 432.812C97.0406 422.796 100.562 412.826 104.185 402.903C107.846 392.995 111.559 383.094 115.401 373.252C123.048 353.553 131.11 334.017 139.649 314.688C141.752 309.844 143.986 305.058 146.156 300.239C148.418 295.464 150.585 290.654 152.93 285.92C157.495 276.406 162.349 267.02 167.496 257.838C172.696 248.686 178.503 239.885 184.835 231.482C191.157 223.075 198.005 215.065 205.402 207.591C220.13 192.619 236.992 179.648 255.624 170.027C264.957 165.271 274.689 161.288 284.764 158.468C294.842 155.671 305.191 153.903 315.621 153.397C336.472 152.436 357.519 156.563 376.346 165.525C395.123 174.478 411.801 188.083 423.403 205.349L423.555 203.069C407.139 221.479 385.177 234.837 361.377 241.209C355.413 242.773 349.346 243.909 343.231 244.617C337.116 245.293 330.94 245.515 324.784 245.267C312.476 244.763 300.252 242.43 288.663 238.296C282.868 236.233 277.239 233.713 271.854 230.763L269.836 229.659L267.867 228.453L263.944 226.026C261.438 224.246 258.846 222.586 256.47 220.626C254.008 218.786 251.726 216.72 249.404 214.705C248.267 213.673 247.187 212.576 246.074 211.51C245.524 210.974 244.958 210.454 244.428 209.893L242.851 208.203C241.817 207.069 240.711 205.984 239.73 204.793L236.735 201.277C235.754 200.087 234.832 198.852 233.871 197.637C232.903 196.44 232.001 195.181 231.109 193.925C227.461 188.938 224.155 183.698 221.042 178.344C217.902 173.002 215.008 167.491 212.232 161.925C206.656 150.795 201.651 139.345 196.43 127.955C191.221 116.56 185.845 105.179 179.659 94.1832C176.591 88.6733 173.234 83.3061 169.69 78.0655C166.146 72.8248 162.21 67.8302 158.085 63.0262C149.757 53.4867 140.387 44.8753 130.232 37.3181C120.031 29.8303 109.088 23.3369 97.522 18.1947C74.3953 7.95546 49.1999 2.34561 23.8896 2.22996C-1.4007 2.08917 -26.6816 7.25008 -49.9341 17.1848L-51.124 17.6911L-51.0703 18.9649C-50.7527 25.7308 -50.1262 32.4796 -49.1259 39.1812C-48.0448 45.869 -46.6731 52.5007 -44.9005 59.0409C-43.0664 65.5603 -40.9537 71.9976 -38.4609 78.2818C-35.9195 84.5512 -33.1247 90.7186 -29.9584 96.6973C-17.3061 120.618 0.539616 141.71 21.911 158.206C43.2825 174.703 68.1325 186.675 94.386 192.909C120.615 199.21 148.227 199.593 174.603 194.096L175.876 193.837L175.236 192.717C167.929 179.819 161.906 166.213 155.657 152.696C149.384 139.215 142.88 125.714 134.442 113.366C126.079 100.992 115.631 90.0623 103.798 81.0056C97.8698 76.4945 91.6182 72.3953 85.0778 68.8502C78.5434 65.3181 71.7255 62.2665 64.7386 59.7369Z" fill="url(#paint0_linear_300_83)" fill-opacity="0.08"/>
<path d="M64.7386 59.7369C71.7037 62.3558 78.4616 65.4829 84.9516 69.1069C91.4416 72.7309 97.6142 76.8986 103.458 81.4651C115.117 90.6422 125.423 101.574 133.594 113.943C141.852 126.279 148.195 139.776 154.332 153.305C160.439 166.856 166.34 180.559 173.591 193.641L174.228 192.251C148.068 197.394 120.822 196.896 94.9681 190.516C69.1051 184.219 44.6626 172.255 23.7212 155.883C2.76673 139.517 -14.6552 118.656 -26.9359 95.1085C-39.2201 71.5709 -46.3727 45.3442 -47.3476 18.8321L-48.4743 20.6156C-25.6689 10.9286 -0.899936 5.92674 23.856 6.11031C48.6225 6.26526 73.2897 11.812 95.8695 21.8624C107.168 26.9071 117.842 33.2804 127.797 40.6135C137.706 48.0159 146.84 56.4439 154.953 65.775C158.955 70.4695 162.771 75.3226 166.234 80.4582C169.688 85.5902 172.968 90.8427 175.976 96.2771C182.039 107.109 187.341 118.398 192.515 129.769C197.701 141.135 202.786 152.604 208.426 163.855C211.246 169.48 214.192 175.054 217.393 180.494C220.578 185.949 223.964 191.294 227.717 196.406C228.641 197.695 229.564 198.984 230.563 200.213C231.546 201.459 232.499 202.726 233.515 203.94L236.613 207.558C237.625 208.782 238.766 209.891 239.841 211.062L241.474 212.804C242.023 213.372 242.614 213.913 243.18 214.465C244.337 215.558 245.448 216.688 246.625 217.756C249.029 219.845 251.396 221.974 253.947 223.868C256.41 225.881 259.097 227.608 261.691 229.442L265.76 231.944L267.802 233.187L269.902 234.332C275.49 237.378 281.319 239.971 287.319 242.097C299.308 246.345 311.936 248.728 324.636 249.225C330.988 249.468 337.354 249.23 343.665 248.517C349.978 247.773 356.236 246.587 362.371 244.967C386.897 238.352 409.456 224.574 426.343 205.557L427.302 204.469L426.494 203.277C414.433 185.433 397.221 171.395 377.854 162.313C358.459 153.219 336.798 149.117 315.458 150.234C304.785 150.814 294.201 152.691 283.931 155.601C273.669 158.548 263.773 162.654 254.313 167.548C235.43 177.445 218.448 190.686 203.642 205.9C196.213 213.492 189.343 221.623 183.01 230.145C179.81 234.383 176.832 238.778 173.909 243.203C171.064 247.679 168.276 252.208 165.725 256.856C160.633 266.156 155.864 275.605 151.38 285.192C149.08 289.953 146.944 294.796 144.736 299.601C142.609 304.448 140.42 309.26 138.361 314.131C130.002 333.559 122.124 353.183 114.67 372.974C107.192 392.745 100.158 412.689 93.675 432.812C97.0406 422.796 100.562 412.826 104.185 402.903C107.846 392.995 111.559 383.094 115.401 373.252C123.048 353.553 131.11 334.017 139.649 314.688C141.752 309.844 143.986 305.058 146.156 300.239C148.418 295.464 150.585 290.654 152.93 285.92C157.495 276.406 162.349 267.02 167.496 257.838C172.696 248.686 178.503 239.885 184.835 231.482C191.157 223.075 198.005 215.065 205.402 207.591C220.13 192.619 236.992 179.648 255.624 170.027C264.957 165.271 274.689 161.288 284.764 158.468C294.842 155.671 305.191 153.903 315.621 153.397C336.472 152.436 357.519 156.563 376.346 165.525C395.123 174.478 411.801 188.083 423.403 205.349L423.555 203.069C407.139 221.479 385.177 234.837 361.377 241.209C355.413 242.773 349.346 243.909 343.231 244.617C337.116 245.293 330.94 245.515 324.784 245.267C312.476 244.763 300.252 242.43 288.663 238.296C282.868 236.233 277.239 233.713 271.854 230.763L269.836 229.659L267.867 228.453L263.944 226.026C261.438 224.246 258.846 222.586 256.47 220.626C254.008 218.786 251.726 216.72 249.404 214.705C248.267 213.673 247.187 212.576 246.074 211.51C245.524 210.974 244.958 210.454 244.428 209.893L242.851 208.203C241.817 207.069 240.711 205.984 239.73 204.793L236.735 201.277C235.754 200.087 234.832 198.852 233.871 197.637C232.903 196.44 232.001 195.181 231.109 193.925C227.461 188.938 224.155 183.698 221.042 178.344C217.902 173.002 215.008 167.491 212.232 161.925C206.656 150.795 201.651 139.345 196.43 127.955C191.221 116.56 185.845 105.179 179.659 94.1832C176.591 88.6733 173.234 83.3061 169.69 78.0655C166.146 72.8248 162.21 67.8302 158.085 63.0262C149.757 53.4867 140.387 44.8753 130.232 37.3181C120.031 29.8303 109.088 23.3369 97.522 18.1947C74.3953 7.95546 49.1999 2.34561 23.8896 2.22996C-1.4007 2.08917 -26.6816 7.25008 -49.9341 17.1848L-51.124 17.6911L-51.0703 18.9649C-50.7527 25.7308 -50.1262 32.4796 -49.1259 39.1812C-48.0448 45.869 -46.6731 52.5007 -44.9005 59.0409C-43.0664 65.5603 -40.9537 71.9976 -38.4609 78.2818C-35.9195 84.5512 -33.1247 90.7186 -29.9584 96.6973C-17.3061 120.618 0.539616 141.71 21.911 158.206C43.2825 174.703 68.1325 186.675 94.386 192.909C120.615 199.21 148.227 199.593 174.603 194.096L175.876 193.837L175.236 192.717C167.929 179.819 161.906 166.213 155.657 152.696C149.384 139.215 142.88 125.714 134.442 113.366C126.079 100.992 115.631 90.0623 103.798 81.0056C97.8698 76.4945 91.6182 72.3953 85.0778 68.8502C78.5434 65.3181 71.7255 62.2665 64.7386 59.7369Z" stroke="url(#paint1_linear_300_83)" stroke-opacity="0.08" stroke-width="2.92571" mask="url(#path-1-outside-1_300_83)"/>
<defs>
<linearGradient id="paint0_linear_300_83" x1="423.507" y1="214.863" x2="-90.1436" y2="79.5603" gradientUnits="userSpaceOnUse">
<stop stop-color="#0B3F01"/>
<stop offset="1" stop-color="#73E75F"/>
</linearGradient>
<linearGradient id="paint1_linear_300_83" x1="423.507" y1="214.863" x2="-90.1436" y2="79.5603" gradientUnits="userSpaceOnUse">
<stop stop-color="#0B3F01"/>
<stop offset="1" stop-color="#73E75F"/>
</linearGradient>
</defs>
</svg>
