<svg width="152" height="33" viewBox="0 0 152 33" fill="none" xmlns="http://www.w3.org/2000/svg">
<path d="M42.904 16.3111H50.2123V18.6067H42.904V16.3111ZM43.1344 24.1994H40.4121V9.5915H51.1128V11.8662H43.1344V24.1994Z" fill="#062010"/>
<path d="M60.0359 24.1994V21.9456L59.8893 21.4656V17.5215C59.8893 16.7563 59.659 16.1651 59.1983 15.7477C58.7376 15.3164 58.0396 15.1008 57.1042 15.1008C56.476 15.1008 55.8548 15.1982 55.2405 15.3929C54.6402 15.5877 54.1307 15.859 53.7118 16.2068L52.6858 14.3078C53.286 13.8487 53.998 13.5078 54.8217 13.2852C55.6593 13.0487 56.5249 12.9304 57.4183 12.9304C59.0377 12.9304 60.2872 13.32 61.1667 14.0991C62.0602 14.8643 62.5069 16.0538 62.5069 17.6676V24.1994H60.0359ZM56.5179 24.3455C55.6803 24.3455 54.9473 24.2064 54.3191 23.9281C53.6909 23.636 53.2023 23.2395 52.8533 22.7386C52.5182 22.2239 52.3507 21.6465 52.3507 21.0065C52.3507 20.3805 52.4973 19.817 52.7905 19.3162C53.0976 18.8153 53.5932 18.4188 54.2772 18.1267C54.9613 17.8345 55.8687 17.6885 56.9995 17.6885H60.2453V19.4205H57.188C56.2945 19.4205 55.6942 19.5666 55.3871 19.8588C55.08 20.137 54.9264 20.4848 54.9264 20.9022C54.9264 21.3752 55.1149 21.7508 55.4918 22.0291C55.8687 22.3073 56.3922 22.4465 57.0623 22.4465C57.7045 22.4465 58.2769 22.3004 58.7795 22.0082C59.296 21.7161 59.6659 21.2848 59.8893 20.7144L60.3291 22.2795C60.0778 22.9334 59.6241 23.4412 58.9679 23.8029C58.3258 24.1646 57.5091 24.3455 56.5179 24.3455Z" fill="#062010"/>
<path d="M65.8662 24.1994V13.0557H68.3581V16.1233L68.065 15.226C68.4 14.4747 68.9235 13.9043 69.6355 13.5148C70.3615 13.1252 71.2619 12.9304 72.3369 12.9304V15.4138C72.2252 15.386 72.1205 15.3721 72.0228 15.3721C71.925 15.3581 71.8273 15.3512 71.7296 15.3512C70.7384 15.3512 69.9496 15.6433 69.3633 16.2277C68.777 16.7981 68.4838 17.6537 68.4838 18.7945V24.1994H65.8662Z" fill="#062010"/>
<path d="M88.6713 12.9304C89.5648 12.9304 90.3536 13.1044 91.0376 13.4522C91.7356 13.8 92.2801 14.3356 92.671 15.059C93.0619 15.7686 93.2573 16.6868 93.2573 17.8137V24.1994H90.6398V18.1476C90.6398 17.1598 90.4234 16.4224 89.9906 15.9355C89.5578 15.4486 88.9366 15.2051 88.1269 15.2051C87.5545 15.2051 87.045 15.3303 86.5982 15.5807C86.1655 15.8312 85.8234 16.1998 85.5721 16.6868C85.3348 17.1737 85.2161 17.7928 85.2161 18.5441V24.1994H82.5986V18.1476C82.5986 17.1598 82.3822 16.4224 81.9494 15.9355C81.5166 15.4486 80.8954 15.2051 80.0857 15.2051C79.5133 15.2051 79.0038 15.3303 78.557 15.5807C78.1243 15.8312 77.7822 16.1998 77.5309 16.6868C77.2936 17.1737 77.175 17.7928 77.175 18.5441V24.1994H74.5574V13.0557H77.0493V16.019L76.6096 15.1425C76.9865 14.4191 77.5309 13.8695 78.2429 13.4939C78.9689 13.1183 79.7925 12.9304 80.7139 12.9304C81.7609 12.9304 82.6684 13.1878 83.4362 13.7026C84.218 14.2173 84.7345 14.9964 84.9858 16.0398L83.9597 15.6851C84.3227 14.8503 84.923 14.1826 85.7606 13.6817C86.5982 13.1809 87.5685 12.9304 88.6713 12.9304Z" fill="#062010"/>
<path d="M103.701 24.4081C102.556 24.4081 101.502 24.2272 100.539 23.8655C99.5898 23.4899 98.7591 22.9682 98.0472 22.3004C97.3352 21.6187 96.7837 20.8187 96.3929 19.9005C96.002 18.9823 95.8065 17.9806 95.8065 16.8955C95.8065 15.8103 96.002 14.8086 96.3929 13.8904C96.7837 12.9722 97.3352 12.1792 98.0472 11.5114C98.7731 10.8297 99.6177 10.308 100.581 9.94626C101.544 9.57063 102.598 9.38281 103.743 9.38281C104.985 9.38281 106.102 9.58454 107.093 9.988C108.099 10.3915 108.943 10.9827 109.627 11.7618L107.91 13.4313C107.338 12.8609 106.717 12.4435 106.046 12.1792C105.39 11.9009 104.664 11.7618 103.869 11.7618C103.101 11.7618 102.389 11.887 101.733 12.1374C101.077 12.3879 100.511 12.7426 100.037 13.2017C99.5619 13.6608 99.1919 14.2034 98.9267 14.8295C98.6754 15.4555 98.5497 16.1442 98.5497 16.8955C98.5497 17.6328 98.6754 18.3145 98.9267 18.9406C99.1919 19.5666 99.5619 20.1161 100.037 20.5892C100.511 21.0483 101.07 21.403 101.712 21.6535C102.354 21.9039 103.066 22.0291 103.848 22.0291C104.574 22.0291 105.272 21.9178 105.942 21.6952C106.626 21.4587 107.275 21.0691 107.889 20.5266L109.439 22.5508C108.671 23.1629 107.778 23.629 106.758 23.949C105.753 24.2551 104.734 24.4081 103.701 24.4081ZM106.863 22.196V16.7285H109.439V22.5508L106.863 22.196Z" fill="#062010"/>
<path d="M112.778 24.1994V13.0557H115.27V16.1233L114.977 15.226C115.312 14.4747 115.835 13.9043 116.547 13.5148C117.273 13.1252 118.174 12.9304 119.249 12.9304V15.4138C119.137 15.386 119.032 15.3721 118.935 15.3721C118.837 15.3581 118.739 15.3512 118.641 15.3512C117.65 15.3512 116.861 15.6433 116.275 16.2277C115.689 16.7981 115.396 17.6537 115.396 18.7945V24.1994H112.778Z" fill="#062010"/>
<path d="M126.393 24.3455C125.248 24.3455 124.229 24.102 123.335 23.6151C122.442 23.1142 121.737 22.4325 121.22 21.57C120.704 20.7074 120.446 19.7266 120.446 18.6275C120.446 17.5145 120.704 16.5337 121.22 15.6851C121.737 14.8225 122.442 14.1478 123.335 13.6608C124.229 13.1739 125.248 12.9304 126.393 12.9304C127.551 12.9304 128.578 13.1739 129.471 13.6608C130.378 14.1478 131.083 14.8156 131.586 15.6642C132.103 16.5129 132.361 17.5006 132.361 18.6275C132.361 19.7266 132.103 20.7074 131.586 21.57C131.083 22.4325 130.378 23.1142 129.471 23.6151C128.578 24.102 127.551 24.3455 126.393 24.3455ZM126.393 22.1126C127.035 22.1126 127.607 21.9734 128.11 21.6952C128.612 21.4169 129.003 21.0135 129.283 20.4848C129.576 19.9562 129.722 19.3371 129.722 18.6275C129.722 17.9041 129.576 17.285 129.283 16.7702C129.003 16.2416 128.612 15.8381 128.11 15.5599C127.607 15.2816 127.042 15.1425 126.414 15.1425C125.771 15.1425 125.199 15.2816 124.697 15.5599C124.208 15.8381 123.817 16.2416 123.524 16.7702C123.231 17.285 123.084 17.9041 123.084 18.6275C123.084 19.3371 123.231 19.9562 123.524 20.4848C123.817 21.0135 124.208 21.4169 124.697 21.6952C125.199 21.9734 125.764 22.1126 126.393 22.1126Z" fill="#062010"/>
<path d="M137.028 24.1994L132.924 13.0557H135.395L138.913 22.8847H137.74L141.426 13.0557H143.624L147.205 22.8847H146.053L149.676 13.0557H152.001L147.875 24.1994H145.362L142.096 15.4973H142.871L139.541 24.1994H137.028Z" fill="#062010"/>
<ellipse cx="16.5571" cy="16.5" rx="16.5571" ry="16.5" fill="url(#paint0_linear_300_50)"/>
<mask id="path-3-outside-1_300_50" maskUnits="userSpaceOnUse" x="2.41992" y="8.28906" width="28" height="21" fill="black">
<rect fill="white" x="2.41992" y="8.28906" width="28" height="21"/>
<path d="M23.389 11.874C23.0082 11.8777 22.6284 11.9093 22.2528 11.9694C21.8773 12.0294 21.5074 12.1211 21.1463 12.2377C20.4248 12.4734 19.7375 12.8168 19.1276 13.2664C18.5141 13.7129 17.9723 14.2485 17.4398 14.7893C16.9084 15.3316 16.378 15.8543 15.7998 16.3541C16.9671 17.0581 18.2855 17.4636 19.6403 17.6102C20.9941 17.761 22.3791 17.6154 23.6731 17.1974C24.9677 16.7799 26.1713 16.0853 27.175 15.1721C28.1786 14.2594 29.0056 13.2332 29.5178 11.9802C28.5916 11.1173 27.4887 10.4444 26.2955 10.0202C25.1022 9.59438 23.8191 9.42863 22.5573 9.51513C21.9256 9.55916 21.3006 9.67778 20.6933 9.85493C20.0871 10.0362 19.5001 10.2802 18.9463 10.5853C18.6715 10.7402 18.4029 10.9059 18.1463 11.0914C17.8902 11.2768 17.6403 11.4711 17.4003 11.6788C16.9188 12.0916 16.4658 12.5397 16.0175 12.9939C15.5686 13.4477 15.1229 13.9082 14.6543 14.3485C14.42 14.5686 14.1806 14.7841 13.9312 14.9887C13.6824 15.1943 13.4257 15.3912 13.1556 15.5704C13.0886 15.616 13.0216 15.6616 12.952 15.703C12.8829 15.7455 12.8148 15.7895 12.7447 15.8299L12.5322 15.9491C12.4621 15.99 12.3878 16.0231 12.3156 16.0604L12.2065 16.1153C12.1701 16.1329 12.1322 16.1485 12.0953 16.1651C12.0205 16.1972 11.9473 16.2319 11.872 16.2624C11.7197 16.3204 11.5686 16.3811 11.4127 16.4272C11.259 16.4805 11.0995 16.5162 10.9426 16.5587L10.7031 16.6074L10.5831 16.6312L10.4621 16.6494C10.14 16.6975 9.81427 16.7198 9.48856 16.7167C8.83764 16.7105 8.1888 16.6038 7.56957 16.4054C7.25996 16.3059 6.95814 16.1832 6.66723 16.0387C6.37683 15.8926 6.09683 15.7263 5.83034 15.5414C4.76747 14.7955 3.92486 13.7409 3.44693 12.5345L3.41992 12.4656L3.47966 12.4226C4.37266 11.7787 5.44644 11.4073 6.53684 11.311C7.6288 11.2146 8.74205 11.397 9.7483 11.8238C10.2512 12.0382 10.727 12.3133 11.1696 12.6324C11.6112 12.953 12.0148 13.3229 12.3836 13.7227C13.1177 14.5272 13.7016 15.4585 14.1463 16.4463C14.3702 16.94 14.5577 17.4497 14.7125 17.9687C14.792 18.2277 14.858 18.4903 14.9208 18.7534C14.979 19.0176 15.0335 19.2833 15.0746 19.5506C15.1561 20.0852 15.2195 20.6213 15.2668 21.159C15.2938 21.4273 15.3115 21.6966 15.3333 21.9655C15.3504 22.2348 15.3712 22.5037 15.3847 22.773C15.4455 23.8499 15.4798 24.9278 15.4907 26.0063C15.5032 27.0842 15.4912 28.1627 15.4497 29.2401C15.4637 28.7014 15.4694 28.1622 15.4694 27.6234C15.4673 27.0847 15.4626 26.5455 15.4507 26.0068C15.4289 24.9294 15.3842 23.8525 15.313 22.7772C15.2969 22.5083 15.2735 22.24 15.2538 21.9712C15.2289 21.7029 15.2091 21.4345 15.1795 21.1667C15.1271 20.6311 15.0585 20.0966 14.9722 19.5667C14.8829 19.0373 14.7582 18.5141 14.6013 18.0008C14.445 17.4875 14.2564 16.984 14.032 16.4966C13.5868 15.5217 13.0039 14.6054 12.2772 13.8186C11.912 13.4275 11.514 13.0665 11.0792 12.7551C10.6439 12.4449 10.1774 12.1791 9.68492 11.9725C8.69946 11.5617 7.61529 11.3913 6.55294 11.4913C5.49319 11.5917 4.48539 11.8795 3.6246 12.5037C4.09058 13.6728 4.91189 14.6572 5.9441 15.3787C6.20333 15.558 6.47502 15.7185 6.75658 15.8594C7.03866 15.9988 7.33165 16.1174 7.63191 16.2132C8.23244 16.4044 8.86102 16.5064 9.49063 16.5111C9.80544 16.5137 10.1202 16.4914 10.4309 16.4442L10.5473 16.4266L10.6631 16.4033L10.8943 16.3557C11.046 16.3142 11.1997 16.28 11.3483 16.2277C11.499 16.1827 11.6449 16.1236 11.792 16.0677C11.8647 16.0381 11.9359 16.0045 12.0081 15.9729C12.0439 15.9568 12.0803 15.9418 12.1156 15.9242L12.2211 15.8708C12.2907 15.8346 12.3629 15.8019 12.4309 15.7621L12.6366 15.646C12.7047 15.6061 12.7707 15.5631 12.8382 15.5217C12.9057 15.4813 12.9712 15.4368 13.0361 15.3922C13.299 15.2171 13.5499 15.0239 13.7935 14.8219C14.0382 14.6209 14.2741 14.4075 14.5052 14.1894C14.9686 13.7538 15.4102 13.2928 15.8611 12.8385C16.3115 12.3837 16.7697 11.9326 17.2601 11.514C17.5042 11.3037 17.7598 11.1054 18.0221 10.9163C18.2845 10.7272 18.5614 10.5568 18.844 10.3988C19.4118 10.0875 20.0133 9.83887 20.6341 9.65447C21.2559 9.47421 21.896 9.35455 22.5422 9.31053C23.8336 9.22454 25.1433 9.39651 26.362 9.83369C27.5802 10.2693 28.7049 10.9588 29.6482 11.8414L29.6966 11.8865L29.6716 11.9466C29.5376 12.2651 29.389 12.5775 29.2233 12.881C29.0539 13.1825 28.8716 13.4762 28.6716 13.7585C28.469 14.0387 28.2545 14.3101 28.0243 14.5676C27.7921 14.8235 27.5495 15.07 27.2924 15.301C26.2643 16.2257 25.0362 16.9239 23.7193 17.3404C22.4024 17.7568 20.9978 17.8956 19.6263 17.7351C18.2549 17.5781 16.9208 17.1135 15.7494 16.3888L15.6928 16.3541L15.7432 16.3116C16.3208 15.8216 16.8491 15.2751 17.3868 14.737C17.925 14.2008 18.4746 13.6678 19.097 13.2239C19.7162 12.7774 20.4102 12.4366 21.138 12.2097C21.5022 12.0973 21.8747 12.0103 22.2513 11.9549C22.6274 11.8999 23.0087 11.873 23.389 11.874Z"/>
</mask>
<path d="M23.389 11.874C23.0082 11.8777 22.6284 11.9093 22.2528 11.9694C21.8773 12.0294 21.5074 12.1211 21.1463 12.2377C20.4248 12.4734 19.7375 12.8168 19.1276 13.2664C18.5141 13.7129 17.9723 14.2485 17.4398 14.7893C16.9084 15.3316 16.378 15.8543 15.7998 16.3541C16.9671 17.0581 18.2855 17.4636 19.6403 17.6102C20.9941 17.761 22.3791 17.6154 23.6731 17.1974C24.9677 16.7799 26.1713 16.0853 27.175 15.1721C28.1786 14.2594 29.0056 13.2332 29.5178 11.9802C28.5916 11.1173 27.4887 10.4444 26.2955 10.0202C25.1022 9.59438 23.8191 9.42863 22.5573 9.51513C21.9256 9.55916 21.3006 9.67778 20.6933 9.85493C20.0871 10.0362 19.5001 10.2802 18.9463 10.5853C18.6715 10.7402 18.4029 10.9059 18.1463 11.0914C17.8902 11.2768 17.6403 11.4711 17.4003 11.6788C16.9188 12.0916 16.4658 12.5397 16.0175 12.9939C15.5686 13.4477 15.1229 13.9082 14.6543 14.3485C14.42 14.5686 14.1806 14.7841 13.9312 14.9887C13.6824 15.1943 13.4257 15.3912 13.1556 15.5704C13.0886 15.616 13.0216 15.6616 12.952 15.703C12.8829 15.7455 12.8148 15.7895 12.7447 15.8299L12.5322 15.9491C12.4621 15.99 12.3878 16.0231 12.3156 16.0604L12.2065 16.1153C12.1701 16.1329 12.1322 16.1485 12.0953 16.1651C12.0205 16.1972 11.9473 16.2319 11.872 16.2624C11.7197 16.3204 11.5686 16.3811 11.4127 16.4272C11.259 16.4805 11.0995 16.5162 10.9426 16.5587L10.7031 16.6074L10.5831 16.6312L10.4621 16.6494C10.14 16.6975 9.81427 16.7198 9.48856 16.7167C8.83764 16.7105 8.1888 16.6038 7.56957 16.4054C7.25996 16.3059 6.95814 16.1832 6.66723 16.0387C6.37683 15.8926 6.09683 15.7263 5.83034 15.5414C4.76747 14.7955 3.92486 13.7409 3.44693 12.5345L3.41992 12.4656L3.47966 12.4226C4.37266 11.7787 5.44644 11.4073 6.53684 11.311C7.6288 11.2146 8.74205 11.397 9.7483 11.8238C10.2512 12.0382 10.727 12.3133 11.1696 12.6324C11.6112 12.953 12.0148 13.3229 12.3836 13.7227C13.1177 14.5272 13.7016 15.4585 14.1463 16.4463C14.3702 16.94 14.5577 17.4497 14.7125 17.9687C14.792 18.2277 14.858 18.4903 14.9208 18.7534C14.979 19.0176 15.0335 19.2833 15.0746 19.5506C15.1561 20.0852 15.2195 20.6213 15.2668 21.159C15.2938 21.4273 15.3115 21.6966 15.3333 21.9655C15.3504 22.2348 15.3712 22.5037 15.3847 22.773C15.4455 23.8499 15.4798 24.9278 15.4907 26.0063C15.5032 27.0842 15.4912 28.1627 15.4497 29.2401C15.4637 28.7014 15.4694 28.1622 15.4694 27.6234C15.4673 27.0847 15.4626 26.5455 15.4507 26.0068C15.4289 24.9294 15.3842 23.8525 15.313 22.7772C15.2969 22.5083 15.2735 22.24 15.2538 21.9712C15.2289 21.7029 15.2091 21.4345 15.1795 21.1667C15.1271 20.6311 15.0585 20.0966 14.9722 19.5667C14.8829 19.0373 14.7582 18.5141 14.6013 18.0008C14.445 17.4875 14.2564 16.984 14.032 16.4966C13.5868 15.5217 13.0039 14.6054 12.2772 13.8186C11.912 13.4275 11.514 13.0665 11.0792 12.7551C10.6439 12.4449 10.1774 12.1791 9.68492 11.9725C8.69946 11.5617 7.61529 11.3913 6.55294 11.4913C5.49319 11.5917 4.48539 11.8795 3.6246 12.5037C4.09058 13.6728 4.91189 14.6572 5.9441 15.3787C6.20333 15.558 6.47502 15.7185 6.75658 15.8594C7.03866 15.9988 7.33165 16.1174 7.63191 16.2132C8.23244 16.4044 8.86102 16.5064 9.49063 16.5111C9.80544 16.5137 10.1202 16.4914 10.4309 16.4442L10.5473 16.4266L10.6631 16.4033L10.8943 16.3557C11.046 16.3142 11.1997 16.28 11.3483 16.2277C11.499 16.1827 11.6449 16.1236 11.792 16.0677C11.8647 16.0381 11.9359 16.0045 12.0081 15.9729C12.0439 15.9568 12.0803 15.9418 12.1156 15.9242L12.2211 15.8708C12.2907 15.8346 12.3629 15.8019 12.4309 15.7621L12.6366 15.646C12.7047 15.6061 12.7707 15.5631 12.8382 15.5217C12.9057 15.4813 12.9712 15.4368 13.0361 15.3922C13.299 15.2171 13.5499 15.0239 13.7935 14.8219C14.0382 14.6209 14.2741 14.4075 14.5052 14.1894C14.9686 13.7538 15.4102 13.2928 15.8611 12.8385C16.3115 12.3837 16.7697 11.9326 17.2601 11.514C17.5042 11.3037 17.7598 11.1054 18.0221 10.9163C18.2845 10.7272 18.5614 10.5568 18.844 10.3988C19.4118 10.0875 20.0133 9.83887 20.6341 9.65447C21.2559 9.47421 21.896 9.35455 22.5422 9.31053C23.8336 9.22454 25.1433 9.39651 26.362 9.83369C27.5802 10.2693 28.7049 10.9588 29.6482 11.8414L29.6966 11.8865L29.6716 11.9466C29.5376 12.2651 29.389 12.5775 29.2233 12.881C29.0539 13.1825 28.8716 13.4762 28.6716 13.7585C28.469 14.0387 28.2545 14.3101 28.0243 14.5676C27.7921 14.8235 27.5495 15.07 27.2924 15.301C26.2643 16.2257 25.0362 16.9239 23.7193 17.3404C22.4024 17.7568 20.9978 17.8956 19.6263 17.7351C18.2549 17.5781 16.9208 17.1135 15.7494 16.3888L15.6928 16.3541L15.7432 16.3116C16.3208 15.8216 16.8491 15.2751 17.3868 14.737C17.925 14.2008 18.4746 13.6678 19.097 13.2239C19.7162 12.7774 20.4102 12.4366 21.138 12.2097C21.5022 12.0973 21.8747 12.0103 22.2513 11.9549C22.6274 11.8999 23.0087 11.873 23.389 11.874Z" fill="white"/>
<path d="M23.389 11.874C23.0082 11.8777 22.6284 11.9093 22.2528 11.9694C21.8773 12.0294 21.5074 12.1211 21.1463 12.2377C20.4248 12.4734 19.7375 12.8168 19.1276 13.2664C18.5141 13.7129 17.9723 14.2485 17.4398 14.7893C16.9084 15.3316 16.378 15.8543 15.7998 16.3541C16.9671 17.0581 18.2855 17.4636 19.6403 17.6102C20.9941 17.761 22.3791 17.6154 23.6731 17.1974C24.9677 16.7799 26.1713 16.0853 27.175 15.1721C28.1786 14.2594 29.0056 13.2332 29.5178 11.9802C28.5916 11.1173 27.4887 10.4444 26.2955 10.0202C25.1022 9.59438 23.8191 9.42863 22.5573 9.51513C21.9256 9.55916 21.3006 9.67778 20.6933 9.85493C20.0871 10.0362 19.5001 10.2802 18.9463 10.5853C18.6715 10.7402 18.4029 10.9059 18.1463 11.0914C17.8902 11.2768 17.6403 11.4711 17.4003 11.6788C16.9188 12.0916 16.4658 12.5397 16.0175 12.9939C15.5686 13.4477 15.1229 13.9082 14.6543 14.3485C14.42 14.5686 14.1806 14.7841 13.9312 14.9887C13.6824 15.1943 13.4257 15.3912 13.1556 15.5704C13.0886 15.616 13.0216 15.6616 12.952 15.703C12.8829 15.7455 12.8148 15.7895 12.7447 15.8299L12.5322 15.9491C12.4621 15.99 12.3878 16.0231 12.3156 16.0604L12.2065 16.1153C12.1701 16.1329 12.1322 16.1485 12.0953 16.1651C12.0205 16.1972 11.9473 16.2319 11.872 16.2624C11.7197 16.3204 11.5686 16.3811 11.4127 16.4272C11.259 16.4805 11.0995 16.5162 10.9426 16.5587L10.7031 16.6074L10.5831 16.6312L10.4621 16.6494C10.14 16.6975 9.81427 16.7198 9.48856 16.7167C8.83764 16.7105 8.1888 16.6038 7.56957 16.4054C7.25996 16.3059 6.95814 16.1832 6.66723 16.0387C6.37683 15.8926 6.09683 15.7263 5.83034 15.5414C4.76747 14.7955 3.92486 13.7409 3.44693 12.5345L3.41992 12.4656L3.47966 12.4226C4.37266 11.7787 5.44644 11.4073 6.53684 11.311C7.6288 11.2146 8.74205 11.397 9.7483 11.8238C10.2512 12.0382 10.727 12.3133 11.1696 12.6324C11.6112 12.953 12.0148 13.3229 12.3836 13.7227C13.1177 14.5272 13.7016 15.4585 14.1463 16.4463C14.3702 16.94 14.5577 17.4497 14.7125 17.9687C14.792 18.2277 14.858 18.4903 14.9208 18.7534C14.979 19.0176 15.0335 19.2833 15.0746 19.5506C15.1561 20.0852 15.2195 20.6213 15.2668 21.159C15.2938 21.4273 15.3115 21.6966 15.3333 21.9655C15.3504 22.2348 15.3712 22.5037 15.3847 22.773C15.4455 23.8499 15.4798 24.9278 15.4907 26.0063C15.5032 27.0842 15.4912 28.1627 15.4497 29.2401C15.4637 28.7014 15.4694 28.1622 15.4694 27.6234C15.4673 27.0847 15.4626 26.5455 15.4507 26.0068C15.4289 24.9294 15.3842 23.8525 15.313 22.7772C15.2969 22.5083 15.2735 22.24 15.2538 21.9712C15.2289 21.7029 15.2091 21.4345 15.1795 21.1667C15.1271 20.6311 15.0585 20.0966 14.9722 19.5667C14.8829 19.0373 14.7582 18.5141 14.6013 18.0008C14.445 17.4875 14.2564 16.984 14.032 16.4966C13.5868 15.5217 13.0039 14.6054 12.2772 13.8186C11.912 13.4275 11.514 13.0665 11.0792 12.7551C10.6439 12.4449 10.1774 12.1791 9.68492 11.9725C8.69946 11.5617 7.61529 11.3913 6.55294 11.4913C5.49319 11.5917 4.48539 11.8795 3.6246 12.5037C4.09058 13.6728 4.91189 14.6572 5.9441 15.3787C6.20333 15.558 6.47502 15.7185 6.75658 15.8594C7.03866 15.9988 7.33165 16.1174 7.63191 16.2132C8.23244 16.4044 8.86102 16.5064 9.49063 16.5111C9.80544 16.5137 10.1202 16.4914 10.4309 16.4442L10.5473 16.4266L10.6631 16.4033L10.8943 16.3557C11.046 16.3142 11.1997 16.28 11.3483 16.2277C11.499 16.1827 11.6449 16.1236 11.792 16.0677C11.8647 16.0381 11.9359 16.0045 12.0081 15.9729C12.0439 15.9568 12.0803 15.9418 12.1156 15.9242L12.2211 15.8708C12.2907 15.8346 12.3629 15.8019 12.4309 15.7621L12.6366 15.646C12.7047 15.6061 12.7707 15.5631 12.8382 15.5217C12.9057 15.4813 12.9712 15.4368 13.0361 15.3922C13.299 15.2171 13.5499 15.0239 13.7935 14.8219C14.0382 14.6209 14.2741 14.4075 14.5052 14.1894C14.9686 13.7538 15.4102 13.2928 15.8611 12.8385C16.3115 12.3837 16.7697 11.9326 17.2601 11.514C17.5042 11.3037 17.7598 11.1054 18.0221 10.9163C18.2845 10.7272 18.5614 10.5568 18.844 10.3988C19.4118 10.0875 20.0133 9.83887 20.6341 9.65447C21.2559 9.47421 21.896 9.35455 22.5422 9.31053C23.8336 9.22454 25.1433 9.39651 26.362 9.83369C27.5802 10.2693 28.7049 10.9588 29.6482 11.8414L29.6966 11.8865L29.6716 11.9466C29.5376 12.2651 29.389 12.5775 29.2233 12.881C29.0539 13.1825 28.8716 13.4762 28.6716 13.7585C28.469 14.0387 28.2545 14.3101 28.0243 14.5676C27.7921 14.8235 27.5495 15.07 27.2924 15.301C26.2643 16.2257 25.0362 16.9239 23.7193 17.3404C22.4024 17.7568 20.9978 17.8956 19.6263 17.7351C18.2549 17.5781 16.9208 17.1135 15.7494 16.3888L15.6928 16.3541L15.7432 16.3116C16.3208 15.8216 16.8491 15.2751 17.3868 14.737C17.925 14.2008 18.4746 13.6678 19.097 13.2239C19.7162 12.7774 20.4102 12.4366 21.138 12.2097C21.5022 12.0973 21.8747 12.0103 22.2513 11.9549C22.6274 11.8999 23.0087 11.873 23.389 11.874Z" stroke="white" stroke-width="0.631319" mask="url(#path-3-outside-1_300_50)"/>
<defs>
<linearGradient id="paint0_linear_300_50" x1="1.91612e-07" y1="6.1875" x2="34.2308" y2="8.61598" gradientUnits="userSpaceOnUse">
<stop stop-color="#30C917"/>
<stop offset="1" stop-color="#279A13"/>
</linearGradient>
</defs>
</svg>
