<svg width="440" height="434" viewBox="0 0 440 434" fill="none" xmlns="http://www.w3.org/2000/svg">
<mask id="path-1-outside-1_300_67" maskUnits="userSpaceOnUse" x="-21.0662" y="-32.7887" width="621.33" height="547.065" fill="black">
<rect fill="white" x="-21.0662" y="-32.7887" width="621.33" height="547.065"/>
<path d="M365.594 59.6467C358.623 62.2517 351.859 65.3653 345.362 68.9764C338.865 72.5875 332.684 76.7429 326.831 81.2977C315.154 90.4516 304.826 101.363 296.631 113.715C288.348 126.035 281.978 139.519 275.814 153.036C269.679 166.575 263.751 180.266 256.474 193.333L255.84 191.943C281.99 197.137 309.237 196.694 335.104 190.365C360.979 184.119 385.445 172.205 406.419 155.874C427.406 139.55 444.87 118.723 457.197 95.2009C469.529 71.6879 476.733 45.4754 477.761 18.9653L478.884 20.7511C456.098 11.0186 431.339 5.96745 406.583 6.10168C381.816 6.20728 357.138 11.7049 334.538 21.7102C323.229 26.7324 312.543 33.0845 302.573 40.3977C292.65 47.7803 283.499 56.1901 275.367 65.505C271.356 70.1915 267.531 75.037 264.057 80.1657C260.593 85.2908 257.303 90.5368 254.283 95.9652C248.199 106.785 242.875 118.063 237.678 129.425C232.469 140.78 227.362 152.239 221.699 163.478C218.868 169.097 215.91 174.665 212.699 180.099C209.503 185.548 206.106 190.887 202.343 195.991C201.417 197.278 200.491 198.565 199.489 199.792C198.504 201.036 197.549 202.301 196.531 203.513L193.425 207.125C192.41 208.347 191.267 209.453 190.19 210.622L188.554 212.361C188.004 212.928 187.411 213.468 186.844 214.019C185.685 215.11 184.572 216.237 183.392 217.303C180.985 219.387 178.613 221.512 176.059 223.4C173.591 225.408 170.901 227.13 168.303 228.959L164.23 231.453L162.185 232.692L160.083 233.833C154.489 236.868 148.655 239.449 142.651 241.563C130.653 245.787 118.02 248.145 105.319 248.616C98.9666 248.847 92.6014 248.596 86.2911 247.871C79.9799 247.114 73.7244 245.916 67.5923 244.284C43.0796 237.62 20.5479 223.797 3.69981 204.746L2.7428 203.656L3.55261 202.466C15.6493 184.645 32.8892 170.642 52.2741 161.598C71.6877 152.544 93.3565 148.484 114.695 149.644C125.366 150.245 135.947 152.143 146.211 155.074C156.467 158.041 166.355 162.167 175.804 167.08C194.668 177.015 211.623 190.289 226.399 205.533C233.813 213.139 240.667 221.284 246.982 229.819C250.175 234.063 253.143 238.464 256.058 242.895C258.894 247.377 261.673 251.911 264.215 256.564C269.288 265.874 274.038 275.333 278.503 284.929C280.794 289.694 282.92 294.541 285.119 299.351C287.235 304.202 289.415 309.019 291.465 313.893C299.784 333.338 307.624 352.978 315.038 372.784C322.477 392.569 329.471 412.527 335.914 432.664C332.568 422.641 329.066 412.663 325.463 402.734C321.822 392.818 318.129 382.91 314.306 373.06C306.699 353.346 298.676 333.794 290.176 314.448C288.082 309.6 285.858 304.81 283.697 299.986C281.444 295.207 279.287 290.392 276.952 285.654C272.406 276.131 267.57 266.735 262.442 257.542C257.26 248.38 251.47 239.568 245.155 231.152C238.85 222.732 232.018 214.709 224.636 207.221C209.937 192.219 193.102 179.215 174.489 169.556C165.165 164.782 155.441 160.779 145.372 157.939C135.3 155.122 124.954 153.334 114.525 152.807C93.6758 151.804 72.621 155.89 53.7756 164.813C34.9814 173.73 18.276 187.301 6.63929 204.544L6.49209 202.263C22.8713 220.706 44.8073 234.108 68.5942 240.527C74.5546 242.103 80.6193 243.252 86.7336 243.972C92.8471 244.66 99.0223 244.893 105.179 244.658C117.488 244.179 129.717 241.87 141.313 237.759C147.113 235.708 152.747 233.199 158.138 230.26L160.158 229.159L162.13 227.958L166.057 225.538C168.567 223.763 171.162 222.108 173.542 220.154C176.007 218.319 178.294 216.257 180.62 214.246C181.759 213.217 182.841 212.122 183.956 211.058C184.507 210.524 185.074 210.004 185.605 209.444L187.186 207.758C188.222 206.626 189.33 205.543 190.313 204.354L193.316 200.844C194.299 199.655 195.223 198.423 196.187 197.209C197.157 196.014 198.061 194.757 198.956 193.503C202.614 188.524 205.93 183.29 209.054 177.942C212.205 172.607 215.109 167.101 217.897 161.541C223.495 150.422 228.522 138.981 233.767 127.602C238.998 116.217 244.397 104.847 250.605 93.8639C253.683 88.3601 257.051 82.9997 260.606 77.7661C264.16 72.5325 268.106 67.5457 272.24 62.7499C280.588 53.227 289.975 44.6344 300.145 37.0974C310.361 29.63 321.317 23.1584 332.893 18.0393C356.04 7.84611 381.247 2.28648 406.557 2.22127C431.848 2.13087 457.118 7.34216 480.351 17.3232L481.54 17.8318L481.484 19.1056C481.152 25.8708 480.513 32.6184 479.499 39.3179C478.404 46.0035 477.019 52.6325 475.234 59.1692C473.387 65.6849 471.261 72.118 468.756 78.3972C466.202 84.6616 463.395 90.8234 460.217 96.7957C447.517 120.691 429.629 141.747 408.225 158.201C386.821 174.656 361.947 186.578 335.681 192.759C309.439 199.008 281.827 199.336 255.462 193.787L254.19 193.525L254.831 192.406C262.165 179.523 268.214 165.929 274.49 152.425C280.79 138.956 287.321 125.468 295.784 113.137C304.172 100.779 314.64 89.8706 326.492 80.8375C332.429 76.3383 338.689 72.2515 345.236 68.7195C351.778 65.2004 358.602 62.1623 365.594 59.6467Z"/>
</mask>
<path d="M365.594 59.6467C358.623 62.2517 351.859 65.3653 345.362 68.9764C338.865 72.5875 332.684 76.7429 326.831 81.2977C315.154 90.4516 304.826 101.363 296.631 113.715C288.348 126.035 281.978 139.519 275.814 153.036C269.679 166.575 263.751 180.266 256.474 193.333L255.84 191.943C281.99 197.137 309.237 196.694 335.104 190.365C360.979 184.119 385.445 172.205 406.419 155.874C427.406 139.55 444.87 118.723 457.197 95.2009C469.529 71.6879 476.733 45.4754 477.761 18.9653L478.884 20.7511C456.098 11.0186 431.339 5.96745 406.583 6.10168C381.816 6.20728 357.138 11.7049 334.538 21.7102C323.229 26.7324 312.543 33.0845 302.573 40.3977C292.65 47.7803 283.499 56.1901 275.367 65.505C271.356 70.1915 267.531 75.037 264.057 80.1657C260.593 85.2908 257.303 90.5368 254.283 95.9652C248.199 106.785 242.875 118.063 237.678 129.425C232.469 140.78 227.362 152.239 221.699 163.478C218.868 169.097 215.91 174.665 212.699 180.099C209.503 185.548 206.106 190.887 202.343 195.991C201.417 197.278 200.491 198.565 199.489 199.792C198.504 201.036 197.549 202.301 196.531 203.513L193.425 207.125C192.41 208.347 191.267 209.453 190.19 210.622L188.554 212.361C188.004 212.928 187.411 213.468 186.844 214.019C185.685 215.11 184.572 216.237 183.392 217.303C180.985 219.387 178.613 221.512 176.059 223.4C173.591 225.408 170.901 227.13 168.303 228.959L164.23 231.453L162.185 232.692L160.083 233.833C154.489 236.868 148.655 239.449 142.651 241.563C130.653 245.787 118.02 248.145 105.319 248.616C98.9666 248.847 92.6014 248.596 86.2911 247.871C79.9799 247.114 73.7244 245.916 67.5923 244.284C43.0796 237.62 20.5479 223.797 3.69981 204.746L2.7428 203.656L3.55261 202.466C15.6493 184.645 32.8892 170.642 52.2741 161.598C71.6877 152.544 93.3565 148.484 114.695 149.644C125.366 150.245 135.947 152.143 146.211 155.074C156.467 158.041 166.355 162.167 175.804 167.08C194.668 177.015 211.623 190.289 226.399 205.533C233.813 213.139 240.667 221.284 246.982 229.819C250.175 234.063 253.143 238.464 256.058 242.895C258.894 247.377 261.673 251.911 264.215 256.564C269.288 265.874 274.038 275.333 278.503 284.929C280.794 289.694 282.92 294.541 285.119 299.351C287.235 304.202 289.415 309.019 291.465 313.893C299.784 333.338 307.624 352.978 315.038 372.784C322.477 392.569 329.471 412.527 335.914 432.664C332.568 422.641 329.066 412.663 325.463 402.734C321.822 392.818 318.129 382.91 314.306 373.06C306.699 353.346 298.676 333.794 290.176 314.448C288.082 309.6 285.858 304.81 283.697 299.986C281.444 295.207 279.287 290.392 276.952 285.654C272.406 276.131 267.57 266.735 262.442 257.542C257.26 248.38 251.47 239.568 245.155 231.152C238.85 222.732 232.018 214.709 224.636 207.221C209.937 192.219 193.102 179.215 174.489 169.556C165.165 164.782 155.441 160.779 145.372 157.939C135.3 155.122 124.954 153.334 114.525 152.807C93.6758 151.804 72.621 155.89 53.7756 164.813C34.9814 173.73 18.276 187.301 6.63929 204.544L6.49209 202.263C22.8713 220.706 44.8073 234.108 68.5942 240.527C74.5546 242.103 80.6193 243.252 86.7336 243.972C92.8471 244.66 99.0223 244.893 105.179 244.658C117.488 244.179 129.717 241.87 141.313 237.759C147.113 235.708 152.747 233.199 158.138 230.26L160.158 229.159L162.13 227.958L166.057 225.538C168.567 223.763 171.162 222.108 173.542 220.154C176.007 218.319 178.294 216.257 180.62 214.246C181.759 213.217 182.841 212.122 183.956 211.058C184.507 210.524 185.074 210.004 185.605 209.444L187.186 207.758C188.222 206.626 189.33 205.543 190.313 204.354L193.316 200.844C194.299 199.655 195.223 198.423 196.187 197.209C197.157 196.014 198.061 194.757 198.956 193.503C202.614 188.524 205.93 183.29 209.054 177.942C212.205 172.607 215.109 167.101 217.897 161.541C223.495 150.422 228.522 138.981 233.767 127.602C238.998 116.217 244.397 104.847 250.605 93.8639C253.683 88.3601 257.051 82.9997 260.606 77.7661C264.16 72.5325 268.106 67.5457 272.24 62.7499C280.588 53.227 289.975 44.6344 300.145 37.0974C310.361 29.63 321.317 23.1584 332.893 18.0393C356.04 7.84611 381.247 2.28648 406.557 2.22127C431.848 2.13087 457.118 7.34216 480.351 17.3232L481.54 17.8318L481.484 19.1056C481.152 25.8708 480.513 32.6184 479.499 39.3179C478.404 46.0035 477.019 52.6325 475.234 59.1692C473.387 65.6849 471.261 72.118 468.756 78.3972C466.202 84.6616 463.395 90.8234 460.217 96.7957C447.517 120.691 429.629 141.747 408.225 158.201C386.821 174.656 361.947 186.578 335.681 192.759C309.439 199.008 281.827 199.336 255.462 193.787L254.19 193.525L254.831 192.406C262.165 179.523 268.214 165.929 274.49 152.425C280.79 138.956 287.321 125.468 295.784 113.137C304.172 100.779 314.64 89.8706 326.492 80.8375C332.429 76.3383 338.689 72.2515 345.236 68.7195C351.778 65.2004 358.602 62.1623 365.594 59.6467Z" fill="url(#paint0_linear_300_67)" fill-opacity="0.12"/>
<path d="M365.594 59.6467C358.623 62.2517 351.859 65.3653 345.362 68.9764C338.865 72.5875 332.684 76.7429 326.831 81.2977C315.154 90.4516 304.826 101.363 296.631 113.715C288.348 126.035 281.978 139.519 275.814 153.036C269.679 166.575 263.751 180.266 256.474 193.333L255.84 191.943C281.99 197.137 309.237 196.694 335.104 190.365C360.979 184.119 385.445 172.205 406.419 155.874C427.406 139.55 444.87 118.723 457.197 95.2009C469.529 71.6879 476.733 45.4754 477.761 18.9653L478.884 20.7511C456.098 11.0186 431.339 5.96745 406.583 6.10168C381.816 6.20728 357.138 11.7049 334.538 21.7102C323.229 26.7324 312.543 33.0845 302.573 40.3977C292.65 47.7803 283.499 56.1901 275.367 65.505C271.356 70.1915 267.531 75.037 264.057 80.1657C260.593 85.2908 257.303 90.5368 254.283 95.9652C248.199 106.785 242.875 118.063 237.678 129.425C232.469 140.78 227.362 152.239 221.699 163.478C218.868 169.097 215.91 174.665 212.699 180.099C209.503 185.548 206.106 190.887 202.343 195.991C201.417 197.278 200.491 198.565 199.489 199.792C198.504 201.036 197.549 202.301 196.531 203.513L193.425 207.125C192.41 208.347 191.267 209.453 190.19 210.622L188.554 212.361C188.004 212.928 187.411 213.468 186.844 214.019C185.685 215.11 184.572 216.237 183.392 217.303C180.985 219.387 178.613 221.512 176.059 223.4C173.591 225.408 170.901 227.13 168.303 228.959L164.23 231.453L162.185 232.692L160.083 233.833C154.489 236.868 148.655 239.449 142.651 241.563C130.653 245.787 118.02 248.145 105.319 248.616C98.9666 248.847 92.6014 248.596 86.2911 247.871C79.9799 247.114 73.7244 245.916 67.5923 244.284C43.0796 237.62 20.5479 223.797 3.69981 204.746L2.7428 203.656L3.55261 202.466C15.6493 184.645 32.8892 170.642 52.2741 161.598C71.6877 152.544 93.3565 148.484 114.695 149.644C125.366 150.245 135.947 152.143 146.211 155.074C156.467 158.041 166.355 162.167 175.804 167.08C194.668 177.015 211.623 190.289 226.399 205.533C233.813 213.139 240.667 221.284 246.982 229.819C250.175 234.063 253.143 238.464 256.058 242.895C258.894 247.377 261.673 251.911 264.215 256.564C269.288 265.874 274.038 275.333 278.503 284.929C280.794 289.694 282.92 294.541 285.119 299.351C287.235 304.202 289.415 309.019 291.465 313.893C299.784 333.338 307.624 352.978 315.038 372.784C322.477 392.569 329.471 412.527 335.914 432.664C332.568 422.641 329.066 412.663 325.463 402.734C321.822 392.818 318.129 382.91 314.306 373.06C306.699 353.346 298.676 333.794 290.176 314.448C288.082 309.6 285.858 304.81 283.697 299.986C281.444 295.207 279.287 290.392 276.952 285.654C272.406 276.131 267.57 266.735 262.442 257.542C257.26 248.38 251.47 239.568 245.155 231.152C238.85 222.732 232.018 214.709 224.636 207.221C209.937 192.219 193.102 179.215 174.489 169.556C165.165 164.782 155.441 160.779 145.372 157.939C135.3 155.122 124.954 153.334 114.525 152.807C93.6758 151.804 72.621 155.89 53.7756 164.813C34.9814 173.73 18.276 187.301 6.63929 204.544L6.49209 202.263C22.8713 220.706 44.8073 234.108 68.5942 240.527C74.5546 242.103 80.6193 243.252 86.7336 243.972C92.8471 244.66 99.0223 244.893 105.179 244.658C117.488 244.179 129.717 241.87 141.313 237.759C147.113 235.708 152.747 233.199 158.138 230.26L160.158 229.159L162.13 227.958L166.057 225.538C168.567 223.763 171.162 222.108 173.542 220.154C176.007 218.319 178.294 216.257 180.62 214.246C181.759 213.217 182.841 212.122 183.956 211.058C184.507 210.524 185.074 210.004 185.605 209.444L187.186 207.758C188.222 206.626 189.33 205.543 190.313 204.354L193.316 200.844C194.299 199.655 195.223 198.423 196.187 197.209C197.157 196.014 198.061 194.757 198.956 193.503C202.614 188.524 205.93 183.29 209.054 177.942C212.205 172.607 215.109 167.101 217.897 161.541C223.495 150.422 228.522 138.981 233.767 127.602C238.998 116.217 244.397 104.847 250.605 93.8639C253.683 88.3601 257.051 82.9997 260.606 77.7661C264.16 72.5325 268.106 67.5457 272.24 62.7499C280.588 53.227 289.975 44.6344 300.145 37.0974C310.361 29.63 321.317 23.1584 332.893 18.0393C356.04 7.84611 381.247 2.28648 406.557 2.22127C431.848 2.13087 457.118 7.34216 480.351 17.3232L481.54 17.8318L481.484 19.1056C481.152 25.8708 480.513 32.6184 479.499 39.3179C478.404 46.0035 477.019 52.6325 475.234 59.1692C473.387 65.6849 471.261 72.118 468.756 78.3972C466.202 84.6616 463.395 90.8234 460.217 96.7957C447.517 120.691 429.629 141.747 408.225 158.201C386.821 174.656 361.947 186.578 335.681 192.759C309.439 199.008 281.827 199.336 255.462 193.787L254.19 193.525L254.831 192.406C262.165 179.523 268.214 165.929 274.49 152.425C280.79 138.956 287.321 125.468 295.784 113.137C304.172 100.779 314.64 89.8706 326.492 80.8375C332.429 76.3383 338.689 72.2515 345.236 68.7195C351.778 65.2004 358.602 62.1623 365.594 59.6467Z" stroke="url(#paint1_linear_300_67)" stroke-opacity="0.12" stroke-width="2.92571" mask="url(#path-1-outside-1_300_67)"/>
<defs>
<linearGradient id="paint0_linear_300_67" x1="6.51717" y1="214.057" x2="520.436" y2="79.7787" gradientUnits="userSpaceOnUse">
<stop stop-color="#0B3F01"/>
<stop offset="1" stop-color="#73E75F"/>
</linearGradient>
<linearGradient id="paint1_linear_300_67" x1="6.51717" y1="214.057" x2="520.436" y2="79.7787" gradientUnits="userSpaceOnUse">
<stop stop-color="#0B3F01"/>
<stop offset="1" stop-color="#73E75F"/>
</linearGradient>
</defs>
</svg>
