<svg width="40" height="40" viewBox="0 0 40 40" fill="none" xmlns="http://www.w3.org/2000/svg">
<rect width="40" height="40" rx="20" fill="#419FD9"/>
<rect width="40" height="40" rx="20" fill="url(#paint0_linear_300_1049)"/>
<path d="M8.98947 19.5565C14.8056 16.9693 18.6839 15.2636 20.6244 14.4395C26.165 12.0866 27.3162 11.6778 28.0666 11.6642C28.2317 11.6614 28.6007 11.7031 28.8397 11.9012C29.0416 12.0684 29.0971 12.2943 29.1237 12.4528C29.1502 12.6114 29.1833 12.9725 29.157 13.2547C28.8568 16.4757 27.5576 24.2923 26.8967 27.8999C26.617 29.4264 26.0663 29.9382 25.5332 29.9883C24.3746 30.0972 23.4949 29.2065 22.3727 28.4555C20.6168 27.2803 19.6248 26.5487 17.9204 25.4019C15.9506 24.0765 17.2275 23.3481 18.3501 22.1577C18.6439 21.8461 23.7486 17.1053 23.8474 16.6753C23.8598 16.6215 23.8712 16.421 23.7546 16.3151C23.6379 16.2093 23.4657 16.2455 23.3415 16.2743C23.1654 16.3151 20.3603 18.2081 14.9261 21.9534C14.1299 22.5117 13.4087 22.7837 12.7625 22.7694C12.0502 22.7537 10.6799 22.3582 9.66122 22.0201C8.4118 21.6054 7.41878 21.3862 7.50525 20.6819C7.55029 20.3151 8.04503 19.94 8.98947 19.5565Z" fill="white"/>
<defs>
<linearGradient id="paint0_linear_300_1049" x1="20" y1="0" x2="20" y2="39.7032" gradientUnits="userSpaceOnUse">
<stop stop-color="#2AABEE"/>
<stop offset="1" stop-color="#229ED9"/>
</linearGradient>
</defs>
</svg>
