<svg width="20" height="20" viewBox="0 0 20 20" fill="none" xmlns="http://www.w3.org/2000/svg">
<path d="M6.61598 2.04567C6.38164 2.28008 6.25 2.59797 6.25 2.92942C6.25 3.26088 6.38164 3.57876 6.61598 3.81317L12.8035 10.0007L6.61598 16.1882C6.38829 16.4239 6.26229 16.7397 6.26514 17.0674C6.26799 17.3952 6.39945 17.7087 6.63121 17.9404C6.86297 18.1722 7.17649 18.3037 7.50423 18.3065C7.83198 18.3094 8.14773 18.1834 8.38348 17.9557L15.4547 10.8844C15.6891 10.65 15.8207 10.3321 15.8207 10.0007C15.8207 9.66922 15.6891 9.35133 15.4547 9.11692L8.38348 2.04567C8.14907 1.81133 7.83119 1.67969 7.49973 1.67969C7.16828 1.67969 6.85039 1.81133 6.61598 2.04567Z" fill="white"/>
</svg>
