<svg width="40" height="40" viewBox="0 0 40 40" fill="none" xmlns="http://www.w3.org/2000/svg">
<rect width="40" height="40" rx="20" fill="#1DA1F2"/>
<path d="M29.8027 15.6797C29.8027 15.8984 29.8027 16.1172 29.8027 16.3047C29.8027 22.7734 24.8652 30.2422 15.8652 30.2422C13.084 30.2422 10.5215 29.4297 8.33398 28.0547C8.70898 28.0859 9.11523 28.1172 9.49023 28.1172C11.7715 28.1172 13.8965 27.3359 15.584 26.0234C13.4277 25.9922 11.6152 24.5547 11.0215 22.6172C11.334 22.6797 11.6152 22.7109 11.959 22.7109C12.3965 22.7109 12.834 22.6484 13.2402 22.5234C10.9902 22.0859 9.30273 20.1172 9.30273 17.7422C9.30273 17.7109 9.30273 17.7109 9.30273 17.6797C9.95898 18.0547 10.709 18.2734 11.5215 18.3047C10.209 17.4297 9.33398 15.9297 9.33398 14.2109C9.33398 13.3047 9.58398 12.4609 9.99023 11.7422C12.3965 14.7109 16.0215 16.6484 20.084 16.8672C19.9902 16.5234 19.959 16.1172 19.959 15.7422C19.959 13.0234 22.1465 10.8359 24.8652 10.8359C26.2715 10.8359 27.5527 11.4297 28.4277 12.3672C29.5527 12.1484 30.584 11.7422 31.5527 11.1797C31.1777 12.3359 30.3965 13.2734 29.3965 13.8984C30.3965 13.7734 31.334 13.5234 32.209 13.1172C31.584 14.1172 30.7715 14.9922 29.8027 15.6797Z" fill="white"/>
</svg>
