<svg width="430" height="605" viewBox="0 0 430 605" fill="none" xmlns="http://www.w3.org/2000/svg">
<mask id="path-1-outside-1_300_95" maskUnits="userSpaceOnUse" x="-106.085" y="130.803" width="431.013" height="426.883" fill="black">
<rect fill="white" x="-106.085" y="130.803" width="431.013" height="426.883"/>
<path d="M240.319 334.649C236.663 331.307 232.769 328.242 228.661 325.485C224.553 322.728 220.218 320.324 215.746 318.235C206.783 314.087 197.188 311.271 187.385 310.156C177.575 308.979 167.654 309.288 157.776 309.729C147.894 310.195 137.985 310.828 128.036 310.474L128.668 309.677C133.51 326.748 142.026 342.762 153.612 356.175C165.152 369.618 179.624 380.509 195.655 387.993C211.687 395.486 229.32 399.527 246.995 399.708C264.665 399.894 282.382 396.224 298.405 388.803L297.687 390.01C296.553 373.557 292.047 357.354 284.468 342.723C276.904 328.077 266.17 315.116 253.395 304.753C246.993 299.572 239.991 295.163 232.637 291.469C225.256 287.824 217.5 284.949 209.516 282.951C205.524 281.993 201.494 281.194 197.402 280.689C193.315 280.188 189.209 279.827 185.078 279.682C176.822 279.353 168.526 279.614 160.218 279.976C151.91 280.328 143.572 280.772 135.196 280.821C131.008 280.845 126.812 280.779 122.619 280.521C118.422 280.278 114.229 279.882 110.064 279.198C109.021 279.039 107.977 278.88 106.946 278.658C105.911 278.451 104.872 278.268 103.845 278.032L100.764 277.285C99.7322 277.054 98.7304 276.712 97.7115 276.427L96.185 275.984C95.6823 275.83 95.1832 275.642 94.6848 275.473C93.6873 275.117 92.6816 274.798 91.693 274.422C89.7286 273.626 87.751 272.865 85.858 271.923C83.9203 271.069 82.0849 269.996 80.2143 269.01L77.5025 267.351L76.1487 266.515L74.8358 265.615C71.3427 263.219 68.0455 260.543 64.9741 257.625C58.8363 251.794 53.6125 245.022 49.4861 237.637C47.4252 233.942 45.6459 230.093 44.164 226.134C42.7008 222.164 41.5162 218.094 40.6261 213.965C37.1505 197.419 38.5175 179.879 44.7047 164.123L45.0607 163.226L46.0116 163.345C60.237 165.116 73.7581 171.092 84.9899 179.841C96.2366 188.604 105.206 200.216 110.982 213.214C113.859 219.72 115.939 226.566 117.311 233.537C118.659 240.514 119.208 247.624 119.159 254.712C118.986 268.901 116.254 282.971 111.696 296.345C109.433 303.043 106.682 309.572 103.537 315.9C101.989 319.078 100.28 322.17 98.5364 325.24C96.7394 328.278 94.894 331.299 92.9062 334.214C88.9257 340.041 84.7583 345.722 80.4239 351.274C78.2935 354.075 76.0648 356.804 73.8803 359.564C71.6468 362.287 69.4524 365.038 67.1842 367.73C58.1803 378.55 48.9152 389.146 39.423 399.539C29.9502 409.941 20.2406 420.131 10.2584 430.049C15.1852 425.03 20.0376 419.932 24.831 414.789C29.6046 409.628 34.3581 404.438 39.0378 399.189C48.417 388.709 57.574 378.031 66.4653 367.134C68.7041 364.424 70.8692 361.655 73.0734 358.913C75.2236 356.131 77.4233 353.394 79.5244 350.574C83.791 344.996 87.8951 339.284 91.7896 333.46C95.6499 327.614 99.1188 321.513 102.194 315.221C105.273 308.934 107.959 302.455 110.161 295.811C114.599 282.556 117.207 268.639 117.294 254.683C117.299 247.711 116.725 240.735 115.358 233.907C113.977 227.085 111.903 220.411 109.056 214.071C103.335 201.411 94.5364 190.171 83.5392 181.705C72.5621 173.267 59.4587 167.478 45.715 165.804L47.0219 165.026C41.0529 180.32 39.7551 197.379 43.1557 213.421C44.0274 217.431 45.1836 221.373 46.6088 225.215C48.0528 229.047 49.785 232.777 51.7892 236.355C55.8021 243.505 60.8747 250.053 66.8237 255.68C69.7959 258.496 72.9893 261.075 76.3644 263.38L77.6283 264.244L78.9378 265.048L81.5614 266.643C83.3733 267.593 85.1405 268.63 87.0196 269.448C88.854 270.353 90.7683 271.084 92.6648 271.853C93.6195 272.216 94.5962 272.526 95.5644 272.865C96.0483 273.029 96.528 273.208 97.0208 273.353L98.4989 273.779C99.4838 274.05 100.461 274.379 101.464 274.601L104.453 275.318C105.456 275.54 106.466 275.715 107.477 275.918C108.479 276.131 109.498 276.286 110.513 276.437C114.571 277.096 118.678 277.477 122.793 277.708C126.91 277.959 131.053 278.013 135.192 277.981C143.477 277.931 151.781 277.445 160.113 277.106C168.445 276.758 176.819 276.513 185.209 276.866C189.403 277.023 193.6 277.395 197.778 277.916C201.957 278.437 206.108 279.266 210.202 280.263C218.374 282.326 226.31 285.286 233.857 289.03C241.378 292.823 248.532 297.356 255.072 302.666C268.125 313.297 279.055 326.551 286.76 341.532C294.474 356.493 299.041 373.048 300.163 389.841L300.221 390.699L299.449 391.052C295.34 392.905 291.147 394.569 286.869 395.998C282.575 397.374 278.227 398.562 273.812 399.483C269.391 400.362 264.935 401.051 260.455 401.469C255.968 401.852 251.466 402.055 246.964 401.981C228.956 401.692 211.058 397.469 194.823 389.768C178.588 382.067 163.988 370.936 152.368 357.242C140.716 343.583 132.158 327.317 127.46 310.011L127.23 309.178L128.088 309.219C137.944 309.663 147.833 309.13 157.737 308.76C167.628 308.414 177.6 308.198 187.471 309.479C197.336 310.707 206.972 313.607 215.916 317.894C220.38 320.05 224.699 322.522 228.775 325.333C232.842 328.143 236.71 331.267 240.319 334.649Z"/>
</mask>
<path d="M240.319 334.649C236.663 331.307 232.769 328.242 228.661 325.485C224.553 322.728 220.218 320.324 215.746 318.235C206.783 314.087 197.188 311.271 187.385 310.156C177.575 308.979 167.654 309.288 157.776 309.729C147.894 310.195 137.985 310.828 128.036 310.474L128.668 309.677C133.51 326.748 142.026 342.762 153.612 356.175C165.152 369.618 179.624 380.509 195.655 387.993C211.687 395.486 229.32 399.527 246.995 399.708C264.665 399.894 282.382 396.224 298.405 388.803L297.687 390.01C296.553 373.557 292.047 357.354 284.468 342.723C276.904 328.077 266.17 315.116 253.395 304.753C246.993 299.572 239.991 295.163 232.637 291.469C225.256 287.824 217.5 284.949 209.516 282.951C205.524 281.993 201.494 281.194 197.402 280.689C193.315 280.188 189.209 279.827 185.078 279.682C176.822 279.353 168.526 279.614 160.218 279.976C151.91 280.328 143.572 280.772 135.196 280.821C131.008 280.845 126.812 280.779 122.619 280.521C118.422 280.278 114.229 279.882 110.064 279.198C109.021 279.039 107.977 278.88 106.946 278.658C105.911 278.451 104.872 278.268 103.845 278.032L100.764 277.285C99.7322 277.054 98.7304 276.712 97.7115 276.427L96.185 275.984C95.6823 275.83 95.1832 275.642 94.6848 275.473C93.6873 275.117 92.6816 274.798 91.693 274.422C89.7286 273.626 87.751 272.865 85.858 271.923C83.9203 271.069 82.0849 269.996 80.2143 269.01L77.5025 267.351L76.1487 266.515L74.8358 265.615C71.3427 263.219 68.0455 260.543 64.9741 257.625C58.8363 251.794 53.6125 245.022 49.4861 237.637C47.4252 233.942 45.6459 230.093 44.164 226.134C42.7008 222.164 41.5162 218.094 40.6261 213.965C37.1505 197.419 38.5175 179.879 44.7047 164.123L45.0607 163.226L46.0116 163.345C60.237 165.116 73.7581 171.092 84.9899 179.841C96.2366 188.604 105.206 200.216 110.982 213.214C113.859 219.72 115.939 226.566 117.311 233.537C118.659 240.514 119.208 247.624 119.159 254.712C118.986 268.901 116.254 282.971 111.696 296.345C109.433 303.043 106.682 309.572 103.537 315.9C101.989 319.078 100.28 322.17 98.5364 325.24C96.7394 328.278 94.894 331.299 92.9062 334.214C88.9257 340.041 84.7583 345.722 80.4239 351.274C78.2935 354.075 76.0648 356.804 73.8803 359.564C71.6468 362.287 69.4524 365.038 67.1842 367.73C58.1803 378.55 48.9152 389.146 39.423 399.539C29.9502 409.941 20.2406 420.131 10.2584 430.049C15.1852 425.03 20.0376 419.932 24.831 414.789C29.6046 409.628 34.3581 404.438 39.0378 399.189C48.417 388.709 57.574 378.031 66.4653 367.134C68.7041 364.424 70.8692 361.655 73.0734 358.913C75.2236 356.131 77.4233 353.394 79.5244 350.574C83.791 344.996 87.8951 339.284 91.7896 333.46C95.6499 327.614 99.1188 321.513 102.194 315.221C105.273 308.934 107.959 302.455 110.161 295.811C114.599 282.556 117.207 268.639 117.294 254.683C117.299 247.711 116.725 240.735 115.358 233.907C113.977 227.085 111.903 220.411 109.056 214.071C103.335 201.411 94.5364 190.171 83.5392 181.705C72.5621 173.267 59.4587 167.478 45.715 165.804L47.0219 165.026C41.0529 180.32 39.7551 197.379 43.1557 213.421C44.0274 217.431 45.1836 221.373 46.6088 225.215C48.0528 229.047 49.785 232.777 51.7892 236.355C55.8021 243.505 60.8747 250.053 66.8237 255.68C69.7959 258.496 72.9893 261.075 76.3644 263.38L77.6283 264.244L78.9378 265.048L81.5614 266.643C83.3733 267.593 85.1405 268.63 87.0196 269.448C88.854 270.353 90.7683 271.084 92.6648 271.853C93.6195 272.216 94.5962 272.526 95.5644 272.865C96.0483 273.029 96.528 273.208 97.0208 273.353L98.4989 273.779C99.4838 274.05 100.461 274.379 101.464 274.601L104.453 275.318C105.456 275.54 106.466 275.715 107.477 275.918C108.479 276.131 109.498 276.286 110.513 276.437C114.571 277.096 118.678 277.477 122.793 277.708C126.91 277.959 131.053 278.013 135.192 277.981C143.477 277.931 151.781 277.445 160.113 277.106C168.445 276.758 176.819 276.513 185.209 276.866C189.403 277.023 193.6 277.395 197.778 277.916C201.957 278.437 206.108 279.266 210.202 280.263C218.374 282.326 226.31 285.286 233.857 289.03C241.378 292.823 248.532 297.356 255.072 302.666C268.125 313.297 279.055 326.551 286.76 341.532C294.474 356.493 299.041 373.048 300.163 389.841L300.221 390.699L299.449 391.052C295.34 392.905 291.147 394.569 286.869 395.998C282.575 397.374 278.227 398.562 273.812 399.483C269.391 400.362 264.935 401.051 260.455 401.469C255.968 401.852 251.466 402.055 246.964 401.981C228.956 401.692 211.058 397.469 194.823 389.768C178.588 382.067 163.988 370.936 152.368 357.242C140.716 343.583 132.158 327.317 127.46 310.011L127.23 309.178L128.088 309.219C137.944 309.663 147.833 309.13 157.737 308.76C167.628 308.414 177.6 308.198 187.471 309.479C197.336 310.707 206.972 313.607 215.916 317.894C220.38 320.05 224.699 322.522 228.775 325.333C232.842 328.143 236.71 331.267 240.319 334.649Z" fill="url(#paint0_linear_300_95)" fill-opacity="0.12"/>
<path d="M240.319 334.649C236.663 331.307 232.769 328.242 228.661 325.485C224.553 322.728 220.218 320.324 215.746 318.235C206.783 314.087 197.188 311.271 187.385 310.156C177.575 308.979 167.654 309.288 157.776 309.729C147.894 310.195 137.985 310.828 128.036 310.474L128.668 309.677C133.51 326.748 142.026 342.762 153.612 356.175C165.152 369.618 179.624 380.509 195.655 387.993C211.687 395.486 229.32 399.527 246.995 399.708C264.665 399.894 282.382 396.224 298.405 388.803L297.687 390.01C296.553 373.557 292.047 357.354 284.468 342.723C276.904 328.077 266.17 315.116 253.395 304.753C246.993 299.572 239.991 295.163 232.637 291.469C225.256 287.824 217.5 284.949 209.516 282.951C205.524 281.993 201.494 281.194 197.402 280.689C193.315 280.188 189.209 279.827 185.078 279.682C176.822 279.353 168.526 279.614 160.218 279.976C151.91 280.328 143.572 280.772 135.196 280.821C131.008 280.845 126.812 280.779 122.619 280.521C118.422 280.278 114.229 279.882 110.064 279.198C109.021 279.039 107.977 278.88 106.946 278.658C105.911 278.451 104.872 278.268 103.845 278.032L100.764 277.285C99.7322 277.054 98.7304 276.712 97.7115 276.427L96.185 275.984C95.6823 275.83 95.1832 275.642 94.6848 275.473C93.6873 275.117 92.6816 274.798 91.693 274.422C89.7286 273.626 87.751 272.865 85.858 271.923C83.9203 271.069 82.0849 269.996 80.2143 269.01L77.5025 267.351L76.1487 266.515L74.8358 265.615C71.3427 263.219 68.0455 260.543 64.9741 257.625C58.8363 251.794 53.6125 245.022 49.4861 237.637C47.4252 233.942 45.6459 230.093 44.164 226.134C42.7008 222.164 41.5162 218.094 40.6261 213.965C37.1505 197.419 38.5175 179.879 44.7047 164.123L45.0607 163.226L46.0116 163.345C60.237 165.116 73.7581 171.092 84.9899 179.841C96.2366 188.604 105.206 200.216 110.982 213.214C113.859 219.72 115.939 226.566 117.311 233.537C118.659 240.514 119.208 247.624 119.159 254.712C118.986 268.901 116.254 282.971 111.696 296.345C109.433 303.043 106.682 309.572 103.537 315.9C101.989 319.078 100.28 322.17 98.5364 325.24C96.7394 328.278 94.894 331.299 92.9062 334.214C88.9257 340.041 84.7583 345.722 80.4239 351.274C78.2935 354.075 76.0648 356.804 73.8803 359.564C71.6468 362.287 69.4524 365.038 67.1842 367.73C58.1803 378.55 48.9152 389.146 39.423 399.539C29.9502 409.941 20.2406 420.131 10.2584 430.049C15.1852 425.03 20.0376 419.932 24.831 414.789C29.6046 409.628 34.3581 404.438 39.0378 399.189C48.417 388.709 57.574 378.031 66.4653 367.134C68.7041 364.424 70.8692 361.655 73.0734 358.913C75.2236 356.131 77.4233 353.394 79.5244 350.574C83.791 344.996 87.8951 339.284 91.7896 333.46C95.6499 327.614 99.1188 321.513 102.194 315.221C105.273 308.934 107.959 302.455 110.161 295.811C114.599 282.556 117.207 268.639 117.294 254.683C117.299 247.711 116.725 240.735 115.358 233.907C113.977 227.085 111.903 220.411 109.056 214.071C103.335 201.411 94.5364 190.171 83.5392 181.705C72.5621 173.267 59.4587 167.478 45.715 165.804L47.0219 165.026C41.0529 180.32 39.7551 197.379 43.1557 213.421C44.0274 217.431 45.1836 221.373 46.6088 225.215C48.0528 229.047 49.785 232.777 51.7892 236.355C55.8021 243.505 60.8747 250.053 66.8237 255.68C69.7959 258.496 72.9893 261.075 76.3644 263.38L77.6283 264.244L78.9378 265.048L81.5614 266.643C83.3733 267.593 85.1405 268.63 87.0196 269.448C88.854 270.353 90.7683 271.084 92.6648 271.853C93.6195 272.216 94.5962 272.526 95.5644 272.865C96.0483 273.029 96.528 273.208 97.0208 273.353L98.4989 273.779C99.4838 274.05 100.461 274.379 101.464 274.601L104.453 275.318C105.456 275.54 106.466 275.715 107.477 275.918C108.479 276.131 109.498 276.286 110.513 276.437C114.571 277.096 118.678 277.477 122.793 277.708C126.91 277.959 131.053 278.013 135.192 277.981C143.477 277.931 151.781 277.445 160.113 277.106C168.445 276.758 176.819 276.513 185.209 276.866C189.403 277.023 193.6 277.395 197.778 277.916C201.957 278.437 206.108 279.266 210.202 280.263C218.374 282.326 226.31 285.286 233.857 289.03C241.378 292.823 248.532 297.356 255.072 302.666C268.125 313.297 279.055 326.551 286.76 341.532C294.474 356.493 299.041 373.048 300.163 389.841L300.221 390.699L299.449 391.052C295.34 392.905 291.147 394.569 286.869 395.998C282.575 397.374 278.227 398.562 273.812 399.483C269.391 400.362 264.935 401.051 260.455 401.469C255.968 401.852 251.466 402.055 246.964 401.981C228.956 401.692 211.058 397.469 194.823 389.768C178.588 382.067 163.988 370.936 152.368 357.242C140.716 343.583 132.158 327.317 127.46 310.011L127.23 309.178L128.088 309.219C137.944 309.663 147.833 309.13 157.737 308.76C167.628 308.414 177.6 308.198 187.471 309.479C197.336 310.707 206.972 313.607 215.916 317.894C220.38 320.05 224.699 322.522 228.775 325.333C232.842 328.143 236.71 331.267 240.319 334.649Z" stroke="url(#paint1_linear_300_95)" stroke-opacity="0.12" stroke-width="1.94728" mask="url(#path-1-outside-1_300_95)"/>
<defs>
<linearGradient id="paint0_linear_300_95" x1="40.0396" y1="168.613" x2="275.29" y2="432.515" gradientUnits="userSpaceOnUse">
<stop stop-color="#0B3F01"/>
<stop offset="1" stop-color="#73E75F"/>
</linearGradient>
<linearGradient id="paint1_linear_300_95" x1="40.0396" y1="168.613" x2="275.29" y2="432.515" gradientUnits="userSpaceOnUse">
<stop stop-color="#0B3F01"/>
<stop offset="1" stop-color="#73E75F"/>
</linearGradient>
</defs>
</svg>
