<svg width="40" height="40" viewBox="0 0 40 40" fill="none" xmlns="http://www.w3.org/2000/svg">
<rect width="40" height="40" rx="20" fill="#FF0000"/>
<path fill-rule="evenodd" clip-rule="evenodd" d="M29.7816 11.7815C30.8525 12.0698 31.6968 12.9141 31.9851 13.985C32.5205 15.9413 32.4999 20.0187 32.4999 20.0187C32.4999 20.0187 32.4999 24.0755 31.9851 26.0319C31.6968 27.1027 30.8525 27.947 29.7816 28.2353C27.8253 28.7501 19.9999 28.7501 19.9999 28.7501C19.9999 28.7501 12.1952 28.7501 10.2183 28.2147C9.14744 27.9264 8.30313 27.0821 8.01482 26.0113C7.5 24.0755 7.5 19.9981 7.5 19.9981C7.5 19.9981 7.5 15.9413 8.01482 13.985C8.30313 12.9141 9.16803 12.0492 10.2183 11.7609C12.1746 11.2461 19.9999 11.2461 19.9999 11.2461C19.9999 11.2461 27.8253 11.2461 29.7816 11.7815ZM24.016 19.999L17.5087 23.7469V16.251L24.016 19.999Z" fill="white"/>
</svg>
